<svg width="72" height="38" viewBox="0 0 72 38" fill="none" xmlns="http://www.w3.org/2000/svg">
<path d="M31.6945 28.2654C36.5939 28.6118 39.9686 28.7795 44.8792 28.936C45.1034 19.9948 45.3314 11.0797 45.5631 2.19067C45.5631 1.69891 45.5631 1.12891 45.1371 0.87185C44.908 0.757157 44.6532 0.703266 44.3971 0.715379C34.3367 0.49185 24.2837 0.596163 14.2383 1.02832L13.5432 1.21832C13.3937 9.84655 13.375 18.4748 13.4871 27.103H16.3236C16.3236 27.103 17.4448 23.8618 19.0144 22.9901C23.1962 20.6766 24.6761 20.9895 26.6942 21.5371C28.7123 22.0848 31.1788 25.4601 31.3021 26.0077C31.4254 26.5554 31.6945 28.243 31.6945 28.243" fill="#1D1D1B"></path>
<path d="M31.3248 28.8689C35.7084 29.1818 40.1033 29.3942 44.4982 29.5395C44.857 29.5395 45.866 29.3495 45.8772 28.8242C46.0865 20.2854 46.307 11.7466 46.5387 3.20773C46.5387 1.74361 46.7629 0.335378 44.9691 0.134201C42.9174 -0.0893283 40.7648 8.34601e-05 38.7019 8.34601e-05C34.4191 8.34601e-05 30.1401 0.0261619 25.8648 0.0783188C23.544 0.0783188 21.212 0.178907 18.8913 0.257142C17.0684 0.188943 15.2437 0.331461 13.4537 0.681848C13.207 0.748907 12.6128 0.983613 12.6016 1.33008C12.4596 9.95832 12.4596 18.5866 12.6016 27.2148C12.6016 27.5613 12.9043 27.7066 13.2295 27.7066H16.0548C16.3299 27.7378 16.6082 27.6864 16.8539 27.559C17.0996 27.4316 17.3015 27.2339 17.4338 26.9913C17.8118 25.5609 18.622 24.281 19.7545 23.3254C21.3243 22.1768 23.2663 21.651 25.2033 21.8501C26.9671 22.3021 28.5031 23.3839 29.5197 24.8901C29.9305 25.324 30.2472 25.8376 30.4503 26.3989C30.6409 27.0807 30.6969 27.8183 30.8202 28.5113C30.9436 29.2042 32.9392 28.7683 32.8047 27.986C32.7302 27.1655 32.5801 26.3537 32.3562 25.5607C31.9571 24.7278 31.4144 23.9713 30.753 23.3254C29.4262 21.7308 27.519 20.7259 25.45 20.5313C22.9713 20.4787 20.5391 21.2061 18.4989 22.6101C17.003 23.7576 15.9275 25.364 15.4381 27.1813L16.8171 26.466H13.9806L14.5973 26.9466C14.4254 18.3481 14.4179 9.73851 14.5748 1.11773L13.7228 1.76597C15.2649 1.49101 16.8331 1.38979 18.398 1.4642C20.2703 1.40832 22.1426 1.35244 24.0037 1.31891C27.8941 1.2295 31.8517 1.20714 35.7084 1.21832L41.3142 1.28538C42.0541 1.28538 43.5565 1.05067 44.2404 1.4642C44.9243 1.87773 44.5319 3.44244 44.5094 4.1242C44.4085 7.98008 44.3188 11.836 44.2179 15.6807C44.0984 20.1513 43.9825 24.6218 43.8704 29.0924C44.3301 28.8577 44.7897 28.623 45.2382 28.3771C40.8433 28.243 36.4521 28.0195 32.0647 27.7066C31.2463 27.6507 29.9682 28.8242 31.3136 28.9136" fill="#1D1D1B"></path>
<path d="M46.2019 6.70587L49.5653 6.61646C50.4623 6.61646 52.3122 6.18058 53.0185 6.82881C53.6679 7.60104 54.2143 8.45381 54.6441 9.36587L56.3595 12.1041C57.225 13.7275 58.4617 15.125 59.9696 16.1835C60.7432 16.6418 61.7186 16.7423 62.3688 17.4018C62.8535 17.9209 63.1393 18.5935 63.1761 19.3018C63.3106 20.9782 63.2433 22.7106 63.277 24.3982C63.1646 25.2365 63.1646 26.0859 63.277 26.9241C63.277 26.9241 63.277 27.1141 63.277 27.1476C62.9294 26.79 64.7793 27.1476 63.5236 26.9688C62.4426 26.9244 61.3597 26.958 60.2835 27.0694C59.2408 27.0694 58.6803 28.3323 60.0481 28.2876L62.8734 28.187C63.5465 28.2643 64.2266 28.1232 64.8129 27.7847C65.3287 27.3935 65.2726 26.9129 65.2614 26.3429L65.1493 20.8665C65.1493 19.257 65.2614 17.5694 63.9272 16.3959C63.3702 15.9898 62.7486 15.68 62.0886 15.4794C61.2144 15.0969 60.4453 14.5104 59.8463 13.7694C58.7662 12.3993 57.7918 10.9497 56.9313 9.43293L55.3393 6.61646C55.1862 6.29905 54.9637 6.01986 54.6882 5.79938C54.4127 5.5789 54.0912 5.42273 53.7472 5.34234C52.6926 5.23061 51.629 5.23061 50.5744 5.34234L46.9419 5.44293C46.5383 5.44293 45.8207 5.56587 45.6413 6.01293C45.462 6.45999 45.7759 6.68352 46.2019 6.67234" fill="#1D1D1B"></path>
<path d="M45.5181 28.7683C46.0093 28.7107 46.5034 28.6809 46.998 28.6789H46.6616C47.0129 28.6789 47.3605 28.6789 47.7043 28.6789C48.0633 28.7012 48.4222 28.632 48.747 28.4777C49.0271 28.372 49.2692 28.1852 49.4421 27.9413C49.5049 27.8427 49.5383 27.7284 49.5383 27.6116C49.5383 27.4948 49.5049 27.3804 49.4421 27.2819C49.2427 27.09 48.9791 26.9785 48.7021 26.9689C47.749 26.9073 46.7923 26.9298 45.8432 27.036C45.4867 27.074 45.1445 27.1966 44.8454 27.3936C44.7265 27.4624 44.6226 27.5542 44.5398 27.6636C44.457 27.773 44.397 27.8978 44.3633 28.0307C44.3633 28.6566 45.0696 28.8242 45.5517 28.7683" fill="#1D1D1B"></path>
<path d="M48.8257 6.43781C48.7135 7.91311 48.6687 9.3884 48.7023 10.9084C48.7023 11.6237 48.7023 12.339 48.792 13.0543C48.792 13.3784 48.792 13.7137 48.8593 14.0378C48.8463 14.3523 48.9368 14.6624 49.1172 14.9208C49.588 15.4237 50.5971 15.2449 51.2137 15.256H53.3887H57.8733C58.1241 15.2849 58.3781 15.2461 58.6087 15.1439C58.8394 15.0417 59.0384 14.8798 59.185 14.6749C59.3981 14.2725 58.9945 13.9484 58.6021 13.9484H54.5883H50.8437C50.7092 13.9484 50.7316 13.9484 50.911 14.0713C51.0904 14.1943 50.7652 12.3725 50.754 12.2049C50.754 11.5566 50.698 10.8972 50.698 10.2378C50.698 8.93016 50.698 7.61134 50.8213 6.30369C50.8998 5.36487 48.8817 5.68899 48.8257 6.49369" fill="#1D1D1B"></path>
<path d="M24.7214 22.6996C24.5577 22.6773 24.3917 22.6773 24.2281 22.6996C23.1366 22.7422 22.0681 23.0248 21.099 23.5272C20.1299 24.0295 19.2841 24.7393 18.6223 25.6055C18.0067 26.5544 17.7744 27.7004 17.9721 28.8132C17.9828 29.3316 18.062 29.8464 18.2075 30.3443C18.394 30.8395 18.6845 31.2891 19.0596 31.6632C19.9089 32.5157 20.983 33.1109 22.1577 33.3799C23.3323 33.6489 24.5594 33.5807 25.6968 33.1832C26.9901 32.8463 28.1436 32.111 28.9929 31.082C29.334 30.6009 29.5718 30.0548 29.6914 29.4778C29.811 28.9009 29.8099 28.3055 29.688 27.729C29.4751 26.4826 28.8818 25.332 27.989 24.434C27.0962 23.536 25.9473 22.9342 24.6989 22.7108L24.7214 22.6996ZM25.9546 28.8802C25.7165 29.3406 25.3178 29.6983 24.8335 29.8861C24.2443 30.1587 23.5782 30.218 22.95 30.0538C22.5713 29.957 22.2383 29.7317 22.0082 29.4167C21.8317 29.1368 21.7147 28.8237 21.6646 28.4969C21.6144 28.17 21.6322 27.8364 21.7167 27.5167C21.8192 27.1175 22.024 26.7516 22.3109 26.4549C22.583 26.1931 22.9073 25.9912 23.2626 25.8622C23.618 25.7332 23.9965 25.6801 24.3738 25.7061C24.6358 25.7056 24.8896 25.7965 25.0913 25.9632C25.2616 25.9963 25.4236 26.0627 25.5679 26.1586C25.7123 26.2545 25.8361 26.378 25.9322 26.522C26.1677 26.9195 26.2698 27.3815 26.2237 27.8408C26.2153 28.2042 26.1313 28.562 25.9771 28.8914" fill="#1D1D1B"></path>
<path d="M60.0483 27.1254C59.7201 25.7963 59.0384 24.5801 58.0751 23.6048C57.1963 22.7235 56.0564 22.1474 54.8238 21.9618L54.4874 21.8948C53.2947 21.8973 52.1202 22.1873 51.0641 22.74C50.008 23.2927 49.1016 24.0917 48.422 25.0689C47.8149 26.1282 47.6118 27.3705 47.8503 28.5671C47.8526 29.1155 47.9474 29.6595 48.1306 30.1765C48.3474 30.6944 48.6634 31.1652 49.0611 31.5624C49.9709 32.4565 51.1142 33.0782 52.3608 33.3567C53.6074 33.6353 54.9075 33.5596 56.1131 33.1383C57.461 32.755 58.6437 31.9375 59.4765 30.8136C59.8105 30.2769 60.0341 29.6794 60.1342 29.0558C60.2342 28.4322 60.2089 27.795 60.0595 27.1812L60.0483 27.1254ZM56.4719 27.863C56.4562 28.2358 56.3525 28.5995 56.1692 28.9248C55.7991 29.4512 55.2489 29.8248 54.622 29.9754C54.1736 30.1497 53.6854 30.196 53.2121 30.1091C52.7388 30.0223 52.2991 29.8057 51.9424 29.4836C51.715 29.2136 51.5614 28.8896 51.4965 28.543C51.4317 28.1964 51.4579 27.8389 51.5725 27.5054C51.701 27.1095 51.9379 26.7573 52.2564 26.4883C52.5474 26.2364 52.8869 26.0462 53.2542 25.9295C53.6136 25.8001 53.9932 25.7357 54.3753 25.7395C54.6294 25.732 54.8784 25.8108 55.0817 25.963C55.2439 25.9868 55.4022 26.0319 55.5525 26.0971C55.7571 26.1887 55.9375 26.3265 56.0795 26.4995C56.3474 26.8798 56.4633 27.3461 56.4046 27.8071" fill="#1D1D1B"></path>
<path d="M6.83873 8.06945C10.0452 8.21102 13.248 8.24082 16.447 8.15886C17.0187 8.15886 17.8484 7.72298 17.9157 7.04121C17.9829 6.35945 17.2093 6.16945 16.6936 6.1918C13.7226 6.27004 10.7403 6.1918 7.72444 6.11357C7.38952 6.0683 7.04862 6.12011 6.74245 6.26281C6.43628 6.4055 6.17779 6.63306 5.99787 6.91827C5.94396 7.04476 5.92345 7.18291 5.93828 7.31955C5.95312 7.45618 6.00281 7.58676 6.08262 7.69882C6.16243 7.81088 6.26971 7.9007 6.39422 7.95971C6.51873 8.01872 6.65632 8.04496 6.79389 8.03592" fill="#1D1D1B"></path>
<path d="M0.975164 12.8642C3.49774 12.7636 6.00911 12.73 8.53169 12.7412C8.94435 12.7649 9.35738 12.7015 9.74377 12.5551C10.1302 12.4087 10.4812 12.1827 10.774 11.8918C11.2112 11.2883 10.3143 11.1765 9.88827 11.1765C7.37691 11.1765 4.85433 11.1765 2.33175 11.2883C1.91981 11.2714 1.50871 11.338 1.12331 11.484C0.737906 11.63 0.386203 11.8524 0.0894587 12.1377C-0.381423 12.73 0.493071 12.92 0.930318 12.9089" fill="#1D1D1B"></path>
<path d="M4.40556 22.3529C7.84748 22.3529 11.2109 22.3529 14.5744 22.3529C15.5643 22.3718 16.5396 22.1123 17.3884 21.6041C17.5678 21.4923 17.9266 21.2688 17.8593 21.0118C17.792 20.7547 17.3324 20.7435 17.1642 20.7435C13.8008 20.7435 10.3813 20.7435 6.98419 20.7435C5.99581 20.7373 5.0239 20.9959 4.17012 21.4923C4.00195 21.6041 3.64318 21.8276 3.71045 22.0847C3.77772 22.3418 4.22617 22.3529 4.40556 22.3529" fill="#1D1D1B"></path>
<path d="M5.20165 37.4523C22.2879 34.7141 39.4751 38.57 56.6286 37.9217C61.4121 37.7667 66.171 37.1718 70.8448 36.1447C71.2596 36.0441 72.1229 35.6306 71.9659 35.027C71.8089 34.4235 70.8448 34.58 70.4524 34.6694C53.7585 38.4582 36.5937 34.8147 19.7317 34.8147C15.0016 34.8042 10.278 35.1667 5.60526 35.8988C5.12317 35.977 4.1814 36.2229 4.10292 36.8265C4.02444 37.43 4.84288 37.5194 5.22407 37.4523" fill="#1D1D1B"></path>
</svg>