<svg width="46" height="34" viewBox="0 0 46 34" fill="none" xmlns="http://www.w3.org/2000/svg">
<g>
<path d="M42.2727 14.937C43.0839 14.9813 43.67 15.1141 44.0305 15.3354C44.3911 15.5125 44.6165 15.756 44.7066 16.0659C44.7967 16.3758 44.7967 16.73 44.7066 17.1284C44.6615 17.4826 44.6165 17.8368 44.5714 18.1909C43.129 18.8993 41.2135 19.4084 38.8246 19.7182C36.4809 20.0282 33.9794 20.2495 31.3201 20.3824C31.5906 21.1349 31.9737 21.9539 32.4695 22.8393C32.9653 23.7248 33.371 24.6101 33.6864 25.4956C34.002 26.3368 34.1597 27.1779 34.1597 28.0191C34.1597 28.8601 33.7992 29.6128 33.078 30.2768C33.3485 30.8966 33.4386 31.4057 33.3485 31.8042C33.3034 32.2027 33.1456 32.5346 32.8752 32.8003C32.6047 33.0216 32.2666 33.2209 31.861 33.398C31.4554 33.575 31.0498 33.7521 30.6441 33.9292C29.2469 33.2209 27.8271 31.9813 26.3848 30.2104C24.9876 28.4397 23.6354 26.536 22.3283 24.4995C21.2916 26.2704 20.5028 27.687 19.962 28.7495C19.4211 29.7677 19.0831 30.5204 18.9479 31.0074C18.2717 31.7599 17.6408 32.3133 17.0549 32.6675C16.4689 33.0216 15.8829 33.2652 15.297 33.398C14.7111 33.4865 14.1027 33.5307 13.4716 33.5307C12.8857 33.5307 12.2547 33.5529 11.5786 33.5971C11.3983 33.243 10.9701 32.9774 10.294 32.8003C9.61794 32.5789 8.98693 32.5789 8.401 32.8003C8.62635 32.4461 8.58129 32.092 8.26578 31.7378C7.99534 31.3836 7.70238 31.2287 7.38687 31.273C7.74745 30.5204 8.17563 29.7677 8.67142 29.0152C9.21229 28.2182 9.73062 27.4435 10.2264 26.6909C10.7673 25.9383 11.2405 25.2079 11.6462 24.4995C12.0969 23.7469 12.3899 23.0608 12.5251 22.4409C12.6152 22.2638 12.728 22.1089 12.8631 21.976C12.9983 21.799 13.1335 21.6219 13.2688 21.4449C11.6011 21.6662 10.249 21.8654 9.21229 22.0425C8.22071 22.2196 7.49955 22.3966 7.04883 22.5738C5.9671 22.5295 5.13326 22.3966 4.54732 22.1753C3.96139 21.9539 3.48813 21.6662 3.12755 21.312C2.76697 20.9135 2.45148 20.493 2.18104 20.0503C1.95568 19.6076 1.68525 19.1427 1.36974 18.6557C1.64017 18.3016 1.75286 17.8368 1.70778 17.2613C1.66271 16.6414 1.39228 16.1766 0.896484 15.8667C1.30213 15.7782 1.61764 15.5346 1.843 15.1363C2.11343 14.7378 2.18104 14.4279 2.04582 14.2066C2.94726 14.0295 3.89378 13.9187 4.88537 13.8745C5.92203 13.786 6.93614 13.7196 7.92773 13.6753C8.91933 13.5868 9.86584 13.476 10.7673 13.3432C11.6687 13.2104 12.4575 13.0113 13.1335 12.7456H14.4857C13.5842 11.5946 12.8406 10.7091 12.2547 10.0894C11.6687 9.46957 11.1955 9.02685 10.8349 8.76123C10.4292 7.96435 10.2264 7.27816 10.2264 6.70263C10.2264 6.12712 10.3391 5.618 10.5645 5.1753C10.7898 4.68832 11.0828 4.22347 11.4434 3.78076C11.8039 3.33805 12.1645 2.85107 12.5251 2.31983C12.9758 2.27555 13.4941 2.0542 14.08 1.65576C14.7111 1.25733 15.0717 0.792481 15.1618 0.261231C15.3871 0.526856 15.7703 0.637533 16.3111 0.593263C16.852 0.50472 17.2126 0.349773 17.3929 0.128418C17.9338 0.703939 18.4521 1.34587 18.9479 2.0542C19.4437 2.76253 19.9169 3.47087 20.3677 4.1792C20.8634 4.84326 21.3367 5.48519 21.7874 6.10498C22.2832 6.6805 22.8241 7.14535 23.41 7.49952C24.0861 7.0568 24.7396 6.45915 25.3707 5.70655C26.0017 4.95394 26.6552 4.26775 27.3313 3.64795C28.0073 3.02815 28.7285 2.54118 29.4947 2.18701C30.261 1.83285 31.0723 1.70003 31.9287 1.78857C32.4695 1.21305 32.9428 0.836751 33.3485 0.659668C33.754 0.482585 34.1371 0.438314 34.4977 0.526856C34.9034 0.571126 35.264 0.703939 35.5794 0.925293C35.94 1.10238 36.3006 1.27946 36.6612 1.45655C36.571 2.78467 35.9851 4.40055 34.9034 6.3042C33.8217 8.20785 32.5597 10.1558 31.1174 12.148C32.0639 12.2365 33.123 12.2807 34.295 12.2807C35.4668 12.2807 36.5935 12.3471 37.6754 12.48C38.757 12.6128 39.7261 12.8563 40.5825 13.2104C41.4389 13.5647 42.0023 14.1402 42.2727 14.937Z" fill="#111111"></path>
</g>
<defs>
<clipPath>
<rect width="45" height="34" fill="white" transform="translate(0.644531)"></rect>
</clipPath>
</defs>
</svg>