<svg width="33" height="33" viewBox="0 0 23 23" fill="none" xmlns="http://www.w3.org/2000/svg">
    <path d="M11.1001 0.136714C8.88023 0.397654 6.62339 1.1432 5.5628 3.23072C5.09289 4.16138 4.94329 5.22299 5.13751 6.24866C5.33172 7.27433 5.85875 8.20588 6.63572 8.89684C7.49702 9.58171 8.53029 10.0119 9.62017 10.1394C10.8745 10.3382 12.1519 10.3382 13.4062 10.1394C13.9594 10.1171 14.5024 9.98229 15.0026 9.74313C15.5027 9.50397 15.9497 9.16539 16.3167 8.74774C16.8833 7.8896 17.2112 6.89414 17.2663 5.86497C17.4636 3.47923 16.403 0.894683 13.9489 0.136714C13.4246 -0.0159064 12.8755 -0.0623617 12.3333 3.11825e-05C12.21 3.11825e-05 11.433 0.211268 11.914 0.347951C12.7665 0.664777 13.5064 1.22953 14.0399 1.97061C14.5735 2.71169 14.8766 3.5957 14.9108 4.51057C15.0588 6.21289 14.7998 8.69803 13.0486 9.48085C12.6853 9.62607 12.3032 9.71813 11.914 9.75422H11.5934H11.2727C11.4084 9.75422 11.1864 9.75422 11.1617 9.75422H10.9521H10.7794C10.583 9.70768 10.3895 9.6496 10.1998 9.58026C9.80276 9.43198 9.42896 9.22693 9.08988 8.9714C8.36387 8.39807 7.8302 7.61386 7.5611 6.72488C7.29199 5.8359 7.30045 4.88509 7.58532 4.00111C7.89668 2.98484 8.54548 2.10738 9.42285 1.51597C10.2734 0.99456 11.2309 0.675809 12.2223 0.58404C12.3826 0.58404 13.0856 0.447357 12.654 0.23612C12.1519 0.0753571 11.6183 0.0412232 11.1001 0.136714Z" fill="#010101"></path>
    <path d="M5.82091 10.1768C1.7882 12.575 0 17.5329 0 22.0434C0 22.5777 1.81287 23.3481 1.81287 22.8262C1.84987 18.4896 3.56408 13.6685 7.39946 11.3076C7.72011 11.1088 7.12815 10.6739 6.98016 10.5745C6.83217 10.475 6.16622 9.94074 5.82091 10.1768Z" fill="#010101"></path>
    <path d="M5.90821 10.7731C6.62806 11.6621 7.56829 12.3436 8.63368 12.7488C9.89967 13.2538 11.2565 13.4866 12.6171 13.4322C14.5902 13.3328 16.9457 12.6494 18.0803 10.947L16.4894 10.537C17.172 11.3834 17.8022 12.2715 18.3763 13.1961C18.5086 13.3999 18.6929 13.564 18.9099 13.6712C19.127 13.7783 19.3686 13.8245 19.6095 13.8049C20.0905 13.6807 20.0535 13.1837 19.8315 12.8357C19.2573 11.9152 18.6272 11.0313 17.9447 10.1891C17.661 9.82872 16.7114 9.15773 16.3661 9.76659C15.8573 10.3848 15.2233 10.8863 14.5065 11.2378C13.7898 11.5892 13.0069 11.7824 12.2101 11.8044C11.1327 11.8926 10.049 11.7529 9.02831 11.3944C8.95432 11.3944 8.95432 11.3944 9.02831 11.3944H8.89266L8.63368 11.1831L8.3007 11.0216L8.18971 10.9595C7.98444 10.8457 7.79036 10.7126 7.61008 10.5618C7.37577 10.3879 7.72107 10.6985 7.52376 10.5618C7.32644 10.4252 7.25244 10.2512 7.40043 10.4376C7.27069 10.2305 7.08719 10.0631 6.86981 9.95363C6.65243 9.84412 6.40944 9.79662 6.16719 9.81629C5.71089 9.92812 5.69855 10.4624 5.9452 10.7855" fill="#010101"></path>
    <path d="M18.6088 14.0284C19.9814 16.6974 20.7838 19.6265 20.9643 22.627L22.4319 22.1051C17.0385 22.2542 11.6451 22.2998 6.25172 22.2418H1.62705C1.14882 22.1998 0.670574 22.3224 0.270486 22.5897C-0.0378245 22.8755 0.504803 22.9377 0.702122 22.9377C6.10373 23.0536 11.4971 23.0536 16.8823 22.9377C18.4238 22.9377 19.9654 22.9377 21.5069 22.8383C21.8513 22.8371 22.193 22.7783 22.5182 22.6643C22.6539 22.6643 22.9868 22.5028 22.9745 22.3164C22.8041 19.2984 22.0013 16.351 20.619 13.6681C20.36 13.1586 18.4732 13.7675 18.6088 14.016" fill="#010101"></path>
</svg>