<svg width="216" height="174" viewBox="0 0 216 174" fill="none" xmlns="http://www.w3.org/2000/svg">
<path d="M116.688 51.7217C120.97 43.3813 125.088 34.9518 129.044 26.4332C130.033 24.3531 130.977 22.2729 131.877 20.1928C132.589 18.603 133.805 16.8497 133.064 15.0964C132.737 14.3387 132.129 13.7592 131.832 12.9717C131.579 12.1393 131.464 11.271 131.491 10.4013C131.558 8.3351 131.514 6.26681 131.358 4.20544C131.15 2.51162 124.787 -1.20291 124.594 0.386909C124.149 4.71062 124.045 9.49493 126.329 13.3729C126.878 14.2941 131.803 18.4544 132.841 16.9834C135.526 13.2095 137.588 8.9749 139.887 4.94835L133.212 0.565207C131.832 4.79977 129.963 8.88575 128.569 13.1203C128.287 14.0118 129.919 15.1856 130.453 15.6016C131.591 16.634 132.984 17.342 134.488 17.652C139.205 17.9789 141.533 13.6998 144.604 10.8767C145.36 10.1784 139.427 5.12665 137.944 6.49359C135.57 8.67774 133.034 13.2243 129.34 12.9717L135.274 17.4292C136.668 13.1797 138.522 9.10862 139.917 4.8592C140.451 3.20995 133.983 -0.772024 133.242 0.490916C130.942 4.50261 128.895 8.73717 126.196 12.526L132.708 16.1514C130.661 12.6746 130.972 7.90512 131.387 4.05686L124.594 0.386909C125.069 3.92314 123.941 7.81597 125.944 10.9807C126.507 11.8722 126.715 12.214 126.344 13.254C125.973 14.2941 125.395 15.4085 124.861 16.4634C123.921 18.5633 122.972 20.6435 122.013 22.7038C118.166 31.0144 114.141 39.226 109.939 47.3386C109.138 48.8244 115.976 52.9401 116.614 51.796" fill="#111111"/>
<path d="M191.847 74.7666C180.321 75.1529 166.527 76.0741 160.534 87.6189C158.237 92.5556 156.788 97.8449 156.247 103.264C155.591 106.56 155.421 109.934 155.743 113.279C156.256 116.187 157.525 118.908 159.422 121.169C167.698 131.421 182.354 134.541 194.769 131.703C206.294 129.103 215.906 119.683 215.995 107.365C215.994 100.422 214.101 93.6098 210.522 87.6634C208.743 84.7846 206.381 82.3119 203.588 80.4051C200.796 78.4983 197.634 77.2 194.309 76.5941C192.381 76.2376 189.355 75.985 187.619 77.0993C185.884 78.2137 188.391 78.9863 189.355 79.1646C199.441 81.0813 204.292 92.8935 205.671 101.853C206.685 106.978 206.057 112.292 203.877 117.038C201.791 121.32 198.454 124.864 194.309 127.201C190.793 129.317 186.619 130.058 182.591 129.281C177.76 128.107 173.387 125.521 170.027 121.852C168.198 120.034 166.803 117.824 165.948 115.389C165.232 112.614 165.091 109.722 165.533 106.89C165.957 102.012 166.886 97.192 168.307 92.5072C169.734 87.4272 173.095 83.1112 177.666 80.487C181.983 78.2583 187.516 77.976 191.802 77.8274C192.692 77.8274 196.697 77.8274 196.697 76.3416C196.697 74.8558 192.529 74.8558 191.817 74.8558" fill="#111111"/>
<path d="M76.312 104.215C70.8665 107.687 66.2403 112.304 62.7542 117.746C59.2682 123.188 57.0058 129.324 56.124 135.729C55.2785 142.252 55.857 149.755 59.951 155.179C64.0449 160.602 70.8533 163.826 77.5728 165.074C89.2317 167.229 102.611 162.994 110.206 153.708C113.938 148.97 116.271 143.279 116.94 137.281C117.608 131.283 116.586 125.217 113.988 119.772C111.132 113.503 106.157 108.446 99.9412 105.493C92.8658 102.269 84.2774 101.556 77.4689 105.894C77.0525 106.111 76.6968 106.429 76.4339 106.818C76.1711 107.208 76.0095 107.657 75.9639 108.124C75.9182 108.592 75.9899 109.064 76.1724 109.497C76.3549 109.93 76.6425 110.311 77.0091 110.604C77.9123 111.344 79.0132 111.8 80.174 111.917C81.3349 112.033 82.5042 111.804 83.5357 111.258C87.3775 108.806 91.3676 109.163 95.2094 111.035C99.4059 113.156 102.804 116.581 104.895 120.797C107.047 124.983 108.091 129.652 107.928 134.358C107.764 139.064 106.398 143.649 103.961 147.675C101.412 151.572 97.8115 154.663 93.5778 156.59C89.7822 158.359 85.6089 159.16 81.4294 158.923C80.8361 158.923 80.2427 158.819 79.6643 158.73C79.4863 158.73 78.0178 158.447 78.6408 158.581C77.4048 158.308 76.1902 157.946 75.0066 157.497C74.1013 157.119 73.2196 156.688 72.3663 156.204C71.2466 155.561 70.2103 154.783 69.281 153.886C65.2761 150.053 64.6976 143.901 65.0981 138.671C65.5711 132.821 67.376 127.157 70.3741 122.114C73.3722 117.071 77.4839 112.783 82.3936 109.579C82.807 109.36 83.1597 109.041 83.4203 108.652C83.6808 108.262 83.841 107.814 83.8865 107.348C83.9321 106.881 83.8615 106.411 83.6813 105.978C83.501 105.546 83.2166 105.165 82.8534 104.869C81.9488 104.126 80.8452 103.668 79.6813 103.552C78.5175 103.435 77.3452 103.666 76.312 104.215Z" fill="#111111"/>
<path d="M186.567 100.739C173.534 88.4163 160.822 75.7671 148.431 62.791C147.841 62.2496 147.11 61.8858 146.323 61.7413C145.536 61.5968 144.724 61.6773 143.981 61.9738C143.165 62.2264 140.792 63.6231 141.934 64.8266C154.592 78.0701 167.6 91.0115 180.96 103.651C182.814 105.419 189.207 103.205 186.612 100.679" fill="#111111"/>
<path d="M124.326 72.9538C128.215 73.1869 132.117 73.0176 135.97 72.4486C139.486 71.7949 143.387 70.3685 145.686 67.5306C146.294 66.8813 146.762 66.1135 147.061 65.275C147.359 64.4365 147.482 63.5453 147.422 62.6571C147.265 61.8347 146.944 61.0526 146.477 60.358C146.011 59.6634 145.409 59.0707 144.707 58.6157C142.549 57.1552 140.163 56.0655 137.647 55.3915C135.585 54.7287 133.433 54.3928 131.268 54.396C126.819 54.699 122.464 55.8223 118.423 57.7094C117.74 57.9917 120.307 59.106 120.485 59.1952C121.339 59.5354 122.216 59.8135 123.11 60.0272C123.54 60.1313 124.297 60.4284 124.727 60.2501C127.745 58.9222 130.898 57.9258 134.131 57.2785C135.655 56.9795 137.212 56.8944 138.759 57.0259C140.524 57.2191 137.958 56.7436 138.092 56.6099C138.225 56.4762 139.575 57.7391 139.738 57.8877C141.993 60.3987 140.732 63.7269 138.611 65.8516C136.169 68.0092 133.145 69.3947 129.918 69.8336C126.255 70.4127 122.54 70.5921 118.838 70.3685C117.444 70.3685 119.491 71.364 119.773 71.4977C121.182 72.2795 122.728 72.7839 124.326 72.9835" fill="#111111"/>
<path d="M149.81 74.7815C142.121 75.9728 134.811 78.9271 128.45 83.4141C125.587 85.4348 122.769 88.0498 122.205 91.5118C121.968 93.3067 122.192 95.1326 122.858 96.8161C123.993 99.777 125.941 102.356 128.476 104.257C131.011 106.157 134.03 107.302 137.187 107.559C141.874 107.871 146.457 106.162 150.625 104.007C155.743 101.363 161.009 97.2322 161.394 91.4821C161.488 88.2421 160.548 85.0565 158.709 82.3889C157.054 79.5402 154.654 77.1978 151.768 75.6136C150.327 74.8268 148.713 74.4146 147.073 74.4146C145.432 74.4146 143.818 74.8268 142.378 75.6136" fill="#E0303C"/>
<path d="M146.947 73.1025C138.27 74.4843 128.717 78.0949 122.339 84.3947C120.762 85.8434 119.684 87.7558 119.26 89.8569C118.836 91.958 119.088 94.1396 119.981 96.088C121.585 99.6974 124.223 102.748 127.56 104.854C131.198 107.374 135.423 108.91 139.827 109.312C144.687 109.394 149.478 108.146 153.682 105.701C157.25 104.043 160.353 101.527 162.715 98.3762C163.857 96.6284 164.523 94.6115 164.645 92.526C164.767 90.4406 164.342 88.3594 163.412 86.4897C161.41 82.0433 158.111 78.3084 153.949 75.777C149.81 73.2214 143.981 71.3196 139.427 74.0089C138.478 74.5586 140.762 75.8959 141.118 76.1039C141.919 76.5645 144.263 77.9463 145.271 77.3817C146.715 76.5059 148.394 76.1009 150.077 76.2227C150.642 76.2735 151.189 76.4442 151.683 76.7234C152.176 77.0027 152.605 77.3841 152.94 77.8423C155.57 80.4472 157.389 83.7609 158.176 87.3812C159.496 94.3942 153.34 99.446 147.793 102.328C142.586 105.033 134.576 108.272 129.607 103.517C127.168 101.216 125.645 98.1065 125.321 94.7657C125.113 91.274 127.338 88.4064 129.889 86.2966C136.521 81.0596 144.417 77.6714 152.777 76.4753C153.874 76.297 151.219 74.4546 151.086 74.3655C149.869 73.5163 148.415 73.0742 146.932 73.1025" fill="#111111"/>
<path d="M91.9606 102.076C91.9606 102.076 105.474 88.7034 110.561 80.576C115.649 72.4487 118.156 48.7351 111.392 36.6406C104.628 24.5461 93.8741 25.6456 89.7801 27.1908C85.6862 28.7361 69.0137 30.1625 61.5971 46.9967C54.1805 63.8309 49.2114 73.2807 53.5723 80.4572C57.9333 87.6337 60.8851 95.553 68.005 99.5499C75.125 103.547 91.9606 102.076 91.9606 102.076Z" fill="#754336"/>
<path d="M83.936 55.8373C82.0246 57.8887 80.4343 60.2181 79.2191 62.7464C78.6297 64.0362 78.1339 65.367 77.7357 66.7283C77.4233 67.6678 77.363 68.673 77.5609 69.6431C77.7587 70.6132 78.2078 71.5142 78.8631 72.2556C82.8235 77.2628 89.7506 75.7621 95.2834 75.2272C101.929 74.6527 108.539 73.776 115.115 72.5973C118.23 72.0476 121.538 70.9778 124.712 70.9778C125.336 70.9132 125.965 71.0485 126.507 71.3641C126.507 71.3641 126.893 72.0624 126.774 71.8247C126.774 71.9584 127.175 73.1173 127.056 72.4041C127.162 73.3611 127.462 74.2862 127.939 75.122C128.416 75.9577 129.06 76.6864 129.83 77.2628C131.076 78.0502 132.53 77.5451 132.263 75.7769C131.61 71.6761 129.296 66.8621 125.647 64.6334C123.452 63.311 120.707 63.6973 118.319 64.1579C115.649 64.6631 112.994 65.198 110.309 65.6437C104.91 66.5649 99.4713 67.2831 93.9929 67.7981C91.2636 68.0656 88.5046 68.2884 85.7605 68.4519C84.114 68.541 81.6072 68.9571 80.3464 67.6347L82.512 72.8053C83.7075 68.7436 85.836 65.0187 88.7271 61.9292C90.4774 60.0868 86.0275 53.4898 83.936 55.8373Z" fill="#111111"/>
<path d="M83.3874 90.873C96.8188 93.2696 110.653 91.8066 123.289 86.6533L116.02 85.0337C113.321 97.1481 110.206 109.144 106.676 121.02C106.127 122.907 113.024 123.13 113.959 122.654C118.932 120.079 124.224 118.176 129.697 116.994C131.18 116.682 131.18 115.805 129.949 115.136C128.209 114.306 126.251 114.051 124.357 114.408C118.439 115.628 112.708 117.626 107.313 120.351L114.582 121.986C118.112 110.099 121.227 98.1039 123.927 85.9995C124.134 85.0486 121.672 84.5137 121.182 84.3503C119.701 83.9119 118.125 83.9119 116.643 84.3503C106.268 88.7681 94.8478 90.1239 83.7286 88.258C82.9573 88.1242 79.7681 87.7974 79.605 89.0454C79.4418 90.2935 82.7496 90.769 83.3874 90.873Z" fill="#111111"/>
<path d="M117.518 47.9626C115.397 38.1859 111.081 30.1328 105.311 25.0811L104.688 24.561C99.1847 20.1036 90.1958 17.8452 83.506 23.5655C83.2962 23.7616 83.1383 24.0066 83.0462 24.2787L82.7643 24.9325L82.1117 25.2148C65.6617 32.213 54.1066 45.2584 51.1845 60.1017C48.0547 76.1187 54.3588 93.6067 66.5368 102.655C73.6271 107.9 81.7557 109.549 88.7866 107.113C95.4319 104.869 102.136 99.6837 107.373 92.8787C112.159 86.5391 115.535 79.247 117.275 71.4921C119.015 63.7372 119.078 55.6992 117.459 47.918L117.518 47.9626ZM97.3602 91.0065C96.2774 91.9872 95.1501 92.8638 94.0079 93.7107L93.8744 93.8296C90.257 97.0572 85.6695 98.9862 80.836 99.3122C79.7362 99.4232 78.628 99.4232 77.5282 99.3122C72.9739 98.7699 68.6938 96.8466 65.2612 93.7999C63.9348 92.6506 62.7318 91.3658 61.6716 89.9665C54.7593 80.8733 54.077 67.6793 59.9212 56.3871C64.5789 47.398 72.6185 40.0432 83.1797 35.0063C86.8435 33.1193 89.2019 29.7168 91.3083 28.959C93.0996 28.5476 94.9607 28.5476 96.752 28.959C99.3531 29.4165 101.815 30.4644 103.949 32.0226C106.083 33.5808 107.833 35.6078 109.064 37.9482C112.195 44.006 113.644 50.7948 113.261 57.6055C112.959 63.9504 111.404 70.1723 108.684 75.9108C105.965 81.6493 102.136 86.7904 97.4195 91.0363" fill="#111111"/>
<path d="M64.994 38.81C56.2127 47.2346 50.6948 57.9473 46.2893 69.2246C42.2399 79.5361 39.1842 90.4865 33.5476 100.115C32.2455 102.647 30.4967 104.922 28.3857 106.83C27.2708 107.748 26.013 108.476 24.6626 108.985C24.3214 109.104 23.4462 109.327 23.4166 109.327C23.1496 109.327 22.8826 109.327 22.6304 109.327C23.1051 109.327 22.1558 109.074 22.6304 109.327L23.9061 113.19C26.7985 109.713 28.7565 104.275 26.8727 99.8175C24.8406 94.8846 19.7083 94.7211 15.3918 93.161C6.93691 90.0408 5.92825 78.4515 7.57474 70.9333H0.870138C2.01229 75.8662 7.41157 77.2628 11.7577 76.2822C16.9345 75.153 20.8653 71.1413 24.2917 67.3673C27.9062 63.1427 31.7803 59.148 35.8913 55.4065C40.0168 51.8345 44.5592 48.7762 49.4191 46.2985C54.0471 43.9806 60.5885 40.905 65.7356 43.3269C66.5313 43.7046 67.43 43.8059 68.2896 43.6149C69.1492 43.4239 69.9207 42.9513 70.4823 42.272C70.6931 41.9427 70.828 41.5705 70.8771 41.1825C70.9262 40.7944 70.8883 40.4003 70.7661 40.0288C70.6439 39.6573 70.4405 39.3177 70.1707 39.0349C69.9009 38.7521 69.5716 38.5332 69.2066 38.394C62.6207 35.4224 55.1447 37.3688 48.8258 40.1027C42.7315 42.8059 37.0487 46.3573 31.9457 50.6519C26.5909 54.9757 22.2448 60.3246 17.5426 65.3763C15.714 67.5859 13.4191 69.3619 10.8232 70.5767C8.89489 71.3196 8.0049 71.3196 7.57474 69.4177C6.92208 66.6541 1.4783 66.6987 0.870138 69.4177C-1.11751 78.4366 -0.00501972 89.1493 7.41157 95.3452C9.1249 96.7551 11.0943 97.8196 13.2113 98.4802C15.11 99.1043 17.5426 99.1934 19.2484 100.308C22.5562 102.477 19.6638 108.183 17.8541 110.352C17.6433 110.681 17.5084 111.053 17.4593 111.441C17.4101 111.829 17.4481 112.224 17.5703 112.595C17.6925 112.967 17.8959 113.306 18.1657 113.589C18.4355 113.872 18.7648 114.091 19.1298 114.23C24.9741 116.785 31.8567 112.744 35.7133 108.465C39.5699 104.186 41.9432 98.7625 44.1534 93.6959C49.0483 82.4632 52.2671 70.5321 57.8296 59.5222C60.8907 53.2937 64.9662 47.6195 69.8889 42.7326C73.0632 39.6867 67.6046 36.2099 64.9495 38.7506" fill="#111111"/>
<path d="M181.093 106.979C181.093 108.762 181.093 110.56 181.093 112.343V113.636C181.093 113.858 181.093 114.067 181.093 114.275C181.093 114.869 181.093 113.962 181.093 114.497C181.093 115.433 180.99 116.355 180.93 117.291L185.38 121.065C185.365 120.783 185.365 120.5 185.38 120.218C185.38 120.782 185.38 120.025 185.38 119.921C185.38 119.401 185.499 118.881 185.588 118.435C185.641 117.603 185.506 116.77 185.193 115.998C184.879 115.227 184.396 114.536 183.778 113.977C183.037 113.294 181.464 112.492 181.168 113.977C180.938 115.292 180.833 116.625 180.856 117.959C180.926 118.743 181.151 119.506 181.518 120.202C181.884 120.898 182.386 121.515 182.992 122.016C183.353 122.392 183.838 122.624 184.357 122.669C184.604 122.662 184.839 122.562 185.015 122.388C185.191 122.214 185.295 121.981 185.306 121.733C185.588 117.87 185.692 114.007 185.588 110.129C185.512 109.289 185.249 108.476 184.817 107.752C184.414 107 183.852 106.346 183.17 105.835C182.77 105.583 182.117 105.211 181.687 105.538C181.476 105.718 181.316 105.949 181.223 106.21C181.129 106.47 181.105 106.751 181.153 107.024" fill="#111111"/>
<path d="M182.28 110.694C184.618 112.441 187.099 113.987 189.697 115.315C190.566 115.819 191.591 115.983 192.574 115.775C193.001 115.714 193.398 115.521 193.709 115.222C194.02 114.924 194.231 114.535 194.31 114.111C194.364 113.33 194.23 112.548 193.921 111.829C193.611 111.111 193.134 110.477 192.53 109.98C191.831 109.389 190.976 109.012 190.068 108.896C189.302 108.789 188.525 108.987 187.902 109.446C187.657 109.735 187.475 110.074 187.37 110.439C187.264 110.804 187.237 111.187 187.291 111.563C187.344 111.94 187.476 112.3 187.679 112.622C187.881 112.943 188.149 113.218 188.466 113.428L188.614 113.561C188.406 113.353 188.214 113.13 188.021 112.922L188.199 113.16L187.783 112.462C187.853 112.578 187.907 112.703 187.946 112.833C187.946 112.596 187.798 112.358 187.739 112.105C187.746 112.239 187.746 112.373 187.739 112.506V111.793C187.739 111.867 187.739 111.927 187.739 112.001L192.189 110.798C190.068 109.74 188.03 108.523 186.092 107.157L186.849 107.692L186.241 107.261C185.539 106.671 184.686 106.29 183.778 106.162C183.015 106.064 182.244 106.266 181.628 106.727C181.361 106.958 181.159 107.255 181.042 107.589C180.925 107.922 180.897 108.281 180.96 108.628C181.102 109.442 181.534 110.176 182.176 110.694" fill="#111111"/>
<path d="M187.19 108.346L196.549 104.483C196.843 104.389 197.108 104.223 197.32 103.999C197.533 103.776 197.686 103.503 197.766 103.205C197.77 102.895 197.698 102.589 197.556 102.315C197.414 102.04 197.205 101.804 196.95 101.63C196.254 101.126 195.445 100.8 194.595 100.681C193.744 100.562 192.877 100.653 192.07 100.947L182.725 104.795C182.431 104.893 182.166 105.062 181.954 105.287C181.742 105.513 181.589 105.788 181.509 106.087C181.5 106.398 181.57 106.705 181.713 106.981C181.856 107.256 182.066 107.491 182.324 107.662C183.018 108.166 183.824 108.492 184.672 108.611C185.52 108.73 186.385 108.639 187.19 108.346Z" fill="#111111"/>
<path d="M85.1823 131.48C83.5952 129.236 82.1267 126.919 80.7324 124.526L74.5173 127.498L75.2441 128.657C75.71 129.293 76.399 129.728 77.1724 129.875C78.0761 130.046 79.0106 129.927 79.8424 129.534C80.6155 129.181 81.233 128.558 81.5778 127.78C81.7291 127.444 81.796 127.077 81.7728 126.709C81.7495 126.341 81.6368 125.985 81.4443 125.67L80.7175 124.512C80.2515 123.876 79.5626 123.441 78.7892 123.293C77.8855 123.122 76.951 123.242 76.1192 123.635C74.7249 124.363 73.5976 125.878 74.5024 127.439C75.8819 129.831 77.3504 132.149 78.9524 134.392C79.4157 135.033 80.105 135.474 80.8807 135.625C81.7846 135.79 82.7172 135.671 83.5507 135.284C84.3191 134.949 84.9407 134.348 85.301 133.59C85.4523 133.251 85.5192 132.881 85.4959 132.511C85.4727 132.141 85.36 131.782 85.1675 131.465" fill="#111111"/>
<path d="M78.5066 133.233L74.561 134.942L72.6772 135.789C71.9413 136.012 71.2865 136.446 70.7934 137.037C70.648 137.304 70.5718 137.602 70.5718 137.906C70.5718 138.21 70.648 138.509 70.7934 138.775C71.1939 139.535 71.781 140.179 72.4992 140.648C73.1961 141.153 74.0159 141.461 74.8725 141.539C75.176 141.586 75.4864 141.554 75.7744 141.448C76.0625 141.341 76.3187 141.163 76.519 140.93C76.5537 140.864 76.5988 140.803 76.6525 140.752L76.252 141.123C76.7498 140.779 77.2943 140.509 77.8688 140.321L79.7378 139.503L83.4758 137.884C83.7136 137.727 83.897 137.499 84.0006 137.233C84.1042 136.967 84.1229 136.675 84.0542 136.398C83.849 135.648 83.4256 134.975 82.8379 134.467C82.3012 133.879 81.6119 133.452 80.847 133.234C80.0821 133.017 79.2717 133.016 78.5066 133.233Z" fill="#111111"/>
<path d="M77.1274 139.667C76.1336 141.678 75.3148 143.771 74.68 145.922C74.502 146.244 74.4492 146.619 74.5316 146.977C74.5262 147.341 74.641 147.696 74.858 147.988C75.3391 148.667 76.0423 149.155 76.8456 149.369C77.7222 149.66 78.6687 149.66 79.5452 149.369C80.1979 149.102 81.0286 148.641 81.2511 147.884C81.8909 145.732 82.7148 143.639 83.7134 141.628C83.8581 141.294 83.9176 140.929 83.8865 140.566C83.8555 140.203 83.7348 139.853 83.5354 139.548C83.0592 138.881 82.3676 138.398 81.5774 138.181C80.7767 137.894 79.9029 137.884 79.096 138.154C78.2891 138.423 77.5959 138.956 77.1274 139.667Z" fill="#111111"/>
<path d="M89.0682 132.044C91.1005 128.92 93.5231 126.069 96.2771 123.56L95.7728 124.021L96.2475 123.605C96.6776 123.219 97.182 122.773 97.1078 122.119C97.0403 121.827 96.8983 121.556 96.6955 121.335C96.4927 121.114 96.2362 120.949 95.9508 120.856C95.1589 120.527 94.2938 120.414 93.444 120.529C92.5858 120.577 91.7583 120.865 91.0559 121.361C87.9134 124.104 85.1587 127.264 82.8679 130.752C82.6955 130.954 82.5867 131.203 82.555 131.468C82.5234 131.732 82.5703 132 82.6899 132.238C83.1146 132.771 83.7231 133.126 84.3958 133.233C85.2905 133.412 86.2143 133.381 87.0954 133.144C87.8566 132.998 88.5493 132.606 89.0682 132.03" fill="#111111"/>
<path d="M127.368 68.0654C127.531 68.0654 127.961 68.3774 127.219 67.9762C126.834 67.7534 126.745 67.6939 126.952 67.8277H127.041C126.315 67.3373 126.092 67.1888 126.359 67.3819C126.789 67.6791 125.825 66.9362 125.855 66.9659L126.463 67.4859C127.152 68.0282 127.875 68.5246 128.629 68.9717L129.934 69.6998H130.067L129.37 69.3135L129.593 69.4323L130.394 69.9078C130.572 70.0118 131.106 70.3684 130.394 69.9078C129.682 69.4472 130.171 69.7592 130.394 69.9078L130.75 70.1752L130.245 69.7741L130.438 69.9375C130.72 70.1604 130.987 70.413 131.269 70.6656C132.042 71.3393 132.9 71.9088 133.82 72.3594C134.226 72.5804 134.654 72.7596 135.096 72.8943C135.429 73.0285 135.778 73.1184 136.134 73.1617C136.49 73.1617 137.039 73.1617 136.92 72.6268C136.802 72.0919 136.134 71.4828 135.719 71.141C134.265 69.8091 132.668 68.643 130.957 67.6642L129.133 66.8619L129.845 67.2631L130.557 67.7237L130.394 67.6048C130.082 67.3819 131.269 68.318 130.928 68.0357L130.75 67.8871C129.516 66.8065 128.151 65.8878 126.685 65.1532C125.974 64.7508 125.195 64.4838 124.386 64.3657C124.045 64.3657 123.481 64.3657 123.585 64.9006C123.845 65.4997 124.266 66.0143 124.802 66.3864C125.586 67.0522 126.448 67.6209 127.368 68.0803" fill="#111111"/>
<path d="M16.1036 135.7C24.1135 133.61 32.0245 131.222 39.8366 128.538C41.231 128.048 42.9368 126.398 42.6253 124.779C42.3138 123.159 40.2075 123.189 38.9615 123.605C31.6833 126.111 24.3261 128.335 16.8897 130.276C16.0489 130.447 15.2721 130.849 14.646 131.437C14.02 132.025 13.5694 132.775 13.3446 133.605C13.3186 133.954 13.3814 134.305 13.5271 134.624C13.6728 134.943 13.8967 135.22 14.178 135.429C14.4592 135.638 14.7887 135.773 15.1357 135.82C15.4828 135.867 15.8361 135.826 16.1629 135.7" fill="#111111"/>
<path d="M5.33514 152.103C11.4761 149.934 17.6566 147.898 23.8766 145.996C24.8868 145.72 25.8308 145.242 26.6516 144.591C27.4725 143.94 28.1532 143.129 28.6529 142.207C29.3797 140.32 27.0361 140.633 25.9829 140.945C19.7678 142.861 13.5824 144.882 7.41179 147.096C5.38287 147.678 3.66597 149.04 2.6355 150.885C1.93835 152.727 4.25232 152.519 5.30548 152.148" fill="#111111"/>
<path d="M21.1326 173.083C29.4392 170.309 37.8001 167.689 46.2155 165.223C48.6665 164.503 50.8663 163.108 52.5641 161.196C52.9201 160.78 53.6321 159.963 53.2761 159.384C52.9201 158.804 51.7928 159.116 51.333 159.25C42.9374 161.716 34.5764 164.336 26.25 167.11C23.8062 167.846 21.6104 169.238 19.9014 171.136C19.5603 171.538 18.8335 172.37 19.2043 172.934C19.5751 173.499 20.6876 173.217 21.1326 173.083Z" fill="#111111"/>
<path d="M84.9737 97.3362L65.6906 98.0642C63.1392 98.1682 59.3864 97.6333 57.4878 99.6986C55.1738 102.21 57.206 105.642 58.7635 107.96C60.208 110.249 62.1374 112.191 64.4149 113.65C67.1701 115.179 70.3869 115.649 73.4631 114.973C79.6634 113.888 85.8192 112.417 91.9898 111.125C98.1604 109.832 105.577 109.178 110.902 105.315C111.341 104.986 111.697 104.558 111.943 104.067C112.188 103.576 112.316 103.034 112.316 102.485C112.316 101.935 112.188 101.393 111.943 100.902C111.697 100.411 111.341 99.9834 110.902 99.654C109.274 98.4334 107.394 97.593 105.4 97.1945C103.406 96.796 101.348 96.8495 99.3767 97.351C95.6419 98.2066 91.8404 98.7385 88.0145 98.9409C79.7376 99.0449 71.2975 98.1088 63.5991 101.912C62.9524 102.311 62.4753 102.935 62.2591 103.664C62.0429 104.393 62.1027 105.177 62.4273 105.865C63.2684 107.515 64.589 108.871 66.2148 109.754C67.8406 110.637 69.6954 111.006 71.5348 110.812C75.7029 110.634 79.9156 109.802 84.054 109.252C86.0417 109 86.6795 106.652 86.0565 105.003C85.6866 104.062 85.0158 103.27 84.1489 102.751C83.2821 102.232 82.2681 102.016 81.2654 102.135L72.677 103.235C71.6963 103.406 70.7051 103.51 69.7103 103.547C68.227 103.547 68.6424 103.146 69.3247 104.423C68.9242 105.731 68.5385 107.053 68.1529 108.376C74.4421 105.3 81.6956 106.206 88.4743 106.177C91.9904 106.217 95.5009 105.884 98.9465 105.181C100.502 104.788 102.076 104.476 103.663 104.245C104.625 104.021 105.632 104.088 106.556 104.438V98.7923C103.426 101.066 99.792 101.764 96.0837 102.611L82.452 105.493L76.0144 106.831C73.8319 107.433 71.6048 107.861 69.3543 108.108C68.764 108.15 68.172 108.055 67.6241 107.831C67.0762 107.607 66.5872 107.26 66.1949 106.816C65.686 106.277 65.2245 105.695 64.8154 105.077C64.6077 104.765 64.4001 104.468 64.2072 104.156C64.0144 103.844 63.9254 103.681 63.7771 103.458C63.6287 103.235 63.5842 103.146 63.7771 103.458C63.6881 104.037 63.6139 104.617 63.5397 105.211C63.5397 105.211 62.7091 105.731 62.7091 105.568H64.1924L67.4557 105.434L73.6263 105.211L86.0268 104.572C91.0553 104.379 89.2901 97.143 85.0479 97.3362" fill="#111111"/>
<path d="M86.7989 134.021C103.495 129.284 119.8 123.264 135.57 116.013C137.049 115.454 138.372 114.547 139.427 113.368C139.93 112.76 140.205 111.996 140.205 111.206C140.205 110.417 139.93 109.652 139.427 109.044C146.221 108.495 153.83 102.418 159.867 99.2529C160.653 101.972 163.175 109.654 161.929 112.209C161.014 113.729 159.734 114.996 158.206 115.894C138.077 129.771 110.606 133.323 88.0301 142.639C86.9823 143.175 85.8245 143.459 84.6481 143.471C83.9197 143.291 83.2519 142.922 82.7125 142.4C82.1731 141.878 81.7815 141.222 81.5776 140.499C81.5852 139.633 81.9252 138.803 82.527 138.181C84.3508 135.973 86.7791 134.346 89.5134 133.501" fill="#E0303C"/>
<path d="M89.2309 136.398C100.168 133.278 110.932 129.623 121.523 125.433C126.744 123.353 131.921 121.164 137.053 118.866C139.085 117.93 141.503 116.964 142.63 114.869C143.111 113.912 143.291 112.831 143.145 111.77C142.999 110.709 142.535 109.717 141.815 108.926C141.666 109.817 141.533 110.723 141.384 111.615C149.246 110.827 155.624 105.285 162.344 101.69L156.974 98.2574C157.686 100.739 158.457 103.205 158.962 105.686C159.257 106.871 159.377 108.092 159.318 109.312C159.156 110.054 158.847 110.757 158.409 111.377C157.97 111.997 157.412 112.523 156.766 112.922C150.828 117.189 144.342 120.633 137.483 123.16C123.629 128.642 109.107 131.97 95.0455 136.695C93.0727 137.349 91.1147 138.047 89.1122 138.79C88.1036 139.162 87.0949 139.563 86.1456 139.964C85.8786 140.068 83.357 140.796 83.3273 140.885C83.713 139.652 84.2915 141.703 84.5585 141.599C84.4101 141.599 85.0035 140.648 84.7513 141.034C85.2604 140.276 85.847 139.574 86.5016 138.939C88.0652 137.503 89.9306 136.437 91.9602 135.819C93.4435 135.343 91.8267 133.159 91.2779 132.624C90.7651 132.04 90.1115 131.596 89.3793 131.336C88.6472 131.076 87.8608 131.008 87.0949 131.138C84.0393 132.089 78.6104 135.031 78.6104 138.79C78.6104 142.549 83.7278 146.219 87.1394 145.893C89.0498 145.574 90.9036 144.978 92.6425 144.124C94.6747 143.337 96.7217 142.639 98.7835 141.881C102.877 140.395 107.031 139.191 111.184 137.958C127.501 133.07 144.692 128.806 159.184 119.356C161.254 118.271 163.066 116.75 164.494 114.898C165.244 113.509 165.5 111.906 165.221 110.352C164.766 106.97 163.981 103.641 162.878 100.412C162.388 98.7477 159.422 95.9544 157.493 96.9796C151.174 100.367 144.959 105.894 137.587 106.637C136.104 106.801 136.445 108.48 137.172 109.327C138.255 110.634 135.184 112.729 134.205 113.234C131.98 114.378 129.651 115.329 127.352 116.34C122.744 118.321 118.081 120.233 113.364 122.075C103.861 125.74 94.1951 128.969 84.3656 131.762C82.8823 132.178 84.5288 134.452 85.0331 134.957C85.5494 135.537 86.2033 135.977 86.9345 136.237C87.6656 136.497 88.4504 136.567 89.2161 136.443" fill="#111111"/>
</svg>
