<svg width="24" height="16" viewBox="0 0 24 16" fill="none" xmlns="http://www.w3.org/2000/svg">
<path d="M23.8835 0C19.3214 0.0441954 14.7298 0.0497198 10.1569 0.232026C8.74001 0.28727 7.32307 0.414332 5.90345 0.497198C4.26915 0.585589 2.63484 0.635309 1.00053 0.685029C0.70763 0.720212 0.426849 0.937931 0.195456 1.30929C0.125683 1.43635 -0.158778 2.01089 0.120316 1.99984C2.36916 1.93355 4.6207 1.85621 6.86955 1.69047C8.93859 1.53027 11.013 1.48607 13.0847 1.4474C16.3873 1.38479 19.6917 1.34244 22.9979 1.32034C23.291 1.28219 23.5716 1.06267 23.803 0.690553C23.8835 0.552443 24.1519 0 23.8835 0Z" fill="#111111"></path>
<path d="M23.8835 7C19.3214 7.0442 14.7298 7.04972 10.1569 7.23203C8.74001 7.28727 7.32307 7.41433 5.90345 7.4972C4.26915 7.58559 2.63484 7.63531 1.00053 7.68503C0.70763 7.72021 0.426849 7.93793 0.195456 8.30929C0.125683 8.43635 -0.158778 9.01089 0.120316 8.99984C2.36916 8.93355 4.6207 8.85621 6.86955 8.69047C8.93859 8.53027 11.013 8.48607 13.0847 8.4474C16.3873 8.38479 19.6917 8.34244 22.9979 8.32034C23.291 8.28219 23.5716 8.06267 23.803 7.69055C23.8835 7.55244 24.1519 7 23.8835 7Z" fill="#111111"></path>
<path d="M23.8835 14C19.3214 14.0442 14.7298 14.0497 10.1569 14.232C8.74001 14.2873 7.32307 14.4143 5.90345 14.4972C4.26915 14.5856 2.63484 14.6353 1.00053 14.685C0.70763 14.7202 0.426849 14.9379 0.195456 15.3093C0.125683 15.4364 -0.158778 16.0109 0.120316 15.9998C2.36916 15.9335 4.6207 15.8562 6.86955 15.6905C8.93859 15.5303 11.013 15.4861 13.0847 15.4474C16.3873 15.3848 19.6917 15.3424 22.9979 15.3203C23.291 15.2822 23.5716 15.0627 23.803 14.6906C23.8835 14.5524 24.1519 14 23.8835 14Z" fill="#111111"></path>
</svg>