<svg width="35" height="22" viewBox="0 0 35 22" fill="none" xmlns="http://www.w3.org/2000/svg">
<path d="M20.284 4.17188C20.5251 6.54898 20.8304 8.92607 21.2 11.3032C21.27 11.5924 21.4362 11.8503 21.6721 12.0355C21.9081 12.2208 22.2001 12.3228 22.5017 12.3253C23.1404 12.3253 23.3333 11.7073 23.2489 11.1368C22.8994 8.92607 22.6342 6.84611 22.4052 4.59976C22.3906 4.30038 22.2783 4.01367 22.085 3.78236C21.8917 3.55104 21.6278 3.38751 21.3326 3.31613C21.2051 3.28451 21.0719 3.28272 20.9435 3.3109C20.8152 3.33908 20.6953 3.39644 20.5934 3.47842C20.4916 3.5604 20.4106 3.66471 20.3568 3.78305C20.3031 3.90139 20.2782 4.03047 20.284 4.16" fill="#111111"></path>
<path d="M19.1874 8.91424L24.9122 8.10603C25.0381 8.07754 25.1563 8.02241 25.2585 7.94446C25.3607 7.8665 25.4444 7.76759 25.5041 7.65455C25.5637 7.54152 25.5976 7.41707 25.6037 7.2898C25.6097 7.16254 25.5876 7.0355 25.5389 6.91748C25.4485 6.61566 25.2552 6.35387 24.9917 6.1763C24.7282 5.99874 24.4107 5.91629 24.0927 5.94288L18.3678 6.75109C18.243 6.78136 18.1261 6.83755 18.025 6.9159C17.9239 6.99426 17.841 7.09297 17.7816 7.20546C17.7223 7.31796 17.688 7.44163 17.681 7.56823C17.674 7.69484 17.6945 7.82145 17.7411 7.93963C17.8315 8.24145 18.0248 8.50325 18.2883 8.68081C18.5518 8.85838 18.8694 8.94083 19.1874 8.91424Z" fill="#111111"></path>
<path d="M15.6319 18.6011C15.1837 18.5696 14.7369 18.6777 14.3543 18.9101C14.0127 19.1176 13.7565 19.4376 13.6312 19.8134C13.5291 20.2637 13.6092 20.7356 13.8546 21.1285C14.0999 21.5214 14.4911 21.8044 14.9449 21.9171C16.355 22.3212 18.3436 21.1446 17.7651 19.54C17.5814 19.0486 17.2382 18.6308 16.7889 18.3515C16.4876 18.1613 16.0175 17.9355 15.668 18.1257C15.3185 18.3158 15.4511 18.6724 15.668 18.9101C15.8 19.0608 15.9594 19.1858 16.1381 19.2786C16.2891 19.3599 16.4605 19.397 16.6322 19.3855C16.9817 19.3142 16.8853 18.9814 16.7166 18.7794C16.7616 18.8743 16.814 18.9657 16.8733 19.0527C16.8733 19.0527 16.8733 19.1359 16.8733 19.1716C16.8733 19.2072 16.8733 19.1716 16.8733 19.1716C16.7959 19.202 16.7096 19.202 16.6322 19.1716H16.5237H16.4394C16.5237 19.1716 16.2947 19.0527 16.3671 19.1716H16.4273C16.4996 19.2429 16.3189 19.0527 16.4273 19.1716C16.5358 19.2904 16.5237 19.3023 16.4273 19.1716C16.3309 19.0408 16.4273 19.231 16.4273 19.2548C16.4273 19.1716 16.4273 19.2548 16.4273 19.2548V19.4093C16.433 19.4327 16.433 19.4572 16.4273 19.4806C16.4273 19.5638 16.4273 19.4806 16.4273 19.4806C16.4393 19.5873 16.4393 19.6949 16.4273 19.8015C16.4341 19.8528 16.4341 19.9047 16.4273 19.956C16.4273 19.8847 16.4273 19.956 16.4273 19.956V20.063C16.3757 20.1594 16.3151 20.2509 16.2465 20.3364L16.1381 20.4552C16.1381 20.4552 16.1381 20.4552 16.0778 20.5146C16.0175 20.5741 16.0778 20.5146 16.0778 20.5146C15.8771 20.6571 15.6583 20.7729 15.427 20.8593H15.3065H15.1377H14.9328H14.8003C14.7038 20.8593 14.8967 20.8593 14.8003 20.8593C14.7038 20.8593 14.9449 20.9306 14.8003 20.8593C14.6556 20.788 14.981 20.9782 14.8726 20.8593C14.7641 20.7405 15.0293 20.9901 14.9449 20.8593C14.8605 20.7286 15.0775 21.0138 15.0051 20.8593C14.9328 20.7048 15.0895 21.0019 15.0051 20.8593V20.788C15.0051 20.788 15.0051 20.9188 15.0051 20.788C14.9997 20.7406 14.9997 20.6928 15.0051 20.6454V20.5741C14.9994 20.5227 14.9994 20.4709 15.0051 20.4196C14.9985 20.3922 14.9985 20.3637 15.0051 20.3364C15.0051 20.3364 15.0051 20.2056 15.0051 20.265C15.1036 20.015 15.2757 19.7997 15.4993 19.647C15.565 19.6068 15.6335 19.571 15.7042 19.54H15.8006C15.8006 19.54 15.9452 19.4806 15.8609 19.54H16.1019H16.2465C16.3671 19.54 16.5237 19.54 16.5961 19.4331C16.6256 19.3782 16.6411 19.3169 16.6411 19.2548C16.6411 19.1926 16.6256 19.1314 16.5961 19.0765C16.4982 18.9123 16.3618 18.7737 16.1983 18.6724C16.0431 18.5575 15.8605 18.4838 15.668 18.4585" fill="#111111"></path>
<path d="M29.3235 16.3545C29.0264 16.4139 28.7537 16.5583 28.5394 16.7697C28.325 16.9811 28.1786 17.2501 28.1183 17.543C28.0589 18.029 28.1684 18.5205 28.4289 18.9371C28.6894 19.3538 29.0855 19.671 29.5525 19.8369C29.8956 19.9594 30.2631 20.0001 30.6252 19.9558C30.9392 19.951 31.2449 19.856 31.505 19.6824C31.6243 19.5691 31.7132 19.4283 31.7637 19.2727C31.8141 19.1171 31.8247 18.9516 31.7943 18.791C31.7339 18.3932 31.5722 18.0169 31.3242 17.6975C31.0361 17.2966 30.6767 16.9503 30.2636 16.6754C30.0708 16.5447 29.7574 16.3188 29.5043 16.4615C29.2512 16.6041 29.5043 17.0676 29.6128 17.234C29.7378 17.3909 29.8792 17.5343 30.0346 17.6619C30.119 17.6619 30.2877 17.8402 30.4082 17.8164C30.5288 17.7926 30.4082 17.2697 30.3118 17.1865L30.4926 17.4955V17.7213V17.7926L30.577 17.7094H30.5047H30.577C30.5638 17.7157 30.5494 17.719 30.5348 17.719C30.5202 17.719 30.5058 17.7157 30.4926 17.7094C30.6011 17.7094 30.3721 17.6262 30.4926 17.7094L30.589 17.7807H30.6613H30.6011L30.6975 17.8639C30.589 17.757 30.5649 17.7451 30.6252 17.8045C30.7698 17.959 30.5529 17.6857 30.6252 17.8045C30.6252 17.8045 30.6252 17.8045 30.6252 17.7451C30.6479 17.7751 30.6681 17.8069 30.6854 17.8402C30.589 17.6857 30.6854 17.8402 30.6854 17.8402C30.6854 17.8402 30.6854 17.7689 30.6854 17.8402C30.6911 17.8756 30.6911 17.9117 30.6854 17.9471C30.6805 17.9747 30.6805 18.0028 30.6854 18.0303C30.6854 18.0303 30.6854 18.1135 30.6854 18.1373C30.6683 18.2237 30.64 18.3076 30.6011 18.3869V18.3156C30.5064 18.4689 30.362 18.5862 30.1913 18.6484H30.2757C30.0358 18.7331 29.7832 18.7773 29.5284 18.7791C29.4082 18.7919 29.287 18.7919 29.1669 18.7791H28.974H28.9017C28.8294 18.7791 28.9981 18.8386 28.9017 18.7791H28.8294C28.8294 18.7791 28.9499 18.8623 28.8294 18.7791C28.9136 18.8423 28.9869 18.9186 29.0463 19.0049C29.1789 19.1595 29.0463 18.9218 29.0463 19.0644C29.0463 19.207 29.1307 19.2545 29.1066 19.1476C29.0825 19.0406 29.1066 19.2189 29.1066 19.1476C29.1066 19.0763 29.1066 19.0881 29.1066 19.0525C29.1066 19.0168 29.1066 18.9693 29.1066 19.0525C29.1116 18.9433 29.1319 18.8353 29.1669 18.7316C29.1944 18.6242 29.2349 18.5205 29.2874 18.4226V18.4939C29.4383 18.1997 29.6904 17.9681 29.9985 17.8402H29.9141L30.131 17.7807C30.4203 17.7807 30.131 17.2578 30.0346 17.1389C29.9128 16.9794 29.7711 16.8356 29.6128 16.7111C29.5164 16.6516 29.3597 16.5328 29.2392 16.5565" fill="#111111"></path>
<path d="M13.8241 17.9116C16.5479 17.4956 19.2838 17.1034 22.0076 16.723C24.7315 16.3427 27.4674 15.9743 30.2032 15.689C31.7488 15.5313 33.3016 15.452 34.8554 15.4513C34.9519 15.4513 35.0965 15.4513 35.0242 15.2968C34.9519 15.1423 34.6385 15.0472 34.518 14.9996C33.9947 14.7635 33.4298 14.6302 32.8547 14.6074C30.1148 14.6741 27.3817 14.9083 24.6712 15.3087C21.9393 15.6573 19.2035 16.0258 16.4636 16.414L11.8596 17.0915C11.7631 17.0915 11.6185 17.0915 11.6788 17.246C11.739 17.4005 12.0765 17.5075 12.185 17.555C12.4846 17.6786 12.7953 17.7741 13.113 17.8403C13.3549 17.9133 13.6075 17.9455 13.8603 17.9354" fill="#111111"></path>
<path d="M6.08637 2.50798L6.19484 2.15142V2.05634C6.19484 2.05634 6.19484 1.93748 6.19484 2.05634C6.19484 2.17519 6.19484 2.05634 6.19484 2.05634L6.26716 1.9256C6.32026 1.82248 6.38067 1.72319 6.44794 1.62846C6.35152 1.79486 6.44794 1.62846 6.44794 1.62846L6.5082 1.55715C6.60462 1.43829 6.41178 1.64035 6.5082 1.55715L6.64078 1.43829H6.58052L6.66488 1.37887C6.66488 1.37887 6.86977 1.26001 6.7372 1.37887C6.60462 1.49772 6.84567 1.37887 6.85772 1.37887C6.86977 1.37887 6.65283 1.43829 6.79746 1.37887H6.89388L7.13493 1.1887H7.31571C7.31571 1.1887 7.48444 1.1887 7.31571 1.1887C7.43148 1.17048 7.54945 1.17048 7.66523 1.1887C7.66523 1.1887 7.85807 1.26001 7.76165 1.1887L7.96654 1.28378C8.07471 1.34845 8.1757 1.42414 8.26784 1.50961L8.34016 1.66412L8.48479 1.83051C8.79373 2.30784 9.06375 2.8086 9.29229 3.32808C9.87081 4.51663 10.4975 5.70518 10.9435 6.89372C11.4283 8.07772 11.8309 9.29284 12.1487 10.5307C12.5103 11.9688 12.7754 13.4188 13.0285 14.8689C13.0888 15.166 13.4262 15.1422 13.6552 15.0947L14.8605 14.8332L15.4993 14.7144H15.668H16.0054C16.8732 14.5717 17.753 14.441 18.6329 14.334C20.4287 14.1201 22.2486 13.9537 24.0323 13.7992L26.6477 13.5734L27.8529 13.4545C28.1554 13.4353 28.4527 13.367 28.7327 13.2524C28.9442 13.1667 29.1356 13.0391 29.2952 12.8776C29.4548 12.7162 29.5792 12.5242 29.6608 12.3135C29.7165 12.098 29.7608 11.8798 29.7933 11.6598C29.7933 11.434 29.9018 11.1963 29.95 10.9704C30.0585 10.5069 30.1549 10.0434 30.2754 9.57984C30.5044 8.64089 30.7455 7.71382 30.9986 6.78675C31.5771 4.68303 32.2038 2.60307 32.8667 0.534998C32.9631 0.249747 32.6979 0.119006 32.4569 0.142777C29.9018 0.309174 27.3708 0.58254 24.8278 0.879676C22.2847 1.17681 19.6573 1.50961 17.0661 1.80674C15.6559 1.97314 14.2579 2.12765 12.8477 2.25839C12.6319 2.27956 12.4239 2.34956 12.2399 2.46294C12.056 2.57632 11.901 2.73002 11.7871 2.91209C11.7489 2.97491 11.7287 3.04681 11.7287 3.12009C11.7287 3.19336 11.7489 3.26526 11.7871 3.32808C11.8363 3.38248 11.8983 3.42399 11.9677 3.44889C12.0372 3.47378 12.1118 3.48128 12.1849 3.47071C14.7279 3.233 17.2589 2.92398 19.7899 2.61495C22.3209 2.30593 24.9724 1.86617 27.6239 1.60469C29.022 1.46206 30.4321 1.33132 31.8422 1.23624L31.3842 0.84402C30.2513 4.40966 29.1666 7.9753 28.3712 11.6955C28.3712 11.9094 28.2747 12.1114 28.2386 12.3254C28.2024 12.5393 28.2386 12.5987 28.1663 12.6106C28.3127 12.4053 28.525 12.2546 28.7689 12.1828L27.5636 12.3016L25.0688 12.5155C23.3092 12.6701 21.5495 12.8246 19.7899 13.0385C17.845 13.2482 15.9135 13.5657 14.0048 13.9893L14.6315 14.2152C14.3784 12.8365 14.1253 11.4459 13.7878 10.0909C13.4635 8.71578 13.0283 7.36843 12.4862 6.06174C11.9559 4.75434 11.3171 3.47071 10.7506 2.23462C10.5145 1.68742 10.2022 1.17537 9.8226 0.71328C9.60369 0.473383 9.33313 0.284828 9.03074 0.161434C8.72835 0.0380395 8.4018 -0.0170674 8.07501 0.000151777C7.20456 0.0376592 6.37591 0.378849 5.73685 0.962874C5.15348 1.48487 4.73503 2.16162 4.53162 2.91209C4.4352 3.29243 4.85703 3.36374 5.13424 3.28054C5.34081 3.23215 5.5332 3.13721 5.69631 3.00317C5.85942 2.86913 5.98881 2.69963 6.07432 2.50798" fill="#111111"></path>
<path d="M3.43522 8.22488C6.29162 8.31997 9.16008 8.31997 12.0165 8.22488C12.5227 8.22488 13.2217 7.92775 13.3181 7.51175C13.4146 7.09576 12.6794 6.94125 12.2214 6.95314C9.56986 6.95314 6.90629 6.95314 4.25478 6.95314C3.97199 6.91498 3.68405 6.94477 3.41545 7.03996C3.14685 7.13516 2.90555 7.29293 2.71208 7.49987C2.48308 7.86832 2.92902 8.20111 3.43522 8.213" fill="#111111"></path>
<path d="M0.879964 11.6836C3.13375 11.5885 5.37549 11.541 7.62928 11.541C7.98387 11.5458 8.3359 11.481 8.66488 11.3504C8.99386 11.2198 9.29323 11.026 9.5456 10.7803C9.96743 10.2455 9.15992 10.1147 8.7863 10.1147C6.53251 10.1147 4.29078 10.1147 2.03699 10.2455C1.67486 10.2383 1.31486 10.3019 0.977717 10.4324C0.64057 10.563 0.332918 10.7579 0.0724572 11.0062C-0.337322 11.541 0.44608 11.6955 0.831755 11.6836" fill="#111111"></path>
<path d="M3.51933 14.6787C6.54446 14.6074 9.5455 14.5836 12.6068 14.6787C13.4911 14.695 14.3614 14.4598 15.1137 14.0012C15.2704 13.9061 15.5958 13.7041 15.5355 13.4902C15.4752 13.2762 15.0655 13.2524 14.9088 13.2524C11.8837 13.2524 8.88262 13.2524 5.82132 13.3119C4.93856 13.3071 4.07141 13.5414 3.31444 13.9893C3.15776 14.0844 2.83234 14.2865 2.89261 14.5004C2.95287 14.7144 3.36265 14.75 3.51933 14.7381" fill="#111111"></path>
</svg>