<svg width="1436" height="601" viewBox="0 0 1436 601" fill="none" xmlns="http://www.w3.org/2000/svg">
  <g clip-path="url(#clip0_2261:26755)">
    <path d="M1409.37 69.0568C1410.74 66.9484 1411.94 64.7327 1412.96 62.4305C1413.21 61.9181 1413.42 61.3723 1413.71 60.885C1414 60.3976 1414.41 60.0185 1414.72 59.5727C1415.37 58.5036 1415.89 57.3605 1416.26 56.1671C1416.73 55.0864 1417 53.9294 1417.07 52.7497C1417.16 51.5981 1417.41 50.4658 1417.8 49.3815C1418.5 47.1637 1419.02 44.8956 1419.38 42.5961C1419.53 41.4738 1419.62 40.3428 1419.63 39.2091C1419.65 38.8505 1419.62 38.4912 1419.54 38.1399C1419.47 37.6798 1419.48 37.2134 1419.56 36.7565C1419.58 35.8312 1419.52 34.9048 1419.38 33.9886C1419.22 32.7127 1418.97 31.449 1418.63 30.2073C1417.59 26.118 1414.96 22.667 1412.09 19.6457C1410.43 17.7671 1408.48 16.1707 1406.31 14.92C1404.9 14.1845 1403.42 13.6049 1401.89 13.1917C1400.96 12.9203 1400 12.7844 1399.03 12.7883C1398.69 12.7878 1398.35 12.8166 1398.02 12.8744C1398.02 12.8744 1396.76 13.067 1397.35 13.0782L1399.43 13.3867C1400.73 13.7576 1399.55 13.2713 1399.13 13.0787C1398.51 12.7543 1397.86 12.493 1397.19 12.2987C1395.83 11.892 1394.42 11.6923 1393.01 11.7065C1391 11.8334 1389.04 12.35 1387.24 13.2273C1386.3 13.6369 1385.37 14.0797 1384.39 14.4063C1383.42 14.7328 1382.32 14.918 1381.29 15.2443C1379.39 15.8362 1377.59 16.6977 1375.94 17.8027C1374.23 18.9455 1372.72 20.3465 1371.45 21.9559C1370.74 22.7383 1370.16 23.6305 1369.74 24.5985C1369.53 25.7259 1369.13 26.8078 1368.55 27.7987C1367.92 28.4611 1367.42 29.244 1367.08 30.1028C1366.77 31.244 1366.55 32.4134 1366.45 33.5957C1366.38 34.7021 1366.17 35.794 1365.83 36.8484C1365.31 37.7422 1364.74 38.6076 1364.12 39.4413C1363.46 41.3442 1363.41 43.4151 1364 45.3558C1364.56 47.5622 1365.28 49.7362 1366.01 51.9103C1367.23 55.6857 1367.99 59.6659 1369.93 63.2046C1373.69 70.0826 1380.74 73.837 1388.18 75.4062C1395.88 77.0346 1404.57 75.8016 1409.37 69.0568C1409.89 68.3304 1408.16 67.8497 1407.7 67.748C1407.03 67.5588 1406.34 67.4634 1405.65 67.4645C1405.33 67.4712 1404.57 67.4427 1404.37 67.7316C1403.1 69.5404 1401.46 71.051 1399.55 72.1598C1397.65 73.2686 1395.52 73.9494 1393.31 74.1556C1392.8 74.2225 1392.28 74.256 1391.76 74.2557C1391.25 74.2471 1390.74 74.2003 1390.24 74.1156L1389.73 74.0551C1389.85 74.0723 1390.21 74.132 1389.73 74.0551L1388.83 73.8933C1388.52 73.8338 1388.83 73.8933 1388.83 73.8933L1388.31 73.7665L1387.25 73.4796C1386.76 73.3363 1386.95 73.387 1387.06 73.429L1386.55 73.2607L1385.66 72.9333C1385.06 72.715 1384.66 72.5473 1384.11 72.2878C1383.04 71.7861 1382.01 71.1876 1381.05 70.4999C1377.01 67.4653 1374.12 63.1506 1372.86 58.2733C1371.96 55.1953 1371.01 52.1337 1370.04 49.0555C1369.46 47.5247 1369.08 45.923 1368.93 44.2947C1368.71 42.8573 1368.91 41.3931 1369.5 40.0725C1369.86 39.4778 1370.42 39.0581 1370.76 38.4301C1371.11 37.7282 1371.35 36.9746 1371.46 36.1968C1371.64 34.5559 1371.89 32.9258 1372.23 31.3128C1372.41 30.6095 1372.76 29.961 1373.24 29.4207C1373.73 28.9304 1374.12 28.3465 1374.38 27.7031C1374.62 26.9422 1374.73 26.1474 1375.02 25.3949C1375.38 24.6329 1375.84 23.9268 1376.4 23.2975C1378.18 21.0395 1380.43 19.2061 1383 17.9286C1384.29 17.3204 1385.63 16.8521 1387.01 16.5317C1388.51 16.1538 1389.96 15.6424 1391.36 15.0039C1392.48 14.4322 1393.67 13.9906 1394.9 13.6875C1395.15 13.6433 1395.4 13.6141 1395.66 13.6001C1395.43 13.6073 1395.66 13.6001 1395.66 13.6001L1395.85 13.6425C1395.67 13.6411 1395.49 13.5977 1395.33 13.5156C1394.56 13.2965 1395.38 13.5656 1395.53 13.7238C1395.97 13.9928 1396.43 14.225 1396.9 14.4181C1398.12 14.9068 1399.43 15.0842 1400.72 14.9339C1401.09 14.8985 1401.45 14.811 1401.79 14.6741C1401.02 15.0597 1399.6 14.2657 1400.58 14.6433C1401.91 15.1285 1403.16 15.8226 1404.28 16.6994C1406.4 18.4654 1408.3 20.4836 1409.93 22.7085C1411.61 24.8339 1412.85 27.2793 1413.55 29.8923C1413.87 31.3741 1414.1 32.8715 1414.26 34.3777C1414.32 34.9288 1414.32 35.484 1414.27 36.0346C1414.23 36.5629 1414.26 37.0947 1414.35 37.6173C1414.47 39.0867 1414.39 40.5635 1414.11 42.0068C1413.85 43.4733 1413.51 44.9236 1413.09 46.3511C1412.7 47.7907 1412.08 49.2623 1411.82 50.7356C1411.71 51.4309 1411.79 52.1438 1411.72 52.8393C1411.58 53.6068 1411.35 54.3541 1411.04 55.0645C1410.73 55.8583 1410.41 56.6437 1410.09 57.4126C1409.75 58.0876 1409.34 58.7196 1408.86 59.2953C1408.04 60.5963 1407.34 61.9712 1406.78 63.4025C1406.08 64.9088 1405.26 66.3612 1404.35 67.7481C1403.84 68.4912 1405.55 68.9469 1406.01 69.0652C1406.68 69.2471 1407.37 69.3396 1408.07 69.3404C1408.38 69.342 1409.15 69.3706 1409.35 69.0733" fill="#111111"/>
    <path d="M1409.37 69.0568C1410.74 66.9484 1411.94 64.7327 1412.96 62.4305C1413.21 61.9181 1413.42 61.3723 1413.71 60.885C1414 60.3976 1414.41 60.0185 1414.72 59.5727C1415.37 58.5036 1415.89 57.3605 1416.26 56.1671C1416.73 55.0864 1417 53.9294 1417.07 52.7497C1417.16 51.5981 1417.41 50.4658 1417.8 49.3815C1418.5 47.1637 1419.02 44.8956 1419.38 42.5961C1419.53 41.4738 1419.62 40.3428 1419.63 39.2091C1419.65 38.8505 1419.62 38.4912 1419.54 38.1399C1419.47 37.6798 1419.48 37.2134 1419.56 36.7565C1419.58 35.8312 1419.52 34.9048 1419.38 33.9886C1419.22 32.7127 1418.97 31.449 1418.63 30.2073C1417.59 26.118 1414.96 22.667 1412.09 19.6457C1410.43 17.7671 1408.48 16.1707 1406.31 14.92C1404.9 14.1845 1403.42 13.6049 1401.89 13.1917C1400.96 12.9203 1400 12.7844 1399.03 12.7883C1398.69 12.7878 1398.35 12.8166 1398.02 12.8744C1398.02 12.8744 1396.76 13.067 1397.35 13.0782L1399.43 13.3867C1400.73 13.7576 1399.55 13.2713 1399.13 13.0787C1398.51 12.7543 1397.86 12.493 1397.19 12.2987C1395.83 11.892 1394.42 11.6923 1393.01 11.7065C1391 11.8334 1389.04 12.35 1387.24 13.2273C1386.3 13.6369 1385.37 14.0797 1384.39 14.4063C1383.42 14.7328 1382.32 14.918 1381.29 15.2443C1379.39 15.8362 1377.59 16.6977 1375.94 17.8027C1374.23 18.9455 1372.72 20.3465 1371.45 21.9559C1370.74 22.7383 1370.16 23.6305 1369.74 24.5985C1369.53 25.7259 1369.13 26.8078 1368.55 27.7987C1367.92 28.4611 1367.42 29.244 1367.08 30.1028C1366.77 31.244 1366.55 32.4134 1366.45 33.5957C1366.38 34.7021 1366.17 35.794 1365.83 36.8484C1365.31 37.7422 1364.74 38.6076 1364.12 39.4413C1363.46 41.3442 1363.41 43.4151 1364 45.3558C1364.56 47.5622 1365.28 49.7362 1366.01 51.9103C1367.23 55.6857 1367.99 59.6659 1369.93 63.2046C1373.69 70.0826 1380.74 73.837 1388.18 75.4062C1395.88 77.0346 1404.57 75.8016 1409.37 69.0568C1409.89 68.3304 1408.16 67.8497 1407.7 67.748C1407.03 67.5588 1406.34 67.4634 1405.65 67.4645C1405.33 67.4712 1404.57 67.4427 1404.37 67.7316C1403.1 69.5404 1401.46 71.051 1399.55 72.1598C1397.65 73.2686 1395.52 73.9494 1393.31 74.1556C1392.8 74.2225 1392.28 74.256 1391.76 74.2557C1391.25 74.2471 1390.74 74.2003 1390.24 74.1156L1389.73 74.0551C1389.85 74.0723 1390.21 74.132 1389.73 74.0551L1388.83 73.8933C1388.52 73.8338 1388.83 73.8933 1388.83 73.8933L1388.31 73.7665L1387.25 73.4796C1386.76 73.3363 1386.95 73.387 1387.06 73.429L1386.55 73.2607L1385.66 72.9333C1385.06 72.715 1384.66 72.5473 1384.11 72.2878C1383.04 71.7861 1382.01 71.1876 1381.05 70.4999C1377.01 67.4653 1374.12 63.1506 1372.86 58.2733C1371.96 55.1953 1371.01 52.1337 1370.04 49.0555C1369.46 47.5247 1369.08 45.923 1368.93 44.2947C1368.71 42.8573 1368.91 41.3931 1369.5 40.0725C1369.86 39.4778 1370.42 39.0581 1370.76 38.4301C1371.11 37.7282 1371.35 36.9746 1371.46 36.1968C1371.64 34.5559 1371.89 32.9258 1372.23 31.3128C1372.41 30.6095 1372.76 29.961 1373.24 29.4207C1373.73 28.9304 1374.12 28.3465 1374.38 27.7031C1374.62 26.9422 1374.73 26.1474 1375.02 25.3949C1375.38 24.6329 1375.84 23.9268 1376.4 23.2975C1378.18 21.0395 1380.43 19.2061 1383 17.9286C1384.29 17.3204 1385.63 16.8521 1387.01 16.5317C1388.51 16.1538 1389.96 15.6424 1391.36 15.0039C1392.48 14.4322 1393.67 13.9906 1394.9 13.6875C1395.15 13.6433 1395.4 13.6141 1395.66 13.6001C1395.43 13.6073 1395.66 13.6001 1395.66 13.6001L1395.85 13.6425C1395.67 13.6411 1395.49 13.5977 1395.33 13.5156C1394.56 13.2965 1395.38 13.5656 1395.53 13.7238C1395.97 13.9928 1396.43 14.225 1396.9 14.4181C1398.12 14.9068 1399.43 15.0842 1400.72 14.9339C1401.09 14.8985 1401.45 14.811 1401.79 14.6741C1401.02 15.0597 1399.6 14.2657 1400.58 14.6433C1401.91 15.1285 1403.16 15.8226 1404.28 16.6994C1406.4 18.4654 1408.3 20.4836 1409.93 22.7085C1411.61 24.8339 1412.85 27.2793 1413.55 29.8923C1413.87 31.3741 1414.1 32.8715 1414.26 34.3777C1414.32 34.9288 1414.32 35.484 1414.27 36.0346C1414.23 36.5629 1414.26 37.0947 1414.35 37.6173C1414.47 39.0867 1414.39 40.5635 1414.11 42.0068C1413.85 43.4733 1413.51 44.9236 1413.09 46.3511C1412.7 47.7907 1412.08 49.2623 1411.82 50.7356C1411.71 51.4309 1411.79 52.1438 1411.72 52.8393C1411.58 53.6068 1411.35 54.3541 1411.04 55.0645C1410.73 55.8583 1410.41 56.6437 1410.09 57.4126C1409.75 58.0876 1409.34 58.7196 1408.86 59.2953C1408.04 60.5963 1407.34 61.9712 1406.78 63.4025C1406.08 64.9088 1405.26 66.3612 1404.35 67.7481C1403.84 68.4912 1405.55 68.9469 1406.01 69.0652C1406.68 69.2471 1407.37 69.3396 1408.07 69.3404C1408.38 69.342 1409.15 69.3706 1409.35 69.0733" stroke="#111111" stroke-width="0.45" stroke-miterlimit="10"/>
    <path d="M1393.21 22.7587C1392.94 22.1067 1392.5 21.5417 1391.93 21.1286C1391.67 20.9547 1391.47 20.7179 1391.34 20.4422C1391.21 20.1666 1391.16 19.8619 1391.18 19.5592C1391.06 19.6829 1390.92 19.8148 1390.75 19.9051L1392.7 19.3761L1388.15 18.5751C1389.48 19.4987 1390.87 20.3358 1392.31 21.0808L1392.81 21.4064C1392.9 21.4809 1392.99 21.5646 1393.06 21.6562C1392.9 21.498 1392.93 21.4235 1393.01 21.7056C1393.28 22.462 1393.46 23.2431 1393.56 24.0362C1393.8 27.7488 1392.5 31.5449 1391.55 35.0777C1390.48 38.4512 1389.98 41.9853 1390.08 45.5336C1390.24 47.3856 1390.73 49.1974 1391.52 50.8841C1392.34 52.4754 1393.05 54.1204 1393.65 55.8072C1394.32 58.1301 1395.19 60.6529 1394.68 63.0943C1394.37 64.2381 1393.96 65.3529 1393.47 66.4269C1393.31 66.9267 1393.09 67.4003 1392.79 67.8319C1392.59 68.038 1392.13 68.1435 1392.55 68.1786L1395.74 69.5447C1396.51 66.6821 1397.04 62.9733 1395.63 60.1994C1394.79 58.5384 1393.78 57.0588 1393 55.3318C1392.34 53.8542 1391.83 52.3138 1391.47 50.7348C1390.23 45.0373 1391.46 39.41 1392.89 33.8996C1393.29 32.3524 1393.71 30.797 1394.05 29.2412C1394.53 27.0979 1393.84 24.8909 1393.28 22.8253C1393.19 22.5101 1392.35 22.1994 1392.15 22.1239C1391.48 21.8987 1390.79 21.7616 1390.09 21.7161C1389.6 21.6723 1387.86 21.5146 1388.09 22.3856C1388.77 24.2583 1389 26.2593 1388.77 28.2294C1388.5 29.6033 1388.1 30.9765 1387.76 32.3417C1387.01 35.001 1386.41 37.6999 1385.95 40.4267C1385.03 46.558 1386.28 52.8386 1389.48 58.1892C1390.04 59.0015 1390.49 59.8772 1390.84 60.7971C1391.08 61.7959 1391.17 62.8237 1391.12 63.8472C1391.09 65.4797 1390.86 67.1007 1390.44 68.6736C1390.19 69.5837 1393.3 70.0049 1393.63 70.0397C1394.91 70.2776 1396.22 70.0981 1397.37 69.5279C1398.29 68.9442 1398.58 67.6699 1398.98 66.7274C1399.4 65.7912 1399.73 64.813 1399.96 63.8079C1400.17 62.57 1400.1 61.2997 1399.76 60.0871C1399.31 57.9048 1398.66 55.7681 1397.81 53.7069C1396.78 51.8253 1396.03 49.803 1395.59 47.7063C1395.11 43.6364 1395.94 39.8214 1396.99 35.9246C1397.55 33.5829 1398.11 31.3572 1398.58 29.2221C1399.03 27.3168 1399.06 25.335 1398.69 23.407C1398.63 22.9964 1398.48 22.6015 1398.27 22.246C1398.05 21.8905 1397.76 21.5816 1397.43 21.338C1396.65 20.8205 1395.82 20.3608 1395.02 19.9012C1394.21 19.4416 1393.33 18.7911 1392.46 18.3311C1391.17 17.6783 1389.7 17.4756 1388.29 17.7556C1387.64 17.9181 1386.99 18.1054 1386.34 18.2845C1386.25 18.3091 1386.17 18.3578 1386.1 18.4258C1386.03 18.4938 1385.98 18.5787 1385.96 18.672C1385.93 19.0655 1386 19.4601 1386.15 19.8266C1386.3 20.1931 1386.53 20.5219 1386.82 20.7887C1387.38 21.1758 1387.82 21.7084 1388.1 22.3276C1388.21 22.643 1389 22.9368 1389.23 23.0208C1389.88 23.2544 1390.56 23.4025 1391.24 23.4615C1391.7 23.5051 1393.54 23.6467 1393.25 22.8003" fill="#111111"/>
    <path d="M1393.21 22.7587C1392.94 22.1067 1392.5 21.5417 1391.93 21.1286C1391.67 20.9547 1391.47 20.7179 1391.34 20.4422C1391.21 20.1666 1391.16 19.8619 1391.18 19.5592C1391.06 19.6829 1390.92 19.8148 1390.75 19.9051L1392.7 19.3761L1388.15 18.5751C1389.48 19.4987 1390.87 20.3358 1392.31 21.0808L1392.81 21.4064C1392.9 21.4809 1392.99 21.5646 1393.06 21.6562C1392.9 21.498 1392.93 21.4235 1393.01 21.7056C1393.28 22.462 1393.46 23.2431 1393.56 24.0362C1393.8 27.7488 1392.5 31.5449 1391.55 35.0777C1390.48 38.4512 1389.98 41.9853 1390.08 45.5336C1390.24 47.3856 1390.73 49.1974 1391.52 50.8841C1392.34 52.4754 1393.05 54.1204 1393.65 55.8072C1394.32 58.1301 1395.19 60.6529 1394.68 63.0943C1394.37 64.2381 1393.96 65.3529 1393.47 66.4269C1393.31 66.9267 1393.09 67.4003 1392.79 67.8319C1392.59 68.038 1392.13 68.1435 1392.55 68.1786L1395.74 69.5447C1396.51 66.6821 1397.04 62.9733 1395.63 60.1994C1394.79 58.5384 1393.78 57.0588 1393 55.3318C1392.34 53.8542 1391.83 52.3138 1391.47 50.7348C1390.23 45.0373 1391.46 39.41 1392.89 33.8996C1393.29 32.3524 1393.71 30.797 1394.05 29.2412C1394.53 27.0979 1393.84 24.8909 1393.28 22.8253C1393.19 22.5101 1392.35 22.1994 1392.15 22.1239C1391.48 21.8987 1390.79 21.7616 1390.09 21.7161C1389.6 21.6723 1387.86 21.5146 1388.09 22.3856C1388.77 24.2583 1389 26.2593 1388.77 28.2294C1388.5 29.6033 1388.1 30.9765 1387.76 32.3417C1387.01 35.001 1386.41 37.6999 1385.95 40.4267C1385.03 46.558 1386.28 52.8386 1389.48 58.1892C1390.04 59.0015 1390.49 59.8772 1390.84 60.7971C1391.08 61.7959 1391.17 62.8237 1391.12 63.8472C1391.09 65.4797 1390.86 67.1007 1390.44 68.6736C1390.19 69.5837 1393.3 70.0049 1393.63 70.0397C1394.91 70.2776 1396.22 70.0981 1397.37 69.5279C1398.29 68.9442 1398.58 67.6699 1398.98 66.7274C1399.4 65.7912 1399.73 64.813 1399.96 63.8079C1400.17 62.57 1400.1 61.2997 1399.76 60.0871C1399.31 57.9048 1398.66 55.7681 1397.81 53.7069C1396.78 51.8253 1396.03 49.803 1395.59 47.7063C1395.11 43.6364 1395.94 39.8214 1396.99 35.9246C1397.55 33.5829 1398.11 31.3572 1398.58 29.2221C1399.03 27.3168 1399.06 25.335 1398.69 23.407C1398.63 22.9964 1398.48 22.6015 1398.27 22.246C1398.05 21.8905 1397.76 21.5816 1397.43 21.338C1396.65 20.8205 1395.82 20.3608 1395.02 19.9012C1394.21 19.4416 1393.33 18.7911 1392.46 18.3311C1391.17 17.6783 1389.7 17.4756 1388.29 17.7556C1387.64 17.9181 1386.99 18.1054 1386.34 18.2845C1386.25 18.3091 1386.17 18.3578 1386.1 18.4258C1386.03 18.4938 1385.98 18.5787 1385.96 18.672C1385.93 19.0655 1386 19.4601 1386.15 19.8266C1386.3 20.1931 1386.53 20.5219 1386.82 20.7887C1387.38 21.1758 1387.82 21.7084 1388.1 22.3276C1388.21 22.643 1389 22.9368 1389.23 23.0208C1389.88 23.2544 1390.56 23.4025 1391.24 23.4615C1391.7 23.5051 1393.54 23.6467 1393.25 22.8003" stroke="#111111" stroke-width="0.45" stroke-miterlimit="10"/>
  </g>
  <g clip-path="url(#clip1_2261:26755)">
    <path d="M1210.75 395.572C1210.49 394.341 1210.13 393.133 1209.67 391.958C1209.57 391.69 1209.45 391.422 1209.38 391.148C1209.31 390.874 1209.32 390.594 1209.27 390.326C1209.12 389.719 1208.89 389.132 1208.6 388.577C1208.38 388.029 1208.06 387.524 1207.66 387.085C1207.28 386.643 1206.96 386.155 1206.72 385.633C1206.17 384.604 1205.54 383.616 1204.84 382.678C1204.49 382.227 1204.12 381.797 1203.72 381.39C1203.59 381.258 1203.45 381.142 1203.3 381.046C1203.11 380.906 1202.95 380.739 1202.81 380.55C1202.48 380.215 1202.13 379.908 1201.75 379.635C1201.23 379.24 1200.69 378.881 1200.12 378.562C1198.28 377.484 1196.1 377.192 1193.98 377.14C1192.71 377.062 1191.43 377.188 1190.2 377.513C1189.43 377.75 1188.69 378.069 1187.99 378.463C1187.56 378.696 1187.17 378.989 1186.82 379.332C1186.7 379.452 1186.59 379.583 1186.49 379.722C1186.49 379.722 1186.1 380.235 1186.32 380.031L1187.18 379.402C1187.78 379.075 1187.18 379.32 1186.96 379.402C1186.62 379.505 1186.29 379.642 1185.98 379.81C1185.35 380.147 1184.77 380.575 1184.27 381.081C1183.59 381.835 1183.07 382.71 1182.74 383.657C1182.55 384.135 1182.38 384.619 1182.14 385.079C1181.91 385.54 1181.58 385.995 1181.33 386.473C1180.86 387.354 1180.52 388.296 1180.32 389.271C1180.12 390.277 1180.08 391.307 1180.2 392.325C1180.23 392.852 1180.34 393.372 1180.54 393.864C1180.87 394.338 1181.11 394.862 1181.26 395.415C1181.27 395.875 1181.37 396.328 1181.56 396.75C1181.86 397.265 1182.2 397.753 1182.59 398.207C1182.96 398.625 1183.28 399.085 1183.54 399.577C1183.67 400.078 1183.77 400.586 1183.85 401.098C1184.3 402.006 1185.03 402.753 1185.94 403.232C1186.93 403.815 1187.97 404.328 1189.01 404.841C1190.81 405.744 1192.51 406.881 1194.48 407.446C1198.3 408.548 1202.19 407.382 1205.42 405.307C1208.77 403.162 1211.45 399.653 1210.75 395.572C1210.68 395.129 1209.89 395.572 1209.68 395.7C1209.38 395.869 1209.09 396.079 1208.85 396.324C1208.73 396.441 1208.45 396.697 1208.48 396.872C1208.68 397.958 1208.63 399.072 1208.34 400.139C1208.06 401.205 1207.54 402.199 1206.82 403.051C1206.66 403.256 1206.48 403.451 1206.3 403.634C1206.11 403.812 1205.91 403.975 1205.7 404.124L1205.5 404.281C1205.54 404.246 1205.69 404.141 1205.5 404.281L1205.11 404.543C1204.98 404.631 1205.11 404.543 1205.11 404.543L1204.88 404.683L1204.39 404.957C1204.17 405.08 1204.26 405.027 1204.31 405.004L1204.07 405.126L1203.63 405.324C1203.34 405.459 1203.13 405.54 1202.84 405.645C1202.27 405.846 1201.69 405.997 1201.1 406.094C1198.56 406.448 1195.97 405.944 1193.76 404.666C1192.33 403.896 1190.89 403.15 1189.44 402.404C1188.67 402.07 1187.96 401.637 1187.32 401.116C1186.73 400.683 1186.28 400.094 1186.01 399.419C1185.93 399.081 1185.98 398.737 1185.88 398.393C1185.75 398.022 1185.56 397.671 1185.33 397.356C1184.8 396.714 1184.3 396.047 1183.85 395.356C1183.66 395.044 1183.55 394.692 1183.53 394.33C1183.53 393.984 1183.46 393.641 1183.32 393.322C1183.14 392.966 1182.89 392.646 1182.72 392.279C1182.58 391.883 1182.49 391.468 1182.47 391.049C1182.29 389.623 1182.44 388.178 1182.91 386.817C1183.15 386.148 1183.47 385.507 1183.85 384.905C1184.25 384.244 1184.59 383.549 1184.86 382.829C1185.06 382.229 1185.33 381.652 1185.66 381.11C1185.73 381.006 1185.81 380.907 1185.9 380.812C1185.82 380.894 1185.9 380.812 1185.9 380.812L1185.98 380.76C1185.92 380.824 1185.84 380.871 1185.75 380.9C1185.4 381.092 1185.79 380.9 1185.9 380.9C1186.15 380.84 1186.4 380.761 1186.64 380.661C1187.25 380.406 1187.79 380.005 1188.2 379.495C1188.32 379.352 1188.42 379.193 1188.49 379.023C1188.35 379.431 1187.56 379.652 1188.04 379.443C1188.7 379.142 1189.39 378.946 1190.11 378.86C1191.51 378.735 1192.92 378.778 1194.3 378.988C1195.67 379.143 1196.99 379.572 1198.18 380.247C1198.83 380.658 1199.45 381.104 1200.05 381.582C1200.27 381.756 1200.47 381.951 1200.65 382.165C1200.82 382.366 1201.03 382.544 1201.25 382.695C1201.82 383.173 1202.32 383.724 1202.74 384.333C1203.17 384.943 1203.57 385.575 1203.93 386.228C1204.31 386.875 1204.62 387.615 1205.05 388.227C1205.26 388.513 1205.55 388.734 1205.77 389.008C1206 389.327 1206.19 389.671 1206.33 390.034C1206.5 390.425 1206.67 390.815 1206.83 391.2C1206.95 391.557 1207.03 391.927 1207.06 392.302C1207.24 393.051 1207.48 393.783 1207.79 394.488C1208.08 395.269 1208.31 396.07 1208.48 396.884C1208.56 397.327 1209.34 396.884 1209.55 396.761C1209.86 396.588 1210.14 396.377 1210.39 396.132C1210.5 396.021 1210.79 395.759 1210.75 395.584" fill="#111111"/>
    <path d="M1210.75 395.572C1210.49 394.341 1210.13 393.133 1209.67 391.958C1209.57 391.69 1209.45 391.422 1209.38 391.148C1209.31 390.874 1209.32 390.594 1209.27 390.326C1209.12 389.719 1208.89 389.132 1208.6 388.577C1208.38 388.029 1208.06 387.524 1207.66 387.085C1207.28 386.643 1206.96 386.155 1206.72 385.633C1206.17 384.604 1205.54 383.616 1204.84 382.678C1204.49 382.227 1204.12 381.797 1203.72 381.39C1203.59 381.258 1203.45 381.142 1203.3 381.046C1203.11 380.906 1202.95 380.739 1202.81 380.55C1202.48 380.215 1202.13 379.908 1201.75 379.635C1201.23 379.24 1200.69 378.881 1200.12 378.562C1198.28 377.484 1196.1 377.192 1193.98 377.14C1192.71 377.062 1191.43 377.188 1190.2 377.513C1189.43 377.75 1188.69 378.069 1187.99 378.463C1187.56 378.696 1187.17 378.989 1186.82 379.332C1186.7 379.452 1186.59 379.583 1186.49 379.722C1186.49 379.722 1186.1 380.235 1186.32 380.031L1187.18 379.402C1187.78 379.075 1187.18 379.32 1186.96 379.402C1186.62 379.505 1186.29 379.642 1185.98 379.81C1185.35 380.147 1184.77 380.575 1184.27 381.081C1183.59 381.835 1183.07 382.71 1182.74 383.657C1182.55 384.135 1182.38 384.619 1182.14 385.079C1181.91 385.54 1181.58 385.995 1181.33 386.473C1180.86 387.354 1180.52 388.296 1180.32 389.271C1180.12 390.277 1180.08 391.307 1180.2 392.325C1180.23 392.852 1180.34 393.372 1180.54 393.864C1180.87 394.338 1181.11 394.862 1181.26 395.415C1181.27 395.875 1181.37 396.328 1181.56 396.75C1181.86 397.265 1182.2 397.753 1182.59 398.207C1182.96 398.625 1183.28 399.085 1183.54 399.577C1183.67 400.078 1183.77 400.586 1183.85 401.098C1184.3 402.006 1185.03 402.753 1185.94 403.232C1186.93 403.815 1187.97 404.328 1189.01 404.841C1190.81 405.744 1192.51 406.881 1194.48 407.446C1198.3 408.548 1202.19 407.382 1205.42 405.307C1208.77 403.162 1211.45 399.653 1210.75 395.572C1210.68 395.129 1209.89 395.572 1209.68 395.7C1209.38 395.869 1209.09 396.079 1208.85 396.324C1208.73 396.441 1208.45 396.697 1208.48 396.872C1208.68 397.958 1208.63 399.072 1208.34 400.139C1208.06 401.205 1207.54 402.199 1206.82 403.051C1206.66 403.256 1206.48 403.451 1206.3 403.634C1206.11 403.812 1205.91 403.975 1205.7 404.124L1205.5 404.281C1205.54 404.246 1205.69 404.141 1205.5 404.281L1205.11 404.543C1204.98 404.631 1205.11 404.543 1205.11 404.543L1204.88 404.683L1204.39 404.957C1204.17 405.08 1204.26 405.027 1204.31 405.004L1204.07 405.126L1203.63 405.324C1203.34 405.459 1203.13 405.54 1202.84 405.645C1202.27 405.846 1201.69 405.997 1201.1 406.094C1198.56 406.448 1195.97 405.944 1193.76 404.666C1192.33 403.896 1190.89 403.15 1189.44 402.404C1188.67 402.07 1187.96 401.637 1187.32 401.116C1186.73 400.683 1186.28 400.094 1186.01 399.419C1185.93 399.081 1185.98 398.737 1185.88 398.393C1185.75 398.022 1185.56 397.671 1185.33 397.356C1184.8 396.714 1184.3 396.047 1183.85 395.356C1183.66 395.044 1183.55 394.692 1183.53 394.33C1183.53 393.984 1183.46 393.641 1183.32 393.322C1183.14 392.966 1182.89 392.646 1182.72 392.279C1182.58 391.883 1182.49 391.468 1182.47 391.049C1182.29 389.623 1182.44 388.178 1182.91 386.817C1183.15 386.148 1183.47 385.507 1183.85 384.905C1184.25 384.244 1184.59 383.549 1184.86 382.829C1185.06 382.229 1185.33 381.652 1185.66 381.11C1185.73 381.006 1185.81 380.907 1185.9 380.812C1185.82 380.894 1185.9 380.812 1185.9 380.812L1185.98 380.76C1185.92 380.824 1185.84 380.871 1185.75 380.9C1185.4 381.092 1185.79 380.9 1185.9 380.9C1186.15 380.84 1186.4 380.761 1186.64 380.661C1187.25 380.406 1187.79 380.005 1188.2 379.495C1188.32 379.352 1188.42 379.193 1188.49 379.023C1188.35 379.431 1187.56 379.652 1188.04 379.443C1188.7 379.142 1189.39 378.946 1190.11 378.86C1191.51 378.735 1192.92 378.778 1194.3 378.988C1195.67 379.143 1196.99 379.572 1198.18 380.247C1198.83 380.658 1199.45 381.104 1200.05 381.582C1200.27 381.756 1200.47 381.951 1200.65 382.165C1200.82 382.366 1201.03 382.544 1201.25 382.695C1201.82 383.173 1202.32 383.724 1202.74 384.333C1203.17 384.943 1203.57 385.575 1203.93 386.228C1204.31 386.875 1204.62 387.615 1205.05 388.227C1205.26 388.513 1205.55 388.734 1205.77 389.008C1206 389.327 1206.19 389.671 1206.33 390.034C1206.5 390.425 1206.67 390.815 1206.83 391.2C1206.95 391.557 1207.03 391.927 1207.06 392.302C1207.24 393.051 1207.48 393.783 1207.79 394.488C1208.08 395.269 1208.31 396.07 1208.48 396.884C1208.56 397.327 1209.34 396.884 1209.55 396.761C1209.86 396.588 1210.14 396.377 1210.39 396.132C1210.5 396.021 1210.79 395.759 1210.75 395.584" stroke="#111111" stroke-width="0.45" stroke-miterlimit="10"/>
    <path d="M1188.31 384.916C1187.98 384.78 1187.62 384.737 1187.26 384.794C1187.11 384.821 1186.95 384.808 1186.81 384.757C1186.66 384.706 1186.53 384.618 1186.43 384.502C1186.43 384.59 1186.43 384.683 1186.4 384.776L1186.91 383.902L1184.99 385.225C1185.8 385.081 1186.6 384.887 1187.38 384.642L1187.68 384.578C1187.74 384.572 1187.8 384.572 1187.86 384.578C1187.75 384.578 1187.73 384.543 1187.86 384.613C1188.23 384.787 1188.58 384.998 1188.9 385.242C1190.32 386.472 1191.21 388.274 1192.14 389.859C1192.97 391.43 1194.06 392.854 1195.37 394.074C1196.1 394.672 1196.92 395.14 1197.81 395.455C1198.68 395.728 1199.53 396.06 1200.34 396.446C1201.42 397.029 1202.64 397.612 1203.34 398.656C1203.63 399.17 1203.89 399.708 1204.1 400.264C1204.22 400.495 1204.31 400.743 1204.36 400.999C1204.36 401.145 1204.23 401.343 1204.39 401.209L1206.03 400.562C1205.28 399.279 1204.14 397.781 1202.64 397.297C1201.74 397.006 1200.84 396.843 1199.94 396.505C1199.17 396.217 1198.44 395.854 1197.74 395.42C1195.25 393.846 1193.67 391.421 1192.2 388.967C1191.79 388.279 1191.38 387.58 1190.94 386.91C1190.35 385.983 1189.3 385.446 1188.36 384.916C1188.22 384.834 1187.8 385.021 1187.7 385.068C1187.38 385.223 1187.08 385.419 1186.82 385.651C1186.62 385.808 1185.94 386.368 1186.34 386.595C1187.25 387.017 1188.06 387.642 1188.68 388.419C1189.08 389.002 1189.43 389.626 1189.8 390.232C1190.48 391.437 1191.24 392.604 1192.05 393.73C1193.92 396.222 1196.63 398.001 1199.7 398.761C1200.2 398.851 1200.67 399 1201.13 399.204C1201.57 399.471 1201.98 399.801 1202.32 400.183C1202.9 400.77 1203.4 401.424 1203.81 402.13C1204.05 402.538 1205.32 401.588 1205.45 401.483C1206 401.117 1206.4 400.589 1206.61 399.979C1206.73 399.448 1206.38 398.895 1206.18 398.422C1206 397.94 1205.77 397.477 1205.49 397.041C1205.12 396.531 1204.64 396.107 1204.08 395.799C1203.13 395.184 1202.13 394.659 1201.09 394.231C1200.04 393.932 1199.04 393.482 1198.13 392.896C1196.5 391.625 1195.43 389.982 1194.4 388.233C1193.76 387.207 1193.16 386.222 1192.57 385.301C1192.04 384.47 1191.34 383.757 1190.51 383.208C1190.34 383.084 1190.15 382.995 1189.95 382.946C1189.74 382.897 1189.53 382.889 1189.32 382.922C1188.85 383.016 1188.39 383.144 1187.93 383.266C1187.48 383.389 1186.93 383.47 1186.45 383.616C1185.75 383.842 1185.15 384.289 1184.75 384.887C1184.57 385.173 1184.4 385.47 1184.24 385.761C1184.21 385.803 1184.2 385.85 1184.2 385.898C1184.2 385.946 1184.21 385.994 1184.24 386.035C1184.37 386.183 1184.54 386.299 1184.72 386.376C1184.91 386.453 1185.11 386.488 1185.31 386.478C1185.65 386.418 1186 386.45 1186.32 386.572C1186.47 386.641 1186.86 386.467 1186.98 386.414C1187.29 386.268 1187.59 386.082 1187.86 385.86C1188.04 385.715 1188.75 385.114 1188.34 384.916" fill="#111111"/>
    <path d="M1188.31 384.916C1187.98 384.78 1187.62 384.737 1187.26 384.794C1187.11 384.821 1186.95 384.808 1186.81 384.757C1186.66 384.706 1186.53 384.618 1186.43 384.502C1186.43 384.59 1186.43 384.683 1186.4 384.776L1186.91 383.902L1184.99 385.225C1185.8 385.081 1186.6 384.887 1187.38 384.642L1187.68 384.578C1187.74 384.572 1187.8 384.572 1187.86 384.578C1187.75 384.578 1187.73 384.543 1187.86 384.613C1188.23 384.787 1188.58 384.998 1188.9 385.242C1190.32 386.472 1191.21 388.274 1192.14 389.859C1192.97 391.43 1194.06 392.854 1195.37 394.074C1196.1 394.672 1196.92 395.14 1197.81 395.455C1198.68 395.728 1199.53 396.06 1200.34 396.446C1201.42 397.029 1202.64 397.612 1203.34 398.656C1203.63 399.17 1203.89 399.708 1204.1 400.264C1204.22 400.495 1204.31 400.743 1204.36 400.999C1204.36 401.145 1204.23 401.343 1204.39 401.209L1206.03 400.562C1205.28 399.279 1204.14 397.781 1202.64 397.297C1201.74 397.006 1200.84 396.843 1199.94 396.505C1199.17 396.217 1198.44 395.854 1197.74 395.42C1195.25 393.846 1193.67 391.421 1192.2 388.967C1191.79 388.279 1191.38 387.58 1190.94 386.91C1190.35 385.983 1189.3 385.446 1188.36 384.916C1188.22 384.834 1187.8 385.021 1187.7 385.068C1187.38 385.223 1187.08 385.419 1186.82 385.651C1186.62 385.808 1185.94 386.368 1186.34 386.595C1187.25 387.017 1188.06 387.642 1188.68 388.419C1189.08 389.002 1189.43 389.626 1189.8 390.232C1190.48 391.437 1191.24 392.604 1192.05 393.73C1193.92 396.222 1196.63 398.001 1199.7 398.761C1200.2 398.851 1200.67 399 1201.13 399.204C1201.57 399.471 1201.98 399.801 1202.32 400.183C1202.9 400.77 1203.4 401.424 1203.81 402.13C1204.05 402.538 1205.32 401.588 1205.45 401.483C1206 401.117 1206.4 400.589 1206.61 399.979C1206.73 399.448 1206.38 398.895 1206.18 398.422C1206 397.94 1205.77 397.477 1205.49 397.041C1205.12 396.531 1204.64 396.107 1204.08 395.799C1203.13 395.184 1202.13 394.659 1201.09 394.231C1200.04 393.932 1199.04 393.482 1198.13 392.896C1196.5 391.625 1195.43 389.982 1194.4 388.233C1193.76 387.207 1193.16 386.222 1192.57 385.301C1192.04 384.47 1191.34 383.757 1190.51 383.208C1190.34 383.084 1190.15 382.995 1189.95 382.946C1189.74 382.897 1189.53 382.889 1189.32 382.922C1188.85 383.016 1188.39 383.144 1187.93 383.266C1187.48 383.389 1186.93 383.47 1186.45 383.616C1185.75 383.842 1185.15 384.289 1184.75 384.887C1184.57 385.173 1184.4 385.47 1184.24 385.761C1184.21 385.803 1184.2 385.85 1184.2 385.898C1184.2 385.946 1184.21 385.994 1184.24 386.035C1184.37 386.183 1184.54 386.299 1184.72 386.376C1184.91 386.453 1185.11 386.488 1185.31 386.478C1185.65 386.418 1186 386.45 1186.32 386.572C1186.47 386.641 1186.86 386.467 1186.98 386.414C1187.29 386.268 1187.59 386.082 1187.86 385.86C1188.04 385.715 1188.75 385.114 1188.34 384.916" stroke="#111111" stroke-width="0.45" stroke-miterlimit="10"/>
  </g>
  <g clip-path="url(#clip2_2261:26755)">
    <path d="M1169.22 156.093C1166.44 156.108 1163.67 156.349 1160.93 156.814C1160.3 156.9 1159.67 157.037 1159.05 157.068C1158.42 157.1 1157.82 156.948 1157.22 156.93C1155.84 156.984 1154.47 157.205 1153.14 157.588C1151.86 157.816 1150.63 158.275 1149.5 158.943C1148.37 159.562 1147.17 160.028 1145.93 160.33C1143.46 161.048 1141.05 161.954 1138.71 163.04C1137.58 163.59 1136.48 164.207 1135.42 164.888C1135.08 165.097 1134.76 165.349 1134.48 165.638C1134.1 165.981 1133.66 166.263 1133.19 166.474C1132.32 167.022 1131.5 167.649 1130.74 168.348C1129.65 169.282 1128.63 170.295 1127.69 171.378C1124.53 174.872 1122.91 179.457 1121.84 184.008C1121.1 186.717 1120.8 189.529 1120.94 192.33C1121.11 194.099 1121.46 195.842 1122 197.527C1122.31 198.565 1122.76 199.55 1123.35 200.452C1123.55 200.772 1123.78 201.073 1124.04 201.352C1124.04 201.352 1124.97 202.41 1124.63 201.853L1123.66 199.708C1123.22 198.269 1123.48 199.671 1123.56 200.186C1123.63 200.964 1123.78 201.731 1124 202.477C1124.44 204 1125.11 205.444 1125.97 206.759C1127.29 208.558 1128.95 210.072 1130.85 211.217C1131.79 211.846 1132.76 212.44 1133.65 213.151C1134.54 213.863 1135.37 214.779 1136.29 215.538C1137.98 216.951 1139.86 218.107 1141.88 218.971C1143.96 219.86 1146.17 220.412 1148.42 220.609C1149.57 220.789 1150.74 220.779 1151.9 220.58C1153.07 220.083 1154.31 219.791 1155.57 219.716C1156.57 219.905 1157.59 219.89 1158.59 219.672C1159.84 219.266 1161.05 218.742 1162.2 218.107C1163.27 217.498 1164.41 217.02 1165.59 216.684C1166.73 216.624 1167.87 216.624 1169.01 216.686C1171.18 216.135 1173.12 214.898 1174.56 213.152C1176.27 211.27 1177.85 209.253 1179.43 207.236C1182.19 203.767 1185.41 200.597 1187.52 196.601C1191.63 188.841 1190.86 179.929 1187.84 172.001C1184.72 163.796 1178.35 156.423 1169.22 156.093C1168.23 156.048 1168.83 157.967 1169.02 158.464C1169.24 159.205 1169.57 159.909 1169.98 160.555C1170.19 160.853 1170.61 161.576 1171 161.59C1173.44 161.657 1175.82 162.261 1178 163.363C1180.17 164.464 1182.08 166.036 1183.6 167.972C1183.97 168.411 1184.31 168.874 1184.62 169.359C1184.92 169.842 1185.18 170.348 1185.41 170.872L1185.66 171.383C1185.6 171.264 1185.44 170.893 1185.66 171.383L1186.05 172.328C1186.18 172.652 1186.05 172.328 1186.05 172.328L1186.25 172.895L1186.62 174.066C1186.78 174.612 1186.71 174.394 1186.68 174.268L1186.84 174.853L1187.07 175.885C1187.22 176.579 1187.31 177.055 1187.4 177.736C1187.58 179.047 1187.64 180.374 1187.59 181.699C1187.21 187.346 1184.95 192.71 1181.19 196.897C1178.88 199.638 1176.62 202.415 1174.35 205.219C1173.29 206.712 1172.03 208.051 1170.62 209.199C1169.42 210.284 1167.94 211 1166.36 211.263C1165.6 211.292 1164.87 211.033 1164.09 211.097C1163.23 211.203 1162.39 211.446 1161.6 211.818C1159.97 212.667 1158.31 213.431 1156.61 214.107C1155.85 214.371 1155.04 214.447 1154.25 214.329C1153.5 214.173 1152.73 214.172 1151.98 214.326C1151.13 214.566 1150.33 214.951 1149.46 215.147C1148.54 215.282 1147.6 215.282 1146.68 215.148C1143.53 214.881 1140.47 213.902 1137.74 212.281C1136.41 211.457 1135.17 210.488 1134.04 209.39C1132.79 208.227 1131.44 207.183 1130.01 206.269C1128.81 205.566 1127.68 204.725 1126.66 203.761C1126.47 203.556 1126.29 203.338 1126.13 203.11C1126.27 203.315 1126.13 203.11 1126.13 203.11L1126.05 202.906C1126.16 203.076 1126.23 203.27 1126.25 203.473C1126.5 204.322 1126.27 203.395 1126.32 203.15C1126.3 202.575 1126.24 202.003 1126.14 201.439C1125.86 200.005 1125.23 198.669 1124.32 197.553C1124.06 197.23 1123.77 196.945 1123.43 196.707C1124.25 197.189 1124.37 199.007 1124.14 197.866C1123.78 196.318 1123.67 194.72 1123.81 193.132C1124.17 190.06 1124.9 187.041 1125.98 184.144C1126.93 181.257 1128.46 178.595 1130.45 176.326C1131.63 175.114 1132.87 173.969 1134.18 172.896C1134.65 172.501 1135.16 172.156 1135.71 171.867C1136.22 171.579 1136.69 171.225 1137.12 170.815C1138.41 169.797 1139.83 168.963 1141.33 168.336C1142.84 167.673 1144.39 167.096 1145.96 166.607C1147.53 166.085 1149.27 165.76 1150.79 165.093C1151.5 164.77 1152.11 164.249 1152.8 163.895C1153.59 163.547 1154.42 163.299 1155.26 163.156C1156.19 162.958 1157.1 162.772 1158.01 162.597C1158.83 162.494 1159.67 162.492 1160.49 162.59C1162.19 162.553 1163.88 162.356 1165.54 162C1167.36 161.73 1169.19 161.595 1171.03 161.596C1172.02 161.615 1171.42 159.735 1171.25 159.227C1171.01 158.487 1170.68 157.783 1170.27 157.134C1170.08 156.839 1169.64 156.1 1169.25 156.099" fill="#111111"/>
    <path d="M1169.22 156.093C1166.44 156.108 1163.67 156.349 1160.93 156.814C1160.3 156.9 1159.67 157.037 1159.05 157.068C1158.42 157.1 1157.82 156.948 1157.22 156.93C1155.84 156.984 1154.47 157.205 1153.14 157.588C1151.86 157.816 1150.63 158.275 1149.5 158.943C1148.37 159.562 1147.17 160.028 1145.93 160.33C1143.46 161.048 1141.05 161.954 1138.71 163.04C1137.58 163.59 1136.48 164.207 1135.42 164.888C1135.08 165.097 1134.76 165.349 1134.48 165.638C1134.1 165.981 1133.66 166.263 1133.19 166.474C1132.32 167.022 1131.5 167.649 1130.74 168.348C1129.65 169.282 1128.63 170.295 1127.69 171.378C1124.53 174.872 1122.91 179.457 1121.84 184.008C1121.1 186.717 1120.8 189.529 1120.94 192.33C1121.11 194.099 1121.46 195.842 1122 197.527C1122.31 198.565 1122.76 199.55 1123.35 200.452C1123.55 200.772 1123.78 201.073 1124.04 201.352C1124.04 201.352 1124.97 202.41 1124.63 201.853L1123.66 199.708C1123.22 198.269 1123.48 199.671 1123.56 200.186C1123.63 200.964 1123.78 201.731 1124 202.477C1124.44 204 1125.11 205.444 1125.97 206.759C1127.29 208.558 1128.95 210.072 1130.85 211.217C1131.79 211.846 1132.76 212.44 1133.65 213.151C1134.54 213.863 1135.37 214.779 1136.29 215.538C1137.98 216.951 1139.86 218.107 1141.88 218.971C1143.96 219.86 1146.17 220.412 1148.42 220.609C1149.57 220.789 1150.74 220.779 1151.9 220.58C1153.07 220.083 1154.31 219.791 1155.57 219.716C1156.57 219.905 1157.59 219.89 1158.59 219.672C1159.84 219.266 1161.05 218.742 1162.2 218.107C1163.27 217.498 1164.41 217.02 1165.59 216.684C1166.73 216.624 1167.87 216.624 1169.01 216.686C1171.18 216.135 1173.12 214.898 1174.56 213.152C1176.27 211.27 1177.85 209.253 1179.43 207.236C1182.19 203.767 1185.41 200.597 1187.52 196.601C1191.63 188.841 1190.86 179.929 1187.84 172.001C1184.72 163.796 1178.35 156.423 1169.22 156.093C1168.23 156.048 1168.83 157.967 1169.02 158.464C1169.24 159.205 1169.57 159.909 1169.98 160.555C1170.19 160.853 1170.61 161.576 1171 161.59C1173.44 161.657 1175.82 162.261 1178 163.363C1180.17 164.464 1182.08 166.036 1183.6 167.972C1183.97 168.411 1184.31 168.874 1184.62 169.359C1184.92 169.842 1185.18 170.348 1185.41 170.872L1185.66 171.383C1185.6 171.264 1185.44 170.893 1185.66 171.383L1186.05 172.328C1186.18 172.652 1186.05 172.328 1186.05 172.328L1186.25 172.895L1186.62 174.066C1186.78 174.612 1186.71 174.394 1186.68 174.268L1186.84 174.853L1187.07 175.885C1187.22 176.579 1187.31 177.055 1187.4 177.736C1187.58 179.047 1187.64 180.374 1187.59 181.699C1187.21 187.346 1184.95 192.71 1181.19 196.897C1178.88 199.638 1176.62 202.415 1174.35 205.219C1173.29 206.712 1172.03 208.051 1170.62 209.199C1169.42 210.284 1167.94 211 1166.36 211.263C1165.6 211.292 1164.87 211.033 1164.09 211.097C1163.23 211.203 1162.39 211.446 1161.6 211.818C1159.97 212.667 1158.31 213.431 1156.61 214.107C1155.85 214.371 1155.04 214.447 1154.25 214.329C1153.5 214.173 1152.73 214.172 1151.98 214.326C1151.13 214.566 1150.33 214.951 1149.46 215.147C1148.54 215.282 1147.6 215.282 1146.68 215.148C1143.53 214.881 1140.47 213.902 1137.74 212.281C1136.41 211.457 1135.17 210.488 1134.04 209.39C1132.79 208.227 1131.44 207.183 1130.01 206.269C1128.81 205.566 1127.68 204.725 1126.66 203.761C1126.47 203.556 1126.29 203.338 1126.13 203.11C1126.27 203.315 1126.13 203.11 1126.13 203.11L1126.05 202.906C1126.16 203.076 1126.23 203.27 1126.25 203.473C1126.5 204.322 1126.27 203.395 1126.32 203.15C1126.3 202.575 1126.24 202.003 1126.14 201.439C1125.86 200.005 1125.23 198.669 1124.32 197.553C1124.06 197.23 1123.77 196.945 1123.43 196.707C1124.25 197.189 1124.37 199.007 1124.14 197.866C1123.78 196.318 1123.67 194.72 1123.81 193.132C1124.17 190.06 1124.9 187.041 1125.98 184.144C1126.93 181.257 1128.46 178.595 1130.45 176.326C1131.63 175.114 1132.87 173.969 1134.18 172.896C1134.65 172.501 1135.16 172.156 1135.71 171.867C1136.22 171.579 1136.69 171.225 1137.12 170.815C1138.41 169.797 1139.83 168.963 1141.33 168.336C1142.84 167.673 1144.39 167.096 1145.96 166.607C1147.53 166.085 1149.27 165.76 1150.79 165.093C1151.5 164.77 1152.11 164.249 1152.8 163.895C1153.59 163.547 1154.42 163.299 1155.26 163.156C1156.19 162.958 1157.1 162.772 1158.01 162.597C1158.83 162.494 1159.67 162.492 1160.49 162.59C1162.19 162.553 1163.88 162.356 1165.54 162C1167.36 161.73 1169.19 161.595 1171.03 161.596C1172.02 161.615 1171.42 159.735 1171.25 159.227C1171.01 158.487 1170.68 157.783 1170.27 157.134C1170.08 156.839 1169.64 156.1 1169.25 156.099" stroke="#111111" stroke-width="0.45" stroke-miterlimit="10"/>
    <path d="M1136.08 199.755C1135.64 200.406 1135.38 201.171 1135.34 201.961C1135.33 202.303 1135.23 202.637 1135.06 202.929C1134.88 203.222 1134.63 203.462 1134.34 203.625C1134.53 203.665 1134.73 203.707 1134.91 203.814L1133.26 202.321L1135.25 207.066C1135.3 205.252 1135.24 203.437 1135.07 201.634L1135.06 200.959C1135.08 200.827 1135.11 200.697 1135.15 200.571C1135.09 200.817 1135.01 200.84 1135.22 200.587C1135.76 199.874 1136.37 199.22 1137.05 198.636C1140.34 196.128 1144.64 195.003 1148.48 193.715C1152.25 192.635 1155.82 190.92 1159.04 188.64C1160.66 187.348 1162.04 185.774 1163.13 183.991C1164.11 182.244 1165.21 180.567 1166.41 178.972C1168.16 176.909 1169.97 174.536 1172.53 173.508C1173.78 173.095 1175.06 172.789 1176.35 172.593C1176.9 172.428 1177.48 172.348 1178.06 172.356C1178.37 172.422 1178.74 172.783 1178.52 172.374L1177.87 168.541C1174.76 169.59 1171.01 171.382 1169.28 174.407C1168.25 176.214 1167.49 178.079 1166.36 179.864C1165.39 181.398 1164.27 182.827 1163.02 184.13C1158.5 188.809 1152.54 191.125 1146.58 193.184C1144.91 193.765 1143.22 194.328 1141.57 194.969C1139.3 195.842 1137.67 197.849 1136.1 199.651C1135.86 199.924 1136.08 200.9 1136.13 201.141C1136.32 201.903 1136.61 202.634 1136.99 203.317C1137.24 203.801 1138.14 205.527 1138.81 204.777C1140.14 202.987 1141.85 201.534 1143.81 200.535C1145.25 199.945 1146.76 199.464 1148.23 198.949C1151.14 198.009 1154 196.91 1156.8 195.656C1163.03 192.736 1168.09 187.694 1171.12 181.399C1171.54 180.379 1172.08 179.414 1172.72 178.524C1173.5 177.681 1174.39 176.959 1175.37 176.382C1176.9 175.401 1178.54 174.616 1180.25 174.043C1181.24 173.71 1179.76 170.542 1179.59 170.21C1179.05 168.871 1178.09 167.754 1176.87 167.024C1175.78 166.526 1174.42 167.039 1173.31 167.252C1172.19 167.429 1171.09 167.722 1170.02 168.128C1168.75 168.699 1167.62 169.549 1166.7 170.617C1164.94 172.376 1163.36 174.303 1161.96 176.37C1160.84 178.498 1159.42 180.446 1157.74 182.151C1154.26 185.105 1150.23 186.676 1145.99 188.097C1143.49 189.016 1141.09 189.864 1138.83 190.74C1136.8 191.499 1134.94 192.688 1133.38 194.228C1133.04 194.539 1132.76 194.916 1132.56 195.338C1132.36 195.76 1132.25 196.218 1132.23 196.684C1132.22 197.734 1132.29 198.787 1132.35 199.824C1132.4 200.861 1132.33 202.087 1132.43 203.187C1132.6 204.797 1133.3 206.296 1134.41 207.443C1134.94 207.947 1135.51 208.443 1136.06 208.936C1136.14 209.008 1136.24 209.058 1136.34 209.079C1136.45 209.101 1136.55 209.094 1136.66 209.06C1137.03 208.839 1137.36 208.535 1137.61 208.169C1137.86 207.803 1138.03 207.385 1138.1 206.947C1138.12 206.186 1138.35 205.445 1138.75 204.805C1138.98 204.5 1138.77 203.582 1138.71 203.312C1138.54 202.562 1138.27 201.84 1137.91 201.163C1137.68 200.709 1136.7 198.901 1136.09 199.69" fill="#111111"/>
    <path d="M1136.08 199.755C1135.64 200.406 1135.38 201.171 1135.34 201.961C1135.33 202.303 1135.23 202.637 1135.06 202.929C1134.88 203.222 1134.63 203.462 1134.34 203.625C1134.53 203.665 1134.73 203.707 1134.91 203.814L1133.26 202.321L1135.25 207.066C1135.3 205.252 1135.24 203.437 1135.07 201.634L1135.06 200.959C1135.08 200.827 1135.11 200.697 1135.15 200.571C1135.09 200.817 1135.01 200.84 1135.22 200.587C1135.76 199.874 1136.37 199.22 1137.05 198.636C1140.34 196.128 1144.64 195.003 1148.48 193.715C1152.25 192.635 1155.82 190.92 1159.04 188.64C1160.66 187.348 1162.04 185.774 1163.13 183.991C1164.11 182.244 1165.21 180.567 1166.41 178.972C1168.16 176.909 1169.97 174.536 1172.53 173.508C1173.78 173.095 1175.06 172.789 1176.35 172.593C1176.9 172.428 1177.48 172.348 1178.06 172.356C1178.37 172.422 1178.74 172.783 1178.52 172.374L1177.87 168.541C1174.76 169.59 1171.01 171.382 1169.28 174.407C1168.25 176.214 1167.49 178.079 1166.36 179.864C1165.39 181.398 1164.27 182.827 1163.02 184.13C1158.5 188.809 1152.54 191.125 1146.58 193.184C1144.91 193.765 1143.22 194.328 1141.57 194.969C1139.3 195.842 1137.67 197.849 1136.1 199.651C1135.86 199.924 1136.08 200.9 1136.13 201.141C1136.32 201.903 1136.61 202.634 1136.99 203.317C1137.24 203.801 1138.14 205.527 1138.81 204.777C1140.14 202.987 1141.85 201.534 1143.81 200.535C1145.25 199.945 1146.76 199.464 1148.23 198.949C1151.14 198.009 1154 196.91 1156.8 195.656C1163.03 192.736 1168.09 187.694 1171.12 181.399C1171.54 180.379 1172.08 179.414 1172.72 178.524C1173.5 177.681 1174.39 176.959 1175.37 176.382C1176.9 175.401 1178.54 174.616 1180.25 174.043C1181.24 173.71 1179.76 170.542 1179.59 170.21C1179.05 168.871 1178.09 167.754 1176.87 167.024C1175.78 166.526 1174.42 167.039 1173.31 167.252C1172.19 167.429 1171.09 167.722 1170.02 168.128C1168.75 168.699 1167.62 169.549 1166.7 170.617C1164.94 172.376 1163.36 174.303 1161.96 176.37C1160.84 178.498 1159.42 180.446 1157.74 182.151C1154.26 185.105 1150.23 186.676 1145.99 188.097C1143.49 189.016 1141.09 189.864 1138.83 190.74C1136.8 191.499 1134.94 192.688 1133.38 194.228C1133.04 194.539 1132.76 194.916 1132.56 195.338C1132.36 195.76 1132.25 196.218 1132.23 196.684C1132.22 197.734 1132.29 198.787 1132.35 199.824C1132.4 200.861 1132.33 202.087 1132.43 203.187C1132.6 204.797 1133.3 206.296 1134.41 207.443C1134.94 207.947 1135.51 208.443 1136.06 208.936C1136.14 209.008 1136.24 209.058 1136.34 209.079C1136.45 209.101 1136.55 209.094 1136.66 209.06C1137.03 208.839 1137.36 208.535 1137.61 208.169C1137.86 207.803 1138.03 207.385 1138.1 206.947C1138.12 206.186 1138.35 205.445 1138.75 204.805C1138.98 204.5 1138.77 203.582 1138.71 203.312C1138.54 202.562 1138.27 201.84 1137.91 201.163C1137.68 200.709 1136.7 198.901 1136.09 199.69" stroke="#111111" stroke-width="0.45" stroke-miterlimit="10"/>
  </g>
  <g clip-path="url(#clip3_2261:26755)">
    <path d="M346.287 197.409C348.052 196.512 349.743 195.476 351.344 194.309C351.713 194.056 352.073 193.768 352.46 193.549C352.848 193.33 353.278 193.234 353.666 193.053C354.527 192.579 355.329 192.004 356.056 191.339C356.8 190.787 357.44 190.106 357.947 189.327C358.466 188.58 359.081 187.906 359.774 187.322C361.119 186.084 362.37 184.745 363.516 183.318C364.061 182.613 364.564 181.876 365.023 181.111C365.173 180.872 365.293 180.615 365.378 180.345C365.515 180.006 365.703 179.691 365.934 179.409C366.314 178.788 366.638 178.133 366.901 177.453C367.295 176.522 367.622 175.562 367.879 174.583C368.78 171.388 368.348 168.003 367.579 164.815C367.188 162.882 366.485 161.027 365.499 159.321C364.831 158.267 364.05 157.29 363.17 156.406C362.643 155.856 362.04 155.384 361.38 155.007C361.148 154.872 360.904 154.757 360.653 154.665C360.653 154.665 359.719 154.301 360.116 154.54L361.418 155.572C362.154 156.334 361.542 155.539 361.329 155.241C361.036 154.777 360.697 154.344 360.318 153.949C359.552 153.137 358.669 152.445 357.699 151.898C356.282 151.195 354.744 150.777 353.172 150.666C352.368 150.574 351.563 150.512 350.77 150.351C349.977 150.189 349.154 149.882 348.327 149.701C346.799 149.357 345.231 149.234 343.671 149.337C342.062 149.446 340.479 149.805 338.981 150.402C338.19 150.657 337.446 151.038 336.776 151.53C336.188 152.215 335.49 152.794 334.71 153.244C334.014 153.444 333.366 153.781 332.801 154.235C332.135 154.888 331.532 155.602 330.998 156.368C330.51 157.091 329.939 157.753 329.295 158.339C328.586 158.742 327.857 159.107 327.11 159.433C325.908 160.468 325.065 161.862 324.701 163.415C324.213 165.138 323.851 166.904 323.488 168.669C322.834 171.721 321.79 174.734 321.719 177.908C321.577 184.074 324.905 189.406 329.356 193.401C333.959 197.538 340.366 200.117 346.287 197.409C346.932 197.121 345.94 196.111 345.663 195.859C345.283 195.468 344.851 195.132 344.38 194.861C344.157 194.738 343.654 194.422 343.4 194.538C341.829 195.274 340.116 195.658 338.38 195.663C336.644 195.668 334.926 195.294 333.343 194.567C332.967 194.411 332.601 194.23 332.248 194.026C331.904 193.82 331.575 193.587 331.264 193.331L330.944 193.091C331.016 193.148 331.235 193.329 330.944 193.091L330.392 192.625C330.206 192.464 330.392 192.625 330.392 192.625L330.085 192.333L329.475 191.72C329.198 191.43 329.313 191.543 329.37 191.614L329.086 191.297L328.61 190.724C328.289 190.34 328.083 190.069 327.806 189.674C327.274 188.911 326.812 188.1 326.426 187.253C324.87 183.598 324.599 179.521 325.658 175.702C326.254 173.25 326.81 170.79 327.362 168.312C327.564 167.039 327.938 165.799 328.474 164.629C328.894 163.566 329.606 162.647 330.527 161.979C331.007 161.716 331.549 161.648 332.031 161.356C332.545 161.015 333.003 160.595 333.387 160.11C334.151 159.06 334.968 158.051 335.834 157.086C336.234 156.678 336.725 156.372 337.266 156.194C337.792 156.052 338.285 155.806 338.715 155.47C339.181 155.048 339.57 154.55 340.061 154.15C340.605 153.772 341.2 153.474 341.827 153.265C343.924 152.424 346.181 152.061 348.437 152.203C349.549 152.293 350.65 152.503 351.719 152.829C352.884 153.158 354.075 153.382 355.278 153.496C356.272 153.55 357.256 153.718 358.213 153.995C358.4 154.063 358.583 154.142 358.761 154.232C358.606 154.149 358.761 154.232 358.761 154.232L358.874 154.336C358.751 154.263 358.646 154.163 358.568 154.044C358.134 153.594 358.582 154.097 358.628 154.267C358.82 154.622 359.041 154.961 359.288 155.279C359.921 156.089 360.745 156.725 361.684 157.131C361.949 157.252 362.231 157.335 362.519 157.377C361.843 157.337 361.188 156.238 361.701 156.877C362.419 157.732 362.998 158.697 363.417 159.735C364.166 161.772 364.664 163.893 364.9 166.05C365.212 168.161 365.09 170.313 364.542 172.37C364.176 173.505 363.749 174.618 363.261 175.705C363.085 176.104 362.868 176.483 362.615 176.837C362.38 177.181 362.19 177.555 362.048 177.948C361.552 178.996 360.915 179.97 360.156 180.843C359.404 181.741 358.602 182.595 357.756 183.404C356.924 184.231 355.921 184.989 355.165 185.891C354.815 186.32 354.594 186.84 354.266 187.283C353.873 187.753 353.424 188.173 352.93 188.533C352.406 188.951 351.879 189.361 351.359 189.759C350.866 190.087 350.335 190.355 349.778 190.557C348.709 191.121 347.695 191.785 346.748 192.538C345.676 193.288 344.552 193.958 343.383 194.543C342.743 194.849 343.728 195.831 343.998 196.095C344.384 196.483 344.818 196.818 345.29 197.091C345.504 197.216 346.018 197.538 346.269 197.414" fill="#111111"/>
    <path d="M346.287 197.409C348.052 196.512 349.743 195.476 351.344 194.309C351.713 194.056 352.073 193.768 352.46 193.549C352.848 193.33 353.278 193.234 353.666 193.053C354.527 192.579 355.329 192.004 356.056 191.339C356.8 190.787 357.44 190.106 357.947 189.327C358.466 188.58 359.081 187.906 359.774 187.322C361.119 186.084 362.37 184.745 363.516 183.318C364.061 182.613 364.564 181.876 365.023 181.111C365.173 180.872 365.293 180.615 365.378 180.345C365.515 180.006 365.703 179.691 365.934 179.409C366.314 178.788 366.638 178.133 366.901 177.453C367.295 176.522 367.622 175.562 367.879 174.583C368.78 171.388 368.348 168.003 367.579 164.815C367.188 162.882 366.485 161.027 365.499 159.321C364.831 158.267 364.05 157.29 363.17 156.406C362.643 155.856 362.04 155.384 361.38 155.007C361.148 154.872 360.904 154.757 360.653 154.665C360.653 154.665 359.719 154.301 360.116 154.54L361.418 155.572C362.154 156.334 361.542 155.539 361.329 155.241C361.036 154.777 360.697 154.344 360.318 153.949C359.552 153.137 358.669 152.445 357.699 151.898C356.282 151.195 354.744 150.777 353.172 150.666C352.368 150.574 351.563 150.512 350.77 150.351C349.977 150.189 349.154 149.882 348.327 149.701C346.799 149.357 345.231 149.234 343.671 149.337C342.062 149.446 340.479 149.805 338.981 150.402C338.19 150.657 337.446 151.038 336.776 151.53C336.188 152.215 335.49 152.794 334.71 153.244C334.014 153.444 333.366 153.781 332.801 154.235C332.135 154.888 331.532 155.602 330.998 156.368C330.51 157.091 329.939 157.753 329.295 158.339C328.586 158.742 327.857 159.107 327.11 159.433C325.908 160.468 325.065 161.862 324.701 163.415C324.213 165.138 323.851 166.904 323.488 168.669C322.834 171.721 321.79 174.734 321.719 177.908C321.577 184.074 324.905 189.406 329.356 193.401C333.959 197.538 340.366 200.117 346.287 197.409C346.932 197.121 345.94 196.111 345.663 195.859C345.283 195.468 344.851 195.132 344.38 194.861C344.157 194.738 343.654 194.422 343.4 194.538C341.829 195.274 340.116 195.658 338.38 195.663C336.644 195.668 334.926 195.294 333.343 194.567C332.967 194.411 332.601 194.23 332.248 194.026C331.904 193.82 331.575 193.587 331.264 193.331L330.944 193.091C331.016 193.148 331.235 193.329 330.944 193.091L330.392 192.625C330.206 192.464 330.392 192.625 330.392 192.625L330.085 192.333L329.475 191.72C329.198 191.43 329.313 191.543 329.37 191.614L329.086 191.297L328.61 190.724C328.289 190.34 328.083 190.069 327.806 189.674C327.274 188.911 326.812 188.1 326.426 187.253C324.87 183.598 324.599 179.521 325.658 175.702C326.254 173.25 326.81 170.79 327.362 168.312C327.564 167.039 327.938 165.799 328.474 164.629C328.894 163.566 329.606 162.647 330.527 161.979C331.007 161.716 331.549 161.648 332.031 161.356C332.545 161.015 333.003 160.595 333.387 160.11C334.151 159.06 334.968 158.051 335.834 157.086C336.234 156.678 336.725 156.372 337.266 156.194C337.792 156.052 338.285 155.806 338.715 155.47C339.181 155.048 339.57 154.55 340.061 154.15C340.605 153.772 341.2 153.474 341.827 153.265C343.924 152.424 346.181 152.061 348.437 152.203C349.549 152.293 350.65 152.503 351.719 152.829C352.884 153.158 354.075 153.382 355.278 153.496C356.272 153.55 357.256 153.718 358.213 153.995C358.4 154.063 358.583 154.142 358.761 154.232C358.606 154.149 358.761 154.232 358.761 154.232L358.874 154.336C358.751 154.263 358.646 154.163 358.568 154.044C358.134 153.594 358.582 154.097 358.628 154.267C358.82 154.622 359.041 154.961 359.288 155.279C359.921 156.089 360.745 156.725 361.684 157.131C361.949 157.252 362.231 157.335 362.519 157.377C361.843 157.337 361.188 156.238 361.701 156.877C362.419 157.732 362.998 158.697 363.417 159.735C364.166 161.772 364.664 163.893 364.9 166.05C365.212 168.161 365.09 170.313 364.542 172.37C364.176 173.505 363.749 174.618 363.261 175.705C363.085 176.104 362.868 176.483 362.615 176.837C362.38 177.181 362.19 177.555 362.048 177.948C361.552 178.996 360.915 179.97 360.156 180.843C359.404 181.741 358.602 182.595 357.756 183.404C356.924 184.231 355.921 184.989 355.165 185.891C354.815 186.32 354.594 186.84 354.266 187.283C353.873 187.753 353.424 188.173 352.93 188.533C352.406 188.951 351.879 189.361 351.359 189.759C350.866 190.087 350.335 190.355 349.778 190.557C348.709 191.121 347.695 191.785 346.748 192.538C345.676 193.288 344.552 193.958 343.383 194.543C342.743 194.849 343.728 195.831 343.998 196.095C344.384 196.483 344.818 196.818 345.29 197.091C345.504 197.216 346.018 197.538 346.269 197.414" stroke="#111111" stroke-width="0.45" stroke-miterlimit="10"/>
    <path d="M353.49 159.508C353.564 158.959 353.483 158.399 353.256 157.893C353.154 157.676 353.11 157.435 353.129 157.196C353.148 156.957 353.23 156.727 353.366 156.531C353.233 156.566 353.091 156.604 352.937 156.597L354.47 157.002L351.689 154.669C352.232 155.821 352.849 156.937 353.534 158.01L353.752 158.431C353.785 158.518 353.809 158.608 353.824 158.7C353.778 158.53 353.824 158.489 353.77 158.714C353.653 159.333 353.471 159.938 353.228 160.518C351.927 163.14 349.549 165.215 347.511 167.248C345.456 169.126 343.729 171.339 342.4 173.795C341.781 175.12 341.401 176.547 341.279 178.009C341.211 179.415 341.046 180.814 340.787 182.197C340.332 184.045 339.935 186.107 338.627 187.57C337.965 188.227 337.249 188.826 336.487 189.362C336.186 189.642 335.845 189.875 335.476 190.054C335.254 190.114 334.903 190.006 335.171 190.193L336.812 192.381C338.459 190.732 340.278 188.413 340.411 185.97C340.495 184.509 340.383 183.101 340.537 181.621C340.665 180.353 340.922 179.101 341.303 177.887C342.695 173.515 345.748 170.165 348.891 166.974C349.771 166.076 350.671 165.183 351.514 164.257C352.683 162.985 353.081 161.21 353.509 159.58C353.575 159.332 353.126 158.791 353.015 158.658C352.65 158.242 352.233 157.877 351.774 157.571C351.458 157.349 350.334 156.556 350.147 157.24C349.873 158.783 349.245 160.238 348.314 161.49C347.586 162.318 346.779 163.1 346.004 163.892C344.449 165.41 342.976 167.012 341.592 168.69C338.555 172.506 336.936 177.277 337.013 182.182C337.071 182.954 337.037 183.729 336.91 184.492C336.683 185.268 336.343 186.005 335.901 186.68C335.24 187.781 334.447 188.796 333.539 189.701C333.015 190.225 334.967 191.735 335.179 191.889C335.954 192.552 336.919 192.946 337.93 193.012C338.784 192.975 339.484 192.221 340.123 191.734C340.783 191.264 341.393 190.728 341.945 190.133C342.571 189.37 343.022 188.477 343.266 187.516C343.823 185.855 344.22 184.143 344.45 182.404C344.486 180.715 344.77 179.042 345.295 177.441C346.572 174.481 348.641 172.21 350.889 169.967C352.192 168.592 353.449 167.296 354.609 166.027C355.662 164.903 356.465 163.567 356.968 162.105C357.088 161.802 357.145 161.476 357.138 161.149C357.13 160.821 357.057 160.499 356.922 160.2C356.594 159.54 356.214 158.903 355.846 158.273C355.478 157.643 355.133 156.853 354.72 156.197C354.097 155.244 353.176 154.528 352.105 154.164C351.601 154.021 351.082 153.891 350.572 153.76C350.499 153.74 350.422 153.74 350.349 153.759C350.276 153.779 350.209 153.817 350.156 153.871C349.985 154.13 349.874 154.425 349.832 154.733C349.79 155.042 349.817 155.356 349.912 155.653C350.139 156.136 350.23 156.673 350.175 157.203C350.131 157.464 350.553 157.975 350.678 158.123C351.028 158.537 351.429 158.904 351.872 159.213C352.166 159.422 353.363 160.242 353.502 159.553" fill="#111111"/>
    <path d="M353.49 159.508C353.564 158.959 353.483 158.399 353.256 157.893C353.154 157.676 353.11 157.435 353.129 157.196C353.148 156.957 353.23 156.727 353.366 156.531C353.233 156.566 353.091 156.604 352.937 156.597L354.47 157.002L351.689 154.669C352.232 155.821 352.849 156.937 353.534 158.01L353.752 158.431C353.785 158.518 353.809 158.608 353.824 158.7C353.778 158.53 353.824 158.489 353.77 158.714C353.653 159.333 353.471 159.938 353.228 160.518C351.927 163.14 349.549 165.215 347.511 167.248C345.456 169.126 343.729 171.339 342.4 173.795C341.781 175.12 341.401 176.547 341.279 178.009C341.211 179.415 341.046 180.814 340.787 182.197C340.332 184.045 339.935 186.107 338.627 187.57C337.965 188.227 337.249 188.826 336.487 189.362C336.186 189.642 335.845 189.875 335.476 190.054C335.254 190.114 334.903 190.006 335.171 190.193L336.812 192.381C338.459 190.732 340.278 188.413 340.411 185.97C340.495 184.509 340.383 183.101 340.537 181.621C340.665 180.353 340.922 179.101 341.303 177.887C342.695 173.515 345.748 170.165 348.891 166.974C349.771 166.076 350.671 165.183 351.514 164.257C352.683 162.985 353.081 161.21 353.509 159.58C353.575 159.332 353.126 158.791 353.015 158.658C352.65 158.242 352.233 157.877 351.774 157.571C351.458 157.349 350.334 156.556 350.147 157.24C349.873 158.783 349.245 160.238 348.314 161.49C347.586 162.318 346.779 163.1 346.004 163.892C344.449 165.41 342.976 167.012 341.592 168.69C338.555 172.506 336.936 177.277 337.013 182.182C337.071 182.954 337.037 183.729 336.91 184.492C336.683 185.268 336.343 186.005 335.901 186.68C335.24 187.781 334.447 188.796 333.539 189.701C333.015 190.225 334.967 191.735 335.179 191.889C335.954 192.552 336.919 192.946 337.93 193.012C338.784 192.975 339.484 192.221 340.123 191.734C340.783 191.264 341.393 190.728 341.945 190.133C342.571 189.37 343.022 188.477 343.266 187.516C343.823 185.855 344.22 184.143 344.45 182.404C344.486 180.715 344.77 179.042 345.295 177.441C346.572 174.481 348.641 172.21 350.889 169.967C352.192 168.592 353.449 167.296 354.609 166.027C355.662 164.903 356.465 163.567 356.968 162.105C357.088 161.802 357.145 161.476 357.138 161.149C357.13 160.821 357.057 160.499 356.922 160.2C356.594 159.54 356.214 158.903 355.846 158.273C355.478 157.643 355.133 156.853 354.72 156.197C354.097 155.244 353.176 154.528 352.105 154.164C351.601 154.021 351.082 153.891 350.572 153.76C350.499 153.74 350.422 153.74 350.349 153.759C350.276 153.779 350.209 153.817 350.156 153.871C349.985 154.13 349.874 154.425 349.832 154.733C349.79 155.042 349.817 155.356 349.912 155.653C350.139 156.136 350.23 156.673 350.175 157.203C350.131 157.464 350.553 157.975 350.678 158.123C351.028 158.537 351.429 158.904 351.872 159.213C352.166 159.422 353.363 160.242 353.502 159.553" stroke="#111111" stroke-width="0.45" stroke-miterlimit="10"/>
  </g>
    <path d="M206.343 567.725C205.635 564.429 204.661 561.194 203.427 558.048C203.171 557.33 202.851 556.613 202.658 555.879C202.466 555.145 202.498 554.396 202.37 553.678C201.964 552.054 201.361 550.482 200.576 548.996C199.987 547.53 199.135 546.177 198.061 545.001C197.046 543.819 196.195 542.512 195.529 541.114C194.063 538.359 192.387 535.714 190.515 533.201C189.582 531.995 188.576 530.843 187.503 529.752C187.171 529.4 186.795 529.09 186.382 528.831C185.878 528.457 185.435 528.009 185.068 527.505C184.201 526.607 183.252 525.787 182.233 525.054C180.853 523.996 179.397 523.036 177.875 522.183C172.941 519.295 167.094 518.515 161.423 518.374C158.02 518.166 154.605 518.504 151.314 519.373C149.254 520.008 147.272 520.861 145.403 521.917C144.246 522.541 143.189 523.324 142.263 524.243C141.934 524.566 141.633 524.916 141.366 525.289C141.366 525.289 140.34 526.662 140.917 526.116L143.224 524.43C144.826 523.556 143.224 524.212 142.631 524.43C141.725 524.707 140.85 525.074 140.02 525.523C138.32 526.425 136.77 527.572 135.422 528.925C133.614 530.944 132.226 533.288 131.337 535.824C130.824 537.103 130.36 538.399 129.735 539.632C129.11 540.865 128.229 542.082 127.556 543.362C126.297 545.721 125.391 548.244 124.865 550.853C124.326 553.547 124.218 556.306 124.544 559.032C124.616 560.443 124.918 561.834 125.442 563.152C126.322 564.42 126.977 565.824 127.38 567.304C127.403 568.535 127.675 569.749 128.181 570.878C128.973 572.259 129.896 573.565 130.937 574.78C131.927 575.9 132.776 577.131 133.468 578.447C133.823 579.79 134.106 581.15 134.317 582.521C135.507 584.952 137.459 586.952 139.892 588.233C142.551 589.794 145.339 591.167 148.126 592.541C152.932 594.96 157.498 598.003 162.768 599.517C173.005 602.467 183.402 599.346 192.069 593.789C201.04 588.046 208.217 578.65 206.343 567.725C206.151 566.539 204.02 567.725 203.475 568.068C202.652 568.521 201.897 569.083 201.233 569.738C200.928 570.05 200.175 570.737 200.255 571.205C200.781 574.113 200.655 577.096 199.886 579.952C199.118 582.808 197.724 585.467 195.802 587.749C195.372 588.298 194.907 588.82 194.408 589.31C193.908 589.785 193.373 590.224 192.806 590.621L192.261 591.042C192.39 590.949 192.79 590.668 192.261 591.042L191.236 591.745C190.884 591.979 191.236 591.745 191.236 591.745L190.611 592.119L189.314 592.853C188.705 593.181 188.945 593.04 189.089 592.978L188.433 593.305L187.263 593.836C186.478 594.195 185.933 594.414 185.148 594.695C183.636 595.233 182.075 595.636 180.487 595.896C173.684 596.844 166.752 595.495 160.846 592.072C157.017 590.012 153.156 588.015 149.263 586.017C147.226 585.123 145.323 583.963 143.608 582.568C142.021 581.408 140.804 579.833 140.1 578.026C139.876 577.121 140.004 576.2 139.732 575.279C139.393 574.283 138.895 573.346 138.258 572.501C136.846 570.783 135.525 568.997 134.301 567.148C133.798 566.31 133.507 565.369 133.452 564.401C133.451 563.473 133.26 562.555 132.891 561.701C132.394 560.748 131.738 559.89 131.289 558.907C130.9 557.846 130.669 556.738 130.6 555.614C130.134 551.798 130.538 547.928 131.786 544.283C132.434 542.494 133.277 540.777 134.301 539.163C135.372 537.394 136.278 535.535 137.008 533.607C137.543 531.999 138.263 530.454 139.155 529.003C139.352 528.725 139.566 528.46 139.796 528.207C139.587 528.426 139.796 528.207 139.796 528.207L140.02 528.067C139.844 528.237 139.63 528.365 139.395 528.441C138.45 528.956 139.491 528.441 139.796 528.441C140.475 528.282 141.139 528.068 141.782 527.801C143.417 527.118 144.85 526.044 145.947 524.68C146.269 524.297 146.533 523.871 146.732 523.416C146.364 524.508 144.233 525.101 145.531 524.539C147.282 523.736 149.153 523.209 151.074 522.979C154.812 522.644 158.578 522.759 162.288 523.322C165.954 523.738 169.493 524.886 172.685 526.693C174.417 527.794 176.086 528.988 177.683 530.267C178.271 530.733 178.807 531.256 179.285 531.828C179.755 532.366 180.294 532.843 180.887 533.248C182.415 534.526 183.758 536.002 184.876 537.634C186.039 539.266 187.109 540.959 188.08 542.706C189.089 544.439 189.906 546.421 191.076 548.06C191.637 548.824 192.406 549.418 192.998 550.151C193.608 551.004 194.109 551.926 194.488 552.898C194.953 553.944 195.401 554.989 195.834 556.019C196.161 556.975 196.371 557.965 196.459 558.969C196.924 560.975 197.578 562.934 198.413 564.822C199.185 566.914 199.801 569.058 200.255 571.237C200.48 572.423 202.562 571.237 203.123 570.909C203.944 570.446 204.698 569.879 205.366 569.223C205.67 568.927 206.439 568.224 206.343 567.756" fill="#111111"/>
    <path d="M206.343 567.725C205.635 564.429 204.661 561.194 203.427 558.048C203.171 557.33 202.851 556.613 202.658 555.879C202.466 555.145 202.498 554.396 202.37 553.678C201.964 552.054 201.361 550.482 200.576 548.996C199.987 547.53 199.135 546.177 198.061 545.001C197.046 543.819 196.195 542.512 195.529 541.114C194.063 538.359 192.387 535.714 190.515 533.201C189.582 531.995 188.576 530.843 187.503 529.752C187.171 529.4 186.795 529.09 186.382 528.831C185.878 528.457 185.435 528.009 185.068 527.505C184.201 526.607 183.252 525.787 182.233 525.054C180.853 523.996 179.397 523.036 177.875 522.183C172.941 519.295 167.094 518.515 161.423 518.374C158.02 518.166 154.605 518.504 151.314 519.373C149.254 520.008 147.272 520.861 145.403 521.917C144.246 522.541 143.189 523.324 142.263 524.243C141.934 524.566 141.633 524.916 141.366 525.289C141.366 525.289 140.34 526.662 140.917 526.116L143.224 524.43C144.826 523.556 143.224 524.212 142.631 524.43C141.725 524.707 140.85 525.074 140.02 525.523C138.32 526.425 136.77 527.572 135.422 528.925C133.614 530.944 132.226 533.288 131.337 535.824C130.824 537.103 130.36 538.399 129.735 539.632C129.11 540.865 128.229 542.082 127.556 543.362C126.297 545.721 125.391 548.244 124.865 550.853C124.326 553.547 124.218 556.306 124.544 559.032C124.616 560.443 124.918 561.834 125.442 563.152C126.322 564.42 126.977 565.824 127.38 567.304C127.403 568.535 127.675 569.749 128.181 570.878C128.973 572.259 129.896 573.565 130.937 574.78C131.927 575.9 132.776 577.131 133.468 578.447C133.823 579.79 134.106 581.15 134.317 582.521C135.507 584.952 137.459 586.952 139.892 588.233C142.551 589.794 145.339 591.167 148.126 592.541C152.932 594.96 157.498 598.003 162.768 599.517C173.005 602.467 183.402 599.346 192.069 593.789C201.04 588.046 208.217 578.65 206.343 567.725C206.151 566.539 204.02 567.725 203.475 568.068C202.652 568.521 201.897 569.083 201.233 569.738C200.928 570.05 200.175 570.737 200.255 571.205C200.781 574.113 200.655 577.096 199.886 579.952C199.118 582.808 197.724 585.467 195.802 587.749C195.372 588.298 194.907 588.82 194.408 589.31C193.908 589.785 193.373 590.224 192.806 590.621L192.261 591.042C192.39 590.949 192.79 590.668 192.261 591.042L191.236 591.745C190.884 591.979 191.236 591.745 191.236 591.745L190.611 592.119L189.314 592.853C188.705 593.181 188.945 593.04 189.089 592.978L188.433 593.305L187.263 593.836C186.478 594.195 185.933 594.414 185.148 594.695C183.636 595.233 182.075 595.636 180.487 595.896C173.684 596.844 166.752 595.495 160.846 592.072C157.017 590.012 153.156 588.015 149.263 586.017C147.226 585.123 145.323 583.963 143.608 582.568C142.021 581.408 140.804 579.833 140.1 578.026C139.876 577.121 140.004 576.2 139.732 575.279C139.393 574.283 138.895 573.346 138.258 572.501C136.846 570.783 135.525 568.997 134.301 567.148C133.798 566.31 133.507 565.369 133.452 564.401C133.451 563.473 133.26 562.555 132.891 561.701C132.394 560.748 131.738 559.89 131.289 558.907C130.9 557.846 130.669 556.738 130.6 555.614C130.134 551.798 130.538 547.928 131.786 544.283C132.434 542.494 133.277 540.777 134.301 539.163C135.372 537.394 136.278 535.535 137.008 533.607C137.543 531.999 138.263 530.454 139.155 529.003C139.352 528.725 139.566 528.46 139.796 528.207C139.587 528.426 139.796 528.207 139.796 528.207L140.02 528.067C139.844 528.237 139.63 528.365 139.395 528.441C138.45 528.956 139.491 528.441 139.796 528.441C140.475 528.282 141.139 528.068 141.782 527.801C143.417 527.118 144.85 526.044 145.947 524.68C146.269 524.297 146.533 523.871 146.732 523.416C146.364 524.508 144.233 525.101 145.531 524.539C147.282 523.736 149.153 523.209 151.074 522.979C154.812 522.644 158.578 522.759 162.288 523.322C165.954 523.738 169.493 524.886 172.685 526.693C174.417 527.794 176.086 528.988 177.683 530.267C178.271 530.733 178.807 531.256 179.285 531.828C179.755 532.366 180.294 532.843 180.887 533.248C182.415 534.526 183.758 536.002 184.876 537.634C186.039 539.266 187.109 540.959 188.08 542.706C189.089 544.439 189.906 546.421 191.076 548.06C191.637 548.824 192.406 549.418 192.998 550.151C193.608 551.004 194.109 551.926 194.488 552.898C194.953 553.944 195.401 554.989 195.834 556.019C196.161 556.975 196.371 557.965 196.459 558.969C196.924 560.975 197.578 562.934 198.413 564.822C199.185 566.914 199.801 569.058 200.255 571.237C200.48 572.423 202.562 571.237 203.123 570.909C203.944 570.446 204.698 569.879 205.366 569.223C205.67 568.927 206.439 568.224 206.343 567.756" stroke="#111111" stroke-width="0.45" stroke-miterlimit="10"/>
    <path d="M146.252 539.195C145.368 538.83 144.396 538.717 143.448 538.867C143.039 538.94 142.618 538.906 142.227 538.769C141.836 538.632 141.489 538.396 141.221 538.087C141.221 538.321 141.221 538.57 141.141 538.82L142.503 536.479L137.361 540.022C139.529 539.637 141.67 539.116 143.769 538.461L144.57 538.289C144.729 538.273 144.89 538.273 145.05 538.289C144.746 538.289 144.698 538.196 145.05 538.383C146.032 538.849 146.961 539.414 147.822 540.069C151.618 543.362 154.021 548.185 156.505 552.43C158.722 556.635 161.646 560.449 165.155 563.714C167.091 565.315 169.305 566.568 171.692 567.413C174.011 568.144 176.275 569.031 178.468 570.066C181.352 571.627 184.62 573.188 186.478 575.981C187.279 577.359 187.959 578.8 188.513 580.289C188.847 580.907 189.084 581.569 189.218 582.255C189.218 582.646 188.881 583.176 189.314 582.817L193.703 581.085C191.685 577.651 188.625 573.64 184.604 572.345C182.201 571.564 179.798 571.127 177.395 570.222C175.333 569.453 173.358 568.48 171.499 567.319C164.819 563.105 160.59 556.612 156.665 550.042C155.559 548.2 154.47 546.327 153.301 544.532C151.699 542.051 148.911 540.615 146.38 539.195C145.995 538.976 144.89 539.476 144.618 539.6C143.761 540.017 142.964 540.542 142.247 541.161C141.734 541.583 139.908 543.081 140.965 543.69C143.42 544.82 145.57 546.492 147.245 548.575C148.302 550.135 149.248 551.805 150.225 553.429C152.065 556.653 154.081 559.779 156.264 562.793C161.28 569.466 168.525 574.229 176.754 576.262C178.07 576.506 179.35 576.904 180.567 577.448C181.762 578.164 182.841 579.047 183.771 580.07C185.315 581.642 186.654 583.393 187.76 585.283C188.401 586.376 191.797 583.832 192.149 583.551C193.604 582.57 194.694 581.158 195.257 579.524C195.578 578.104 194.632 576.621 194.104 575.357C193.615 574.066 192.992 572.826 192.245 571.658C191.251 570.293 189.96 569.158 188.465 568.334C185.94 566.686 183.257 565.28 180.455 564.135C177.649 563.333 174.982 562.129 172.541 560.561C168.167 557.159 165.3 552.757 162.56 548.075C160.846 545.328 159.244 542.691 157.642 540.225C156.236 538.001 154.364 536.091 152.147 534.622C151.693 534.291 151.176 534.053 150.625 533.921C150.075 533.79 149.503 533.768 148.943 533.857C147.694 534.107 146.46 534.45 145.242 534.778C144.025 535.106 142.551 535.324 141.27 535.714C139.399 536.318 137.792 537.516 136.704 539.117C136.239 539.881 135.791 540.677 135.342 541.458C135.276 541.569 135.241 541.696 135.241 541.825C135.241 541.953 135.276 542.08 135.342 542.191C135.698 542.586 136.14 542.898 136.637 543.103C137.133 543.309 137.671 543.402 138.21 543.377C139.119 543.216 140.055 543.303 140.917 543.627C141.334 543.814 142.375 543.346 142.679 543.206C143.527 542.814 144.319 542.315 145.034 541.723C145.515 541.333 147.421 539.725 146.332 539.195" fill="#111111"/>
    <path d="M146.252 539.195C145.368 538.83 144.396 538.717 143.448 538.867C143.039 538.94 142.618 538.906 142.227 538.769C141.836 538.632 141.489 538.396 141.221 538.087C141.221 538.321 141.221 538.57 141.141 538.82L142.503 536.479L137.361 540.022C139.529 539.637 141.67 539.116 143.769 538.461L144.57 538.289C144.729 538.273 144.89 538.273 145.05 538.289C144.746 538.289 144.698 538.196 145.05 538.383C146.032 538.849 146.961 539.414 147.822 540.069C151.618 543.362 154.021 548.185 156.505 552.43C158.722 556.635 161.646 560.449 165.155 563.714C167.091 565.315 169.305 566.568 171.692 567.413C174.011 568.144 176.275 569.031 178.468 570.066C181.352 571.627 184.62 573.188 186.478 575.981C187.279 577.359 187.959 578.8 188.513 580.289C188.847 580.907 189.084 581.569 189.218 582.255C189.218 582.646 188.881 583.176 189.314 582.817L193.703 581.085C191.685 577.651 188.625 573.64 184.604 572.345C182.201 571.564 179.798 571.127 177.395 570.222C175.333 569.453 173.358 568.48 171.499 567.319C164.819 563.105 160.59 556.612 156.665 550.042C155.559 548.2 154.47 546.327 153.301 544.532C151.699 542.051 148.911 540.615 146.38 539.195C145.995 538.976 144.89 539.476 144.618 539.6C143.761 540.017 142.964 540.542 142.247 541.161C141.734 541.583 139.908 543.081 140.965 543.69C143.42 544.82 145.57 546.492 147.245 548.575C148.302 550.135 149.248 551.805 150.225 553.429C152.065 556.653 154.081 559.779 156.264 562.793C161.28 569.466 168.525 574.229 176.754 576.262C178.07 576.506 179.35 576.904 180.567 577.448C181.762 578.164 182.841 579.047 183.771 580.07C185.315 581.642 186.654 583.393 187.76 585.283C188.401 586.376 191.797 583.832 192.149 583.551C193.604 582.57 194.694 581.158 195.257 579.524C195.578 578.104 194.632 576.621 194.104 575.357C193.615 574.066 192.992 572.826 192.245 571.658C191.251 570.293 189.96 569.158 188.465 568.334C185.94 566.686 183.257 565.28 180.455 564.135C177.649 563.333 174.982 562.129 172.541 560.561C168.167 557.159 165.3 552.757 162.56 548.075C160.846 545.328 159.244 542.691 157.642 540.225C156.236 538.001 154.364 536.091 152.147 534.622C151.693 534.291 151.176 534.053 150.625 533.921C150.075 533.79 149.503 533.768 148.943 533.857C147.694 534.107 146.46 534.45 145.242 534.778C144.025 535.106 142.551 535.324 141.27 535.714C139.399 536.318 137.792 537.516 136.704 539.117C136.239 539.881 135.791 540.677 135.342 541.458C135.276 541.569 135.241 541.696 135.241 541.825C135.241 541.953 135.276 542.08 135.342 542.191C135.698 542.586 136.14 542.898 136.637 543.103C137.133 543.309 137.671 543.402 138.21 543.377C139.119 543.216 140.055 543.303 140.917 543.627C141.334 543.814 142.375 543.346 142.679 543.206C143.527 542.814 144.319 542.315 145.034 541.723C145.515 541.333 147.421 539.725 146.332 539.195" stroke="#111111" stroke-width="0.45" stroke-miterlimit="10"/>
  <g clip-path="url(#clip4_2261:26755)">
    <path d="M25.5808 157.752C25.129 155.648 24.5065 153.582 23.719 151.573C23.5553 151.115 23.3508 150.656 23.228 150.188C23.1052 149.72 23.1257 149.241 23.0439 148.783C22.7844 147.746 22.3998 146.742 21.8981 145.793C21.5219 144.857 20.9781 143.993 20.2921 143.242C19.6444 142.487 19.101 141.652 18.6758 140.76C17.7391 139 16.6689 137.311 15.4739 135.707C14.8778 134.937 14.2356 134.201 13.5507 133.505C13.3388 133.28 13.0981 133.082 12.8346 132.917C12.5125 132.677 12.2297 132.392 11.9958 132.07C11.4417 131.496 10.8357 130.972 10.1851 130.505C9.30417 129.829 8.37426 129.216 7.40268 128.671C4.25193 126.827 0.518097 126.329 -3.10321 126.239C-5.27619 126.106 -7.45685 126.322 -9.55814 126.877C-10.8737 127.282 -12.1395 127.827 -13.3329 128.502C-14.0712 128.9 -14.7465 129.4 -15.3379 129.987C-15.5481 130.193 -15.7398 130.416 -15.9108 130.654C-15.9108 130.654 -16.5655 131.531 -16.1972 131.183L-14.7241 130.106C-13.7012 129.548 -14.7241 129.967 -15.1026 130.106C-15.6812 130.283 -16.2399 130.517 -16.7701 130.804C-17.8554 131.38 -18.8452 132.112 -19.706 132.976C-20.8607 134.266 -21.7467 135.762 -22.3146 137.381C-22.6419 138.199 -22.9386 139.026 -23.3375 139.813C-23.7365 140.601 -24.2991 141.378 -24.7288 142.195C-25.5328 143.702 -26.1115 145.313 -26.4474 146.979C-26.7914 148.699 -26.8604 150.461 -26.6519 152.201C-26.6066 153.102 -26.4131 153.991 -26.0791 154.832C-25.5169 155.642 -25.0984 156.538 -24.8413 157.483C-24.8265 158.269 -24.6527 159.045 -24.3298 159.765C-23.824 160.647 -23.235 161.482 -22.5703 162.257C-21.9381 162.972 -21.3955 163.759 -20.954 164.599C-20.7272 165.456 -20.5462 166.325 -20.4118 167.2C-19.6516 168.753 -18.4051 170.03 -16.8519 170.848C-15.1538 171.844 -13.3738 172.721 -11.5938 173.598C-8.52494 175.143 -5.60948 177.087 -2.24392 178.053C4.29285 179.937 10.9319 177.944 16.4662 174.396C22.1948 170.728 26.7777 164.729 25.5808 157.752C25.4581 156.995 24.0975 157.752 23.7497 157.972C23.2237 158.26 22.7417 158.619 22.3176 159.038C22.1232 159.237 21.6424 159.676 21.6935 159.975C22.0292 161.831 21.9488 163.737 21.4579 165.56C20.9671 167.383 20.0773 169.082 18.8497 170.539C18.5755 170.89 18.2782 171.222 17.9597 171.535C17.6407 171.839 17.2987 172.119 16.9367 172.373L16.5889 172.642C16.6708 172.582 16.9265 172.403 16.5889 172.642L15.9342 173.09C15.7092 173.24 15.9342 173.09 15.9342 173.09L15.5353 173.329L14.7067 173.798C14.3179 174.007 14.4714 173.917 14.5635 173.878L14.144 174.087L13.3973 174.426C12.896 174.655 12.5482 174.794 12.047 174.974C11.0809 175.318 10.0844 175.575 9.07011 175.741C4.72603 176.347 0.300109 175.485 -3.47148 173.3C-5.91638 171.984 -8.38173 170.708 -10.8675 169.433C-12.1686 168.862 -13.3835 168.121 -14.4786 167.23C-15.4922 166.49 -16.2691 165.484 -16.7189 164.33C-16.8621 163.752 -16.7803 163.164 -16.9542 162.576C-17.1705 161.94 -17.4881 161.342 -17.8953 160.802C-18.7968 159.705 -19.6402 158.564 -20.4221 157.384C-20.7429 156.849 -20.9288 156.248 -20.9642 155.63C-20.9648 155.037 -21.0865 154.451 -21.3223 153.905C-21.6394 153.297 -22.0588 152.749 -22.3452 152.121C-22.5933 151.444 -22.7414 150.736 -22.7851 150.019C-23.083 147.582 -22.8245 145.111 -22.0281 142.783C-21.6143 141.641 -21.0758 140.545 -20.4221 139.514C-19.738 138.384 -19.1594 137.197 -18.6933 135.966C-18.3516 134.939 -17.8918 133.953 -17.3225 133.026C-17.1967 132.849 -17.06 132.679 -16.9133 132.518C-17.0463 132.658 -16.9133 132.518 -16.9133 132.518L-16.7701 132.428C-16.8823 132.537 -17.0188 132.619 -17.169 132.668C-17.7726 132.996 -17.1076 132.668 -16.9133 132.668C-16.4795 132.566 -16.0552 132.429 -15.6448 132.259C-14.6006 131.822 -13.686 131.137 -12.9851 130.266C-12.7798 130.021 -12.6111 129.749 -12.4838 129.458C-12.7191 130.156 -14.0797 130.535 -13.2511 130.176C-12.1331 129.663 -10.9383 129.326 -9.71159 129.179C-7.32448 128.966 -4.91944 129.039 -2.55081 129.399C-0.209551 129.664 2.05042 130.397 4.08826 131.551C5.1943 132.254 6.2598 133.016 7.27992 133.834C7.65504 134.131 7.99783 134.465 8.30289 134.83C8.60314 135.173 8.94687 135.478 9.32585 135.737C10.3018 136.553 11.1588 137.495 11.873 138.538C12.6158 139.58 13.2988 140.661 13.919 141.777C14.5635 142.883 15.0852 144.149 15.8319 145.195C16.19 145.683 16.681 146.062 17.0595 146.53C17.449 147.075 17.7685 147.664 18.0109 148.284C18.3075 148.952 18.594 149.62 18.8702 150.278C19.0793 150.888 19.2133 151.52 19.2691 152.161C19.5662 153.442 19.9839 154.693 20.5171 155.899C21.0103 157.235 21.4034 158.603 21.6935 159.995C21.8368 160.752 23.1666 159.995 23.5247 159.785C24.0487 159.49 24.5303 159.128 24.9568 158.709C25.1512 158.52 25.6422 158.071 25.5808 157.772" fill="#111111"/>
    <path d="M25.5808 157.752C25.129 155.648 24.5065 153.582 23.719 151.573C23.5553 151.115 23.3508 150.656 23.228 150.188C23.1052 149.72 23.1257 149.241 23.0439 148.783C22.7844 147.746 22.3998 146.742 21.8981 145.793C21.5219 144.857 20.9781 143.993 20.2921 143.242C19.6444 142.487 19.101 141.652 18.6758 140.76C17.7391 139 16.6689 137.311 15.4739 135.707C14.8778 134.937 14.2356 134.201 13.5507 133.505C13.3388 133.28 13.0981 133.082 12.8346 132.917C12.5125 132.677 12.2297 132.392 11.9958 132.07C11.4417 131.496 10.8357 130.972 10.1851 130.505C9.30417 129.829 8.37426 129.216 7.40268 128.671C4.25193 126.827 0.518097 126.329 -3.10321 126.239C-5.27619 126.106 -7.45685 126.322 -9.55814 126.877C-10.8737 127.282 -12.1395 127.827 -13.3329 128.502C-14.0712 128.9 -14.7465 129.4 -15.3379 129.987C-15.5481 130.193 -15.7398 130.416 -15.9108 130.654C-15.9108 130.654 -16.5655 131.531 -16.1972 131.183L-14.7241 130.106C-13.7012 129.548 -14.7241 129.967 -15.1026 130.106C-15.6812 130.283 -16.2399 130.517 -16.7701 130.804C-17.8554 131.38 -18.8452 132.112 -19.706 132.976C-20.8607 134.266 -21.7467 135.762 -22.3146 137.381C-22.6419 138.199 -22.9386 139.026 -23.3375 139.813C-23.7365 140.601 -24.2991 141.378 -24.7288 142.195C-25.5328 143.702 -26.1115 145.313 -26.4474 146.979C-26.7914 148.699 -26.8604 150.461 -26.6519 152.201C-26.6066 153.102 -26.4131 153.991 -26.0791 154.832C-25.5169 155.642 -25.0984 156.538 -24.8413 157.483C-24.8265 158.269 -24.6527 159.045 -24.3298 159.765C-23.824 160.647 -23.235 161.482 -22.5703 162.257C-21.9381 162.972 -21.3955 163.759 -20.954 164.599C-20.7272 165.456 -20.5462 166.325 -20.4118 167.2C-19.6516 168.753 -18.4051 170.03 -16.8519 170.848C-15.1538 171.844 -13.3738 172.721 -11.5938 173.598C-8.52494 175.143 -5.60948 177.087 -2.24392 178.053C4.29285 179.937 10.9319 177.944 16.4662 174.396C22.1948 170.728 26.7777 164.729 25.5808 157.752C25.4581 156.995 24.0975 157.752 23.7497 157.972C23.2237 158.26 22.7417 158.619 22.3176 159.038C22.1232 159.237 21.6424 159.676 21.6935 159.975C22.0292 161.831 21.9488 163.737 21.4579 165.56C20.9671 167.383 20.0773 169.082 18.8497 170.539C18.5755 170.89 18.2782 171.222 17.9597 171.535C17.6407 171.839 17.2987 172.119 16.9367 172.373L16.5889 172.642C16.6708 172.582 16.9265 172.403 16.5889 172.642L15.9342 173.09C15.7092 173.24 15.9342 173.09 15.9342 173.09L15.5353 173.329L14.7067 173.798C14.3179 174.007 14.4714 173.917 14.5635 173.878L14.144 174.087L13.3973 174.426C12.896 174.655 12.5482 174.794 12.047 174.974C11.0809 175.318 10.0844 175.575 9.07011 175.741C4.72603 176.347 0.300109 175.485 -3.47148 173.3C-5.91638 171.984 -8.38173 170.708 -10.8675 169.433C-12.1686 168.862 -13.3835 168.121 -14.4786 167.23C-15.4922 166.49 -16.2691 165.484 -16.7189 164.33C-16.8621 163.752 -16.7803 163.164 -16.9542 162.576C-17.1705 161.94 -17.4881 161.342 -17.8953 160.802C-18.7968 159.705 -19.6402 158.564 -20.4221 157.384C-20.7429 156.849 -20.9288 156.248 -20.9642 155.63C-20.9648 155.037 -21.0865 154.451 -21.3223 153.905C-21.6394 153.297 -22.0588 152.749 -22.3452 152.121C-22.5933 151.444 -22.7414 150.736 -22.7851 150.019C-23.083 147.582 -22.8245 145.111 -22.0281 142.783C-21.6143 141.641 -21.0758 140.545 -20.4221 139.514C-19.738 138.384 -19.1594 137.197 -18.6933 135.966C-18.3516 134.939 -17.8918 133.953 -17.3225 133.026C-17.1967 132.849 -17.06 132.679 -16.9133 132.518C-17.0463 132.658 -16.9133 132.518 -16.9133 132.518L-16.7701 132.428C-16.8823 132.537 -17.0188 132.619 -17.169 132.668C-17.7726 132.996 -17.1076 132.668 -16.9133 132.668C-16.4795 132.566 -16.0552 132.429 -15.6448 132.259C-14.6006 131.822 -13.686 131.137 -12.9851 130.266C-12.7798 130.021 -12.6111 129.749 -12.4838 129.458C-12.7191 130.156 -14.0797 130.535 -13.2511 130.176C-12.1331 129.663 -10.9383 129.326 -9.71159 129.179C-7.32448 128.966 -4.91944 129.039 -2.55081 129.399C-0.209551 129.664 2.05042 130.397 4.08826 131.551C5.1943 132.254 6.2598 133.016 7.27992 133.834C7.65504 134.131 7.99783 134.465 8.30289 134.83C8.60314 135.173 8.94687 135.478 9.32585 135.737C10.3018 136.553 11.1588 137.495 11.873 138.538C12.6158 139.58 13.2988 140.661 13.919 141.777C14.5635 142.883 15.0852 144.149 15.8319 145.195C16.19 145.683 16.681 146.062 17.0595 146.53C17.449 147.075 17.7685 147.664 18.0109 148.284C18.3075 148.952 18.594 149.62 18.8702 150.278C19.0793 150.888 19.2133 151.52 19.2691 152.161C19.5662 153.442 19.9839 154.693 20.5171 155.899C21.0103 157.235 21.4034 158.603 21.6935 159.995C21.8368 160.752 23.1666 159.995 23.5247 159.785C24.0487 159.49 24.5303 159.128 24.9568 158.709C25.1512 158.52 25.6422 158.071 25.5808 157.772" stroke="#111111" stroke-width="0.45" stroke-miterlimit="10"/>
    <path d="M-12.7905 139.534C-13.355 139.301 -13.9756 139.229 -14.5807 139.325C-14.8417 139.371 -15.1108 139.35 -15.3605 139.262C-15.6103 139.175 -15.8318 139.024 -16.0026 138.826C-16.0026 138.976 -16.0026 139.135 -16.0537 139.295L-15.1842 137.8L-18.4679 140.062C-17.0833 139.817 -15.7165 139.484 -14.3761 139.066L-13.8646 138.956C-13.7626 138.946 -13.6597 138.946 -13.5577 138.956C-13.752 138.956 -13.7827 138.896 -13.5577 139.016C-12.9309 139.314 -12.3378 139.674 -11.7879 140.092C-9.36351 142.195 -7.82906 145.275 -6.24346 147.985C-4.82726 150.67 -2.96017 153.106 -0.719428 155.191C0.5167 156.214 1.93004 157.013 3.45428 157.553C4.93503 158.02 6.38087 158.586 7.78144 159.247C9.62278 160.244 11.7096 161.24 12.8963 163.024C13.4074 163.904 13.842 164.824 14.1955 165.775C14.4087 166.169 14.5604 166.593 14.6456 167.031C14.6456 167.28 14.4307 167.619 14.7069 167.389L17.5099 166.283C16.2209 164.091 14.2671 161.529 11.6994 160.702C10.165 160.204 8.63051 159.925 7.09605 159.347C5.77951 158.856 4.51807 158.235 3.33153 157.493C-0.934253 154.802 -3.63489 150.656 -6.14116 146.461C-6.84701 145.285 -7.54263 144.089 -8.2894 142.942C-9.31236 141.358 -11.0923 140.441 -12.7086 139.534C-12.9541 139.395 -13.66 139.713 -13.8339 139.793C-14.3812 140.059 -14.8902 140.394 -15.3479 140.79C-15.6752 141.059 -16.8414 142.016 -16.1663 142.404C-14.5986 143.126 -13.2255 144.194 -12.1562 145.524C-11.4811 146.52 -10.8775 147.587 -10.2535 148.623C-9.07868 150.682 -7.7913 152.678 -6.39691 154.603C-3.19414 158.864 1.43217 161.905 6.68686 163.204C7.52691 163.359 8.34446 163.613 9.12153 163.961C9.88449 164.418 10.5739 164.982 11.1675 165.635C12.1534 166.639 13.0089 167.757 13.7147 168.964C14.1238 169.662 16.2925 168.037 16.5176 167.858C17.4464 167.232 18.1425 166.33 18.5022 165.287C18.7067 164.38 18.1032 163.433 17.7656 162.626C17.4533 161.801 17.0557 161.01 16.579 160.264C15.9441 159.392 15.1198 158.667 14.1648 158.141C12.5524 157.089 10.8395 156.191 9.04992 155.46C7.25847 154.948 5.5553 154.179 3.99646 153.178C1.20375 151.005 -0.627362 148.195 -2.37664 145.205C-3.47121 143.451 -4.49418 141.766 -5.51715 140.192C-6.41478 138.772 -7.61053 137.552 -9.02593 136.614C-9.31571 136.403 -9.64626 136.251 -9.99781 136.167C-10.3494 136.083 -10.7147 136.069 -11.0719 136.126C-11.8698 136.285 -12.6575 136.504 -13.4349 136.714C-14.2124 136.923 -15.1535 137.062 -15.9719 137.312C-17.1661 137.697 -18.1927 138.462 -18.8874 139.484C-19.184 139.973 -19.4704 140.481 -19.7569 140.979C-19.7991 141.05 -19.8213 141.131 -19.8213 141.213C-19.8213 141.296 -19.7991 141.376 -19.7569 141.448C-19.5297 141.7 -19.2471 141.899 -18.9301 142.03C-18.6131 142.161 -18.2698 142.221 -17.9258 142.205C-17.3454 142.102 -16.7471 142.157 -16.1969 142.364C-15.931 142.484 -15.266 142.185 -15.0717 142.095C-14.5302 141.845 -14.0247 141.527 -13.5679 141.149C-13.261 140.899 -12.0437 139.873 -12.7393 139.534" fill="#111111"/>
    <path d="M-12.7905 139.534C-13.355 139.301 -13.9756 139.229 -14.5807 139.325C-14.8417 139.371 -15.1108 139.35 -15.3605 139.262C-15.6103 139.175 -15.8318 139.024 -16.0026 138.826C-16.0026 138.976 -16.0026 139.135 -16.0537 139.295L-15.1842 137.8L-18.4679 140.062C-17.0833 139.817 -15.7165 139.484 -14.3761 139.066L-13.8646 138.956C-13.7626 138.946 -13.6597 138.946 -13.5577 138.956C-13.752 138.956 -13.7827 138.896 -13.5577 139.016C-12.9309 139.314 -12.3378 139.674 -11.7879 140.092C-9.36351 142.195 -7.82906 145.275 -6.24346 147.985C-4.82726 150.67 -2.96017 153.106 -0.719428 155.191C0.5167 156.214 1.93004 157.013 3.45428 157.553C4.93503 158.02 6.38087 158.586 7.78144 159.247C9.62278 160.244 11.7096 161.24 12.8963 163.024C13.4074 163.904 13.842 164.824 14.1955 165.775C14.4087 166.169 14.5604 166.593 14.6456 167.031C14.6456 167.28 14.4307 167.619 14.7069 167.389L17.5099 166.283C16.2209 164.091 14.2671 161.529 11.6994 160.702C10.165 160.204 8.63051 159.925 7.09605 159.347C5.77951 158.856 4.51807 158.235 3.33153 157.493C-0.934253 154.802 -3.63489 150.656 -6.14116 146.461C-6.84701 145.285 -7.54263 144.089 -8.2894 142.942C-9.31236 141.358 -11.0923 140.441 -12.7086 139.534C-12.9541 139.395 -13.66 139.713 -13.8339 139.793C-14.3812 140.059 -14.8902 140.394 -15.3479 140.79C-15.6752 141.059 -16.8414 142.016 -16.1663 142.404C-14.5986 143.126 -13.2255 144.194 -12.1562 145.524C-11.4811 146.52 -10.8775 147.587 -10.2535 148.623C-9.07868 150.682 -7.7913 152.678 -6.39691 154.603C-3.19414 158.864 1.43217 161.905 6.68686 163.204C7.52691 163.359 8.34446 163.613 9.12153 163.961C9.88449 164.418 10.5739 164.982 11.1675 165.635C12.1534 166.639 13.0089 167.757 13.7147 168.964C14.1238 169.662 16.2925 168.037 16.5176 167.858C17.4464 167.232 18.1425 166.33 18.5022 165.287C18.7067 164.38 18.1032 163.433 17.7656 162.626C17.4533 161.801 17.0557 161.01 16.579 160.264C15.9441 159.392 15.1198 158.667 14.1648 158.141C12.5524 157.089 10.8395 156.191 9.04992 155.46C7.25847 154.948 5.5553 154.179 3.99646 153.178C1.20375 151.005 -0.627362 148.195 -2.37664 145.205C-3.47121 143.451 -4.49418 141.766 -5.51715 140.192C-6.41478 138.772 -7.61053 137.552 -9.02593 136.614C-9.31571 136.403 -9.64626 136.251 -9.99781 136.167C-10.3494 136.083 -10.7147 136.069 -11.0719 136.126C-11.8698 136.285 -12.6575 136.504 -13.4349 136.714C-14.2124 136.923 -15.1535 137.062 -15.9719 137.312C-17.1661 137.697 -18.1927 138.462 -18.8874 139.484C-19.184 139.973 -19.4704 140.481 -19.7569 140.979C-19.7991 141.05 -19.8213 141.131 -19.8213 141.213C-19.8213 141.296 -19.7991 141.376 -19.7569 141.448C-19.5297 141.7 -19.2471 141.899 -18.9301 142.03C-18.6131 142.161 -18.2698 142.221 -17.9258 142.205C-17.3454 142.102 -16.7471 142.157 -16.1969 142.364C-15.931 142.484 -15.266 142.185 -15.0717 142.095C-14.5302 141.845 -14.0247 141.527 -13.5679 141.149C-13.261 140.899 -12.0437 139.873 -12.7393 139.534" stroke="#111111" stroke-width="0.45" stroke-miterlimit="10"/>
  </g>
  <defs>
  <clipPath id="clip0_2261:26755">
  <rect width="61" height="62" fill="white" transform="translate(1392.84) rotate(45)"/>
  </clipPath>
  <clipPath id="clip1_2261:26755">
  <rect width="31" height="31" fill="white" transform="translate(1180 377)"/>
  </clipPath>
  <clipPath id="clip2_2261:26755">
  <rect width="68.3966" height="68.3966" fill="white" transform="translate(1115.23 214.131) rotate(-78.1954)"/>
  </clipPath>
  <clipPath id="clip3_2261:26755">
  <rect width="47.9904" height="48.7771" fill="white" transform="translate(362.191 143.857) rotate(75)"/>
  </clipPath>
  <clipPath id="clip4_2261:26755">
  <rect width="53" height="53" fill="white" transform="translate(-27 126)"/>
  </clipPath>
  </defs>
</svg>
