<svg width="120" height="56" viewBox="0 0 120 56" fill="none" xmlns="http://www.w3.org/2000/svg">
<g>
<path transform="scale(1)" d="M87.5861 12.236C87.597 13.4931 87.7071 14.7471 87.9153 15.9862C87.9539 16.2673 88.0152 16.5529 88.0299 16.8351C88.0447 17.1174 87.9788 17.3896 87.9719 17.6616C87.9977 18.2853 88.0968 18.9034 88.2671 19.5033C88.3693 20.0819 88.5727 20.6375 88.8679 21.1441C89.1414 21.6487 89.348 22.1872 89.4823 22.7461C89.8017 23.8589 90.2033 24.946 90.6838 25.9981C90.927 26.5058 91.1996 26.9986 91.5004 27.4739C91.5925 27.6263 91.7035 27.7663 91.8309 27.8902C91.9825 28.063 92.107 28.2581 92.2001 28.4688C92.4423 28.8589 92.7191 29.2262 93.0269 29.5662C93.439 30.051 93.8854 30.5052 94.3626 30.9252C95.9016 32.3306 97.9178 33.0284 99.918 33.4794C101.109 33.7955 102.344 33.9125 103.574 33.8257C104.351 33.7384 105.116 33.5656 105.855 33.3103C106.311 33.1632 106.743 32.9508 107.138 32.6796C107.278 32.5845 107.41 32.4775 107.532 32.3597C107.532 32.3597 107.995 31.9288 107.751 32.0883L106.811 32.5433C106.179 32.7506 106.795 32.6233 107.021 32.585C107.362 32.5472 107.699 32.4748 108.026 32.3688C108.694 32.158 109.327 31.847 109.904 31.4463C110.692 30.8339 111.354 30.0734 111.854 29.207C112.129 28.7743 112.388 28.3325 112.699 27.9248C113.011 27.5172 113.412 27.1333 113.743 26.7119C114.361 25.9363 114.866 25.076 115.243 24.1571C115.63 23.2083 115.869 22.2053 115.952 21.1837C116.029 20.6617 116.023 20.1308 115.934 19.6111C115.714 19.0845 115.584 18.5242 115.549 17.9537C115.63 17.5011 115.622 17.037 115.525 16.588C115.345 16.0262 115.113 15.4827 114.832 14.9645C114.563 14.4843 114.351 13.9734 114.202 13.4426C114.174 12.9257 114.172 12.4076 114.198 11.8905C113.952 10.916 113.406 10.0457 112.637 9.40512C111.808 8.64601 110.92 7.94648 110.031 7.24695C108.504 6.02214 107.107 4.58556 105.348 3.65963C101.934 1.8578 98.021 2.26876 94.544 3.69354C90.9454 5.16549 87.717 8.10174 87.5861 12.236C87.5679 12.6841 88.4096 12.3997 88.6277 12.3123C88.9527 12.2046 89.2612 12.0519 89.5444 11.8585C89.675 11.7656 89.9919 11.5671 89.9976 11.3899C90.023 10.2878 90.2848 9.20368 90.7652 8.21178C91.2456 7.21987 91.9332 6.34366 92.7809 5.64321C92.9731 5.4723 93.1761 5.31411 93.3887 5.16966C93.6004 5.03071 93.8221 4.9079 94.052 4.80227L94.2758 4.68627C94.2236 4.71154 94.0611 4.78624 94.2758 4.68627L94.6904 4.50122C94.8324 4.44029 94.6904 4.50122 94.6904 4.50122L94.9392 4.40802L95.4526 4.23073C95.6923 4.15355 95.5969 4.18808 95.5412 4.20079L95.7979 4.127L96.2512 4.015C96.5556 3.93881 96.7646 3.89714 97.0633 3.84953C97.6389 3.75877 98.2214 3.72135 98.8035 3.73774C101.284 3.86969 103.643 4.85236 105.488 6.52229C106.695 7.54675 107.919 8.5506 109.153 9.55671C109.81 10.0275 110.401 10.5867 110.907 11.2187C111.385 11.7554 111.702 12.4181 111.82 13.1297C111.834 13.4771 111.721 13.8054 111.751 14.1619C111.798 14.5505 111.906 14.9289 112.071 15.2834C112.446 16.0121 112.784 16.7597 113.084 17.5233C113.201 17.8654 113.236 18.2308 113.185 18.5894C113.118 18.9292 113.119 19.2789 113.187 19.618C113.294 20.0018 113.464 20.3625 113.552 20.7543C113.612 21.1701 113.614 21.5927 113.556 22.0092C113.444 23.44 113.019 24.8289 112.311 26.0766C111.951 26.6863 111.527 27.2556 111.047 27.7747C110.538 28.3474 110.081 28.9648 109.682 29.6193C109.376 30.171 109.008 30.686 108.586 31.1547C108.496 31.2425 108.401 31.3248 108.301 31.4012C108.391 31.3358 108.301 31.4012 108.301 31.4012L108.211 31.4368C108.286 31.3868 108.371 31.3549 108.46 31.3436C108.833 31.2215 108.426 31.3369 108.318 31.3154C108.066 31.3258 107.814 31.3574 107.567 31.4099C106.938 31.5451 106.352 31.8374 105.863 32.2599C105.721 32.3777 105.597 32.515 105.493 32.6677C105.703 32.2934 106.502 32.2263 106.001 32.3407C105.322 32.5118 104.62 32.573 103.922 32.5219C102.572 32.3811 101.246 32.0735 99.9715 31.606C98.702 31.1952 97.5309 30.5255 96.5311 29.6385C95.9972 29.1131 95.4925 28.5585 95.0194 27.9771C94.845 27.7652 94.6927 27.5358 94.565 27.2925C94.4375 27.0625 94.2814 26.8497 94.1005 26.6593C93.6517 26.0834 93.2834 25.4483 93.0057 24.7717C92.7121 24.0919 92.4562 23.3962 92.2391 22.6878C92.0074 21.982 91.8621 21.1984 91.5668 20.5156C91.4237 20.196 91.1943 19.9245 91.0375 19.614C90.8834 19.2586 90.7732 18.8854 90.7093 18.5028C90.6208 18.087 90.5379 17.6723 90.4595 17.2645C90.413 16.8913 90.4107 16.5138 90.4528 16.1399C90.4339 15.3725 90.3446 14.6087 90.186 13.8582C90.0646 13.0374 90.0024 12.2086 89.9999 11.3785C90.0068 10.9282 89.1821 11.216 88.9595 11.2965C88.6348 11.4083 88.3262 11.5628 88.0416 11.756C87.9121 11.8432 87.5884 12.0463 87.5884 12.2246" fill="#ffd100"></path>
<path transform="scale(1)" d="M87.5861 12.236C87.597 13.4931 87.7071 14.7471 87.9153 15.9862C87.9539 16.2673 88.0152 16.5529 88.0299 16.8351C88.0447 17.1174 87.9788 17.3896 87.9719 17.6616C87.9977 18.2853 88.0968 18.9034 88.2671 19.5033C88.3693 20.0819 88.5727 20.6375 88.8679 21.1441C89.1414 21.6487 89.348 22.1872 89.4823 22.7461C89.8017 23.8589 90.2033 24.946 90.6838 25.9981C90.927 26.5058 91.1996 26.9986 91.5004 27.4739C91.5925 27.6263 91.7035 27.7663 91.8309 27.8902C91.9825 28.063 92.107 28.2581 92.2001 28.4688C92.4423 28.8589 92.7191 29.2262 93.0269 29.5662C93.439 30.051 93.8854 30.5052 94.3626 30.9252C95.9016 32.3306 97.9178 33.0284 99.918 33.4794C101.109 33.7955 102.344 33.9125 103.574 33.8257C104.351 33.7384 105.116 33.5656 105.855 33.3103C106.311 33.1632 106.743 32.9508 107.138 32.6796C107.278 32.5845 107.41 32.4775 107.532 32.3597C107.532 32.3597 107.995 31.9288 107.751 32.0883L106.811 32.5433C106.179 32.7506 106.795 32.6233 107.021 32.585C107.362 32.5472 107.699 32.4748 108.026 32.3688C108.694 32.158 109.327 31.847 109.904 31.4463C110.692 30.8339 111.354 30.0734 111.854 29.207C112.129 28.7743 112.388 28.3325 112.699 27.9248C113.011 27.5172 113.412 27.1333 113.743 26.7119C114.361 25.9363 114.866 25.076 115.243 24.1571C115.63 23.2083 115.869 22.2053 115.952 21.1837C116.029 20.6617 116.023 20.1308 115.934 19.6111C115.714 19.0845 115.584 18.5242 115.549 17.9537C115.63 17.5011 115.622 17.037 115.525 16.588C115.345 16.0262 115.113 15.4827 114.832 14.9645C114.563 14.4843 114.351 13.9734 114.202 13.4426C114.174 12.9257 114.172 12.4076 114.198 11.8905C113.952 10.916 113.406 10.0457 112.637 9.40512C111.808 8.64601 110.92 7.94648 110.031 7.24696C108.504 6.02214 107.107 4.58556 105.348 3.65963C101.934 1.8578 98.021 2.26876 94.544 3.69354C90.9454 5.16549 87.717 8.10174 87.5861 12.236C87.5679 12.6841 88.4096 12.3997 88.6277 12.3123C88.9527 12.2046 89.2612 12.0519 89.5444 11.8585C89.675 11.7656 89.9919 11.5671 89.9976 11.3899C90.023 10.2878 90.2848 9.20368 90.7652 8.21178C91.2456 7.21987 91.9332 6.34366 92.7809 5.64321C92.9731 5.4723 93.1761 5.31411 93.3887 5.16966C93.6004 5.03071 93.8221 4.9079 94.052 4.80227L94.2758 4.68627C94.2236 4.71155 94.0611 4.78624 94.2758 4.68627L94.6904 4.50122C94.8324 4.44029 94.6904 4.50122 94.6904 4.50122L94.9392 4.40802L95.4526 4.23073C95.6923 4.15355 95.5969 4.18808 95.5412 4.20079L95.7979 4.127L96.2512 4.015C96.5556 3.93881 96.7646 3.89714 97.0633 3.84953C97.6389 3.75877 98.2214 3.72135 98.8035 3.73774C101.284 3.86969 103.643 4.85236 105.488 6.52229C106.695 7.54675 107.919 8.5506 109.153 9.55671C109.81 10.0275 110.401 10.5867 110.907 11.2187C111.385 11.7554 111.702 12.4181 111.82 13.1297C111.834 13.4771 111.721 13.8054 111.751 14.1619C111.798 14.5505 111.906 14.9289 112.071 15.2834C112.446 16.0121 112.784 16.7597 113.084 17.5233C113.201 17.8654 113.236 18.2308 113.185 18.5894C113.118 18.9292 113.119 19.2789 113.187 19.618C113.294 20.0018 113.464 20.3625 113.552 20.7543C113.612 21.1701 113.614 21.5927 113.556 22.0092C113.444 23.44 113.019 24.8289 112.311 26.0766C111.951 26.6863 111.527 27.2556 111.047 27.7747C110.538 28.3474 110.081 28.9648 109.682 29.6193C109.376 30.171 109.008 30.686 108.586 31.1547C108.496 31.2425 108.401 31.3248 108.301 31.4012C108.391 31.3358 108.301 31.4012 108.301 31.4012L108.211 31.4368C108.286 31.3868 108.371 31.3549 108.46 31.3436C108.833 31.2215 108.426 31.3369 108.318 31.3154C108.066 31.3258 107.814 31.3574 107.567 31.4099C106.938 31.5451 106.352 31.8374 105.863 32.2599C105.721 32.3777 105.597 32.515 105.493 32.6677C105.703 32.2934 106.502 32.2263 106.001 32.3407C105.322 32.5118 104.62 32.573 103.922 32.5219C102.572 32.3811 101.246 32.0735 99.9715 31.606C98.702 31.1952 97.5309 30.5255 96.5311 29.6386C95.9972 29.1131 95.4925 28.5585 95.0194 27.9771C94.845 27.7652 94.6927 27.5358 94.565 27.2925C94.4375 27.0625 94.2814 26.8497 94.1005 26.6593C93.6517 26.0834 93.2834 25.4483 93.0057 24.7717C92.7121 24.0919 92.4562 23.3962 92.2391 22.6878C92.0074 21.982 91.8621 21.1984 91.5668 20.5156C91.4237 20.196 91.1943 19.9245 91.0375 19.614C90.8834 19.2586 90.7732 18.8854 90.7093 18.5028C90.6208 18.087 90.5379 17.6723 90.4595 17.2645C90.413 16.8913 90.4107 16.5138 90.4528 16.1399C90.4339 15.3725 90.3446 14.6087 90.186 13.8582C90.0646 13.0374 90.0024 12.2086 89.9999 11.3785C90.0068 10.9282 89.1821 11.216 88.9595 11.2965C88.6348 11.4083 88.3262 11.5628 88.0416 11.756C87.9121 11.8432 87.5884 12.0463 87.5884 12.2246" stroke="#ffd100" stroke-width="0.45" stroke-miterlimit="10"></path>
<path transform="scale(1)" d="M106.811 26.9213C107.098 27.1171 107.435 27.2272 107.781 27.2389C107.932 27.241 108.079 27.2831 108.207 27.3608C108.336 27.4386 108.442 27.5493 108.514 27.6817C108.531 27.5959 108.549 27.5044 108.596 27.4186L107.943 28.1803L110.024 27.2447C109.227 27.2329 108.43 27.273 107.638 27.365L107.342 27.3714C107.284 27.3661 107.227 27.3548 107.171 27.3376C107.279 27.359 107.29 27.3967 107.178 27.3033C106.864 27.0633 106.576 26.7909 106.318 26.4905C105.212 25.0167 104.711 23.0807 104.14 21.3506C103.66 19.6539 102.901 18.0508 101.895 16.6074C101.325 15.8843 100.632 15.2695 99.847 14.7918C99.0782 14.3606 98.34 13.8763 97.6378 13.3424C96.7292 12.5675 95.6842 11.7655 95.2288 10.6112C95.0454 10.05 94.909 9.47416 94.8212 8.8898C94.7477 8.63997 94.7118 8.38043 94.7145 8.11974C94.7429 7.9768 94.9008 7.80611 94.7213 7.90714L93.039 8.23251C93.5046 9.63256 94.2974 11.3175 95.6286 12.0754C96.4236 12.5306 97.2437 12.8599 98.0297 13.3609C98.7047 13.7878 99.3342 14.2833 99.9084 14.8397C101.97 16.854 102.996 19.5305 103.91 22.214C104.167 22.9666 104.417 23.7294 104.701 24.4693C105.088 25.4913 105.972 26.2137 106.766 26.9123C106.886 27.0194 107.315 26.9143 107.42 26.8878C107.754 26.7955 108.075 26.6594 108.374 26.4831C108.587 26.3648 109.343 25.9446 109.013 25.6472C108.225 25.0602 107.584 24.2959 107.142 23.4152C106.881 22.7689 106.667 22.0906 106.439 21.4271C106.022 20.1163 105.535 18.8291 104.98 17.5711C103.688 14.7732 101.466 12.518 98.6966 11.1934C98.248 11.0115 97.8231 10.7754 97.4313 10.4902C97.0598 10.144 96.7414 9.74421 96.4863 9.30394C96.0534 8.61938 95.7059 7.88364 95.4517 7.11326C95.3041 6.66789 93.9148 7.36055 93.7695 7.43864C93.1824 7.69539 92.6931 8.13601 92.3745 8.69477C92.1575 9.19248 92.3847 9.80223 92.48 10.3026C92.5594 10.8101 92.6899 11.3079 92.8695 11.7886C93.1226 12.3587 93.4976 12.8655 93.9678 13.2727C94.7431 14.0541 95.5917 14.7582 96.5018 15.3751C97.438 15.8665 98.2959 16.4957 99.0472 17.242C100.35 18.7965 101.046 20.6108 101.676 22.5191C102.084 23.6461 102.46 24.7252 102.848 25.7415C103.185 26.6553 103.71 27.4867 104.388 28.1812C104.525 28.3344 104.691 28.4581 104.877 28.545C105.063 28.632 105.264 28.6803 105.469 28.6871C105.93 28.6836 106.392 28.6448 106.848 28.6105C107.303 28.5762 107.842 28.6 108.324 28.5473C109.031 28.4579 109.688 28.1322 110.191 27.6226C110.411 27.3752 110.628 27.1152 110.844 26.8609C110.875 26.8247 110.897 26.7809 110.906 26.7337C110.916 26.6865 110.912 26.6377 110.897 26.5922C110.8 26.4225 110.666 26.2771 110.505 26.1669C110.344 26.0567 110.16 25.9845 109.967 25.9557C109.633 25.9507 109.307 25.8531 109.025 25.6734C108.891 25.5755 108.488 25.6736 108.37 25.7036C108.041 25.7875 107.724 25.9144 107.427 26.0809C107.228 26.19 106.435 26.6445 106.783 26.9157" fill="#ffd100"></path>
<path transform="scale(1)" d="M106.811 26.9213C107.098 27.1171 107.435 27.2272 107.781 27.2389C107.932 27.241 108.079 27.2831 108.207 27.3608C108.336 27.4386 108.442 27.5493 108.514 27.6817C108.531 27.5959 108.549 27.5044 108.596 27.4186L107.943 28.1803L110.024 27.2447C109.227 27.2329 108.43 27.273 107.638 27.365L107.342 27.3714C107.284 27.3661 107.227 27.3548 107.171 27.3376C107.279 27.359 107.29 27.3967 107.178 27.3033C106.864 27.0633 106.576 26.7909 106.318 26.4905C105.212 25.0167 104.711 23.0807 104.14 21.3506C103.66 19.6539 102.901 18.0508 101.895 16.6074C101.325 15.8843 100.632 15.2695 99.847 14.7918C99.0782 14.3606 98.34 13.8763 97.6378 13.3424C96.7292 12.5675 95.6842 11.7655 95.2288 10.6112C95.0454 10.05 94.909 9.47416 94.8212 8.8898C94.7477 8.63997 94.7118 8.38043 94.7145 8.11974C94.7429 7.9768 94.9008 7.80611 94.7213 7.90714L93.039 8.23251C93.5046 9.63256 94.2974 11.3175 95.6286 12.0754C96.4236 12.5306 97.2437 12.8599 98.0297 13.3609C98.7047 13.7878 99.3342 14.2833 99.9084 14.8397C101.97 16.854 102.996 19.5305 103.91 22.214C104.167 22.9666 104.417 23.7294 104.701 24.4693C105.088 25.4913 105.972 26.2137 106.766 26.9123C106.886 27.0194 107.315 26.9143 107.42 26.8878C107.754 26.7955 108.075 26.6594 108.374 26.4831C108.587 26.3648 109.343 25.9446 109.013 25.6472C108.225 25.0602 107.584 24.2959 107.142 23.4152C106.881 22.7689 106.667 22.0906 106.439 21.4271C106.022 20.1163 105.535 18.8291 104.98 17.5711C103.688 14.7732 101.466 12.518 98.6966 11.1934C98.248 11.0115 97.8231 10.7754 97.4313 10.4902C97.0598 10.144 96.7414 9.74421 96.4863 9.30393C96.0534 8.61938 95.7059 7.88364 95.4517 7.11326C95.3041 6.66789 93.9148 7.36055 93.7695 7.43864C93.1824 7.69539 92.6931 8.13601 92.3745 8.69477C92.1575 9.19248 92.3847 9.80223 92.48 10.3026C92.5594 10.8101 92.6899 11.3079 92.8695 11.7886C93.1226 12.3587 93.4976 12.8655 93.9678 13.2727C94.7431 14.0541 95.5917 14.7582 96.5018 15.3751C97.438 15.8665 98.2959 16.4957 99.0472 17.242C100.35 18.7965 101.046 20.6108 101.676 22.5191C102.084 23.6461 102.46 24.7252 102.848 25.7415C103.185 26.6553 103.71 27.4867 104.388 28.1812C104.525 28.3344 104.691 28.4581 104.877 28.545C105.063 28.632 105.264 28.6803 105.469 28.6871C105.93 28.6836 106.392 28.6448 106.848 28.6105C107.303 28.5762 107.842 28.6 108.324 28.5473C109.031 28.4579 109.688 28.1322 110.191 27.6226C110.411 27.3752 110.628 27.1152 110.844 26.8609C110.875 26.8247 110.897 26.7809 110.906 26.7337C110.916 26.6865 110.912 26.6377 110.897 26.5922C110.8 26.4225 110.666 26.2771 110.505 26.1669C110.344 26.0567 110.16 25.9845 109.967 25.9557C109.633 25.9507 109.307 25.8531 109.025 25.6734C108.891 25.5755 108.488 25.6736 108.37 25.7036C108.041 25.7875 107.724 25.9144 107.427 26.0809C107.228 26.19 106.435 26.6445 106.783 26.9157" stroke="#ffd100" stroke-width="0.45" stroke-miterlimit="10"></path>
</g>
<g>
<path transform="scale(1)" d="M31.6151 12.236C31.6042 13.4931 31.4941 14.7472 31.2859 15.9862C31.2473 16.2673 31.186 16.5529 31.1713 16.8351C31.1565 17.1174 31.2224 17.3896 31.2292 17.6616C31.2035 18.2853 31.1044 18.9034 30.934 19.5033C30.8319 20.0819 30.6285 20.6375 30.3333 21.1441C30.0597 21.6487 29.8532 22.1872 29.7189 22.7461C29.3995 23.8589 28.9979 24.946 28.5173 25.9981C28.2742 26.5058 28.0015 26.9986 27.7007 27.4739C27.6087 27.6263 27.4976 27.7663 27.3702 27.8902C27.2187 28.063 27.0942 28.2581 27.0011 28.4688C26.7588 28.8589 26.4821 29.2262 26.1743 29.5662C25.7622 30.051 25.3158 30.5052 24.8386 30.9252C23.2995 32.3306 21.2834 33.0284 19.2832 33.4794C18.0919 33.7955 16.8567 33.9125 15.6268 33.8257C14.8502 33.7384 14.0854 33.5656 13.3459 33.3103C12.8906 33.1632 12.4587 32.9508 12.0635 32.6796C11.9232 32.5845 11.7914 32.4775 11.6693 32.3597C11.6693 32.3597 11.2058 31.9288 11.45 32.0883L12.3906 32.5433C13.0221 32.7506 12.4065 32.6233 12.1804 32.585C11.839 32.5472 11.5022 32.4748 11.1752 32.3688C10.5069 32.158 9.87391 31.847 9.2975 31.4463C8.50942 30.8339 7.84694 30.0734 7.34705 29.207C7.07213 28.7743 6.81312 28.3325 6.50186 27.9248C6.1906 27.5172 5.78961 27.1333 5.45791 26.7119C4.83976 25.9363 4.3348 25.076 3.95837 24.1571C3.57126 23.2083 3.3321 22.2053 3.24938 21.1837C3.17183 20.6617 3.17793 20.1308 3.26744 19.6111C3.48724 19.0845 3.61737 18.5242 3.65239 17.9537C3.571 17.5011 3.57907 17.037 3.67615 16.588C3.85641 16.0262 4.08834 15.4827 4.36893 14.9645C4.63835 14.4843 4.84994 13.9734 4.99924 13.4426C5.0274 12.9257 5.02889 12.4076 5.00367 11.8905C5.24876 10.916 5.79518 10.0457 6.5642 9.40512C7.39334 8.64601 8.28155 7.94649 9.16976 7.24696C10.6974 6.02215 12.0945 4.58556 13.8527 3.65963C17.2671 1.8578 21.1802 2.26876 24.6572 3.69355C28.2558 5.1655 31.4842 8.10174 31.6151 12.236C31.6333 12.6841 30.7916 12.3997 30.5735 12.3123C30.2485 12.2046 29.94 12.0519 29.6568 11.8585C29.5262 11.7656 29.2092 11.5671 29.2035 11.3899C29.1782 10.2878 28.9164 9.20369 28.436 8.21178C27.9555 7.21987 27.2679 6.34366 26.4202 5.64321C26.228 5.4723 26.025 5.31412 25.8125 5.16967C25.6008 5.03071 25.379 4.9079 25.1491 4.80227L24.9254 4.68627C24.9776 4.71155 25.14 4.78625 24.9254 4.68627L24.5107 4.50123C24.3688 4.4403 24.5107 4.50123 24.5107 4.50123L24.262 4.40803L23.7486 4.23073C23.5089 4.15356 23.6043 4.18808 23.66 4.20079L23.4032 4.127L22.95 4.015C22.6456 3.93881 22.4366 3.89714 22.1379 3.84953C21.5623 3.75878 20.9798 3.72136 20.3977 3.73774C17.9169 3.86969 15.558 4.85236 13.7132 6.5223C12.5059 7.54676 11.2826 8.5506 10.0479 9.55671C9.39068 10.0275 8.80066 10.5867 8.29427 11.2187C7.81599 11.7554 7.49934 12.4181 7.38115 13.1297C7.36755 13.4771 7.48002 13.8054 7.45051 14.1619C7.4029 14.5505 7.29483 14.9289 7.13027 15.2834C6.75481 16.0121 6.41669 16.7597 6.11722 17.5233C6.00003 17.8654 5.96541 18.2308 6.0162 18.5894C6.08342 18.9292 6.08267 19.2789 6.014 19.618C5.90725 20.0018 5.7369 20.3625 5.64946 20.7543C5.58894 21.1701 5.58744 21.5927 5.645 22.0092C5.75742 23.44 6.18262 24.8289 6.89021 26.0766C7.25022 26.6863 7.6741 27.2556 8.15456 27.7747C8.66315 28.3474 9.11976 28.9648 9.51887 29.6193C9.82565 30.171 10.1934 30.686 10.6151 31.1547C10.7052 31.2425 10.8004 31.3248 10.9002 31.4012C10.8105 31.3358 10.9002 31.4012 10.9002 31.4012L10.99 31.4368C10.9153 31.3868 10.8301 31.3549 10.7412 31.3436C10.3686 31.2215 10.7753 31.3369 10.8832 31.3154C11.1356 31.3258 11.3867 31.3574 11.634 31.4099C12.2635 31.5451 12.8494 31.8374 13.3379 32.2599C13.4797 32.3777 13.6044 32.515 13.7082 32.6677C13.498 32.2934 12.6995 32.2263 13.2004 32.3407C13.8796 32.5118 14.5813 32.573 15.2791 32.5219C16.6288 32.3811 17.9556 32.0735 19.2296 31.606C20.4991 31.1952 21.6703 30.5255 22.6701 29.6386C23.204 29.1131 23.7086 28.5585 24.1818 27.9771C24.3562 27.7652 24.5084 27.5358 24.6361 27.2925C24.7637 27.0625 24.9198 26.8497 25.1007 26.6593C25.5494 26.0834 25.9178 25.4483 26.1955 24.7717C26.489 24.0919 26.745 23.3962 26.9621 22.6878C27.1938 21.982 27.3391 21.1984 27.6344 20.5156C27.7775 20.196 28.0069 19.9245 28.1636 19.6141C28.3178 19.2586 28.428 18.8854 28.4918 18.5028C28.5804 18.087 28.6633 17.6723 28.7416 17.2645C28.7882 16.8914 28.7905 16.5138 28.7484 16.1399C28.7673 15.3725 28.8566 14.6087 29.0152 13.8582C29.1366 13.0374 29.1988 12.2086 29.2013 11.3785C29.1944 10.9282 30.0191 11.216 30.2417 11.2965C30.5664 11.4083 30.875 11.5628 31.1595 11.756C31.289 11.8432 31.6128 12.0463 31.6128 12.2246" fill="#ffd100"></path>
<path transform="scale(1)" d="M31.6151 12.236C31.6042 13.4931 31.4941 14.7472 31.2859 15.9862C31.2473 16.2673 31.186 16.5529 31.1713 16.8351C31.1565 17.1174 31.2224 17.3896 31.2292 17.6616C31.2035 18.2853 31.1044 18.9034 30.934 19.5033C30.8319 20.0819 30.6285 20.6375 30.3333 21.1441C30.0597 21.6487 29.8532 22.1872 29.7189 22.7461C29.3995 23.8589 28.9979 24.946 28.5173 25.9981C28.2742 26.5058 28.0015 26.9986 27.7007 27.4739C27.6087 27.6263 27.4976 27.7663 27.3702 27.8902C27.2187 28.063 27.0942 28.2581 27.0011 28.4688C26.7588 28.8589 26.4821 29.2262 26.1743 29.5662C25.7622 30.051 25.3158 30.5052 24.8386 30.9252C23.2995 32.3306 21.2834 33.0284 19.2832 33.4794C18.0919 33.7955 16.8567 33.9125 15.6268 33.8257C14.8502 33.7384 14.0854 33.5656 13.3459 33.3103C12.8906 33.1632 12.4587 32.9508 12.0635 32.6796C11.9232 32.5845 11.7914 32.4775 11.6693 32.3597C11.6693 32.3597 11.2058 31.9288 11.45 32.0883L12.3906 32.5433C13.0221 32.7506 12.4065 32.6233 12.1804 32.585C11.839 32.5472 11.5022 32.4748 11.1752 32.3688C10.5069 32.158 9.87391 31.847 9.2975 31.4463C8.50942 30.8339 7.84694 30.0734 7.34705 29.207C7.07213 28.7743 6.81312 28.3325 6.50186 27.9248C6.1906 27.5172 5.78961 27.1333 5.45791 26.7119C4.83976 25.9363 4.3348 25.076 3.95837 24.1571C3.57126 23.2083 3.3321 22.2053 3.24938 21.1837C3.17183 20.6617 3.17793 20.1308 3.26744 19.6111C3.48724 19.0845 3.61737 18.5242 3.65239 17.9537C3.571 17.5011 3.57907 17.037 3.67615 16.588C3.85641 16.0262 4.08834 15.4827 4.36893 14.9645C4.63835 14.4843 4.84994 13.9734 4.99924 13.4426C5.0274 12.9257 5.02889 12.4076 5.00367 11.8905C5.24876 10.916 5.79518 10.0457 6.5642 9.40512C7.39334 8.64601 8.28155 7.94648 9.16976 7.24696C10.6974 6.02214 12.0945 4.58556 13.8527 3.65963C17.2671 1.8578 21.1802 2.26876 24.6572 3.69355C28.2558 5.1655 31.4842 8.10174 31.6151 12.236C31.6333 12.6841 30.7916 12.3997 30.5735 12.3123C30.2485 12.2046 29.94 12.0519 29.6568 11.8585C29.5262 11.7656 29.2092 11.5671 29.2035 11.3899C29.1782 10.2878 28.9164 9.20369 28.436 8.21178C27.9555 7.21987 27.2679 6.34366 26.4202 5.64321C26.228 5.4723 26.025 5.31412 25.8125 5.16967C25.6008 5.03071 25.379 4.9079 25.1491 4.80227L24.9254 4.68627C24.9776 4.71155 25.14 4.78625 24.9254 4.68627L24.5107 4.50123C24.3688 4.4403 24.5107 4.50123 24.5107 4.50123L24.262 4.40803L23.7486 4.23073C23.5089 4.15356 23.6043 4.18808 23.66 4.20079L23.4032 4.127L22.95 4.01501C22.6456 3.93881 22.4366 3.89714 22.1379 3.84953C21.5623 3.75878 20.9798 3.72136 20.3977 3.73774C17.9169 3.86969 15.558 4.85236 13.7132 6.5223C12.5059 7.54676 11.2826 8.5506 10.0479 9.55671C9.39068 10.0275 8.80066 10.5867 8.29427 11.2187C7.81599 11.7554 7.49934 12.4181 7.38115 13.1297C7.36755 13.4771 7.48002 13.8054 7.45051 14.1619C7.4029 14.5505 7.29483 14.9289 7.13027 15.2834C6.75481 16.0121 6.41669 16.7597 6.11722 17.5233C6.00003 17.8654 5.96541 18.2308 6.0162 18.5894C6.08342 18.9292 6.08267 19.2789 6.014 19.618C5.90725 20.0018 5.7369 20.3625 5.64946 20.7543C5.58895 21.1701 5.58744 21.5927 5.645 22.0092C5.75742 23.44 6.18262 24.8289 6.89021 26.0766C7.25022 26.6863 7.6741 27.2556 8.15456 27.7747C8.66315 28.3474 9.11976 28.9648 9.51887 29.6193C9.82565 30.171 10.1934 30.686 10.6151 31.1547C10.7052 31.2425 10.8004 31.3248 10.9002 31.4012C10.8105 31.3358 10.9002 31.4012 10.9002 31.4012L10.99 31.4368C10.9153 31.3868 10.8301 31.3549 10.7412 31.3436C10.3686 31.2215 10.7753 31.3369 10.8832 31.3154C11.1356 31.3258 11.3867 31.3574 11.634 31.4099C12.2635 31.5451 12.8494 31.8374 13.3379 32.2599C13.4797 32.3777 13.6044 32.515 13.7082 32.6677C13.498 32.2934 12.6995 32.2263 13.2004 32.3407C13.8796 32.5118 14.5813 32.573 15.2791 32.5219C16.6288 32.3811 17.9556 32.0735 19.2296 31.606C20.4991 31.1952 21.6703 30.5255 22.6701 29.6386C23.204 29.1131 23.7086 28.5585 24.1818 27.9771C24.3562 27.7652 24.5084 27.5358 24.6361 27.2925C24.7637 27.0625 24.9198 26.8497 25.1007 26.6593C25.5494 26.0834 25.9178 25.4483 26.1955 24.7717C26.489 24.0919 26.745 23.3962 26.9621 22.6878C27.1938 21.982 27.3391 21.1984 27.6344 20.5156C27.7775 20.196 28.0069 19.9245 28.1636 19.6141C28.3178 19.2586 28.428 18.8854 28.4918 18.5028C28.5804 18.087 28.6633 17.6723 28.7416 17.2645C28.7882 16.8914 28.7905 16.5138 28.7484 16.1399C28.7673 15.3725 28.8566 14.6087 29.0152 13.8582C29.1366 13.0374 29.1988 12.2086 29.2013 11.3785C29.1944 10.9282 30.0191 11.216 30.2417 11.2965C30.5664 11.4083 30.875 11.5628 31.1595 11.756C31.289 11.8432 31.6128 12.0463 31.6128 12.2246" stroke="#ffd100" stroke-width="0.45" stroke-miterlimit="10"></path>
<path transform="scale(1)" d="M12.3898 26.9213C12.1029 27.1171 11.7666 27.2272 11.4197 27.2389C11.2695 27.241 11.1226 27.2831 10.9939 27.3608C10.8652 27.4386 10.7594 27.5493 10.6871 27.6817C10.6701 27.5959 10.6519 27.5044 10.6053 27.4186L11.2585 28.1803L9.17752 27.2447C9.97426 27.2329 10.771 27.273 11.5629 27.365L11.8593 27.3714C11.9172 27.3661 11.9743 27.3548 12.0297 27.3376C11.9218 27.359 11.9116 27.3967 12.0229 27.3033C12.3369 27.0633 12.6251 26.7909 12.8827 26.4905C13.989 25.0167 14.4897 23.0807 15.061 21.3506C15.5411 19.6539 16.3 18.0508 17.3063 16.6074C17.876 15.8843 18.5694 15.2695 19.3541 14.7918C20.123 14.3606 20.8611 13.8763 21.5633 13.3424C22.472 12.5675 23.5169 11.7655 23.9723 10.6112C24.1558 10.05 24.2922 9.47416 24.38 8.8898C24.4534 8.63998 24.4894 8.38044 24.4867 8.11974C24.4583 7.97681 24.3004 7.80611 24.4799 7.90714L26.1621 8.23251C25.6965 9.63257 24.9038 11.3175 23.5726 12.0754C22.7775 12.5306 21.9574 12.8599 21.1715 13.3609C20.4965 13.7878 19.867 14.2833 19.2928 14.8397C17.2313 16.854 16.2047 19.5305 15.2916 22.214C15.0338 22.9666 14.784 23.7294 14.5001 24.4693C14.1128 25.4913 13.2291 26.2137 12.4352 26.9123C12.3148 27.0194 11.8866 26.9144 11.7809 26.8878C11.4467 26.7955 11.126 26.6594 10.8268 26.4831C10.6143 26.3648 9.85783 25.9446 10.1883 25.6472C10.9764 25.0602 11.6169 24.2959 12.059 23.4152C12.3202 22.7689 12.5337 22.0906 12.762 21.4271C13.1794 20.1163 13.6666 18.8291 14.2213 17.5711C15.5136 14.7732 17.7353 12.518 20.5045 11.1934C20.9532 11.0115 21.3781 10.7754 21.7699 10.4902C22.1414 10.144 22.4598 9.74422 22.7148 9.30394C23.1478 8.61939 23.4953 7.88364 23.7495 7.11327C23.8971 6.6679 25.2863 7.36056 25.4317 7.43864C26.0188 7.6954 26.5081 8.13602 26.8267 8.69478C27.0437 9.19249 26.8165 9.80224 26.7211 10.3026C26.6418 10.8101 26.5113 11.3079 26.3316 11.7886C26.0786 12.3587 25.7036 12.8655 25.2333 13.2727C24.4581 14.0541 23.6095 14.7582 22.6993 15.3751C21.7632 15.8665 20.9053 16.4957 20.154 17.242C18.8512 18.7965 18.1551 20.6108 17.5248 22.5191C17.1171 23.6461 16.7412 24.7252 16.3528 25.7415C16.0164 26.6553 15.4915 27.4867 14.8127 28.1812C14.6759 28.3344 14.5097 28.4581 14.3241 28.545C14.1385 28.632 13.9373 28.6803 13.7325 28.6871C13.2713 28.6836 12.809 28.6448 12.3535 28.6105C11.898 28.5762 11.3596 28.6 10.8769 28.5473C10.1699 28.4579 9.51272 28.1322 9.01057 27.6226C8.7902 27.3752 8.57323 27.1152 8.35739 26.8609C8.32585 26.8247 8.3043 26.7809 8.29493 26.7337C8.28555 26.6865 8.28868 26.6377 8.30399 26.5922C8.40135 26.4225 8.53555 26.2771 8.6966 26.1669C8.85765 26.0567 9.04142 25.9845 9.23423 25.9557C9.56817 25.9507 9.89403 25.8531 10.1759 25.6734C10.3099 25.5755 10.7131 25.6736 10.8313 25.7036C11.1604 25.7875 11.4774 25.9144 11.7741 26.0809C11.9728 26.19 12.7657 26.6445 12.4182 26.9157" fill="#ffd100"></path>
<path transform="scale(1)" d="M12.3898 26.9213C12.1029 27.1171 11.7666 27.2272 11.4197 27.2389C11.2695 27.241 11.1226 27.2831 10.9939 27.3608C10.8652 27.4386 10.7594 27.5493 10.6871 27.6817C10.6701 27.5959 10.6519 27.5044 10.6053 27.4186L11.2585 28.1803L9.17752 27.2447C9.97426 27.2329 10.771 27.273 11.5629 27.365L11.8593 27.3714C11.9172 27.3661 11.9743 27.3548 12.0297 27.3376C11.9218 27.359 11.9116 27.3967 12.0229 27.3033C12.3369 27.0633 12.6251 26.7909 12.8827 26.4905C13.989 25.0167 14.4897 23.0807 15.061 21.3506C15.5411 19.6539 16.3 18.0508 17.3063 16.6074C17.876 15.8843 18.5694 15.2695 19.3541 14.7918C20.123 14.3606 20.8611 13.8763 21.5633 13.3424C22.472 12.5675 23.5169 11.7655 23.9723 10.6112C24.1558 10.05 24.2922 9.47416 24.38 8.8898C24.4534 8.63998 24.4894 8.38044 24.4867 8.11974C24.4583 7.9768 24.3004 7.80611 24.4799 7.90714L26.1621 8.23251C25.6965 9.63257 24.9038 11.3175 23.5726 12.0754C22.7775 12.5306 21.9574 12.8599 21.1715 13.3609C20.4965 13.7878 19.867 14.2833 19.2928 14.8397C17.2313 16.854 16.2047 19.5305 15.2916 22.214C15.0338 22.9666 14.784 23.7294 14.5001 24.4693C14.1128 25.4913 13.2291 26.2137 12.4352 26.9123C12.3148 27.0194 11.8866 26.9144 11.7809 26.8878C11.4467 26.7955 11.126 26.6594 10.8268 26.4831C10.6143 26.3648 9.85783 25.9446 10.1883 25.6472C10.9764 25.0602 11.6169 24.2959 12.059 23.4152C12.3202 22.7689 12.5337 22.0906 12.762 21.4271C13.1794 20.1163 13.6666 18.8291 14.2213 17.5711C15.5136 14.7732 17.7353 12.518 20.5045 11.1934C20.9532 11.0115 21.3781 10.7754 21.7699 10.4902C22.1414 10.144 22.4598 9.74422 22.7148 9.30394C23.1478 8.61939 23.4953 7.88364 23.7495 7.11327C23.8971 6.6679 25.2863 7.36056 25.4317 7.43864C26.0188 7.6954 26.5081 8.13602 26.8267 8.69478C27.0437 9.19249 26.8165 9.80224 26.7211 10.3026C26.6418 10.8101 26.5113 11.3079 26.3316 11.7886C26.0786 12.3587 25.7036 12.8655 25.2333 13.2727C24.4581 14.0541 23.6095 14.7582 22.6993 15.3751C21.7632 15.8665 20.9053 16.4957 20.154 17.242C18.8512 18.7965 18.1551 20.6108 17.5248 22.5191C17.1171 23.6461 16.7412 24.7252 16.3528 25.7415C16.0164 26.6553 15.4915 27.4867 14.8127 28.1812C14.6759 28.3344 14.5097 28.4581 14.3241 28.545C14.1385 28.632 13.9373 28.6803 13.7325 28.6871C13.2713 28.6836 12.809 28.6448 12.3535 28.6105C11.898 28.5762 11.3596 28.6 10.8769 28.5473C10.1699 28.4579 9.51272 28.1322 9.01057 27.6226C8.7902 27.3752 8.57323 27.1152 8.35739 26.8609C8.32585 26.8247 8.3043 26.7809 8.29493 26.7337C8.28555 26.6865 8.28868 26.6377 8.30399 26.5922C8.40135 26.4225 8.53555 26.2771 8.6966 26.1669C8.85765 26.0567 9.04142 25.9845 9.23423 25.9557C9.56817 25.9507 9.89403 25.8531 10.1759 25.6734C10.3099 25.5755 10.7131 25.6736 10.8313 25.7036C11.1604 25.7875 11.4774 25.9144 11.7741 26.0809C11.9728 26.19 12.7657 26.6445 12.4182 26.9157" stroke="#ffd100" stroke-width="0.45" stroke-miterlimit="10"></path>
</g>
<g>
<path transform="scale(1)" d="M68.0752 22.2808C68.6709 23.3879 69.1782 24.54 69.5923 25.7263C69.6937 25.9912 69.7775 26.271 69.9005 26.5255C70.0234 26.78 70.2122 26.9868 70.3492 27.222C70.6269 27.781 70.8376 28.3705 70.9771 28.9782C71.1662 29.5346 71.2554 30.1195 71.2406 30.7057C71.2438 31.2796 71.322 31.851 71.4734 32.4056C71.7292 33.5347 71.9006 34.6808 71.986 35.8343C72.0173 36.3964 72.0156 36.9596 71.9808 37.5209C71.9735 37.6989 71.9435 37.875 71.8915 38.045C71.8419 38.2694 71.8267 38.5003 71.8466 38.7298C71.822 39.1883 71.7563 39.6435 71.6502 40.0897C71.5225 40.7131 71.3499 41.3261 71.1338 41.9239C70.4615 43.8967 69.0304 45.479 67.4944 46.8373C66.6026 47.6879 65.5762 48.3851 64.4565 48.9012C63.7338 49.1986 62.9802 49.4154 62.2092 49.5476C61.7393 49.6379 61.2585 49.6597 60.7815 49.6123C60.6128 49.5964 60.4457 49.5661 60.282 49.5217C60.282 49.5217 59.6683 49.3672 59.9592 49.3894L61.0026 49.3353C61.6559 49.2129 61.0551 49.3978 60.8385 49.4731C60.5211 49.6043 60.191 49.703 59.8533 49.7675C59.1662 49.9045 58.4616 49.9367 57.7635 49.863C56.7779 49.7057 55.8311 49.3581 54.9758 48.8394C54.5265 48.5925 54.0868 48.33 53.6177 48.1225C53.1486 47.9151 52.6124 47.7717 52.1187 47.562C51.2035 47.1799 50.3467 46.669 49.5744 46.0448C48.7783 45.3996 48.0858 44.6357 47.5215 43.7801C47.2022 43.3599 46.9519 42.8916 46.7802 42.3931C46.7193 41.8257 46.5636 41.272 46.3196 40.7551C46.0303 40.3976 45.814 39.9869 45.6829 39.5466C45.5704 38.9675 45.512 38.3794 45.5084 37.7901C45.5134 37.2395 45.4528 36.6899 45.3281 36.1527C45.104 35.6862 44.8558 35.2314 44.5847 34.7903C44.3304 33.8181 44.3903 32.7923 44.7559 31.8606C45.1171 30.7961 45.5588 29.7553 46.0005 28.7146C46.7498 26.9055 47.2826 24.9738 48.3779 23.3157C50.5029 20.0926 54.1305 18.5688 57.864 18.1435C61.7267 17.7011 65.9699 18.7203 68.0752 22.2808C68.3068 22.6648 67.4322 22.8208 67.1989 22.8491C66.8623 22.9113 66.5184 22.926 66.177 22.8928C66.0178 22.8743 65.6445 22.8529 65.5542 22.7003C65.0014 21.7466 64.2499 20.9224 63.3513 20.2843C62.4526 19.6462 61.4281 19.2093 60.3479 19.0035C60.0972 18.9463 59.8431 18.9054 59.5873 18.8811C59.3348 18.8612 59.0813 18.8604 58.8289 18.8785L58.577 18.8845C58.6349 18.8815 58.8133 18.8688 58.577 18.8845L58.1245 18.922C57.9707 18.9369 58.1245 18.922 58.1245 18.922L57.8616 18.96L57.3262 19.0518C57.079 19.0996 57.1792 19.0839 57.2341 19.0683L56.9736 19.1272L56.5224 19.2472C56.2189 19.327 56.0157 19.3911 55.7309 19.4932C55.1828 19.6908 54.6542 19.9384 54.1519 20.2331C52.0411 21.5431 50.4467 23.5401 49.6338 25.8919C49.0688 27.3711 48.48 28.8399 47.8823 30.3162C47.5329 31.0453 47.285 31.8195 47.1454 32.6172C46.9846 33.3178 47.0261 34.0511 47.2651 34.7317C47.4205 35.0427 47.6771 35.2763 47.8229 35.603C47.9683 35.9665 48.0558 36.3503 48.0822 36.7402C48.1039 37.5596 48.1675 38.3777 48.2727 39.1911C48.3347 39.5474 48.4803 39.8843 48.6974 40.1742C48.9199 40.4396 49.0876 40.7465 49.1907 41.0768C49.2819 41.4645 49.3063 41.8627 49.4183 42.2482C49.5655 42.6418 49.7676 43.0128 50.0186 43.3502C50.806 44.5501 51.8474 45.5627 53.0682 46.3156C53.6773 46.6767 54.3229 46.9716 54.994 47.1952C55.7155 47.4523 56.4129 47.7736 57.0779 48.1552C57.6123 48.4909 58.1826 48.7653 58.7779 48.9731C58.8991 49.0067 59.0222 49.033 59.1465 49.0518C59.0363 49.0377 59.1465 49.0518 59.1465 49.0518L59.2423 49.0399C59.1528 49.032 59.0628 49.0451 58.9794 49.078C58.594 49.1503 59.006 49.0556 59.0902 48.9849C59.3165 48.8725 59.5518 48.7792 59.7938 48.7062C60.4106 48.5216 61.0649 48.4957 61.6964 48.6308C61.8775 48.6658 62.0528 48.7261 62.2174 48.81C61.853 48.5831 61.1207 48.9087 61.6149 48.7678C62.2926 48.5908 62.937 48.3066 63.524 47.9259C64.6392 47.1527 65.654 46.2443 66.5456 45.2211C67.4605 44.2498 68.1645 43.099 68.6138 41.8403C68.8287 41.1227 69.004 40.3936 69.1388 39.6562C69.1897 39.3865 69.2126 39.1122 69.2074 38.8374C69.2084 38.5744 69.2428 38.3128 69.3097 38.0588C69.4258 37.338 69.4429 36.604 69.3605 35.8773C69.2905 35.1401 69.1798 34.4071 69.0291 33.6817C68.8923 32.9516 68.6424 32.1948 68.5725 31.4542C68.544 31.1051 68.6144 30.7568 68.6023 30.4092C68.5663 30.0235 68.4832 29.6433 68.3549 29.2772C68.2324 28.8701 68.1054 28.4668 67.9777 28.0716C67.8389 27.7221 67.6591 27.3901 67.4422 27.0827C67.0893 26.4009 66.7998 25.6885 66.5774 24.9543C66.2887 24.1765 65.9442 23.4202 65.5467 22.6914C65.3239 22.3 66.1852 22.1552 66.4191 22.1186C66.7575 22.0603 67.1024 22.0471 67.4448 22.0794C67.6003 22.0935 67.9818 22.1156 68.0677 22.2719" fill="#ffd100"></path>
<path transform="scale(1)" d="M68.0752 22.2808C68.6709 23.3879 69.1782 24.54 69.5923 25.7263C69.6937 25.9912 69.7775 26.271 69.9005 26.5255C70.0234 26.78 70.2122 26.9868 70.3492 27.222C70.6269 27.781 70.8376 28.3705 70.9771 28.9782C71.1662 29.5346 71.2554 30.1195 71.2406 30.7057C71.2438 31.2796 71.322 31.851 71.4734 32.4056C71.7292 33.5347 71.9006 34.6808 71.986 35.8343C72.0173 36.3964 72.0156 36.9596 71.9808 37.5209C71.9735 37.6989 71.9435 37.875 71.8915 38.045C71.8419 38.2694 71.8267 38.5003 71.8466 38.7298C71.822 39.1883 71.7563 39.6435 71.6502 40.0897C71.5225 40.7131 71.3499 41.3261 71.1338 41.9239C70.4615 43.8967 69.0304 45.479 67.4944 46.8373C66.6026 47.6879 65.5762 48.3851 64.4565 48.9012C63.7338 49.1986 62.9802 49.4154 62.2092 49.5476C61.7393 49.6379 61.2585 49.6597 60.7815 49.6123C60.6128 49.5964 60.4457 49.5661 60.282 49.5217C60.282 49.5217 59.6683 49.3672 59.9592 49.3894L61.0026 49.3353C61.6559 49.2129 61.0551 49.3978 60.8385 49.4731C60.5211 49.6043 60.191 49.703 59.8533 49.7675C59.1662 49.9045 58.4616 49.9367 57.7635 49.863C56.7779 49.7057 55.8311 49.3581 54.9758 48.8394C54.5265 48.5925 54.0868 48.33 53.6177 48.1225C53.1486 47.9151 52.6124 47.7717 52.1187 47.562C51.2035 47.1799 50.3467 46.669 49.5744 46.0448C48.7783 45.3996 48.0858 44.6357 47.5215 43.7801C47.2022 43.3599 46.9519 42.8916 46.7802 42.3931C46.7193 41.8257 46.5636 41.272 46.3196 40.7551C46.0303 40.3976 45.814 39.9869 45.6829 39.5466C45.5704 38.9675 45.512 38.3794 45.5084 37.7901C45.5134 37.2395 45.4528 36.6899 45.3281 36.1527C45.104 35.6862 44.8558 35.2314 44.5847 34.7903C44.3304 33.8181 44.3903 32.7923 44.7559 31.8606C45.1171 30.7961 45.5588 29.7553 46.0005 28.7146C46.7498 26.9055 47.2826 24.9738 48.3779 23.3157C50.5029 20.0926 54.1305 18.5688 57.864 18.1435C61.7267 17.7011 65.9699 18.7203 68.0752 22.2808C68.3068 22.6648 67.4322 22.8208 67.1989 22.8491C66.8623 22.9113 66.5184 22.926 66.177 22.8928C66.0178 22.8743 65.6445 22.8529 65.5542 22.7003C65.0014 21.7466 64.2499 20.9224 63.3513 20.2843C62.4526 19.6462 61.4281 19.2093 60.3479 19.0035C60.0972 18.9463 59.8431 18.9054 59.5873 18.8811C59.3348 18.8612 59.0813 18.8604 58.8289 18.8785L58.577 18.8845C58.6349 18.8815 58.8133 18.8688 58.577 18.8845L58.1245 18.922C57.9707 18.9369 58.1245 18.922 58.1245 18.922L57.8616 18.96L57.3262 19.0518C57.079 19.0996 57.1792 19.0839 57.2341 19.0683L56.9736 19.1272L56.5224 19.2472C56.2189 19.327 56.0157 19.3911 55.7309 19.4932C55.1828 19.6908 54.6542 19.9384 54.1519 20.2331C52.0411 21.5431 50.4467 23.5401 49.6338 25.8919C49.0688 27.3711 48.48 28.8399 47.8823 30.3162C47.5329 31.0453 47.285 31.8195 47.1454 32.6172C46.9846 33.3178 47.0261 34.0511 47.2651 34.7317C47.4205 35.0427 47.6771 35.2763 47.8229 35.603C47.9683 35.9665 48.0558 36.3503 48.0822 36.7402C48.1039 37.5596 48.1675 38.3777 48.2727 39.1911C48.3347 39.5474 48.4803 39.8843 48.6974 40.1742C48.9199 40.4396 49.0876 40.7465 49.1907 41.0768C49.2819 41.4645 49.3063 41.8627 49.4183 42.2482C49.5655 42.6418 49.7676 43.0129 50.0186 43.3502C50.806 44.5501 51.8473 45.5627 53.0682 46.3156C53.6773 46.6767 54.3229 46.9716 54.994 47.1952C55.7155 47.4523 56.4129 47.7736 57.0779 48.1552C57.6123 48.4909 58.1826 48.7653 58.7779 48.9731C58.8991 49.0067 59.0222 49.033 59.1465 49.0518C59.0363 49.0377 59.1465 49.0518 59.1465 49.0518L59.2423 49.0399C59.1528 49.032 59.0628 49.0451 58.9794 49.078C58.594 49.1503 59.006 49.0556 59.0902 48.9849C59.3165 48.8725 59.5518 48.7792 59.7938 48.7062C60.4106 48.5216 61.0649 48.4957 61.6964 48.6308C61.8775 48.6658 62.0528 48.7261 62.2174 48.81C61.853 48.5831 61.1207 48.9087 61.6149 48.7678C62.2926 48.5908 62.937 48.3066 63.524 47.9259C64.6392 47.1527 65.654 46.2443 66.5456 45.2211C67.4605 44.2498 68.1645 43.099 68.6138 41.8403C68.8287 41.1227 69.004 40.3936 69.1388 39.6562C69.1897 39.3865 69.2126 39.1122 69.2074 38.8374C69.2084 38.5744 69.2428 38.3128 69.3097 38.0588C69.4258 37.338 69.4429 36.604 69.3605 35.8773C69.2905 35.1401 69.1798 34.4071 69.0291 33.6817C68.8923 32.9516 68.6424 32.1948 68.5725 31.4542C68.544 31.1051 68.6144 30.7568 68.6023 30.4092C68.5663 30.0235 68.4832 29.6433 68.3549 29.2772C68.2324 28.8701 68.1054 28.4668 67.9777 28.0716C67.8389 27.7221 67.6591 27.3901 67.4422 27.0827C67.0893 26.4009 66.7998 25.6885 66.5774 24.9543C66.2887 24.1765 65.9442 23.4202 65.5467 22.6914C65.3239 22.3 66.1852 22.1552 66.4191 22.1186C66.7575 22.0603 67.1024 22.0471 67.4448 22.0794C67.6003 22.0935 67.9818 22.1156 68.0677 22.2719" stroke="#ffd100" stroke-width="0.45" stroke-miterlimit="10"></path>
<path transform="scale(1)" d="M58.2938 44.4084C58.1366 44.7182 57.8949 44.9766 57.5965 45.1538C57.4658 45.228 57.3573 45.3356 57.282 45.4657C57.2066 45.5958 57.1671 45.7438 57.1676 45.8946C57.1113 45.8277 57.0514 45.7562 56.9692 45.7034L57.9084 46.0565L55.6341 46.2385C56.3267 45.8445 57.0444 45.4961 57.7826 45.1954L58.0456 45.0583C58.0937 45.0258 58.1383 44.9884 58.1786 44.9466C58.0944 45.0174 58.1036 45.0553 58.1561 44.9199C58.3158 44.5583 58.4372 44.1808 58.5184 43.7935C58.7784 41.9691 58.2852 40.0312 57.9529 38.2398C57.5569 36.5216 57.4502 34.7511 57.6372 33.0015C57.7884 32.0934 58.1002 31.2207 58.558 30.4243C59.0243 29.6761 59.4381 28.8963 59.7965 28.0903C60.2198 26.9736 60.7495 25.7676 60.5929 24.5366C60.4835 23.9564 60.3258 23.386 60.1214 22.8316C60.0655 22.5773 59.9721 22.3325 59.8442 22.1053C59.7505 21.9937 59.5299 21.9201 59.7359 21.9222L61.367 21.3975C61.6329 22.8487 61.7494 24.7072 60.9475 26.0124C60.4698 26.7941 59.9096 27.4777 59.4619 28.2951C59.0759 28.9943 58.7627 29.7317 58.5273 30.4957C57.6903 33.2538 58.079 36.0939 58.5708 38.8855C58.7072 39.6692 58.8555 40.4581 58.9629 41.2433C59.1155 42.3255 58.6888 43.3841 58.3293 44.3787C58.2753 44.5305 57.8494 44.6446 57.744 44.6722C57.4067 44.7522 57.06 44.7874 56.7129 44.7769C56.4698 44.7755 55.6044 44.7714 55.7509 44.3516C56.159 43.4577 56.3524 42.4795 56.3158 41.4947C56.2336 40.8025 56.0941 40.1051 55.9748 39.4137C55.7095 38.0638 55.5168 36.7011 55.3973 35.3315C55.1829 32.257 56.0444 29.2108 57.8338 26.7165C58.1394 26.341 58.3982 25.9295 58.6043 25.491C58.7632 25.0086 58.8498 24.5049 58.8614 23.9963C58.9112 23.1878 58.8616 22.3757 58.7135 21.5781C58.6284 21.1166 60.1795 21.0549 60.3446 21.0533C60.9827 20.9957 61.6237 21.1463 62.172 21.4827C62.6018 21.8144 62.6963 22.4582 62.8536 22.9427C63.0283 23.4257 63.1536 23.9249 63.2276 24.4326C63.2803 25.0542 63.1956 25.6789 62.9796 26.2622C62.6763 27.3203 62.2715 28.346 61.7708 29.3249C61.1869 30.2064 60.7379 31.1709 60.4387 32.1866C60.0453 34.1764 60.3087 36.1018 60.675 38.0777C60.8602 39.2618 61.0503 40.3886 61.1992 41.4663C61.3443 42.4292 61.2846 43.4106 61.024 44.3461C60.9778 44.5463 60.8918 44.7347 60.7709 44.9003C60.6501 45.0658 60.497 45.205 60.3208 45.3096C59.9149 45.5286 59.491 45.7171 59.0753 45.9064C58.6596 46.0956 58.1991 46.3757 57.7507 46.562C57.088 46.8239 56.3551 46.8549 55.6697 46.65C55.3574 46.5393 55.0421 46.4159 54.7305 46.2969C54.6854 46.2804 54.6454 46.2523 54.6144 46.2155C54.5835 46.1786 54.5628 46.1344 54.5543 46.0871C54.5579 45.8915 54.6055 45.6994 54.6936 45.5253C54.7817 45.3512 54.908 45.1994 55.0631 45.0813C55.3534 44.9162 55.592 44.6737 55.7525 44.3806C55.8229 44.2302 56.2235 44.1221 56.3415 44.0915C56.6704 44.0066 57.0093 43.9651 57.3495 43.9683C57.5762 43.9682 58.49 43.9848 58.316 44.3898" fill="#ffd100"></path>
<path transform="scale(1)" d="M58.2938 44.4084C58.1366 44.7182 57.8949 44.9766 57.5965 45.1538C57.4658 45.228 57.3573 45.3356 57.282 45.4657C57.2066 45.5958 57.1671 45.7438 57.1676 45.8946C57.1113 45.8277 57.0514 45.7562 56.9692 45.7034L57.9084 46.0565L55.6341 46.2385C56.3267 45.8445 57.0444 45.4961 57.7826 45.1954L58.0456 45.0583C58.0937 45.0258 58.1383 44.9884 58.1786 44.9466C58.0944 45.0174 58.1036 45.0553 58.1561 44.9199C58.3158 44.5583 58.4372 44.1808 58.5184 43.7935C58.7784 41.9691 58.2852 40.0312 57.9529 38.2398C57.5569 36.5216 57.4502 34.7511 57.6372 33.0015C57.7884 32.0934 58.1002 31.2207 58.558 30.4243C59.0243 29.6761 59.4381 28.8963 59.7965 28.0903C60.2198 26.9736 60.7495 25.7676 60.5929 24.5366C60.4835 23.9564 60.3258 23.386 60.1214 22.8316C60.0655 22.5773 59.9721 22.3325 59.8442 22.1053C59.7505 21.9937 59.5299 21.9201 59.7359 21.9222L61.367 21.3975C61.6329 22.8487 61.7494 24.7072 60.9475 26.0124C60.4698 26.7941 59.9096 27.4777 59.4619 28.2951C59.0759 28.9943 58.7627 29.7317 58.5273 30.4957C57.6903 33.2538 58.0791 36.0939 58.5708 38.8855C58.7072 39.6692 58.8555 40.4581 58.9629 41.2433C59.1155 42.3255 58.6888 43.3841 58.3293 44.3787C58.2753 44.5305 57.8494 44.6446 57.744 44.6722C57.4067 44.7522 57.06 44.7874 56.7129 44.7769C56.4698 44.7755 55.6044 44.7714 55.7509 44.3516C56.159 43.4577 56.3524 42.4795 56.3158 41.4947C56.2336 40.8025 56.0941 40.1051 55.9748 39.4137C55.7095 38.0638 55.5168 36.7011 55.3973 35.3315C55.1829 32.257 56.0444 29.2108 57.8338 26.7165C58.1394 26.341 58.3982 25.9295 58.6043 25.491C58.7632 25.0086 58.8498 24.5049 58.8614 23.9963C58.9112 23.1878 58.8616 22.3757 58.7135 21.5781C58.6284 21.1166 60.1795 21.0549 60.3446 21.0533C60.9827 20.9957 61.6237 21.1463 62.172 21.4827C62.6018 21.8144 62.6963 22.4582 62.8536 22.9427C63.0283 23.4257 63.1536 23.9249 63.2276 24.4326C63.2803 25.0542 63.1956 25.6789 62.9796 26.2622C62.6763 27.3203 62.2715 28.346 61.7708 29.3249C61.1869 30.2064 60.7379 31.1709 60.4387 32.1866C60.0453 34.1764 60.3087 36.1018 60.675 38.0777C60.8602 39.2618 61.0503 40.3886 61.1992 41.4663C61.3443 42.4292 61.2846 43.4106 61.024 44.3461C60.9778 44.5463 60.8918 44.7347 60.7709 44.9003C60.6501 45.0658 60.497 45.205 60.3208 45.3096C59.9149 45.5286 59.491 45.7171 59.0753 45.9064C58.6596 46.0956 58.1991 46.3757 57.7506 46.562C57.088 46.8239 56.3551 46.8549 55.6697 46.65C55.3574 46.5393 55.0421 46.4159 54.7305 46.2969C54.6854 46.2804 54.6454 46.2523 54.6144 46.2155C54.5835 46.1786 54.5628 46.1344 54.5543 46.0871C54.5579 45.8915 54.6055 45.6994 54.6936 45.5253C54.7817 45.3512 54.908 45.1994 55.0631 45.0813C55.3534 44.9162 55.592 44.6737 55.7525 44.3806C55.8229 44.2302 56.2235 44.1221 56.3415 44.0915C56.6704 44.0066 57.0093 43.9651 57.3495 43.9683C57.5762 43.9682 58.49 43.9848 58.316 44.3898" stroke="#ffd100" stroke-width="0.45" stroke-miterlimit="10"></path>
</g>
<defs>
<clipPath>
<rect width="30" height="31" fill="white" transform="translate(113.158 36.2532) rotate(-168.76)"></rect>
</clipPath>
<clipPath>
<rect width="30" height="31" fill="white" transform="matrix(0.980818 -0.194926 -0.194926 -0.980818 6.04297 36.2532)"></rect>
</clipPath>
<clipPath>
<rect width="30" height="31" fill="white" transform="matrix(0.765808 -0.643069 -0.643069 -0.765808 57.2266 55.6428)"></rect>
</clipPath>
</defs>
</svg>