<svg viewBox="0 0 587.18 105.75" xmlns="http://www.w3.org/2000/svg" data-sanitized-data-name="Layer 1" data-name="Layer 1" id="Layer_1">
  <defs>
    <style>
      .cls-1, .cls-2, .cls-3, .cls-4, .cls-5 {
        stroke-miterlimit: 10;
      }

      .cls-1, .cls-2, .cls-3, .cls-5 {
        stroke: #000;
      }

      .cls-1, .cls-4 {
        fill: #1d1d1b;
      }

      .cls-1, .cls-5 {
        stroke-width: .18px;
      }

      .cls-2 {
        font-family: OCRAStd, 'OCR A Std';
        font-size: 5.57px;
        stroke-width: .18px;
      }

      .cls-6, .cls-3 {
        fill: none;
      }

      .cls-3 {
        stroke-width: .4px;
      }

      .cls-4 {
        stroke: #1d1d1b;
        stroke-width: .25px;
      }
    </style>
  </defs>
  <g>
    <circle r="31.32" cy="54.09" cx="528.2" class="cls-6"></circle>
    <path d="M528.17,23.53c9.9.01,17.85,8.07,17.81,17.91-.05,9.83-8.06,17.76-17.87,17.73-9.84-.03-17.87-8.09-17.75-18.04.12-9.69,8-17.59,17.81-17.59ZM524.82,33.68v21.51h6.91v-27.99c-.08,0-.15,0-.22,0-.74,0-1.48,0-2.22,0-1.17,0-2.35,0-3.52,0-.12,0-.22.03-.31.12-.14.14-.29.26-.44.4-.89.79-1.77,1.58-2.66,2.37-.07.06-.12.11-.12.22,0,1.07-.01,2.14-.02,3.21,0,.04,0,.09.01.15.86,0,1.71.01,2.58.02ZM534.34,45.06c.43,0,.82,0,1.21,0,.15,0,.24-.04.33-.17.93-1.28,1.86-2.56,2.79-3.83,1.06-1.45,2.12-2.9,3.18-4.36.03-.05.06-.1.11-.17-.44,0-.84,0-1.24,0-.12,0-.2.04-.27.14-2,2.74-4,5.48-5.99,8.22-.03.04-.06.09-.11.17ZM537.49,38.58c.03-.98-.78-1.99-1.98-2-1.1,0-2,.9-2,1.99,0,1.1.89,1.99,1.99,1.99,1.11,0,1.99-.88,1.99-1.98ZM542.71,43.06c0-1.07-.85-2-2-1.99-1.26,0-1.99,1.06-1.99,2,0,.93.73,1.99,2,1.99,1.16,0,1.99-.94,1.99-2Z"></path>
    <path d="M533.73,71.48h2.16v7.86c-.07,0-.13,0-.2,0-.5,0-1.01,0-1.51,0-.14,0-.23-.05-.32-.16-1.02-1.32-2.04-2.63-3.06-3.94-.04-.05-.08-.1-.12-.14-.02,0-.02,0-.03,0,0,0-.01,0-.01.01,0,.01,0,.03,0,.04,0,.03,0,.05,0,.08,0,1.33,0,2.67,0,4,0,.01,0,.03,0,.04,0,0,0,.01,0,.02,0,0,0,.01,0,.02-.13.04-1.91.05-2.13.01-.04-.14-.04-7.62,0-7.85.06,0,.12,0,.18,0,.55,0,1.11,0,1.66,0,.14,0,.22.04.3.15.96,1.24,1.92,2.47,2.87,3.7.06.08.12.16.22.22v-4.06Z"></path>
    <path d="M537.3,71.48h6.31v1.86h-4.14v1.16h3.72c.05.16.05,1.54,0,1.75h-3.72v1.2s0,.01.01.01c0,0,0,.01.01.01.01,0,.02,0,.04,0,.02,0,.04,0,.06,0,1.33,0,2.66,0,4,0,.01,0,.03,0,.04,0,0,0,.01,0,.05.02,0,.6,0,1.21,0,1.81-.15.04-6.12.05-6.38.01v-7.85Z"></path>
    <path d="M525.77,67.48c.57.83,1.14,1.66,1.72,2.52-.08,0-.13.02-.18.02-.67,0-1.34,0-2.01,0-.12,0-.19-.04-.26-.14-.43-.65-.86-1.3-1.29-1.95-.07-.1-.14-.14-.26-.14-.23,0-.46,0-.7,0v2.21h-2.05v-7.33s.08-.01.12-.01c1.22,0,2.44,0,3.65,0,.47,0,.94.1,1.37.3.8.37,1.26.99,1.35,1.87.06.55,0,1.07-.27,1.56-.23.44-.59.74-1.03.97-.05.03-.1.05-.15.08,0,0,0,.01-.02.03ZM522.79,66.19c.51,0,.99.01,1.47,0,.17,0,.34-.06.49-.13.33-.15.45-.44.43-.78-.01-.34-.17-.58-.49-.71-.19-.08-.39-.11-.6-.11-.39,0-.78,0-1.17,0-.05,0-.1,0-.15.01v1.73Z"></path>
    <path d="M522.27,71.41h1.15c.24,0,.48,0,.73,0,.27,0,.22-.03.32.21.67,1.58,1.33,3.16,2,4.73.39.92.78,1.84,1.17,2.76.03.07.05.14.09.23-.07,0-.12.01-.16.01-.67,0-1.34,0-2.01,0-.13,0-.19-.04-.24-.16-.13-.35-.28-.7-.42-1.04-.03-.06-.06-.13-.09-.2h-3.02c-.19.46-.37.93-.56,1.39h-2.26s-.01-.02-.01-.02c0,0,0-.01,0-.02.03-.08.06-.15.09-.23,1.08-2.55,2.15-5.1,3.24-7.67ZM522.44,76.22h1.72c-.28-.72-.56-1.43-.86-2.19-.3.75-.58,1.46-.87,2.19Z"></path>
    <path d="M519.64,66.34c0,1.79-1.23,3.31-2.98,3.71-1,.23-1.97.15-2.88-.33-1.42-.76-2.11-1.97-2.05-3.58.04-1.17.56-2.12,1.49-2.83,1.42-1.08,3.52-1.08,4.94,0,.89.68,1.37,1.59,1.46,2.71,0,.1.01.2.02.31ZM513.82,66.32c0,.39.09.76.29,1.09.71,1.2,2.46,1.22,3.15.02.42-.74.41-1.5-.05-2.23-.57-.9-1.82-1.11-2.65-.45-.5.4-.72.94-.73,1.57Z"></path>
    <path d="M537.26,62.68h2.03v2.73h2.58v-2.72h2.05v7.31c-.14.04-1.78.05-2.04.01v-2.76h-2.59v2.76h-2.02c-.04-.13-.05-7-.01-7.33Z"></path>
    <path d="M507.27,79.34h-2.16c-.04-.15-.06-7.45-.02-7.85.04,0,.09-.02.14-.02,1.12,0,2.24,0,3.36,0,.59,0,1.17.11,1.7.38.83.42,1.3,1.09,1.41,2.02.05.43.02.85-.1,1.27-.24.8-.78,1.33-1.54,1.65-.47.2-.98.29-1.49.31-.36.01-.71,0-1.07,0-.07,0-.14,0-.24,0,0,.26,0,.5,0,.75,0,.24,0,.48,0,.73,0,.25,0,.5,0,.77ZM507.29,73.33c-.04.2-.04,1.9,0,2.04.39,0,.79.03,1.18,0,.64-.05,1.11-.42,1.04-1.16-.03-.32-.18-.56-.47-.72-.21-.12-.44-.16-.68-.17-.32,0-.65,0-.97,0-.04,0-.07,0-.11.01Z"></path>
    <path d="M551.23,68.28v1.73h-5.93c-.04-.13-.06-6.99-.02-7.32h5.86c.04.13.05,1.44.01,1.73-.42,0-.84,0-1.27,0-.43,0-.85,0-1.28,0h-1.29v1.09h3.47c.04.15.05,1.31.02,1.62-.38,0-.77,0-1.15,0-.39,0-.78,0-1.17,0s-.77,0-1.17,0v1.15c.43,0,.86,0,1.29,0,.44,0,.88,0,1.32,0h1.3Z"></path>
    <path d="M511,62.68v1.78c-.26.01-.51,0-.76,0-.25,0-.51,0-.76,0h-1.51c-.25,0-.51,0-.78,0v1.23h3.44v1.7c-.29,0-.57,0-.86,0-.29,0-.57,0-.86,0h-1.74v2.62c-.69,0-1.36,0-2.05,0v-7.34h5.87Z"></path>
    <path d="M546.7,73.4h-2.36c-.02-.64,0-1.27,0-1.91h6.9v1.9h-2.35c0,.26,0,.51,0,.75,0,.25,0,.5,0,.75v4.45h-2.18v-5.94Z"></path>
    <path d="M514.85,77.41h3.74c.05.15.06,1.7.02,1.92h-5.97v-7.85c.72,0,1.44,0,2.16,0,0,0,0,0,.01.01,0,0,0,0,.01.02,0,.01,0,.03,0,.04,0,.02,0,.04,0,.06,0,1.92,0,3.84,0,5.76,0,0,0,.01.02.05Z"></path>
    <path d="M529.89,62.68h6.42v1.78h-2.19v5.55h-2.04v-5.54h-2.17c-.04-.15-.05-1.56-.01-1.79Z"></path>
    <path d="M528.48,82.55v2.27c-.21.02-.41,0-.64,0v-1.19s-.03,0-.04-.01c-.19.25-.34.52-.53.79-.12-.12-.2-.27-.29-.4-.09-.13-.17-.26-.3-.38v1.18h-.63v-2.26c.21-.02.42-.01.62,0,.04,0,.09.06.12.11.12.19.24.38.35.57.03.05.07.1.12.17.07-.12.14-.22.2-.32.08-.12.16-.24.23-.37.07-.14.16-.18.31-.17.15.01.3,0,.47,0Z"></path>
    <path d="M522.27,83.42c.14-.23.29-.44.4-.66.09-.17.21-.23.4-.21.13.01.26,0,.41,0v2.27h-.62v-1.19s-.03,0-.04-.01c-.18.27-.35.53-.55.82-.19-.28-.36-.54-.53-.8-.01,0-.03,0-.04,0-.01.39,0,.78,0,1.18h-.59c-.04-.13-.05-1.99-.01-2.26.2,0,.4,0,.6,0,.05,0,.1.07.13.12.15.23.3.47.46.74Z"></path>
    <path d="M528.89,82.56c.05,0,.11-.01.16-.01.33,0,.66,0,.99,0,.13,0,.27.02.39.06.2.06.34.2.38.41.04.22-.02.42-.22.55-.02.01-.04.03-.07.06.05.03.09.06.13.08.36.19.37.76,0,.97-.13.07-.28.13-.43.14-.44.02-.89,0-1.33,0-.04-.14-.05-1.98-.02-2.26ZM529.52,84.3c.2,0,.39,0,.57,0,.12,0,.19-.09.19-.18,0-.09-.06-.18-.18-.19-.19-.03-.39-.01-.58,0v.38ZM529.53,83.07v.38c.11,0,.2,0,.3,0,.08,0,.16-.01.24-.03.08-.02.11-.08.11-.16,0-.08-.03-.14-.11-.16-.04-.01-.09-.03-.13-.03-.13,0-.27,0-.42,0Z"></path>
    <path d="M533.39,84.82v-2.24s.03-.02.04-.02c.43,0,.87-.02,1.3.02.53.05.82.53.65,1.03-.06.17-.15.26-.41.44.17.25.34.5.53.78-.26,0-.48,0-.69,0-.04,0-.09-.06-.12-.1-.13-.19-.26-.38-.39-.57h-.25v.67c-.23.02-.43.02-.65,0ZM534.04,83.63c.17,0,.34.01.5,0,.15-.02.23-.13.22-.26,0-.12-.09-.22-.23-.24-.16-.02-.32,0-.49,0v.51Z"></path>
    <path d="M524.53,83.42h1.08v.52h-1.08v.34h1.2v.54h-1.84v-2.23c.14-.04,1.62-.05,1.83,0v.53h-1.19v.32Z"></path>
    <path d="M531.22,82.56h1.82v.54h-1.18v.32h1.05c.03.18.03.34,0,.52h-1.06v.34h1.2v.51c-.14.04-1.48.05-1.83.02-.04-.13-.05-1.99-.01-2.26Z"></path>
    <path d="M517.44,84.07v-.52h2.65v.52h-2.65Z"></path>
    <path d="M538.89,83.56v.51h-2.66v-.5c.13-.04,2.37-.06,2.66-.01Z"></path>
    <path d="M550.06,77.95c.38,0,.69.31.69.69,0,.39-.32.71-.7.71-.38,0-.69-.31-.69-.7,0-.39.31-.71.7-.7ZM550.06,79.21c.31,0,.55-.25.55-.56,0-.32-.25-.58-.56-.57-.3,0-.55.26-.56.57,0,.32.25.57.57.57Z"></path>
    <path d="M535.5,37.68c.49,0,.89.39.89.88,0,.5-.39.9-.89.9-.5,0-.89-.4-.89-.9,0-.49.4-.88.89-.88Z"></path>
    <path d="M541.61,43.06c0,.49-.39.89-.88.89-.49,0-.91-.41-.9-.9,0-.49.41-.9.91-.89.49,0,.88.4.88.9Z"></path>
    <path d="M550.28,78.75c.04.07.08.14.11.2-.2.11-.27-.08-.39-.19-.02.08-.03.14-.05.2h-.19v-.68c.14,0,.27,0,.4,0,.2.02.29.2.18.38-.02.03-.05.06-.07.09ZM549.99,78.47c-.01.08-.02.14.07.13.04,0,.12-.04.11-.06-.01-.11-.1-.06-.18-.07Z"></path>
  </g>
  <circle r="32" cy="52.88" cx="341.26" class="cls-6"></circle>
  <circle r="32" cy="52.88" cx="341.26" class="cls-6"></circle>
  <g>
    <path d="M346.08,52.66c.18-.34.4-.64.51-.96.32-.86.21-1.72-.09-2.58-.56-1.61-1.66-3.09-3.04-4.47-1.29-1.29-2.76-2.51-4.16-3.77-1.48-1.33-2.7-2.75-3.27-4.34-.27-.74-.43-1.51-.51-2.27-.31-2.97,1.12-5.66,3.46-8.19.7-.76,1.57-1.45,2.36-2.18.1-.09.2-.18.3-.27.05.02.1.05.15.07-.09.1-.18.21-.28.31-1,1.07-1.52,2.25-1.85,3.46-.29,1.04-.35,2.09-.16,3.13.19,1.07.58,2.11,1.09,3.13,1.04,2.09,2.78,3.95,4.62,5.79,1.39,1.4,2.4,2.91,3.01,4.51.52,1.36.58,2.74.4,4.14-.2,1.52-1,2.92-2.2,4.24-.05.06-.12.11-.19.16-.03.02-.08.04-.16.07Z"></path>
    <path d="M334.86,37.8c0,.34-.04.69,0,1.03.22,1.74,1.14,3.33,2.54,4.83.89.96,2.03,1.79,3.22,2.61,1.32.9,2.31,1.92,2.76,3.12.54,1.42.27,2.8-.51,4.16-.14.25-.33.48-.49.72-.06,0-.11-.02-.17-.03,0-.23.05-.47,0-.69-.22-.88-.86-1.66-1.58-2.42-.93-.97-2.11-1.82-3.32-2.66-1.66-1.14-2.65-2.48-3.11-3.99-.39-1.28-.46-2.56-.25-3.84.16-.92.44-1.83.67-2.74,0-.04.05-.08.08-.11.06,0,.11,0,.17,0Z"></path>
    <path d="M341.64,27.88c.03.08.07.15.08.23.08,1.59.79,3.08,1.94,4.5.68.84,1.56,1.6,2.54,2.31,1.64,1.19,2.35,2.58,2.11,4.14-.07.46-.18.91-.28,1.36-.02.09-.09.17-.23.25-.03-.06-.08-.11-.1-.17-.45-1.45-1.35-2.78-2.81-3.95-1.71-1.38-2.85-2.92-3.33-4.64-.36-1.27-.43-2.55-.11-3.84.02-.07.06-.13.09-.2.04,0,.08,0,.12,0Z"></path>
    <path d="M339.59,54.57c-.12-.07-.16-.08-.17-.1-.42-.95-1.51-1.57-2.71-2.11-1.21-.55-1.82-1.3-2.21-2.17-.39-.89-.3-1.8-.3-2.7.04,0,.08-.02.12-.02.16.25.32.5.48.76.55.88,1.16,1.74,2.06,2.52.25.22.55.43.88.6,1.09.54,1.61,1.25,1.72,2.09.05.36.07.72.12,1.15Z"></path>
  </g>
  <g>
    <circle r="32" cy="52.77" cx="247" class="cls-6"></circle>
    <path d="M266.9,53.28c0,10.93-8.92,19.88-19.82,19.89-11.03,0-19.93-8.82-19.98-19.76-.05-11.2,8.86-20.13,20.01-20.08,11.02.05,19.78,8.99,19.79,19.95Z" class="cls-3"></path>
    <path d="M266.37,54.8c-.1.24-.2.48-.33.78-.1-.4-.18-.71-.27-1.11-.08.12-.15.18-.14.24.02.32-.03.69.11.95.22.42.19.83.13,1.26,0,.07-.05.13-.1.23-.42-.59-.16-1.24-.29-1.83-.13-.59-.18-1.19-.26-1.79-.06.1-.12.19-.2.31-.19-.7-.38-1.35-.56-2-.03,0-.06,0-.09,0-.05.16-.09.32-.12.42-.13.08-.3.13-.31.2-.07.56-.54.88-.83,1.29-.19.27-.27.49-.25.79.03.55.03,1.08-.47,1.52-.04-.11-.08-.2-.11-.3-.1-.34-.17-.68-.29-1.01-.26-.71-.47-1.42-.41-2.19,0-.09-.02-.18-.03-.29-.06.02-.09.02-.11.03-.33.27-.59.21-.64-.21-.05-.43-.48-.55-.62-.89,0-.02-.09-.04-.12-.03-.26.09-.44-.02-.6-.26-.16.32-.42.18-.63.21-.29.04-.49-.08-.59-.36-.07-.21-.19-.25-.41-.2-.5.13-1.03-.13-1.14-.6-.06-.26-.1-.44-.41-.4-.06,0-.13,0-.2,0,0,.08-.03.19.01.25.19.3.38.62.62.88.15.17.29.32.38.54.12.29.54.33.76.1.07-.08.14-.15.19-.2.25.18.48.34.71.51.2.16.28.45.16.65-.14.23-.29.45-.3.74,0,.06-.11.13-.18.18-.18.13-.4.21-.53.37-.19.25-.6.24-.66.6,0,0-.03.02-.05.02-.2.06-.4.16-.6.15-.36-.01-.6.11-.82.39-.24.31-.56.23-.67-.14-.02-.08,0-.18,0-.27,0-.12,0-.24-.04-.34-.25-.5-.51-.99-.77-1.48-.09-.17-.21-.32-.26-.5-.13-.42-.35-.77-.63-1.09-.07-.09-.12-.22-.13-.34-.01-.31-.15-.47-.45-.56-.12-.04-.22-.14-.32-.23-.11-.1-.21-.21-.31-.32-.03.02-.05.04-.08.07-.01.32.16.58.41.75.45.3.66.69.58,1.23-.01.09.04.19.09.27.13.21.29.41.4.63.16.31.29.64.43.96.08.18.15.36.24.54.05.09.11.17.18.25.1.11.25.2.32.33.09.16.12.36.16.54.09.33.62.73.94.65.3-.08.58-.24.88-.35.12-.05.25-.08.38-.12,0,.14.05.3,0,.43-.15.41-.4.8-.5,1.22-.15.62-.55,1.07-1.01,1.43-.5.4-.81.94-1.18,1.43-.25.33-.27.75-.15,1.22.13.48.08,1.01.11,1.52.03.58-.14.83-.68,1.06-.06.03-.11.09-.17.13-.21.16-.25.48-.56.54-.03,0-.06.09-.07.14-.03.27-.06.53-.08.8-.02.26-.03.55-.33.62-.25.05-.28.21-.32.39-.03.13-.04.33-.12.37-.25.13-.31.37-.46.55-.24.29-.61.48-.94.68-.14.09-.32.13-.49.18-.07.02-.15.05-.21.03-.32-.12-.57-.01-.82.18-.24.17-.64.01-.61-.23.04-.26-.03-.45-.18-.66-.14-.19-.19-.47-.36-.62-.33-.28-.39-.63-.32-1,.07-.4-.1-.68-.3-.97-.08-.12-.18-.22-.27-.34-.04-.06-.1-.12-.1-.19,0-.57-.07-1.17.43-1.61.15-.14.2-.31.11-.52-.14-.35-.28-.71-.41-1.06-.03-.07-.07-.15-.05-.2.09-.31-.11-.47-.29-.67-.21-.24-.36-.53-.52-.81-.03-.05-.04-.17,0-.2.18-.15.11-.34.12-.53.01-.18.05-.36.09-.61-.08-.18-.3-.21-.55-.2-.44.01-.55-.1-.7-.52-.04-.12-.24-.3-.33-.28-.36.08-.73.19-1.06.35-.21.11-.39.18-.63.14-.27-.05-.54-.08-.8-.09-.08,0-.2.05-.24.11-.2.33-.47.35-.71.05-.35-.43-.72-.85-1.07-1.28-.11-.14-.24-.28-.3-.44-.09-.21-.1-.47-.4-.52-.03,0-.08-.09-.07-.13,0-.16.04-.31.06-.52-.03-.03-.12-.09-.15-.17-.03-.09-.04-.27.01-.3.34-.23.34-.58.27-.9-.24-1.09.12-2.01.71-2.88.03-.05.09-.09.14-.11.52-.23.84-.74.8-1.29-.02-.4.14-.57.56-.6.06,0,.15-.05.17-.1.21-.42.52-.54.95-.36.07.03.21,0,.26-.05.25-.28.61-.3.92-.42.22-.09.47-.11.7-.16.13-.03.28-.08.39-.04.27.08.54.11.78-.04.27-.16.45.04.59.17.08.07.05.33,0,.47-.16.34-.15.44.19.61.15.07.32.09.48.14.08.02.18.01.22.06.29.34.71.41,1.09.57.34.14.5.03.52-.33.02-.26.25-.42.48-.3.21.1.39.26.65.21.03,0,.09.04.1.07.05.21.2.16.34.16.12,0,.31-.02.35.04.17.29.37.14.58.08.17-.05.36-.03.54-.05.12-.01.25-.02.35-.07.41-.23.4-.63.38-1.02-.02-.37-.15-.47-.59-.49-.18-.01-.36-.06-.55-.09-.04,0-.1-.03-.13-.01-.25.19-.44.02-.59-.13-.21-.2-.45-.42-.56-.68-.04-.11.22-.34.34-.52.02-.03.05-.06.06-.09.06-.17.17-.22.34-.17.21.06.38-.02.56-.1.31-.15.64-.23.96.03.29.24.64.4,1.03.31.15-.03.33-.13.4-.25.1-.17-.04-.33-.19-.43-.07-.05-.17-.06-.24-.11-.32-.23-.63-.47-.98-.74.21-.15.35-.24.53-.37-.09-.05-.16-.14-.23-.13-.19.02-.38.06-.55.13-.1.04-.18.16-.26.25.09.06.17.12.26.19.04.03.08.08.12.12-.04.04-.08.1-.13.12-.2.05-.4.09-.61.11-.06,0-.18-.06-.18-.11-.01-.07.04-.16.08-.22.03-.05.1-.07.15-.11-.1-.17-.18-.34-.3-.48-.03-.04-.19-.02-.23.02-.06.07-.07.18-.09.28-.03.2-.07.35-.32.35-.07,0-.17.09-.19.16-.08.29-.14.59-.21.89,0,0,0,.02,0,.03.03.34-.01.39-.35.29-.3-.09-.4.15-.54.29-.02.02.14.2.21.31.02.02.03.04.03.05-.07.17-.13.32-.21.47-.02.04-.09.07-.13.07-.21.01-.36-.04-.44-.27-.08-.23-.18-.45-.29-.66-.1-.18-.27-.34-.31-.54-.08-.35-.31-.53-.59-.65-.3-.13-.47-.35-.59-.63-.08-.18-.2-.29-.36-.23-.07.03-.07.26-.07.4,0,.07.07.14.12.21.14.2.29.39.44.58.05.06.13.11.2.12.33.03.54.24.71.49.06.09.08.2.11.31-.1,0-.2.01-.3.02-.02,0-.03.01-.05.02.02.02.03.03.05.05-.11.12-.22.25-.32.37-.04.05-.08.1-.1.15-.04.11-.03.25-.21.21-.18-.04-.38-.06-.41-.32.12,0,.21-.01.31-.03.19-.04.35-.31.23-.43-.21-.22-.33-.52-.66-.65-.31-.11-.52-.38-.68-.68-.05-.09-.2-.22-.26-.2-.22.07-.42.2-.63.31,0,.03.01.06.02.1-.08-.05-.15-.14-.24-.16-.16-.03-.33-.05-.48,0-.09.03-.14.19-.2.3-.04.07-.03.17-.08.21-.2.19-.4.39-.63.53-.19.12-.23.23-.12.42.1.17.02.29-.1.42-.24.27-.47.48-.87.33-.08-.03-.2.08-.3.09-.08,0-.17-.04-.26-.06-.12-.04-.23-.13-.35-.13-.27,0-.71-.43-.67-.71,0-.04.02-.1.05-.12.39-.19.28-.58.34-.88.04-.21,0-.41.22-.53.22-.13.44-.11.67,0,.17.08.35.15.53.18.18.03.34-.02.37-.25.02-.21.07-.41.08-.61.02-.27-.18-.51-.45-.59-.08-.02-.15-.1-.22-.15.08-.05.15-.13.24-.15.2-.04.4-.06.43-.33,0-.04.13-.07.21-.09.11-.02.26,0,.34-.05.15-.1.25-.33.4-.38.29-.08.45-.23.63-.48.13-.19.48-.24.75-.31.17-.05.25-.13.21-.28-.03-.13-.13-.24-.2-.36-.04-.07-.11-.15-.1-.22.01-.06.1-.15.17-.16.27-.05.29-.17.07-.42.17-.01.3-.06.37-.02.19.12.22.48.08.67-.16.21,0,.65.25.63.34-.02.69-.09,1.01-.19.17-.05.3-.09.46-.02.37.17.49.12.62-.27.04-.11.08-.22.1-.34.03-.13.04-.27.06-.4.13.06.25.13.38.16.06.02.14-.03.21-.04-.03-.06-.04-.13-.08-.17-.07-.05-.16-.08-.21-.1.32-.51.72-.33,1.1-.27-.16-.45-.29-.5-.64-.28-.36.22-.67.13-.9-.27-.19-.33-.11-.62.22-.79.04-.02.08-.04.11-.07.14-.12.27-.25.41-.38-.1-.14-.34-.23-.56-.18-.21.04-.19.23-.26.37-.07.14-.19.27-.32.37-.09.07-.22.07-.33.1-.24.09-.3.25-.15.46.08.11.17.21.26.31.21.22.18.43-.09.59-.09.05-.23.15-.22.21.06.38-.26.48-.46.66-.12.11-.34.03-.42-.13-.06-.13-.11-.27-.16-.4-.19-.45-.43-.56-.87-.36-.07.03-.13.07-.18.11-.14.13-.31.12-.41,0-.07-.08-.08-.25-.05-.37.05-.17.03-.27-.12-.36-.19-.13-.19-.33,0-.46.12-.08.27-.13.41-.2.18-.08.37-.13.54-.23.11-.06.19-.18.28-.28.1-.09.2-.18.29-.27.05-.05.11-.11.14-.18.14-.31.38-.52.69-.58.38-.07.75-.12,1.06-.4-.03-.08-.06-.15-.1-.25.08-.02.15-.07.19-.05.23.08.46.22.64-.08,0,0,.03,0,.05,0,.3.05.61.09.91.14.03,0,.05.02.07.03.2.11.4.23.61.32.4.17.81.32,1.2.5.1.05.16.19.24.28-.11.07-.21.18-.32.19-.2,0-.4-.05-.61-.09-.07-.01-.14-.04-.23-.07.12.44.49.87.74.87-.03-.09-.06-.18-.1-.28.22-.08.38-.07.48.15.02.05.1.07.15.1.02-.06.06-.14.04-.19-.03-.09-.09-.17-.15-.28.27-.08.49-.29.73,0,.02.02.11.02.11,0,.02-.04.04-.11.02-.14-.11-.17-.24-.32-.36-.48.24-.1.43-.03.53.18.18.37.3.41.64.16.23-.17.45-.14.71-.09.21.04.45-.01.67,0,.1,0,.19.04.28.08.08.03.14.1.26.18-.12-.47-.53-.39-.78-.59.41-.07.76.15,1.1.29.36.14.65.43.98.65.02-.02.04-.05.06-.07-.24-.25-.49-.5-.78-.79.46-.02.11-.32.26-.45.26.02.42.19.55.4.17.26.34.53.52.79.21.3.18.42-.23.6.18.08.31.17.44.18.05,0,.11-.16.16-.26.04-.07.06-.15.09-.23.07.04.15.08.22.14.13.12.26.24.38.37.02-.03.05-.05.07-.07-.21-.19-.4-.5-.63-.54-.5-.08-.48-.56-.77-.78-.02-.02,0-.09.01-.14.05.02.12.02.16.06.12.13.24.26.35.4.01.01.05.01.08.02,0-.07,0-.12-.02-.24.26.18.47.32.68.47-.08-.13-.2-.21-.29-.31-.08-.09-.12-.21-.18-.31.02-.01.04-.03.06-.04-.02-.02-.04-.04-.06-.05-5.21-3.73-10.9-4.76-17.08-3.07-.23.06-.45.2-.67.3,0,.02.02.04.03.06.28-.1.56-.23.84-.31.28-.08.57-.11.86-.17.01.04.02.08.03.13-.42.12-.85.23-1.3.35.07.03.11.05.18.08-.23.13-.44.24-.65.35.01.02.02.05.03.07.18-.02.36-.04.54-.06,0,.02.01.04.02.07-.15.1-.3.21-.5.35.17.04.27.06.43.1-.45.38-.92.6-1.43.77.09.05.18.03.23.07.09.05.17.14.25.21-.1.06-.19.14-.3.16-.11.01-.22-.05-.34-.07-.19-.04-.35-.02-.43.25h.66l.03.09c-.31.21-.61.43-.93.63-.09.05-.21.08-.31.07-.4-.03-.73.04-.94.46-.17.35-.57.38-.91.47-.28.08-.54.14-.59.5,0,.06-.09.11-.13.17-.13.19-.25.38-.37.58-.1.16-.19.33-.31.47-.07.08-.24.17-.29.14-.19-.11-.46-.24-.51-.42-.13-.42-.2-.89.07-1.29.11-.16.29-.26.44-.4.07-.07.13-.16.23-.31-.19.02-.29.03-.39.04.12-.1.22-.19.33-.28-.02-.02-.04-.05-.06-.07-.08.05-.16.1-.3.19.08-.22.13-.37.19-.52-.81.55-1.53,1.18-2.2,1.88,0,.03.02.05.03.08.15.01.29.02.5.04-.2.24-.36.44-.53.65-.09-.14-.14-.22-.21-.34-.08.11-.13.19-.2.28.33.14.15.32.08.49-.08.22-.22.17-.37.07-.15.14.16.42-.13.44-.14.01-.28-.16-.45-.27-.14.18-.28.36-.39.51.17.06.31.11.45.17-.09.18-.17.35-.27.55.49.11.55-.32.84-.57v1.1c.15.02.25.04.34.06.03.04.06.08.09.12-.17.11-.34.23-.51.34.01.01.02.02.04.03.17-.1.34-.2.56-.33-.03.58-.09.68-.48.88-.05.02-.09.07-.12.11-.24.28-.57.37-.91.43-.28.05-.67.4-.73.74.1-.11.15-.19.22-.25.08-.08.17-.16.26-.22.03-.02.1,0,.14.04.02.02.02.08,0,.12q-.16.41.26.43s.05.02.07.03c0,.23-.61.93-.93.95.15-.25.3-.5.45-.75-.02-.01-.05-.03-.07-.04-.03.02-.07.03-.08.06-.21.37-.45.69-.8.94-.08.06-.09.23-.13.35-.03.1-.04.28-.08.28-.26.03-.35.24-.45.41-.17.27-.3.56-.44.85-.01.03,0,.07.01.11.03.31-.11.52-.29.77-.21.29-.39.63-.47.98-.07.35,0,.74,0,1.11,0,.14-.02.27-.02.41-.04,0-.07,0-.11,0-.03-.21-.08-.42-.1-.64-.02-.16.02-.34-.03-.48-.03-.09-.19-.14-.3-.21-.04.07-.11.14-.11.22-.06.54-.1,1.08-.15,1.62,0,.06-.02.16,0,.18.25.21.07.45.06.68,0,.24-.03.48-.05.72.28.02.34.08.34.33,0,.44-.05.88.18,1.29q.25-.05.45.25c.16-.29.32-.58.51-.92.16.12.35.2.46.34.22.26.43.38.76.18.06-.03.28.05.28.1.06.52.55.78.74,1.23.01.03.15.06.17.04.17-.16.29-.05.39.07.22.28.41.57.62.85.2.27.18.53.03.81-.07.13-.13.26-.2.39.09-.02.12-.07.16-.11.09-.09.21-.26.29-.24.22.04.08.23.09.35,0,.01.02.03.03.04.33-.23.55-.26.76-.06.19.18.35.35.66.38.42.05.79.28,1.04.66.05.07.15.09.22.15.07.06.14.13.18.21.03.06.01.16.05.2.24.24.11.46,0,.69-.1.21-.2.42-.31.63-.08.15-.17.29-.26.43-.03-.01-.06-.02-.09-.03.03.11.06.22.08.34.05.21.15.43.13.63-.04.43-.15.85-.23,1.3-.19,0-.38-.01-.58,0-.28.02-.44.28-.4.56.02.17.2.38-.09.5-.02,0,0,.08,0,.13-.01.11-.03.21-.05.37-.08-.13-.13-.19-.2-.3q.06.78-.57.5c.21.2.42.35.39.68-.16-.02-.31-.03-.51-.05.1.1.15.17.21.23,1.2,1.18,2.53,2.22,4,3.05,4.31,2.45,8.91,3.19,13.76,2.18,4-.83,7.39-2.79,10.19-5.77,2.02-2.15,3.46-4.64,4.36-7.45.03-.08.06-.18.04-.26-.1-.43-.22-.86-.31-1.29-.06-.29-.11-.58-.33-.81-.05-.05-.04-.15-.06-.23.09.02.22.02.27.08.29.32.54.66.5,1.13,0,.06.03.13.05.21.38-.46.36-1.01.45-1.53.1-.52.14-1.05.21-1.58-.02,0-.03,0-.05,0ZM252.24,47.76c.11-.04.23-.03.35-.04-.02.06-.02.16-.07.18-.1.05-.22.07-.33.1l-.09-.04c.04-.07.07-.18.14-.2ZM250.12,47.19c.16,0,.33.02.49.04,0,.05,0,.1,0,.14-.17.01-.35.03-.52.03-.02,0-.06-.07-.05-.1,0-.04.05-.11.08-.11ZM246.37,45.33c.06.04.15.06.17.12.07.18-.03.26-.3.26l.13-.37ZM246.01,46c.1-.06.23-.07.35-.09.01,0,.07.12.05.17-.03.13-.09.25-.15.44-.13-.11-.26-.17-.32-.27-.03-.06,0-.22.07-.26ZM254.42,36.55c.08-.05.11-.16.18-.26.28,0,.61-.05.92.01.3.06.66-.13.93.22-.3-.02-.58-.06-.84-.03-.23.03-.46.12-.67.23-.04.02-.04.23.01.31.08.13.23.22.34.33-.01.02-.02.05-.04.07-.26.01-.5,0-.69-.23-.05-.06-.12-.11-.18-.16-.23-.19-.22-.31.02-.48ZM253.98,37.43c.06.01.11.08.17.13-.04.05-.09.13-.13.13-.06,0-.12-.06-.24-.12.1-.07.16-.14.21-.14ZM248.03,37.06s-.07.12-.12.19c-.05-.02-.08-.03-.08-.04-.17-.33-.17-.33.22-.31.11,0,.21,0,.32,0,0,.04.01.07.02.11-.11.01-.22.03-.35.05ZM249.35,34.47c-.39.29-1.02.27-1.4-.06.51-.07.95.13,1.4.06ZM247.7,34.49c.41.07.79.29,1.18.44,0,.04-.02.07-.03.11-.24-.02-.48.1-.71-.13-.14-.15-.37-.02-.47.3-.19-.09-.38-.17-.58-.26.04-.09.07-.14.12-.23-.18.04-.32.08-.47.09-.16,0-.28-.07-.3-.27.43-.02.86-.12,1.26-.05ZM242.97,36.76c-.16.13-.29.23-.44.34-.07-.33.08-.46.44-.34ZM242.56,40.38c.07.04.13.08.2.13.01,0,.03.01.11.08.03-.06.06-.14.1-.19.17-.19.25-.18.4.03.03.04.08.05.13.07.08.04.17.07.25.11-.04.08-.09.17-.15.29.06.04.15.09.24.14.02.34.37.86.63.93q.1.33-.3.46c.04.08.08.14.12.2-.49.21-1.06.12-1.48.51-.08-.43.34-.37.44-.61-.08-.03-.16-.07-.21-.08,0-.14-.02-.27,0-.39.02-.07.11-.13.18-.19.06-.05.19-.11.18-.13-.02-.09-.09-.22-.14-.23-.28-.02-.36-.26-.53-.41.06-.07.11-.13.2-.22-.1-.05-.18-.09-.26-.14-.07-.05-.17-.09-.2-.15-.02-.04.07-.13.11-.19ZM241.95,41.67s.13-.02.16-.06c.28-.3.37-.31.64-.06-.02.19,0,.36-.06.51-.04.11-.13.23-.23.29-.14.09-.31.11-.46.19-.12.06-.25.15-.32,0-.04-.09.03-.23.06-.35,0-.03.05-.04.1-.08-.06-.08-.1-.13-.18-.23.09-.07.18-.14.28-.2ZM228.61,53.39c-.03.06-.04.13-.07.19,0,.01-.11,0-.11-.02-.03-.07-.07-.16-.05-.22.13-.5.08-.65-.34-.98-.07.05-.13.09-.21.14.05-.32.17-.4.4-.25.19.12.38.27.53.45.06.07.02.24,0,.35-.03.12-.09.22-.14.34ZM229.9,53.53s-.11.04-.17.05c-.09,0-.18,0-.26,0-.15,0-.31.02-.45,0-.09-.02-.16-.1-.24-.16.06-.08.12-.16.18-.25.02,0,.03.02.05.03,0-.06-.02-.13,0-.18.01-.06.06-.14.1-.14.06,0,.14.03.18.07.09.09.15.21.24.29.05.04.15.04.23.05.06,0,.18,0,.18.02.01.08.01.17-.02.25ZM232.76,45.19c-.12-.02-.24-.04-.37-.06-.02-.05-.03-.12-.06-.2-.11.05-.21.09-.31.13-.02-.02-.05-.03-.07-.05.08-.16.16-.32.25-.47.07-.12.17-.23.24-.35.07-.11.13-.17.24-.03.05.07.15.1.27.18-.11.26.21.63-.18.85ZM239.55,38.41c.08-.06.21-.07.32-.1.08-.02.16-.01.24-.03.1-.02.23-.09.29-.05.19.12.34.02.51-.02.17-.04.35-.03.55-.04-.07.46-.28.65-.62.7,0,0-.02,0-.03,0-.26.16-.5.32-.82.1-.07-.05-.26.06-.48.12.12-.16.19-.25.26-.35,0-.02-.01-.05-.02-.07-.11.01-.21.03-.35.04-.11-.15.05-.25.14-.32ZM256.4,63.19c-.1.15-.07.42-.19.54-.24.24-.28.52-.35.82-.03.14-.09.28-.17.39-.13.19-.28.36-.45.52-.19.17-.41.11-.65-.03,0-.06,0-.13.03-.19.02-.07.06-.13.11-.21-.08-.05-.16-.09-.27-.15.05-.09.08-.21.15-.28.21-.24.46-.44.25-.82-.05-.09.04-.3.11-.42.08-.14.21-.25.33-.35.07-.05.19-.05.35-.09.09-.13.2-.35.36-.51.15-.15.03-.49.35-.51.23.43.36.84.06,1.29ZM263.11,56.46c-.03.06-.1.12-.15.13-.04,0-.12-.07-.14-.13-.12-.31-.08-.59.14-.87.19.22.26.67.15.87Z"></path>
    <g>
      <path d="M229.49,72.16c.14.13.2.23.09.41h0c.16-.12.27-.07.41.06l.31.28c.15.13.16.19.12.38l-.08.38c-.03.14-.03.15-.13.26l-2.16,2.41c-.12.13-.24.16-.39.02s-.14-.26-.02-.39l2.16-2.41.07-.3-.18-.16-.29.1-1.17,1.31c-.12.13-.28.19-.43.06s-.1-.3.01-.43l1.17-1.31.07-.3-.18-.16-.29.1-2.16,2.41c-.12.13-.24.16-.39.02s-.14-.26-.02-.39l2.16-2.41c.1-.11.11-.12.25-.16l.37-.12c.18-.06.24-.05.39.08l.31.28Z" class="cls-5"></path>
      <path d="M224.15,70.4c.1-.22.2-.35.39-.5.21-.17.38-.22.63-.28l1.12-.26c.29-.07.58-.02.79.23.21.25.2.54.08.82l-.47,1.05c-.11.23-.19.39-.39.56-.19.15-.33.23-.57.28l-1.21.27c-.29.06-.58.01-.78-.23s-.19-.54-.08-.81l.5-1.13ZM224.17,71.74c-.04.09-.08.16,0,.25.07.09.15.06.25.04l1.1-.25c.18-.04.29-.07.43-.19.11-.09.17-.18.22-.31l.48-1.09c.04-.08.08-.17,0-.25-.07-.09-.16-.06-.25-.04l-1.16.26c-.13.03-.23.07-.34.16-.14.12-.2.22-.27.39l-.46,1.03Z" class="cls-5"></path>
      <path d="M225.03,67.3c.15-.09.28-.08.38.1s.06.29-.09.38l-3.48,2.09-.96-1.61c-.23-.38-.19-.92.24-1.17l.33-.2c.45-.27.9-.04,1.13.35l.26.44.89-2c.04-.09.09-.22.18-.27.13-.08.29-.02.37.11.06.1.04.19,0,.29l-1.09,2.45.07.11,1.78-1.07ZM222.77,68.65l-.64-1.06c-.08-.13-.22-.34-.41-.22l-.33.2c-.19.11-.1.33-.01.47l.64,1.07.75-.45Z" class="cls-5"></path>
      <path d="M219.89,65.8c-.17.07-.29.03-.36-.15-.08-.19-.01-.3.15-.36l1.19-.48-1.98-1.03c-.08-.04-.16-.09-.19-.17-.06-.15.02-.3.17-.36.09-.04.18,0,.27.03l2.24,1.16.79-2.39c.03-.09.08-.18.17-.22.14-.06.31-.01.37.14.04.11-.01.23-.04.34l-.68,2.03,1.19-.49c.17-.07.29-.03.36.15.08.19.01.3-.15.36l-3.5,1.43Z" class="cls-5"></path>
      <path d="M221.33,59.18l-.19-.8c-.03-.14.01-.29.21-.34.2-.05.3.07.34.21l.51,2.13c.03.14-.01.29-.21.34-.2.05-.3-.07-.34-.21l-.19-.8-3.13.75.19.8c.03.14-.01.29-.21.34-.2.05-.3-.07-.34-.21l-.51-2.13c-.03-.14.01-.29.21-.34.19-.05.3.07.33.21l.19.8,3.13-.75Z" class="cls-5"></path>
      <path d="M217.21,55.04c-.18.01-.28-.05-.3-.25-.02-.2.08-.29.25-.3l4.04-.34.06.73-3.21,1.73h0s0,.01,0,.01l3.05-.26c.18-.02.29.05.3.25s-.08.29-.25.3l-4.04.34-.06-.73,3.25-1.74h0s0,0,0,0l-3.09.26Z" class="cls-5"></path>
      <path d="M219.88,51.3c0,.14-.09.27-.29.26-.2-.01-.27-.15-.26-.29l.07-1.09,1.09.07c.54.03.85.41.82.94l-.06.96c-.02.26-.07.44-.26.62-.21.21-.42.24-.7.22l-1.39-.08c-.36-.02-.53-.11-.79-.34l-.8-.71c-.27-.24-.35-.44-.33-.8l.04-.74c0-.14.09-.27.29-.26.2.01.27.15.26.29l-.04.67c-.02.31-.02.28.2.48l.74.65c.21.19.44.2.71.22l1.09.07c.31.02.4-.04.42-.36l.05-.88c.01-.2-.02-.37-.27-.38l-.57-.03-.03.54Z" class="cls-5"></path>
      <path d="M222.98,43.81c-.07.18-.14.27-.34.23h0c.17.12.17.24.11.41l-.14.39c-.07.18-.12.22-.31.25l-.39.06c-.14.02-.15.03-.29-.03l-3.03-1.12c-.17-.06-.23-.17-.16-.36.07-.19.19-.23.36-.16l3.03,1.12.3-.05.08-.22-.2-.23-1.64-.61c-.16-.06-.28-.19-.21-.38.07-.19.24-.21.4-.15l1.64.61.3-.05.08-.22-.2-.23-3.03-1.12c-.17-.06-.23-.17-.16-.36.07-.19.19-.23.36-.16l3.03,1.12c.14.05.15.06.24.17l.25.3c.12.15.14.21.07.39l-.15.39Z" class="cls-5"></path>
      <path d="M224.12,40.11l.4-.72c.07-.13.2-.21.38-.11.17.1.18.25.11.38l-1.06,1.92c-.07.13-.2.21-.38.11-.17-.1-.18-.25-.11-.38l.4-.72-2.81-1.56-.4.72c-.07.13-.2.21-.38.11-.18-.1-.18-.25-.11-.38l1.06-1.92c.07-.13.2-.21.38-.11.18.1.18.25.11.38l-.4.72,2.81,1.56Z" class="cls-5"></path>
      <path d="M223.1,35.75l.16.12c.14.11.17.23.05.39-.12.16-.25.16-.39.05l-.6-.46,1.68-2.18.6.46c.14.11.17.23.05.39-.12.16-.25.16-.39.05l-.16-.12-.33.43,2.77,2.14c.14.11.17.23.05.39-.12.16-.25.16-.39.05l-2.77-2.14-.33.43Z" class="cls-5"></path>
      <path d="M227.28,33.74l1.11,1.16c.12.13.14.25,0,.39-.14.14-.27.12-.39,0l-2.61-2.73c-.12-.13-.14-.26,0-.39.15-.14.27-.12.39,0l1.11,1.16,1.18-1.13-1.11-1.17c-.12-.13-.14-.25,0-.39.15-.14.27-.12.39,0l2.61,2.73c.12.13.14.26,0,.39-.15.14-.27.12-.39,0l-1.11-1.16-1.18,1.13Z" class="cls-5"></path>
      <path d="M234.14,28.06l.92-.45c.16-.08.29-.11.47-.06.2.06.28.17.36.35l.53,1.07c.08.15.12.27.07.45-.05.21-.17.3-.35.38l-1.11.55c-.13.06-.22.07-.37.07h-.23c-.16.02-.34.04-.42-.13-.06-.13-.01-.3.12-.37.06-.03.11-.04.18-.04h.18c.08-.01.23,0,.31-.04l1.15-.57-.59-1.19-1.47.73-1.08-2.19,1.72-.85c.13-.06.28-.05.37.13s0,.31-.13.37l-1.22.61.59,1.19Z" class="cls-5"></path>
      <path d="M238.09,28.4l1.83-.58c.14-.04.29,0,.35.18.06.19-.04.31-.18.35l-2.36.75-.55-1.73c-.13-.4.01-.67.41-.79l1.49-.48-.4-1.27-1.83.58c-.14.04-.29.01-.35-.18-.06-.19.04-.31.18-.35l1.76-.56c.18-.06.31-.07.48.01.19.09.25.23.32.42l.35,1.09c.06.19.09.34-.01.53-.09.16-.21.23-.38.29l-1.5.48.41,1.27Z" class="cls-5"></path>
      <path d="M245.21,23.13l2.47-.03c.14,0,.28.07.28.27,0,.2-.13.28-.27.28l-1.92.03v.86s1.38-.02,1.38-.02c.14,0,.28.07.28.28,0,.2-.13.28-.27.28l-1.37.02.03,2.08c0,.18-.07.28-.27.28-.2,0-.28-.1-.28-.27l-.06-4.05Z" class="cls-5"></path>
      <path d="M250.74,23.62c.06-.14.14-.27.32-.24.18.03.23.17.25.32l.56,3.88c.02.14-.15.26-.3.24-.17-.02-.24-.18-.26-.32l-.11-.69-1.18-.16-.3.63c-.06.13-.16.26-.33.24-.16-.02-.29-.19-.23-.31l1.59-3.59ZM250.89,24.69h-.01s-.63,1.44-.63,1.44l.87.12-.22-1.55Z" class="cls-5"></path>
      <path d="M253.55,27.98c-.05.17-.15.25-.35.19-.19-.06-.24-.17-.19-.35l1.14-3.89,1.79.53c.42.12.75.55.62,1.02l-.11.37c-.15.5-.64.64-1.07.51l-.49-.14.7,2.07c.04.1.08.22.05.32-.04.15-.2.21-.35.17-.11-.03-.16-.12-.19-.22l-.85-2.54-.12-.04-.58,1.99ZM254.29,25.46l1.19.35c.15.04.39.1.45-.11l.11-.37c.06-.21-.15-.3-.31-.35l-1.19-.35-.25.83Z" class="cls-5"></path>
      <path d="M260.33,26.21l.63.3-1.72,3.68c-.08.16-.19.22-.37.13s-.21-.21-.13-.37l1.4-2.98h0s-.81.48-.81.48l-.04.08c-.07.16-.2.27-.39.18-.18-.08-.18-.26-.11-.42l.04-.08-.15-.94h0s-1.4,2.98-1.4,2.98c-.08.16-.19.22-.37.13-.18-.09-.21-.21-.13-.37l1.72-3.68.63.29.2,1.18,1.03-.6Z" class="cls-5"></path>
      <path d="M262.81,31.47c.01.18.01.33-.09.49-.23.35-.61.35-.93.14l-1.02-.68c-.18-.12-.31-.25-.37-.46-.06-.19-.04-.41.07-.58.1-.15.27-.22.43-.12.13.09.14.26.06.38-.09.14-.03.21.1.29l1.01.67s.14.12.19.05c.02-.04,0-.15,0-.19l-.23-3.1c-.01-.19,0-.32.1-.48.12-.19.32-.28.54-.28.19,0,.29.07.44.17l.98.65c.18.12.3.25.36.46.05.19.03.42-.07.59-.1.15-.25.22-.42.11-.14-.09-.16-.24-.08-.37.1-.16.04-.23-.1-.33l-.98-.65c-.05-.03-.15-.12-.2-.04-.03.04-.01.13-.01.17l.24,3.11Z" class="cls-5"></path>
      <path d="M269.27,34.62c.14-.11.27-.11.39.04s.1.28-.04.39l-.64.52.52.63c.09.11.12.26-.04.39-.16.13-.3.07-.39-.04l-.52-.63-.63.52c-.14.11-.26.11-.39-.04-.13-.16-.1-.28.04-.39l.63-.52-.52-.63c-.09-.11-.12-.26.04-.39.16-.13.3-.07.39.04l.52.63.64-.52Z" class="cls-5"></path>
      <path d="M271.65,44.07l1.04-.42c.15-.06.29-.04.36.15.08.19,0,.3-.15.36l-1.3.53c-.19.08-.31-.02-.36-.15l-.82-2.03c-.05-.13-.03-.29.15-.36s.31.02.36.15l.31.76,2.98-1.21-.31-.76c-.05-.13-.03-.29.15-.36s.31.02.36.15l.52,1.27-3.5,1.42.2.5Z" class="cls-5"></path>
      <path d="M274.48,47.45l-.45-1.86c-.04-.15.07-.3.21-.33l1.39-.33c.14-.03.3.05.34.21l.51,2.13c.04.15-.06.3-.21.34l-3.67.88c-.15.04-.3-.04-.34-.21l-.07-.27c-.04-.16.06-.3.21-.34.16-.04.3.05.34.21l1.74-.42ZM275.02,47.32l.84-.2-.38-1.59-.85.2.38,1.59Z" class="cls-5"></path>
      <path d="M275.35,56.25c-.22.09-.39.12-.63.11-.27-.02-.43-.1-.65-.22l-.99-.58c-.26-.15-.44-.38-.42-.71.02-.32.23-.53.5-.65l1.05-.45c.23-.1.41-.16.67-.14.24.01.4.06.61.18l1.07.62c.25.15.43.39.41.7-.02.31-.23.53-.5.64l-1.14.49ZM276.25,55.27c.09-.04.17-.06.18-.18,0-.12-.07-.15-.16-.2l-.97-.56c-.16-.09-.26-.14-.44-.16-.14,0-.25.02-.37.07l-1.09.47c-.08.03-.17.07-.18.18,0,.11.08.16.16.2l1.02.6c.12.07.22.11.36.12.18.01.29-.03.46-.1l1.04-.44Z" class="cls-5"></path>
      <path d="M272.58,57.95c-.17-.04-.26-.13-.21-.33s.16-.25.33-.21l3.97.86-.39,1.83c-.09.43-.49.79-.98.69l-.38-.08c-.51-.11-.68-.59-.59-1.03l.11-.5-2.02.85c-.09.04-.21.1-.32.07-.15-.03-.23-.18-.2-.33.02-.11.1-.17.2-.21l2.47-1.04.03-.12-2.03-.44ZM275.15,58.5l-.26,1.21c-.03.15-.07.39.14.44l.38.08c.22.05.29-.17.33-.33l.26-1.21-.85-.18Z" class="cls-5"></path>
      <path d="M271.46,62.82l-.29.76c-.05.13-.17.23-.36.16-.19-.07-.21-.22-.16-.36l.78-2.05c.05-.13.17-.23.36-.16s.21.22.16.36l-.29.76,3.01,1.15.29-.76c.05-.14.17-.23.36-.16.19.07.21.22.16.36l-.78,2.05c-.05.14-.17.23-.36.16s-.21-.22-.16-.36l.29-.76-3.01-1.15Z" class="cls-5"></path>
      <path d="M270.49,66.8c.07-.13.21-.2.38-.11s.18.25.11.38l-.54.96-.96-.54c-.47-.27-.58-.75-.32-1.21l.47-.83c.13-.22.26-.37.51-.45.28-.09.48-.03.73.11l1.21.69c.31.18.43.33.57.65l.41.99c.14.33.12.55-.05.87l-.37.65c-.07.13-.21.2-.38.11-.17-.1-.18-.25-.11-.38l.33-.58c.15-.27.14-.24.03-.52l-.38-.91c-.1-.26-.31-.37-.55-.51l-.95-.54c-.27-.15-.38-.14-.54.14l-.44.77c-.1.17-.14.34.07.46l.5.28.27-.47Z" class="cls-5"></path>
      <path d="M267.52,69.64l-.5.65c-.09.11-.23.17-.39.05-.16-.12-.14-.28-.05-.39l1.35-1.73c.09-.12.23-.17.39-.05.16.12.14.28.05.39l-.5.65,2.54,1.98.5-.65c.09-.11.23-.17.39-.05.16.12.14.28.05.39l-1.35,1.73c-.09.11-.23.17-.39.05-.16-.12-.14-.28-.05-.39l.5-.65-2.54-1.98Z" class="cls-5"></path>
      <path d="M266.84,75.43c.12.13.13.25-.01.39-.15.14-.27.12-.39-.01l-2.79-2.94.53-.5,3.35,1.43h0s0,0,0,0l-2.11-2.22c-.12-.13-.13-.26.01-.39s.27-.12.39.01l2.79,2.94-.53.5-3.38-1.45h0s0,0,0,0l2.13,2.25Z" class="cls-5"></path>
      <path d="M261.33,75.94c-.17-.06-.32-.11-.42-.27-.24-.34-.1-.7.21-.92l1-.7c.17-.12.35-.19.56-.18.19.01.4.11.51.27.1.15.11.33-.05.44-.13.09-.29.04-.38-.08-.09-.14-.18-.1-.31-.02l-.99.69s-.16.09-.11.16c.03.04.14.06.17.08l2.97.92c.18.06.3.11.41.27.13.18.15.4.06.61-.07.17-.17.24-.32.35l-.97.68c-.17.12-.34.19-.56.17-.19-.02-.41-.12-.52-.28-.1-.15-.11-.32.05-.43.14-.1.28-.07.37.06.11.16.2.12.34.02l.97-.68c.05-.04.17-.09.11-.17-.03-.04-.12-.06-.15-.08l-2.98-.92Z" class="cls-5"></path>
    </g>
  </g>
  <g>
    <circle r="32" cy="52.99" cx="58.99" class="cls-6"></circle>
    <g>
      <path d="M61.12,49.46c.54-.01,1.09-.04,1.63-.06.23-.01.27-.06.22-.3-.24-1.15-.55-2.27-1.11-3.3-.19-.35-.42-.69-.72-.96-.08-.07-.18-.13-.32-.24-.02.14-.04.22-.04.29,0,1.41,0,2.83,0,4.24,0,.29.05.33.34.33Z"></path>
      <path d="M62.72,46.67c.31.77.52,1.56.69,2.37.06.28.08.31.36.27.68-.11,1.36-.23,2.03-.36.09-.02.17-.06.3-.1-.48-1.05-1.13-1.94-1.95-2.69-.7-.63-1.49-1.12-2.42-1.35,0,.08.03.14.07.19.39.52.67,1.09.91,1.69Z"></path>
      <path d="M61.12,53.64c.65,0,1.3,0,1.95,0,.31,0,.36-.04.35-.35-.02-1.06-.1-2.12-.27-3.17-.05-.29-.08-.32-.37-.31-.55.02-1.11.04-1.66.07-.3.01-.34.05-.35.36,0,.51,0,1.01,0,1.52s0,1.01,0,1.52c0,.31.04.35.35.36Z"></path>
      <path d="M66.83,54.05c-.44,0-.88,0-1.32,0-.45,0-.9,0-1.35,0-.28,0-.32.04-.33.31-.05,1.1-.15,2.19-.34,3.28-.05.27-.02.28.25.33.68.13,1.35.26,2.03.4.25.05.28.04.4-.2.56-1.21.88-2.48.96-3.82.02-.27-.02-.3-.29-.3Z"></path>
      <path d="M49.62,50.52c-.48.03-.96.08-1.39.32-.26.15-.4.38-.42.68-.03.38.08.72.26,1.04.29.52.7.93,1.14,1.32.03.03.08.04.18.1.01-.16.02-.27.03-.38.01-.68.04-1.36.17-2.03.05-.27.12-.54.18-.81.04-.17,0-.24-.15-.23Z"></path>
      <path d="M67.1,52.44c-.09-1-.31-1.96-.68-2.9-.11-.28-.12-.28-.43-.21-.58.12-1.16.23-1.75.34-.16.03-.32.04-.48.07-.18.03-.2.07-.19.26,0,.04,0,.08.01.11.15,1.05.24,2.11.24,3.17,0,.32.04.36.37.36.43,0,.86,0,1.29,0h0c.45,0,.9,0,1.35,0,.26,0,.31-.05.3-.31,0-.3-.02-.59-.05-.89Z"></path>
      <path d="M64,45.47c1,.79,1.78,1.76,2.36,2.89.02.04.04.09.07.13.12.22.15.24.38.17.2-.06.4-.14.59-.22.07-.03.12-.08.21-.14-.98-1.34-2.21-2.33-3.74-3,.02.06.02.07.02.07.04.03.07.06.11.09Z"></path>
      <path d="M63.1,54.06c-.66,0-1.32,0-1.98,0-.3,0-.34.04-.35.36,0,.51,0,1.01,0,1.52,0,.51,0,1.01,0,1.52,0,.29.04.33.33.34.54.03,1.09.05,1.63.08.21.01.24-.01.3-.22.01-.06.03-.11.04-.17.19-1.03.29-2.06.33-3.11.01-.27-.03-.32-.31-.33Z"></path>
      <path d="M67.95,48.83s-.14-.08-.2-.07c-.33.11-.66.24-.97.36-.01.05-.02.07-.02.09.01.06.02.11.04.17.48,1.27.74,2.59.76,3.95,0,.27.05.31.33.31.36,0,.73,0,1.09,0,.29,0,.32-.04.31-.34-.03-1.52-.44-2.94-1.21-4.25-.04-.07-.08-.16-.14-.21Z"></path>
      <path d="M62.83,58.62c.02-.09.02-.18.02-.26-.05-.03-.07-.04-.08-.05-.59-.03-1.18-.07-1.77-.1-.14,0-.21.07-.21.21,0,.06,0,.11,0,.17,0,1.17,0,2.33,0,3.5,0,.1.02.2.03.3.02.01.05.02.07.03.09-.07.19-.13.27-.2.31-.28.54-.62.73-.99.45-.83.73-1.72.95-2.64Z"></path>
      <path d="M58.29,30.85c-4.94,0-9.51,1.62-13.19,4.36.55.04,1.1.1,1.64.18,1.97.3,3.87.86,5.64,1.78,1.45.75,2.74,1.71,3.8,2.97,1.29,1.54,2.05,3.33,2.36,5.31.08.52.11,1.05.16,1.57.01.15,0,.3-.04.47-.03-.06-.06-.12-.08-.18-.46-1.53-1.16-2.96-2.06-4.28-1.63-2.4-3.72-4.25-6.35-5.49-.68-.32-1.38-.57-2.11-.75-.08-.02-.16-.02-.27-.04.04.17.16.19.26.23.33.14.67.28,1,.43,3.25,1.45,5.67,3.78,7.38,6.88.51.93.91,1.9,1.21,2.91.02.07.05.15.06.22.07.27.03.32-.26.33-1.31.04-2.6-.07-3.87-.41-1.01-.27-1.94-.69-2.77-1.35-.77-.62-1.35-1.38-1.71-2.3-.33-.83-.63-1.66-.93-2.5-.39-1.09-.92-2.1-1.62-3.03-.68-.9-1.47-1.64-2.4-2.21-4.89,4.06-8,10.18-8,17.03,0,12.22,9.9,22.12,22.12,22.12s22.12-9.9,22.12-22.12-9.9-22.12-22.12-22.12ZM58.88,56.09c0,2.14,0,4.29,0,6.43,0,.13,0,.27-.01.4-.03.24-.18.38-.42.38-.16,0-.32-.02-.48-.04-3.73-.49-6.8-3-8.02-6.57-.08-.22-.19-.38-.39-.51-.77-.51-1.49-1.08-2.12-1.75-.39-.42-.71-.87-.95-1.39-.27-.59-.36-1.21-.27-1.85.13-.94.69-1.56,1.54-1.93.56-.24,1.15-.34,1.76-.37.5-.02.99-.04,1.49-.04,2.43,0,4.86,0,7.29,0,.45,0,.59.14.59.58,0,.39,0,.78,0,1.18,0,1.83,0,3.65,0,5.48ZM61.55,63.26c-.34.04-.69.06-1.03.08-.42.02-.58-.14-.59-.56,0-.25,0-.5,0-.75,0-2.83,0-5.66,0-8.5s0-5.93,0-8.9c0-.12,0-.25,0-.37.02-.34.16-.48.5-.49.58-.01,1.15.05,1.71.15,4.21.8,7.4,4.21,7.92,8.46.65,5.32-3.19,10.23-8.52,10.87Z"></path>
      <path d="M68.91,54.05c-.16,0-.33,0-.49,0-.14,0-.29,0-.43,0-.41,0-.42,0-.45.41-.11,1.34-.42,2.62-.98,3.85-.01.03-.02.05-.03.08-.05.12-.02.2.1.25.22.09.45.17.67.26.13.05.22.01.3-.09.03-.05.07-.09.1-.14.74-1.06,1.23-2.23,1.46-3.49.04-.23.08-.47.1-.71.04-.36,0-.41-.36-.41Z"></path>
      <path d="M65.75,58.85c-.06-.03-.12-.08-.19-.09-.66-.13-1.31-.26-1.97-.37-.19-.03-.24,0-.29.19-.06.18-.09.37-.15.55-.3,1.07-.69,2.11-1.37,3.01-.03.04-.04.08-.06.13,1.12,0,3.72-2.2,4.03-3.42Z"></path>
      <path d="M66.16,59.1c-.04.07-.09.15-.13.22-.51.84-1.13,1.59-1.9,2.21-.06.05-.11.1-.16.15,0,.01.01.02.02.04.05-.01.11-.02.15-.04,1.11-.52,2.07-1.23,2.88-2.14.05-.05.07-.12.12-.2-.24-.17-.51-.23-.76-.32-.09-.03-.17,0-.22.09Z"></path>
    </g>
    <path d="M30.72,55.98c.68.02,1.32.04,1.96.07.45.02.9.04,1.35.06.22.01.25.04.29.27.06.36.12.72.18,1.07.03.2.01.22-.21.3-.65.24-1.29.47-1.94.7-.9.32-1.8.65-2.7.97-.1.04-.21.07-.36.11-.05-.26-.1-.49-.14-.73-.01-.06,0-.12-.02-.17-.11-.47,0-.41.32-.51,1.12-.35,2.24-.7,3.37-1.05.04-.01.09-.03.13-.08-.1,0-.2,0-.3,0-1.03-.05-2.06-.11-3.09-.16-.17,0-.34-.01-.52-.02-.14,0-.23-.07-.25-.22-.02-.19-.07-.38-.1-.56-.05-.29-.04-.32.24-.43,1.07-.43,2.15-.85,3.23-1.27.08-.03.16-.06.24-.11-.66-.07-1.31.03-1.97.02-.66,0-1.32,0-1.96,0-.11-.24-.22-.83-.21-1.16.09,0,.18-.02.27-.02,1.66.02,3.33.04,4.99.06.25,0,.26.01.31.27.06.34.12.68.17,1.02.04.28.03.29-.22.38-.99.38-1.98.76-2.97,1.14-.02,0-.03.02-.08.05Z"></path>
    <path d="M72.02,30.81c-.36-.19-.72-.38-1.08-.58-.12-.07-.11-.19-.12-.3,0-.47,0-.94,0-1.41,0-.05,0-.1,0-.14,0-.46-.03-.5-.55-.65-.29.54-.59,1.09-.91,1.67-.39-.21-.74-.4-1.14-.61.86-1.62,1.7-3.21,2.56-4.82.12.05.21.09.29.13.51.27,1.01.54,1.52.81.31.17.6.37.85.63.42.46.52.99.31,1.57-.26.68-.7,1.15-1.47,1.24-.2.02-.23.06-.22.29.01.61.04,1.22.05,1.83,0,.11.04.23-.09.34ZM70.79,26.77c.21.11.39.21.57.3.1.05.21.09.32.12.36.09.65-.05.82-.4.16-.32.1-.59-.22-.82-.21-.15-.44-.26-.67-.39-.12-.07-.2-.02-.26.09-.14.26-.28.52-.42.79-.05.09-.09.19-.15.32Z"></path>
    <path d="M87.72,44.27c.08.42.16.8.22,1.19.08.5.23.99.19,1.5-.02.24-.06.47-.14.7-.1.3-.3.53-.58.68-.68.38-1.64.43-2.27-.26-.03-.03-.07-.06-.13-.11-.09.06-.19.12-.27.19-.45.37-.9.74-1.35,1.12-.08.06-.16.12-.27.2-.03-.1-.06-.15-.08-.21-.06-.31-.11-.62-.17-.93-.04-.17.01-.29.15-.39.43-.33.85-.68,1.29-1,.21-.16.26-.33.18-.57-.07-.21-.09-.23-.3-.2-.44.08-.88.16-1.33.24-.09.02-.19.02-.31.03-.12-.39-.17-.79-.23-1.21.11-.03.2-.07.3-.09,1.58-.28,3.16-.57,4.74-.85.1-.02.21-.02.35-.03ZM85.52,45.94c.03.37.06.71.22,1.01.2.4.49.43.87.36.3-.06.48-.33.45-.7-.02-.25-.07-.49-.11-.73-.02-.11-.08-.16-.2-.14-.39.07-.79.14-1.22.21Z"></path>
    <path d="M33.09,42.77c.81-.14,1.56-.39,2.38-.52-.03.14-.04.23-.07.32-.07.25-.16.49-.21.74-.05.22-.16.32-.38.36-.48.09-.95.2-1.43.29-.48.1-.49.1-.58.66.09.04.18.08.27.11.4.12.81.23,1.21.35.11.03.21.08.34.13-.12.4-.23.79-.33,1.15-.27,0-4.94-1.34-5.25-1.51.01-.07.02-.16.04-.24.17-.59.33-1.18.52-1.76.09-.27.21-.54.36-.78.39-.62.96-.86,1.67-.68.26.06.53.18.76.31.29.17.47.44.59.76.03.09.06.18.11.29ZM31.69,44.34c.17-.25.33-.83.3-1.06-.01-.08-.03-.15-.06-.22-.17-.44-.88-.57-1.12-.24-.25.33-.32.72-.41,1.14.45.13.87.26,1.3.38Z"></path>
    <path d="M48.66,27.37c0,1.26-.74,2.18-1.87,2.47-.74.19-1.43.06-2.03-.42-.82-.67-1.28-1.55-1.37-2.59-.07-.78.23-1.45.85-1.94.67-.53,1.43-.77,2.28-.52.26.08.52.2.74.37.89.71,1.32,1.66,1.4,2.63ZM47.36,27.66c-.07-.81-.38-1.48-1-1.98-.35-.28-.76-.3-1.16-.08-.37.2-.58.63-.52,1.07.08.62.33,1.16.76,1.6.15.16.35.3.56.39.5.21,1.08-.06,1.27-.57.05-.14.06-.3.09-.43Z"></path>
    <path d="M31.28,51.87c-.55-.01-1.07-.1-1.57-.33-1.12-.51-1.49-1.55-1.35-2.54.17-1.29,1.06-2.03,2.39-2.13.57-.04,1.13.03,1.66.23,1,.36,1.6,1.14,1.62,2.18.03,1.25-.63,2.19-1.9,2.49-.28.06-.57.07-.85.11ZM31.32,50.54c.4,0,.73-.08,1-.21.7-.34.76-1.3.15-1.73-.14-.1-.29-.18-.45-.24-.49-.19-1.01-.21-1.52-.12-.22.04-.44.14-.62.27-.48.35-.54,1.06-.13,1.49.15.15.35.27.54.36.33.14.68.19,1.03.19Z"></path>
    <path d="M87.36,60c-1.8-.38-3.55-.76-5.33-1.16.05-.43.15-.81.25-1.23.1,0,.19,0,.28.02.52.11,1.05.23,1.57.34.1.02.21.03.29.05.03-.03.05-.04.06-.05.12-.49.23-.98.34-1.48.03-.14-.04-.21-.18-.24-.51-.11-1.03-.22-1.54-.34-.13-.03-.26-.06-.41-.1.05-.43.14-.82.27-1.24,1.78.37,3.53.76,5.31,1.15-.03.41-.14.76-.22,1.12-.02.11-.12.12-.21.1-.13-.02-.26-.05-.39-.08-.41-.09-.82-.18-1.23-.26-.21-.04-.22-.03-.27.18-.1.42-.19.84-.28,1.26-.05.24-.03.26.2.31.49.11.99.22,1.48.33.29.07.29.07.22.37-.07.31-.13.61-.21.95Z"></path>
    <path d="M37.62,38.22c-1.49-1.13-2.92-2.22-4.34-3.3.02-.07.03-.1.04-.12.4-.51.78-1.04,1.2-1.53.41-.47.93-.78,1.58-.84.36-.03.71.03,1.04.17.65.27,1.2.68,1.62,1.24.55.73.64,1.52.27,2.35-.08.18-.17.36-.29.52-.33.46-.68.9-1.02,1.35-.03.04-.05.08-.1.16ZM34.92,34.5c.23.26,2.43,1.91,2.63,1.98.6-.58.64-1.3.1-1.91-.26-.3-.57-.54-.93-.71-.73-.36-1.42-.11-1.81.64Z"></path>
    <path d="M82.3,44.93c-.16-.42-.3-.78-.44-1.14-.04-.11.03-.18.11-.24.23-.17.47-.33.7-.5.21-.16.22-.16.13-.4-.13-.35-.27-.69-.4-1.04-.05-.14-.13-.19-.28-.17-.3.04-.61.06-.91.1-.12.01-.21,0-.26-.12-.12-.32-.24-.64-.36-.97,0-.02,0-.06,0-.12.26-.02.52-.05.79-.07.82-.06,1.64-.11,2.46-.16.3-.02.61-.04.92-.06.42-.02.84-.05,1.26-.07.25,0,.26,0,.35.24.12.29.23.59.34.88.1.27.1.28-.12.46-.82.65-1.63,1.3-2.45,1.94-.51.4-1.02.81-1.53,1.21-.08.06-.17.12-.31.22ZM83.44,41.29c0,.26.2.75.37.94.53-.37,1.06-.75,1.59-1.12,0-.02-.02-.04-.03-.06-.64.08-1.29.16-1.93.24Z"></path>
    <path d="M83.1,38.18c-.31.19-.6.37-.93.57-.33-.53-.64-1.03-.96-1.57-.33.2-.64.39-.98.6.35.66.77,1.25,1.11,1.88-.14.18-.6.47-.92.58-.61-.97-1.2-1.96-1.79-2.93.18-.19,4.33-2.74,4.63-2.85.16.14,1.62,2.5,1.77,2.86-.14.18-.61.47-.92.56-.18-.29-.36-.59-.54-.89-.18-.29-.36-.58-.56-.91-.29.18-.55.34-.85.52.32.53.62,1.04.94,1.58Z"></path>
    <path d="M58.64,21.35c1.1.06,2.21.13,3.36.2.03.37.02.7-.06,1.07-.34,0-.67,0-1-.03-.3-.02-.59-.04-.89-.04-.2,0-.25.04-.27.25-.01.17-.02.34-.01.52,0,.18.05.23.25.24.39.02.78.04,1.17.06.11,0,.22.02.36.04.03.32.02.62-.02.92-.02.14-.12.15-.24.15-.38-.02-.76-.05-1.14-.07-.05,0-.09-.01-.14-.02-.28-.02-.33.02-.34.32,0,.18-.02.36-.03.54-.02.26,0,.29.25.31.55.04,1.11.08,1.66.11.29.02.31.03.3.32,0,.25-.04.51-.06.79-1.19-.06-2.33-.12-3.47-.2-.07-.3.22-5.2.33-5.47Z"></path>
    <path d="M76.2,28.56c-.22.28-.41.51-.62.77.45.41.94.74,1.41,1.16-.19.29-.41.55-.65.83-.52-.32-.93-.75-1.45-1.1-.25.28-.47.57-.71.88.55.5,1.15.91,1.72,1.41-.2.3-.42.57-.68.85-.92-.73-1.82-1.45-2.71-2.16.1-.24,3.14-4.07,3.37-4.26.22.08,2.48,1.88,2.68,2.13-.21.26-.42.52-.65.82-.57-.45-1.12-.88-1.7-1.34Z"></path>
    <path d="M66.36,24.62c-.08.34-.16.66-.24,1.02-.15-.03-.27-.04-.38-.07-.39-.09-.78-.19-1.17-.28-.22-.05-.24-.03-.3.18-.06.22-.11.45-.16.67-.04.2-.03.22.18.28.47.12.95.23,1.42.34.16.04.31.08.49.13,0,.07.01.14,0,.2-.05.21-.1.43-.16.64-.06.2-.08.22-.28.17-.46-.1-.91-.21-1.37-.32-.48-.11-.97-.23-1.45-.35-.12-.03-.24-.07-.35-.1-.02-.24,1.1-4.99,1.25-5.31,1.09.24,2.19.51,3.32.79-.08.36-.16.68-.24,1.03-.12-.01-.23-.02-.33-.04-.47-.11-.95-.22-1.42-.33-.11-.03-.22-.04-.37-.07-.08.32-.15.61-.23.93.57.23,1.16.27,1.77.49Z"></path>
    <path d="M80.75,33.45c-.02-.12-.04-.21-.06-.3-.06-.34-.19-.64-.45-.88-.09-.08-.2-.16-.31-.19-.27-.08-.48.09-.47.37,0,.14.04.28.08.42.11.35.25.68.35,1.03.07.25.13.51.11.76-.08.98-1.07,1.63-2.05,1.34-.23-.07-.47-.18-.66-.33-.75-.54-1.13-1.3-1.22-2.21-.02-.22.01-.26.25-.28.2-.02.4-.03.6-.04.09,0,.18.01.28.02.03.17.05.32.08.47.08.38.22.73.51,1,.23.22.46.27.64.16.2-.12.26-.32.16-.64-.12-.39-.25-.78-.38-1.17-.1-.3-.14-.6-.08-.9.19-.95,1.13-1.48,2.07-1.14.88.32,1.36.98,1.55,1.87.03.14.04.28.04.43,0,.12-.06.2-.19.2-.28,0-.55,0-.86,0Z"></path>
    <path d="M42.02,27.91c-.12.01-.21.03-.3.03-.75.04-1.26.69-1.1,1.43.15.71.57,1.25,1.19,1.61.68.39,1.49.06,1.74-.69.04-.12.07-.24.11-.38.34,0,.66.08,1.02.16-.01.14,0,.28-.03.4-.23,1-.91,1.57-1.86,1.83-.62.17-1.22.07-1.77-.27-.85-.52-1.43-1.27-1.62-2.27-.29-1.54.79-2.64,1.74-2.85.23-.05.47-.08.71-.08.21,0,.26.05.25.26,0,.27-.04.53-.06.82Z"></path>
    <path d="M84.5,53.39c-.27.23-.51.45-.78.68-.12-.13-.23-.23-.33-.34-.82-.99-.59-2.86.72-3.59.55-.31,1.15-.41,1.77-.38.41.02.81.1,1.2.27,1.27.56,1.71,1.85,1.45,2.9-.11.43-.37.83-.71,1.1-.26-.2-.51-.43-.76-.69.06-.09.11-.16.17-.24.41-.58.28-1.3-.32-1.7-.24-.16-.52-.25-.8-.29-.4-.05-.8-.03-1.19.1-1.03.35-1.04,1.41-.59,1.95.05.06.1.14.18.24Z"></path>
    <path d="M51.4,27.87c-.42.12-.8.23-1.17.33-.15-.21-1.5-4.89-1.52-5.26,1.07-.33,2.16-.63,3.28-.94.16.33.23.67.31,1.02-.13.05-.24.1-.36.13-.48.14-.96.27-1.43.41-.29.08-.29.09-.21.38.05.18.1.37.16.55.08.27.1.28.36.2.43-.12.86-.24,1.3-.36.05-.02.11-.03.2-.05.15.32.23.66.3,1.02-.11.04-.19.08-.28.1-.4.12-.81.23-1.21.35-.26.08-.27.1-.2.37.13.45.26.9.38,1.35.03.11.06.22.1.38Z"></path>
    <path d="M55.4,27.03c-.39.09-.78.12-1.21.13-.13-.45-.12-.91-.19-1.35-.06-.44-.1-.89-.15-1.34-.05-.46-.1-.91-.15-1.37-.05-.44-.12-.88-.13-1.36,1.15-.14,2.27-.26,3.43-.38.04.36.08.69.13,1.04-.12.03-.22.07-.32.08-.54.06-1.08.12-1.62.18-.19.02-.21.04-.2.23.02.25.05.49.07.74.01.14.09.21.23.19.28-.03.55-.06.83-.09.26-.03.51-.05.79-.08.13.34.1.68.16,1.04-.12.03-.21.06-.31.08-.4.05-.8.08-1.2.13-.31.03-.35.1-.31.41.05.42.1.83.15,1.25.01.14,0,.28,0,.45Z"></path>
    <path d="M36.31,38.26c.36.15.66.3.98.49-.51,1.02-1.01,2.01-1.51,3-.25-.05-4.6-2.22-4.89-2.44.13-.38.34-.72.54-1.11.12.05.23.09.33.14,1.08.54,2.17,1.09,3.25,1.63.1.05.2.09.34.15.32-.63.63-1.24.96-1.88Z"></path>
    <path d="M86.56,65.91c.07.13.14.23.17.35.2.89-.03,1.65-.69,2.27-.39.36-.86.45-1.36.24-.07-.03-.14-.05-.21-.08,0,0-.02,0-.06,0-.26.4-.11.76.14,1.11-.37.11-.51.04-.59-.29-.04-.16-.05-.32-.11-.48-.06-.18-.15-.21-.33-.13-.55.26-.97.17-1.33-.32-.26-.36-.38-.77-.28-1.22.02-.1.07-.19.13-.33.11.09.18.14.25.2.17.15.36.23.59.26.18.02.36.07.52.13.29.12.45.35.44.67,0,.11-.05.24.11.31.12-.13.19-.27.13-.45,0-.03-.02-.05-.03-.08-.18-.63.07-1.13.69-1.34.17-.06.35-.11.53-.11.45-.02.81-.21,1.1-.54.05-.05.11-.1.19-.19Z"></path>
    <path d="M38.62,74.82c-.3.32-.59.64-.9.97-.27-.17-.46-.38-.67-.58.1-.21,2.28-2.63,2.62-2.9.06.04.13.08.19.14.31.28.62.54.91.84.17.17.33.37.45.59.21.38.18.78-.08,1.14-.28.39-.64.63-1.14.6-.24-.01-.27.02-.33.26-.08.35-.16.71-.24,1.06-.02.1-.06.2-.1.34-.29-.2-.51-.41-.7-.63-.05-.06-.03-.2,0-.3.08-.33.17-.65.25-.97.08-.33.08-.34-.26-.55ZM39.21,74.18c.14.22.35.42.51.49.23.1.46.05.62-.14.15-.19.16-.38-.02-.59-.13-.16-.29-.29-.47-.46-.23.25-.44.48-.64.7Z"></path>
    <path d="M70.53,77.39c.06-.05.12-.09.17-.12.38-.22.76-.44,1.15-.65.31-.17.65-.3,1.02-.23.68.13,1.15.96.93,1.62-.03.1-.07.19-.12.32.25.15.5.3.74.44.23.14.47.28.74.45-.29.21-.56.36-.83.48-.06.03-.17-.02-.23-.06-.3-.18-.6-.38-.9-.56-.29-.18-.3-.18-.6.08.21.37.42.75.64,1.15-.24.21-.51.33-.76.46-.19-.17-1.84-3.05-1.95-3.39ZM72.19,78.47c.18-.11.33-.17.46-.27.1-.08.19-.19.25-.3.1-.18.01-.35-.1-.5-.09-.12-.22-.19-.38-.15-.26.06-.49.18-.71.38.16.28.31.54.48.84Z"></path>
    <path d="M69.05,78.1c.46-.02.83.12,1.12.41.64.63.93,1.39.79,2.28-.02.15-.08.29-.15.43-.4.81-1.8,1.39-2.74.47-.59-.59-.89-1.32-.77-2.15.11-.81.84-1.4,1.66-1.43.05,0,.1,0,.1,0ZM70.03,80.36c-.03-.41-.19-.87-.57-1.21-.44-.4-1.07-.2-1.2.38-.03.16-.02.34,0,.51.07.39.23.75.52,1.03.23.22.49.32.81.19.3-.13.44-.39.43-.88Z"></path>
    <path d="M81.15,74.17c-1.03-.83-2.01-1.66-3-2.48.03-.06.04-.1.06-.13.35-.42.69-.84,1.06-1.24.25-.27.57-.45.96-.43.6.02,1.18.59,1.2,1.18,0,.06,0,.12,0,.17-.01.13.05.19.17.22.29.05.58.11.87.16.2.04.41.08.65.13-.17.3-.38.52-.59.74-.05.05-.18.04-.27.02-.35-.06-.69-.14-1.04-.21-.29-.06-.33-.04-.5.29.32.28.65.56,1.01.87-.2.24-.38.47-.59.72ZM80.08,72.05c.21-.22.4-.4.47-.67.05-.2-.04-.39-.22-.52-.17-.11-.34-.12-.5,0-.19.15-.35.32-.47.57.24.2.48.4.73.61Z"></path>
    <path d="M42.32,79.12c-.94,0-1.72-.69-1.8-1.58-.02-.23.02-.48.09-.7.16-.54.47-.98.9-1.33.62-.5,1.38-.53,2.05-.08.68.45.96,1.15.74,1.91-.18.63-.55,1.13-1.09,1.5-.28.19-.6.3-.9.28ZM43.44,76.74c0-.55-.52-.92-1.01-.67-.58.29-.91.79-.96,1.43-.04.54.48.88.98.68.49-.19.99-.93.99-1.45Z"></path>
    <path d="M47.61,82.05c.41-1.22.81-2.43,1.22-3.65.1.01.16.02.22.04.34.11.67.21,1,.34.2.08.4.18.58.3.54.38.75.92.66,1.57-.05.38-.17.74-.36,1.08-.39.68-1.04.98-1.82.84-.37-.07-1.24-.36-1.5-.51ZM49.48,79.46c-.03.08-.07.16-.1.25-.18.54-.36,1.09-.54,1.63-.02.05-.03.11-.05.16-.03.12.02.17.13.21.41.15.82.04,1.07-.32.24-.35.37-.73.35-1.16-.02-.44-.37-.76-.85-.78Z"></path>
    <path d="M30.68,67.12c.09.07.14.1.18.14.19.21.43.3.71.33.16.02.32.06.46.13.26.12.41.34.39.64,0,.1-.05.21.1.28.14-.13.2-.27.13-.45-.04-.1-.06-.2-.07-.31-.05-.36.08-.64.37-.85.21-.16.45-.27.71-.28.54-.02.98-.23,1.31-.65.01-.01.03-.02.09-.04.05.08.1.17.14.26.3.81-.12,1.96-.86,2.39-.34.2-.71.21-1.08.08-.09-.03-.18-.06-.27-.1-.26.39-.11.73.11,1.07-.31.12-.45.06-.54-.22-.05-.15-.06-.3-.1-.45-.07-.24-.15-.27-.36-.16-.42.22-.79.17-1.12-.17-.36-.38-.5-.83-.39-1.35.02-.09.06-.17.11-.3Z"></path>
    <path d="M59.58,80.25c0,.07.02.15.02.22-.02.73-.03,1.45-.06,2.18,0,.21-.06.42-.13.61-.19.56-.64.88-1.23.9-.18,0-.37.01-.54-.02-.66-.12-1.05-.53-1.16-1.21-.04-.23-.06-.48-.06-.71,0-.61.03-1.22.05-1.83,0-.07.02-.13.03-.21.3-.08.59,0,.9,0,0,.13.02.23.02.33-.01.51-.03,1.01-.03,1.52,0,.28,0,.55.05.83.05.32.24.47.54.48.33.01.53-.12.61-.44.04-.17.06-.36.07-.54.02-.62.03-1.24.05-1.86,0-.31.02-.32.33-.31.13,0,.27.01.4.02.05,0,.09.03.15.05Z"></path>
    <path d="M45.44,76.73c.29.14.54.26.82.4-.05.13-.08.23-.13.33-.28.57-.57,1.13-.83,1.7-.09.19-.14.41-.17.63-.03.24.12.39.33.49.2.09.42.12.59-.05.15-.15.29-.33.39-.52.29-.54.55-1.09.82-1.64.05-.1.11-.2.18-.32.29.08.53.23.8.38-.05.11-.08.21-.12.3-.27.54-.53,1.08-.81,1.62-.13.24-.28.48-.46.69-.41.48-.93.6-1.52.39,0,0-.02,0-.03,0-.98-.37-1.32-1.09-.98-2.07.06-.17.14-.34.22-.5.24-.5.49-.99.74-1.49.05-.09.1-.18.17-.32Z"></path>
    <path d="M77.12,73.76c.18.18.32.32.48.49.33-.31.63-.58.96-.88.18.19.35.37.55.57-.32.31-.62.6-.94.91.19.2.36.38.55.58.4-.36.76-.71,1.15-1.06.22.16.38.35.56.58-.61.57-1.21,1.14-1.83,1.73-.92-.94-1.79-1.89-2.66-2.82.12-.23,1.48-1.52,1.79-1.72.16.17.33.34.53.55-.38.36-.73.7-1.13,1.08Z"></path>
    <path d="M63.63,79.73c.54-.13,1.03-.25,1.52-.37.14-.03.28-.05.42-.06.75-.02,1.23.4,1.31,1.15.05.48-.11.87-.5,1.14-.2.14-.44.22-.67.32-.15.06-.31.09-.49.14,0,.43.22.83.23,1.28-.29.07-.56.14-.88.21-.33-1.27-.63-2.52-.94-3.82ZM65.95,80.67c0-.38-.21-.6-.54-.57-.17.02-.33.07-.5.11-.11.03-.16.1-.14.21.05.24.11.48.17.72.02.09.08.16.19.13.19-.05.39-.1.57-.18.18-.08.26-.24.25-.42Z"></path>
    <path d="M36.03,72.12c-.34.28-.65.54-.99.83-.21-.24-.39-.46-.57-.66.13-.22,2.69-2.4,3-2.55.41.52.92.98,1.24,1.59.26.49.19.94-.15,1.33-.41.45-.94.6-1.45.41-.29-.11-.53-.3-.73-.54-.11-.12-.21-.24-.35-.4ZM36.65,71.59c.15.25.3.44.51.57.21.14.45.1.65-.09.19-.17.23-.36.1-.59-.11-.21-.26-.4-.47-.55-.26.22-.52.44-.78.66Z"></path>
    <path d="M60.26,80.17c.25-.03.45-.07.66-.08.42-.04.84-.08,1.25-.09.59,0,1.01.33,1.15.85.16.63-.02,1.17-.52,1.48-.26.16-.54.24-.83.28-.06,0-.11,0-.17.01-.28.04-.32.09-.29.37.03.25.07.49.09.74.02.2-.01.23-.21.26-.15.02-.3.04-.45.05-.22.01-.25,0-.27-.23-.06-.47-.11-.95-.17-1.42-.07-.61-.14-1.21-.2-1.82-.01-.12-.02-.24-.03-.41ZM61.78,80.77c-.1,0-.22,0-.33.02-.11.01-.17.08-.16.2.03.25.06.49.09.74.01.11.09.17.2.16.18-.03.36-.05.53-.11.27-.09.38-.33.32-.63-.05-.25-.2-.37-.49-.38-.05,0-.1,0-.16,0Z"></path>
    <path d="M52.65,83.02c.2-.18.39-.34.59-.52.11.09.19.16.28.23.23.18.48.32.78.31.19,0,.33-.09.36-.22.04-.16-.04-.28-.16-.36-.14-.1-.29-.19-.43-.28-.14-.09-.28-.17-.41-.26-.42-.29-.61-.68-.51-1.19.1-.49.44-.78.92-.88.66-.13,1.25.05,1.72.55.03.03.05.08.09.13-.1.19-.28.31-.44.44-.04.03-.14.02-.2,0-.08-.03-.14-.11-.21-.15-.21-.14-.43-.21-.68-.15-.09.02-.18.1-.23.18-.07.1,0,.21.08.28.08.07.17.13.25.18.23.14.46.27.69.42.37.24.58.58.54,1.04-.05.49-.32.83-.78,1.01-.74.28-1.79-.05-2.25-.74Z"></path>
    <path d="M75.64,74.07c.15.2.29.4.45.62-.28.22-.54.41-.82.63.28.45.61.85.91,1.26.3.41.6.81.89,1.21-.13.2-.39.4-.72.58-.34-.37-.62-.8-.93-1.21-.31-.4-.6-.81-.92-1.23-.33.13-.54.41-.85.55-.21-.15-.32-.37-.46-.56.13-.18,2.02-1.61,2.44-1.84Z"></path>
    <path d="M32.49,66c-.21,0-.38-.18-.37-.39.01-.21.19-.37.41-.36.21.01.36.17.36.37,0,.21-.18.38-.39.37Z"></path>
    <path d="M33.39,65.18c.08-.07.13-.14.19-.17.26-.12.52-.23.78-.35.04-.02.09-.04.14-.03.04,0,.09.04.11.07.01.02,0,.09-.03.1-.35.16-.71.31-1.06.46-.02,0-.06-.03-.13-.08Z"></path>
    <path d="M30.38,64.67c.24-.02.69.13,1.06.34.07.04.12.1.2.18-.27.16-.44-.03-.62-.11-.22-.1-.5-.11-.65-.41Z"></path>
    <path d="M32.55,63.29c.02.08.06.15.06.23,0,.3,0,.59,0,.89,0,.06-.01.12-.03.17-.03.07-.13.07-.16,0-.02-.04-.03-.09-.03-.14,0-.32,0-.63,0-.95,0-.07.04-.13.07-.2.03,0,.07,0,.1,0Z"></path>
    <path d="M83.9,66c-.21,0-.38-.18-.37-.39.01-.21.19-.37.41-.36.21.01.36.17.36.37,0,.21-.18.38-.39.37Z"></path>
    <path d="M84.8,65.18c.08-.07.13-.14.19-.17.26-.12.52-.23.78-.35.04-.02.09-.04.14-.03.04,0,.09.04.11.07.01.02,0,.09-.03.1-.35.16-.71.31-1.06.46-.02,0-.06-.03-.13-.08Z"></path>
    <path d="M81.79,64.67c.24-.02.69.13,1.06.34.07.04.12.1.2.18-.27.16-.44-.03-.62-.11-.22-.1-.5-.11-.65-.41Z"></path>
    <path d="M83.96,63.29c.02.08.06.15.06.23,0,.3,0,.59,0,.89,0,.06-.01.12-.03.17-.03.07-.13.07-.16,0-.02-.04-.03-.09-.03-.14,0-.32,0-.63,0-.95,0-.07.04-.13.07-.2.03,0,.07,0,.1,0Z"></path>
    <circle r="32" cy="52.88" cx="58.73" class="cls-6"></circle>
  </g>
  <g>
    <path d="M415.86,42.9v1.22c-.1,0-.19,0-.28,0-3.32,0-6.64,0-9.96,0-2.03,0-3.87,1.68-4.1,3.7-.03.25-.04.5-.04.75,0,7.57,0,15.14,0,22.71,0,1.86.87,3.21,2.54,4.03.6.29,1.25.38,1.91.38,4.51,0,9.02,0,13.53,0q.31,0,.31.3c0,.3,0,.6,0,.91-.07,0-.12.02-.17.02-4.64,0-9.28.01-13.92-.01-1.62,0-2.97-.66-4.05-1.87-.95-1.06-1.4-2.31-1.39-3.73,0-4.13,0-8.25,0-12.38,0-3.48,0-6.96,0-10.44,0-1.76.68-3.22,2.03-4.35.96-.81,2.09-1.25,3.35-1.26,3.35-.02,6.7,0,10.05-.01.06,0,.13.01.2.02Z"></path>
    <path d="M447.72,76.93c0-.39,0-.75,0-1.12,0-.04.07-.1.12-.11.07-.02.16,0,.24,0,4.37,0,8.73,0,13.1,0,.8,0,1.57-.11,2.27-.51,1.36-.77,2.14-1.93,2.28-3.5.03-.39.02-.78.02-1.17,0-7.23,0-14.46,0-21.7,0-.97-.14-1.9-.69-2.72-.84-1.25-2-1.97-3.52-1.98-3.32-.03-6.64-.01-9.96,0-.19,0-.27-.04-.26-.25.02-.26.01-.52,0-.78,0-.17.04-.23.22-.22.54.01,1.08,0,1.62,0,2.77,0,5.55-.01,8.32,0,1.61.01,2.96.64,4.05,1.83.98,1.07,1.44,2.34,1.44,3.78,0,7.59,0,15.18,0,22.78,0,1.93-.77,3.47-2.32,4.62-.95.7-2.03,1.04-3.21,1.04-4.42,0-8.83,0-13.25,0-.14,0-.29,0-.48,0Z"></path>
    <path d="M414.19,72.06c-2.29.01-4.26-1.85-4.25-4.26,0-2.45,2-4.27,4.27-4.26,2.32,0,4.24,1.9,4.25,4.2.01,2.43-1.87,4.33-4.27,4.32ZM412.52,69.52s.1.11.11.11c.13-.07.27-.08.41-.05.04,0,.09-.06.08-.06.34.07.6-.03.86-.15.08.09.15.17.24.27-.32.1-.62.19-.97.29.15.09.24.15.32.2-.11.02-.24.03-.35.07-.11.04-.15.16-.04.21.29.14.58.32.92.15.24-.12.46-.26.71-.37.24-.11.49-.19.74-.28.05-.02.09-.03.14-.04.3-.02.6-.03.9-.07.07,0,.17-.08.19-.14.02-.06-.04-.18-.09-.22-.25-.17-.5-.35-.83-.2-.11.05-.24.08-.36.09-.09,0-.2-.01-.27-.06-.16-.11-.19-.52-.06-.68.15-.18.3-.36.46-.56.03,0,.08.02.14.02.06,0,.13.01.19,0,.18,0,.23-.11.16-.27-.16-.33-.42-.5-.79-.52.3-.14.6-.27.88-.41.06-.03.09-.13.11-.2.14-.49.4-.92.73-1.31.06-.07.11-.16.16-.24-.01,0-.02-.02-.03-.03-.09.06-.18.12-.3.19.02-.08.03-.13.05-.22-.09.09-.14.15-.21.23,0-.1,0-.18-.01-.25,0,0-.02,0-.02,0-.03.09-.06.17-.09.28-.06-.1-.11-.18-.18-.31.04.19.06.32.09.5-.11-.16-.18-.27-.25-.37l-.03.02c.04.11.08.22.15.38-.11-.13-.19-.21-.26-.29,0,0-.02.02-.03.02.04.09.09.18.13.26,0,0-.02,0-.02.01-.07-.06-.14-.13-.22-.19,0,.09.06.15.09.21.04.06.06.13.09.18-.12-.11-.25-.22-.38-.33,0,0-.01.01-.02.02.1.15.2.3.33.49-.17-.14-.28-.23-.4-.33,0,.01-.01.02-.02.03.08.13.16.25.23.36-.13-.1-.27-.19-.4-.29-.01.01-.03.03-.04.04.13.13.34.21.3.39-.12-.08-.25-.18-.39-.28,0,.01-.02.03-.03.04.09.1.18.21.27.32-.16-.07-.29-.12-.44-.18.12.13.21.22.32.34-.17-.07-.29-.12-.42-.17v.04c.08.08.16.16.25.25-.14-.04-.25-.07-.36-.1,0,.02,0,.03,0,.05.07.05.14.11.22.17h-.46c.15.07.25.11.39.18h-.46s0,.03,0,.04c.08.02.15.03.28.06-.19.04-.33.06-.47.09,0,.01,0,.02,0,.03.09,0,.19.01.28.02,0,0,0,.01,0,.02-.18.04-.35.08-.53.11.05.06.09.06.14.07.04,0,.07,0,.13,0-.08.03-.14.04-.18.08-.16.18-.17.19-.3.02-.14-.17-.27-.35-.39-.54-.26-.39-.56-.72-1.01-.93-.43-.2-.81-.5-.97-.99,0-.01-.03-.02-.04-.03l-.06.03c.08.26.16.52.26.81-.18-.21-.34-.4-.5-.58-.01,0-.02,0-.03,0,.05.21.11.41.16.62-.02.02-.04.04-.05.06-.1-.14-.2-.28-.3-.41-.02.02-.04.03-.06.05.06.17.13.34.2.54-.14-.1-.25-.18-.37-.26-.01,0-.02.01-.03.02.1.23.2.46.3.69-.03,0-.08.02-.15.04.25.1.29.4.56.43.03.23.23.12.35.16.06.02.12,0,.16.01-.02.05-.04.09-.06.14.07.03.14.06.21.09-.1.21.08.16.17.17v.23c.11-.02.21-.04.27-.05-.05.06-.11.13-.17.2.02.02.03.04.05.06.1-.03.19-.06.24-.08-.02.06-.06.14-.09.23,0,.01.02.04.03.05.08-.03.13-.05.15-.05.02.08.02.17.06.2.06.06.16.07.28.13.01,0,.07-.04.13-.06.03.06.06.12.09.17l.03-.05c.08.02.16.05.27.08-.34.17-.67.26-.9.47-.23.2-.35.52-.51.79.02.01.03.02.05.03.09-.09.17-.19.25-.27Z"></path>
    <path d="M437.98,52.35c.94.04,1.87.01,2.78.12,1,.12,1.5.78,1.52,1.78,0,.29-.02.59-.09.87-.11.46-.4.77-.87.9-.03,0-.05.02-.08.03-.01,0-.02.02-.02.02.17.08.36.14.52.24.52.31.72.82.75,1.38.02.42-.01.85-.1,1.26-.15.78-.75,1.32-1.64,1.38-.92.06-1.84.01-2.77.01v-8.01ZM439.43,56.68s-.02.04-.02.06c0,.84,0,1.67,0,2.51,0,.05.09.13.14.13.26,0,.52,0,.78-.03.43-.06.7-.31.74-.75.04-.37.03-.76-.02-1.13-.06-.45-.36-.72-.81-.78-.27-.03-.54,0-.82,0ZM439.41,55.68c.33-.02.64-.03.94-.07.35-.05.57-.29.62-.63.04-.29.04-.59.01-.88-.03-.33-.24-.56-.56-.63-.27-.06-.55-.06-.83-.09-.15-.02-.18.06-.18.19,0,.47,0,.95,0,1.42,0,.21,0,.43,0,.69Z"></path>
    <path d="M420.88,52.37c.92.03,1.8,0,2.68.09,1.03.09,1.62.68,1.68,1.76.07,1.41.03,2.83,0,4.25,0,.29-.1.6-.22.87-.26.61-.79.91-1.42.99-.51.06-1.03.05-1.55.06-.32,0-.63,0-.95,0-.17,0-.22-.05-.22-.22,0-.74,0-1.48,0-2.22,0-1.74,0-3.49,0-5.23,0-.1,0-.2,0-.35ZM422.32,53.39v6.03c.3-.02.58-.02.85-.07.31-.05.52-.24.58-.56.04-.22.07-.44.07-.66,0-1.17.01-2.35,0-3.52,0-.23-.04-.46-.09-.68-.05-.23-.21-.41-.45-.45-.31-.05-.64-.06-.97-.09Z"></path>
    <path d="M416.12,55.73c0,.25,0,.5,0,.75,0,1.22,0,2.45,0,3.67,0,.19-.05.25-.24.24-.32-.01-.64,0-.98,0,0-.1-.01-.17-.01-.24,0-2.51,0-5.03,0-7.54,0-.19.06-.25.23-.22.08.01.16,0,.24,0,.55,0,.54,0,.76.52.53,1.26,1.07,2.52,1.6,3.77.03.07.07.14.15.2v-4.49c.37,0,.72,0,1.07,0,.04,0,.09.06.1.1.02.06,0,.13,0,.19,0,2.47,0,4.94,0,7.41q0,.28-.28.28s-.06,0-.09,0c-.6,0-.59,0-.81-.56-.54-1.33-1.09-2.66-1.63-3.99-.02-.04-.04-.07-.06-.11-.02,0-.04,0-.05,0Z"></path>
    <path d="M453.1,54.45c-.47.08-.86.15-1.29.22-.02-.15-.02-.28-.05-.41-.03-.17-.06-.34-.12-.5-.11-.28-.38-.42-.7-.39-.3.03-.52.22-.58.52-.1.49.05.9.4,1.23.4.38.82.75,1.23,1.11.59.52,1.04,1.12,1.16,1.93.15.95-.25,1.81-1.11,2.16-.98.41-2.65.25-2.97-1.45-.05-.26-.08-.52-.13-.8.43-.09.83-.16,1.24-.25.05.28.07.55.13.8.09.37.26.67.68.74.4.07.7-.13.76-.53.1-.57-.1-1.04-.5-1.42-.41-.39-.84-.76-1.27-1.13-.42-.36-.79-.76-.93-1.32-.18-.74-.15-1.46.38-2.05.18-.2.43-.36.69-.46.54-.21,1.1-.21,1.65-.05.47.13.8.45.97.88.15.36.22.75.33,1.17Z"></path>
    <path d="M447.5,52.4v1h-1.88v2.32h1.49c0,.32,0,.62,0,.92,0,.03-.1.09-.16.09-.37,0-.73,0-1.1,0-.07,0-.14,0-.23,0v2.67h1.91v.98h-3.35v-7.98h3.32Z"></path>
    <path d="M426.53,52.39c.42,0,.82,0,1.22,0,.05,0,.12.09.14.15.29.91.57,1.83.86,2.74.02.07.06.14.13.21.14-.47.27-.93.41-1.4.15-.52.31-1.05.47-1.57.02-.06.11-.14.17-.14.37-.01.75,0,1.15,0-.02.08-.02.14-.04.19-.49,1.53-.99,3.05-1.48,4.58-.03.11-.06.22-.06.34,0,.88-.01,1.76,0,2.64,0,.21-.06.26-.26.25-.36-.01-.72,0-1.1,0,0-.09-.02-.16-.02-.24,0-.61-.03-1.23,0-1.84.05-.74-.13-1.42-.37-2.1-.41-1.2-.8-2.42-1.19-3.63-.02-.05-.02-.11-.04-.18Z"></path>
    <path d="M458.4,53.46h-1.24v6.92h-1.47v-6.91h-1.26v-1.07c.07,0,.14-.01.21-.01,1.17,0,2.35,0,3.52,0,.17,0,.25.04.23.22-.02.28,0,.56,0,.85Z"></path>
    <path d="M411.66,52.4h1.39c0,.08.02.15.02.23,0,2.51,0,5.01,0,7.52,0,.19-.05.25-.24.25-.39-.01-.77,0-1.17,0v-7.99Z"></path>
    <path d="M437.29,49.22c-.12.29-.23.56-.34.83-.75,1.79-1.49,3.59-2.24,5.38-1.05,2.51-2.1,5.02-3.15,7.52-.15.35-.15.35-.5.21-.08-.04-.17-.07-.27-.12.05-.14.1-.26.14-.37,1.38-3.31,2.76-6.62,4.15-9.94.5-1.19.99-2.37,1.48-3.57.07-.18.15-.22.32-.13.12.07.26.12.41.18Z"></path>
    <path d="M439.12,66.03c.38,0,.75,0,1.13,0,.06,0,.13.1.18.17.62.74,1.23,1.48,1.85,2.22.01.01.04.02.08.04,0-.18,0-.34,0-.5,0-.42-.01-.84-.03-1.25-.02-.41-.1-.5-.51-.6-.02,0-.05-.02-.12-.06.11-.01.16-.03.21-.03.96,0,1.91-.02,2.87,0,.62.01,1.19.16,1.61.68.64.8.39,2.09-.54,2.53-.3.14-.66.22-.99.25-.56.04-1.12.01-1.68.01-.03,0-.06,0-.1-.01.01-.03.01-.05.02-.05.49-.15.5-.17.5-.68,0-.69,0-1.38-.01-2.07,0-.43-.25-.62-.68-.57-.23.03-.39.16-.43.39-.03.18-.03.37-.03.56,0,.76,0,1.51,0,2.27,0,.08,0,.15-.01.23-.02,0-.04.01-.06.02-.8-.94-1.6-1.88-2.42-2.85-.01.1-.03.15-.03.2,0,.55,0,1.11.02,1.66,0,.24.02.5.23.67.1.09.25.13.36.22h-1.36c.08-.05.11-.08.15-.09.34-.07.48-.32.49-.63.02-.7.04-1.4,0-2.09-.01-.28-.31-.41-.55-.53-.05-.02-.1-.04-.16-.05,0-.02,0-.04,0-.06ZM444.23,66.14c0,.05-.01.11-.01.16,0,.89,0,1.77,0,2.66,0,.28.08.41.27.45.45.1,1.02-.12,1.28-.5.28-.42.32-.88.28-1.37-.09-1.12-.77-1.55-1.82-1.4Z"></path>
    <path d="M425.7,69.45c.12-.04.19-.06.26-.07.2-.05.3-.19.3-.4,0-.76,0-1.53,0-2.29,0-.38-.2-.58-.55-.58-.39,0-.58.17-.59.58-.01.87,0,1.74-.01,2.61,0,.08,0,.17-.01.25-.02,0-.04.01-.05.02-.8-.94-1.6-1.88-2.41-2.83-.03.03-.04.04-.04.05.01.67.01,1.34.04,2.01.01.3.16.54.49.6.03,0,.06.03.13.08h-1.35s-.01-.02-.02-.03c.05-.02.1-.06.15-.07.24-.07.38-.23.41-.47.03-.21.04-.43.05-.64,0-.44-.03-.88,0-1.32.04-.41-.2-.58-.48-.75-.07-.04-.16-.07-.28-.12.08-.02.12-.04.16-.04.32,0,.63-.01.95,0,.08,0,.17.08.23.15.63.75,1.25,1.51,1.87,2.26,0,0,.03,0,.06.01,0-.06.01-.11.01-.16,0-.5,0-1.01-.02-1.51-.01-.45-.1-.56-.53-.67-.02,0-.05-.02-.06-.08.22,0,.43,0,.65,0,.89,0,1.79-.01,2.68.03.69.03,1.26.35,1.53,1.01.27.66.18,1.29-.3,1.83-.36.41-.86.57-1.39.59-.59.02-1.18,0-1.77,0-.02,0-.04-.01-.11-.05ZM426.89,66.14c0,.28,0,.56,0,.84,0,.67,0,1.34,0,2.01,0,.18.02.36.25.41.46.11,1.04-.11,1.29-.5.36-.56.37-1.17.21-1.79-.2-.79-.83-1.11-1.75-.97Z"></path>
    <path d="M421.7,43.47c.72.4.92,1.23.51,1.9-.16.26-.41.42-.71.44-.52.03-1.03,0-1.57,0v-4.36c.56.03,1.13-.07,1.68.09.63.18.73.82.63,1.36-.06.28-.23.47-.54.56ZM420.7,43.78c0,.5,0,.95,0,1.4,0,.04.06.1.1.11.47.12.8-.12.83-.6,0-.14,0-.27-.01-.41-.03-.22-.14-.4-.37-.45-.17-.04-.34-.04-.54-.06ZM421.58,42.62c0-.47-.31-.72-.79-.61-.04,0-.09.09-.09.13,0,.32,0,.65,0,.97,0,.05.07.13.11.13.47.01.78-.04.76-.63Z"></path>
    <path d="M438.84,43.48c.7.38.91,1.16.53,1.85-.18.32-.46.48-.81.5-.49.02-.98,0-1.49,0,0-.05-.01-.13-.01-.2,0-1.31,0-2.62,0-3.93,0-.19.05-.25.24-.24.31.02.62,0,.93,0,.36.01.7.07.96.36.43.49.25,1.42-.34,1.66ZM437.83,43.81c0,.09,0,.17,0,.25,0,.37,0,.75,0,1.12,0,.04.03.1.07.11.36.15.83-.1.86-.49.06-.75-.09-1.06-.93-.99ZM437.84,43.26c.3,0,.61.07.78-.22.15-.26.17-.56,0-.82-.18-.28-.49-.18-.78-.21v1.25Z"></path>
    <path d="M441.14,41.46c.23,0,.43,0,.64,0,.15,0,.11.12.11.2,0,.89,0,1.77,0,2.66,0,.21.01.43.05.64.05.26.18.35.41.35.24,0,.36-.09.41-.35.04-.22.06-.44.06-.66,0-.86,0-1.73,0-2.59,0-.08,0-.15.01-.24h.73c0,.08.02.14.02.2,0,1.01,0,2.02-.01,3.02,0,.34-.06.68-.34.92-.42.36-.91.35-1.41.2-.43-.12-.6-.47-.66-.88-.03-.21-.04-.42-.04-.62,0-.84,0-1.68,0-2.53,0-.11,0-.21.02-.34Z"></path>
    <path d="M429.58,42.58c-.24.04-.45.08-.67.13-.03-.15-.05-.29-.08-.43-.06-.22-.21-.31-.44-.28-.18.03-.3.18-.3.39,0,.25.1.45.28.61.21.19.43.38.64.57.43.39.71.85.62,1.46-.05.32-.21.56-.49.72-.74.41-1.58.03-1.75-.79-.02-.12-.03-.24-.05-.38.23-.05.44-.09.66-.14.04.19.07.38.13.55.07.22.26.33.47.29.21-.04.3-.18.3-.43,0-.3-.16-.53-.37-.73-.27-.25-.56-.48-.81-.74-.38-.4-.45-.88-.27-1.38.16-.42.55-.62,1.11-.6.46.02.78.24.92.67.05.15.07.32.11.49Z"></path>
    <path d="M424.05,45.84v-4.38c.57,0,1.13,0,1.69,0,.04,0,.11.08.12.13.02.13,0,.26,0,.41h-1.03v1.27h.79v.55h-.78v1.48c.26,0,.53.01.79,0,.21-.01.27.07.25.26-.01.09-.01.18-.02.28h-1.81Z"></path>
    <path d="M447.57,41.46c-.19.59-.34,1.15-.55,1.7-.26.68-.39,1.38-.33,2.11.01.19,0,.38,0,.59h-.72c0-.06-.02-.11-.02-.17,0-.03,0-.06,0-.09.09-1-.11-1.94-.47-2.86-.16-.41-.27-.83-.42-1.27.24,0,.44,0,.65,0,.05,0,.11.08.12.14.17.51.32,1.03.51,1.61.06-.19.1-.31.14-.44.11-.39.23-.77.34-1.16.03-.11.07-.16.19-.15.18,0,.36,0,.57,0Z"></path>
    <path d="M431.66,42.04h-.69v-.58c.17,0,.34,0,.51,0,.49,0,.98,0,1.47,0,.13,0,.19.03.18.17,0,.13,0,.27,0,.42h-.68v3.8h-.79v-3.8Z"></path>
    <path d="M446.86,66.03c.37,0,.75,0,1.12,0,.53,0,1.05,0,1.58,0,.15,0,.22.04.21.21-.01.26,0,.52,0,.78-.02,0-.04,0-.06.01-.06-.11-.13-.21-.19-.32-.18-.38-.48-.56-.9-.59-.64-.04-.63-.05-.63.57,0,.31,0,.62,0,.99.26-.03.54,0,.73-.11.19-.12.29-.38.42-.58v1.5c-.18-.24-.15-.59-.46-.67-.22-.06-.45-.05-.69-.07,0,.48-.01.93,0,1.37,0,.21.18.29.38.31.59.05,1.05-.13,1.31-.69.04-.09.1-.16.19-.22v.98h-3.03s0-.05.02-.05c.48-.16.49-.18.49-.69,0-.68,0-1.37,0-2.05,0-.41-.04-.45-.43-.58-.02,0-.05-.02-.07-.03,0-.02,0-.04,0-.05Z"></path>
    <path d="M431.8,68.5c-.19-.26-.16-.62-.49-.7-.21-.05-.44-.04-.66-.06,0,.48-.01.94,0,1.39,0,.2.18.27.37.29.59.05,1.06-.14,1.32-.71.03-.08.09-.14.18-.27v1.04h-3.07c.07-.04.09-.06.11-.07.4-.14.44-.19.44-.62,0-.64-.01-1.28,0-1.92,0-.39,0-.74-.51-.82.04-.01.07-.03.11-.03.86,0,1.73,0,2.59,0,.17,0,.23.05.22.23-.01.26,0,.51,0,.77-.02,0-.04.01-.06.02-.04-.07-.09-.13-.12-.2-.21-.51-.6-.75-1.15-.72-.04,0-.09,0-.13,0q-.34-.02-.34.33c0,.4,0,.8,0,1.26.28-.04.56,0,.75-.13.19-.12.28-.39.42-.6v1.54Z"></path>
    <path d="M453.34,68.44c0-.57.01-1.14,0-1.7,0-.36-.19-.61-.58-.68h1.32c-.06.04-.09.06-.12.07-.32.08-.46.21-.48.55-.02.5-.02.99-.03,1.49,0,.4,0,.79,0,1.19,0,.07,0,.14-.01.2-.02,0-.04.02-.05.02-.8-.94-1.6-1.88-2.41-2.84-.02.05-.04.06-.04.08,0,.54,0,1.08.01,1.62.01.45.02.91.61,1.04h-1.37c.06-.04.08-.06.11-.06.43-.09.54-.42.55-.79.01-.64.03-1.28-.01-1.92-.01-.17-.24-.33-.39-.47-.08-.07-.2-.1-.3-.14,0-.02,0-.04,0-.06.15,0,.3.02.45,0,.48-.06.82.06,1.12.5.43.63.97,1.19,1.47,1.78.04.05.08.11.13.17.02-.01.03-.03.05-.04Z"></path>
    <path d="M432.89,69.42c.54-.03.55-.38.54-.77-.01-.64,0-1.28,0-1.92,0-.43-.03-.48-.44-.62-.02,0-.03-.02-.07-.05.05-.01.08-.03.11-.03.54,0,1.08,0,1.62.03.35.02.66.16.88.44.3.38.26.95-.1,1.27-.35.31-.77.38-1.23.32.33-.06.63-.17.77-.51.13-.31.13-.63.02-.95-.12-.37-.46-.55-.92-.49,0,.08-.01.16-.01.25,0,.81,0,1.61,0,2.42,0,.45.02.47.45.6.04.01.07.03.1.08h-1.67s-.03-.04-.04-.06Z"></path>
    <path d="M438.88,68.51v.98h-3.05s0-.04.02-.04c.49-.15.51-.18.51-.7,0-.66,0-1.32,0-1.99,0-.39,0-.55-.46-.64-.02,0-.03-.02-.06-.06.07-.01.11-.02.16-.03.84,0,1.68,0,2.53,0,.18,0,.26.05.25.25-.02.25,0,.5-.03.75-.25-.26-.31-.69-.68-.79-.34-.1-.7-.11-1.07-.16v1.62c.25-.03.53,0,.72-.11.19-.11.29-.38.43-.58v1.44c-.13-.2-.23-.46-.42-.57-.19-.12-.47-.09-.75-.13,0,.34,0,.64,0,.94,0,.15,0,.3.02.45.03.2.16.29.36.31.58.04,1.06-.1,1.32-.67.04-.09.1-.17.15-.25.02,0,.04,0,.05,0Z"></path>
    <path d="M454.22,67.16c0-.32,0-.65,0-.97,0-.13.06-.16.17-.16.91,0,1.83,0,2.74,0,.06,0,.16.08.16.13.01.33,0,.66,0,.99l-.06.02c-.03-.06-.06-.13-.09-.19-.07-.16-.13-.32-.21-.47-.14-.28-.37-.41-.68-.41-.15,0-.2.04-.2.2,0,.8,0,1.6,0,2.4,0,.05,0,.1,0,.15,0,.38.05.45.42.57.03,0,.06.02.08.07h-1.62s.02-.05.03-.05q.47-.19.47-.7c0-.8,0-1.6,0-2.4,0-.17-.04-.23-.23-.23-.35.01-.55.21-.69.5-.09.19-.17.38-.26.58-.02,0-.04-.01-.06-.02Z"></path>
    <path d="M420.07,66.05h1.6s0,.03.01.04c-.07.02-.13.05-.2.07-.19.06-.3.19-.3.4,0,.81,0,1.63,0,2.44,0,.2.11.32.29.38.07.02.14.04.2.11h-1.62s-.01-.02-.02-.04c.07-.03.14-.05.22-.08.19-.06.29-.18.29-.38,0-.81,0-1.63,0-2.44,0-.32-.25-.38-.49-.45,0-.02,0-.03,0-.05Z"></path>
    <path d="M414.47,69.16c.15.1.28.19.42.28-.27.18-.39.1-.42-.28Z"></path>
  </g>
  <rect height="1.24" width="29.01" y="75.7" x="419.37"></rect>
  <g>
    <text transform="translate(1149.44 623.19) rotate(-138.11)" class="cls-2"><tspan y="0" x="0">W</tspan></text>
    <text transform="translate(1146.54 620.6) rotate(-129.52)" class="cls-2"><tspan y="0" x="0">O</tspan></text>
    <text transform="translate(1144.07 617.63) rotate(-120.91)" class="cls-2"><tspan y="0" x="0">R</tspan></text>
    <text transform="translate(1142.07 614.31) rotate(-112.24)" class="cls-2"><tspan y="0" x="0">K</tspan></text>
    <text transform="translate(1140.6 610.73) rotate(-103.54)" class="cls-2"><tspan y="0" x="0">I</tspan></text>
    <text transform="translate(1139.68 606.98) rotate(-94.89)" class="cls-2"><tspan y="0" x="0">N</tspan></text>
    <text transform="translate(1139.35 603.12) rotate(-86.52)" class="cls-2"><tspan y="0" x="0">G</tspan></text>
    <text transform="translate(1139.57 599.25) rotate(-78.1)" class="cls-2"><tspan y="0" x="0"> </tspan></text>
    <text transform="translate(1140.35 595.47) rotate(-69.56)" class="cls-2"><tspan y="0" x="0">W</tspan></text>
    <text transform="translate(1141.7 591.83) rotate(-60.93)" class="cls-2"><tspan y="0" x="0">I</tspan></text>
    <text transform="translate(1143.56 588.46) rotate(-52.34)" class="cls-2"><tspan y="0" x="0">T</tspan></text>
    <text transform="translate(1145.92 585.39) rotate(-43.7)" class="cls-2"><tspan y="0" x="0">H</tspan></text>
    <text transform="translate(1148.7 582.71) rotate(-35.1)" class="cls-2"><tspan y="0" x="0"> </tspan></text>
    <text transform="translate(1151.86 580.48) rotate(-26.42)" class="cls-2"><tspan y="0" x="0">5</tspan></text>
    <text transform="translate(1155.32 578.75) rotate(-17.77)" class="cls-2"><tspan y="0" x="0">2</tspan></text>
    <text transform="translate(1158.99 577.56) rotate(-9.21)" class="cls-2"><tspan y="0" x="0"> </tspan></text>
    <text transform="translate(1162.84 576.93) rotate(-.74)" class="cls-2"><tspan y="0" x="0">F</tspan></text>
    <text transform="translate(1166.68 576.87) rotate(7.67)" class="cls-2"><tspan y="0" x="0">A</tspan></text>
    <text transform="translate(1170.53 577.37) rotate(16.34)" class="cls-2"><tspan y="0" x="0">R</tspan></text>
    <text transform="translate(1174.25 578.45) rotate(25.05)" class="cls-2"><tspan y="0" x="0">M</tspan></text>
    <text transform="translate(1177.74 580.07) rotate(33.67)" class="cls-2"><tspan y="0" x="0">S</tspan></text>
    <text transform="translate(1180.97 582.21) rotate(42.26)" class="cls-2"><tspan y="0" x="0"> </tspan></text>
    <text transform="translate(1183.84 584.81) rotate(50.84)" class="cls-2"><tspan y="0" x="0">+</tspan></text>
    <text transform="translate(1186.29 587.8) rotate(59.4)" class="cls-2"><tspan y="0" x="0"> </tspan></text>
    <text transform="translate(1188.27 591.12) rotate(67.97)" class="cls-2"><tspan y="0" x="0">1</tspan></text>
    <text transform="translate(1189.73 594.71) rotate(76.57)" class="cls-2"><tspan y="0" x="0">9</tspan></text>
    <text transform="translate(1190.64 598.45) rotate(85.05)" class="cls-2"><tspan y="0" x="0"> </tspan></text>
    <text transform="translate(1190.98 602.31) rotate(93.54)" class="cls-2"><tspan y="0" x="0">O</tspan></text>
    <text transform="translate(1190.75 606.19) rotate(102.23)" class="cls-2"><tspan y="0" x="0">R</tspan></text>
    <text transform="translate(1189.95 609.95) rotate(110.85)" class="cls-2"><tspan y="0" x="0">I</tspan></text>
    <text transform="translate(1188.58 613.57) rotate(119.46)" class="cls-2"><tspan y="0" x="0">G</tspan></text>
    <text transform="translate(1186.68 616.95) rotate(128.03)" class="cls-2"><tspan y="0" x="0">I</tspan></text>
    <text transform="translate(1184.3 620.01) rotate(136.51)" class="cls-2"><tspan y="0" x="0">N</tspan></text>
    <text transform="translate(1181.5 622.68) rotate(145.03)" class="cls-2"><tspan y="0" x="0">S</tspan></text>
  </g>
  <g>
    <g>
      <path d="M141.9,29.79c-.05.51.21.82.45,1.12.56.67,1.3,1.11,2.08,1.46,1.51.69,3.12,1.12,4.76,1.36,1.16.17,2.33.26,3.5.36.63.05,1.27.06,1.9.06,2.37-.01,4.72-.25,7.02-.82,1.25-.31,2.48-.73,3.6-1.38.81-.47,1.5-1.05,1.81-1.97,0,.64.05,1.29-.01,1.92-.06.69-.52,1.2-1.05,1.6-.35.26-.72.49-1.1.71-.17.1-.26.21-.26.42,0,.32-.04.64-.05.96,0,.07.05.15.1.21.06.07.14.13.2.19.87.85.84,1.81-.07,2.62-.88.79-1.94,1.21-3.04,1.54-1.8.54-3.64.83-5.52.97-2.6.19-5.18.1-7.74-.31-1.48-.24-2.94-.57-4.32-1.2-.82-.37-1.59-.81-2.1-1.61-.09-.14-.26-.23-.4-.33-.56-.42-1.16-.81-1.69-1.27-.43-.37-.62-.9-.61-1.48.01-.56,0-1.12.02-1.69.28,1.12,1.12,1.74,2.06,2.19.9.44,1.86.78,2.81,1.1,1.57.52,3.21.72,4.84.86,1.72.15,3.45.15,5.17.04,1.63-.11,3.25-.33,4.84-.72,1.29-.32,2.56-.73,3.71-1.44.06-.04.12-.08.18-.12.01,0,.01-.04.03-.09-.45.13-.87.27-1.3.36-.89.19-1.79.37-2.69.53-.99.18-1.99.37-2.99.5-2.01.26-4.02.3-6.04.19-1.61-.09-3.21-.27-4.79-.64-1.39-.33-2.76-.73-3.95-1.57-.29-.21-.57-.46-.78-.76-.53-.76-.38-1.62.36-2.25.13-.11.27-.25.42-.32.47-.22.5-.63.53-1.06.01-.22-.07-.33-.26-.44-.63-.36-1.28-.7-1.86-1.13-.68-.5-1.03-1.21-.99-2.08.02-.43,0-.87.04-1.32.23.58.6,1.03,1.07,1.42.85.69,1.84,1.14,2.87,1.48,2.01.67,4.08,1,6.18,1.15,2.06.15,4.11.12,6.16-.11,1.45-.16,2.88-.42,4.29-.82,1.16-.34,2.3-.75,3.28-1.48.4-.3.73-.7,1.05-1.09.15-.18.19-.45.3-.71.01.14.04.27.04.4,0,.5.02,1,.02,1.5,0,.21.09.31.27.41.35.19.69.39,1.01.62,1.25.88,1.27,2.13.07,3.07-.76.6-1.65.97-2.56,1.27-1.95.65-3.96.93-6,1.07-2.8.2-5.57.07-8.33-.45-1.46-.28-2.91-.66-4.21-1.42-.42-.24-.83-.54-1.14-.91-.32-.38-.73-.47-1.2-.67Z"></path>
      <path d="M151.35,28.3c-2.39.1-4.76-.14-7.08-.71-1.26-.3-2.49-.7-3.57-1.45-.33-.23-.65-.53-.88-.87-.54-.78-.27-1.71.64-2.38.99-.74,2.13-1.16,3.31-1.49,1.72-.47,3.48-.73,5.26-.82.85-.04,1.7-.12,2.55-.1,2.87.06,5.71.33,8.45,1.28.82.29,1.59.67,2.28,1.21.43.34.75.76.81,1.32.07.68-.28,1.18-.77,1.58-.96.78-2.09,1.19-3.25,1.53-1.8.53-3.64.78-5.5.88-.75.04-1.5,0-2.24,0ZM148.12,23.62c-.42-.05-.87-.23-1.2.11-.31.32-.57.68-1.09.58-.03,0-.12.09-.12.14,0,.05.08.13.13.14.15.02.31,0,.47.02.11.01.25.03.31.11.34.44.82.6,1.33.67,1.39.21,2.73.14,3.83-.9.79-.74,1.71-.83,2.71-.56.31.08.58.23.62.58.04.33-.18.54-.41.73-.1.09-.21.17-.32.25.24.07.45.07.66.08.47.02.82-.21,1-.61.13-.28.29-.35.57-.34.13,0,.25-.1.38-.15-.13-.05-.26-.11-.39-.15-.04-.01-.08,0-.12,0-.22.02-.38-.06-.54-.24-.15-.17-.37-.31-.59-.4-.96-.39-1.96-.41-2.98-.25-.8.13-1.39.61-1.99,1.11-.75.62-1.61.62-2.48.33-.42-.14-.48-.55-.16-.87.12-.12.26-.23.38-.34Z"></path>
      <path d="M139.57,41.28c.44,1.08,1.32,1.69,2.28,2.18,1.78.91,3.71,1.33,5.68,1.62,2.01.3,4.04.38,6.07.3,1.88-.07,3.76-.29,5.59-.74,1.45-.36,2.87-.79,4.12-1.65.34-.23.64-.52.95-.78-.01-.02-.03-.05-.04-.07-.32.14-.64.3-.97.43-2.45.91-4.95,1.59-7.55,1.86-1.59.16-3.18.22-4.77.16-2.4-.09-4.77-.38-7.07-1.14-.99-.33-1.95-.73-2.76-1.42-.78-.67-.93-1.57-.32-2.38.28-.37.21-.79.27-1.19.03-.22,0-.45.03-.68.31,1.11,1.17,1.7,2.09,2.2,1.83.99,3.83,1.42,5.87,1.73,1.98.3,3.98.37,5.98.3,2.03-.07,4.04-.31,6.02-.83,1.31-.34,2.6-.76,3.74-1.53.69-.47,1.35-.99,1.49-1.91.03,0,.06,0,.08,0-.04.77,0,1.56-.13,2.32-.11.65-.63,1.08-1.15,1.46-.18.13-.26.27-.25.49.02.36.03.73.04,1.09,0,.03.01.06,0,.09-.18.55-.32,1.12-.55,1.65-.32.7-1,1.05-1.64,1.38-1.33.67-2.75,1.08-4.22,1.3-1.32.2-2.66.34-4,.44-2.39.18-4.76.02-7.12-.38-1.75-.3-3.47-.71-5.01-1.66-.64-.4-1.28-.82-1.86-1.3-.54-.46-.89-1.06-.88-1.82,0-.51,0-1.02,0-1.53Z"></path>
      <path d="M142.4,49.04c.25.56.69.85,1.1,1.13,1.3.89,2.78,1.35,4.3,1.71,1.55.37,3.13.56,4.72.65,2.71.16,5.41.06,8.08-.46,1.76-.35,3.49-.79,5.03-1.78.52-.33,1-.72,1.32-1.26.11-.18.18-.39.29-.64.02.12.04.19.04.27,0,.46,0,.92,0,1.37,0,.75-.38,1.33-.92,1.8-1.01.88-2.23,1.37-3.49,1.75-1.88.58-3.81.87-5.77,1.01-3.03.21-6.03.07-9-.57-1.6-.35-3.17-.82-4.56-1.73-.31-.2-.6-.45-.86-.71-.49-.49-.72-1.11-.66-1.79.06-.66-.05-1.16-.71-1.51-.35-.19-.64-.56-.87-.92-.18-.28-.27-.65-.31-.99-.05-.49-.01-1-.01-1.5,0-.03.01-.06,0-.04.3.38.57.85.97,1.17.56.45,1.19.85,1.84,1.15,1.86.84,3.84,1.23,5.85,1.47,1.93.23,3.88.27,5.83.17,1.66-.08,3.3-.3,4.91-.67,1.64-.37,3.24-.87,4.62-1.89.52-.38.91-.88,1.15-1.49.03,0,.06,0,.09,0,0,.36,0,.73,0,1.09,0,.24.08.41.27.56.17.13.32.3.45.48.52.71.46,1.44-.13,2.09-.74.8-1.7,1.22-2.7,1.57-1.61.57-3.28.86-4.97,1.05-1.65.19-3.3.23-4.96.17-2.72-.11-5.42-.44-7.97-1.48-.97-.4-1.93-.82-2.96-1.25Z"></path>
    </g>
    <g>
      <path d="M130.55,64.17c-.18,0-.29-.04-.33-.23h-.01c-.04.19-.14.23-.33.23h-.4c-.19,0-.23-.03-.33-.19l-.19-.32c-.07-.12-.07-.13-.07-.27v-3.09c0-.17.07-.27.27-.27s.27.1.27.27v3.09l.14.26h.23l.14-.26v-1.68c0-.17.07-.31.27-.31s.27.15.27.31v1.68l.14.26h.23l.14-.26v-3.09c0-.17.07-.27.27-.27s.27.1.27.27v3.09c0,.14,0,.15-.07.27l-.19.32c-.09.16-.14.19-.33.19h-.4Z" class="cls-1"></path>
      <path d="M135.1,63.63c.14,0,.27.07.27.27s-.13.27-.27.27h-2.37v-4.14h2.37c.14,0,.27.07.27.27s-.13.27-.27.27h-1.83v1.27h.78c.14,0,.27.07.27.27s-.13.27-.27.27h-.78v1.27h1.83Z" class="cls-1"></path>
      <path d="M141.44,60.29c.04-.14.1-.27.27-.27s.24.13.28.27l1.03,3.61c.04.13-.11.27-.26.27-.17,0-.25-.14-.29-.27l-.2-.64h-1.14l-.2.64c-.04.13-.12.27-.29.27-.15,0-.29-.14-.26-.27l1.04-3.61ZM141.72,61.28h-.01l-.42,1.44h.84l-.41-1.44Z" class="cls-1"></path>
      <path d="M146.59,63.63c.14,0,.27.07.27.27s-.13.27-.27.27h-2.37v-3.88c0-.17.07-.27.27-.27s.27.1.27.27v3.35h1.83Z" class="cls-1"></path>
      <path d="M149.71,64.17c-.18,0-.29-.04-.32-.23h-.01c-.04.19-.14.23-.32.23h-.4c-.19,0-.23-.03-.32-.19l-.19-.32c-.07-.12-.07-.13-.07-.27v-3.09c0-.17.07-.27.27-.27s.27.1.27.27v3.09l.14.26h.23l.14-.26v-1.68c0-.17.07-.31.27-.31s.27.15.27.31v1.68l.14.26h.23l.14-.26v-3.09c0-.17.07-.27.27-.27s.27.1.27.27v3.09c0,.14,0,.15-.07.27l-.19.32c-.09.16-.14.19-.32.19h-.4Z" class="cls-1"></path>
      <path d="M152.94,60.29c.04-.14.1-.27.27-.27s.24.13.28.27l1.03,3.61c.04.13-.11.27-.26.27-.16,0-.25-.14-.29-.27l-.2-.64h-1.13l-.2.64c-.04.13-.12.27-.29.27-.15,0-.29-.14-.26-.27l1.04-3.61ZM153.22,61.28h-.01l-.42,1.44h.84l-.41-1.44Z" class="cls-1"></path>
      <path d="M157.31,63.9c0,.17-.07.27-.27.27s-.27-.1-.27-.27v-1.7l-1.05-1.36v-.54c0-.17.07-.27.27-.27s.27.1.27.27v.36l.78,1.02.78-1.02v-.36c0-.17.07-.27.27-.27s.27.1.27.27v.54l-1.05,1.36v1.7Z" class="cls-1"></path>
      <path d="M162,63.12c.11.14.19.26.19.44,0,.4-.3.6-.67.6h-1.17c-.2,0-.38-.04-.54-.17-.14-.12-.25-.31-.25-.5,0-.17.1-.32.28-.32.15,0,.25.13.25.27,0,.16.09.18.23.18h1.16s.18.02.18-.06c0-.04-.07-.12-.1-.15l-1.83-2.35c-.11-.14-.18-.25-.18-.44,0-.21.1-.39.28-.51.15-.1.27-.1.44-.1h1.13c.2,0,.37.04.53.18.14.12.25.32.25.51,0,.17-.09.31-.28.31-.16,0-.26-.1-.26-.25,0-.18-.09-.21-.26-.21h-1.13c-.06,0-.18-.02-.18.07,0,.05.06.11.08.14l1.83,2.35Z" class="cls-1"></path>
      <path d="M167.76,63.9c0,.17-.07.27-.27.27s-.27-.1-.27-.27v-3.88h1.77c.25,0,.42.04.61.22.23.21.25.41.25.7v.72c0,.27-.02.46-.22.68-.21.23-.43.26-.71.26h-1.17v1.3ZM167.76,62.07h1.18c.31,0,.38-.08.38-.38v-.75c0-.3-.07-.38-.38-.38h-1.18v1.51Z" class="cls-1"></path>
      <path d="M172.1,60.29c.04-.14.1-.27.27-.27s.24.13.28.27l1.03,3.61c.04.13-.11.27-.26.27-.17,0-.25-.14-.29-.27l-.2-.64h-1.14l-.2.64c-.04.13-.12.27-.29.27-.15,0-.29-.14-.26-.27l1.04-3.61ZM172.38,61.28h-.01l-.42,1.44h.84l-.41-1.44Z" class="cls-1"></path>
      <path d="M176.47,63.9c0,.17-.07.27-.27.27s-.27-.1-.27-.27v-1.7l-1.05-1.36v-.54c0-.17.07-.27.27-.27s.27.1.27.27v.36l.78,1.02.78-1.02v-.36c0-.17.07-.27.27-.27s.27.1.27.27v.54l-1.05,1.36v1.7Z" class="cls-1"></path>
      <path d="M131.35,69.51c.11.14.19.26.19.44,0,.4-.3.6-.67.6h-1.17c-.2,0-.38-.04-.54-.17-.14-.12-.25-.31-.25-.5,0-.17.1-.32.28-.32.15,0,.25.13.25.27,0,.16.09.18.23.18h1.16s.18.02.18-.06c0-.04-.07-.12-.1-.15l-1.83-2.35c-.11-.14-.18-.25-.18-.44,0-.21.1-.39.28-.51.15-.1.27-.1.44-.1h1.13c.2,0,.37.04.53.18.14.12.25.32.25.51,0,.17-.09.31-.28.31-.16,0-.26-.1-.26-.25,0-.18-.09-.21-.26-.21h-1.13c-.06,0-.18-.02-.18.07,0,.05.06.11.08.14l1.83,2.35Z" class="cls-1"></path>
      <path d="M134.32,70.02h.78c.14,0,.27.07.27.27s-.13.27-.27.27h-2.1c-.14,0-.27-.07-.27-.27s.13-.27.27-.27h.78v-3.08h-.78c-.14,0-.27-.07-.27-.27s.13-.27.27-.27h2.1c.14,0,.27.07.27.27s-.13.27-.27.27h-.78v3.08Z" class="cls-1"></path>
      <path d="M138.15,69.2c-.14,0-.27-.07-.27-.27s.13-.27.27-.27h1.05v1.05c0,.52-.35.84-.85.84h-.92c-.25,0-.43-.04-.61-.21-.21-.19-.25-.39-.25-.65v-1.33c0-.34.07-.52.28-.78l.63-.8c.21-.27.4-.36.75-.36h.71c.14,0,.27.07.27.27s-.13.27-.27.27h-.64c-.29,0-.27,0-.45.22l-.58.74c-.17.21-.17.43-.17.69v1.04c0,.29.06.38.37.38h.85c.19,0,.35-.04.35-.28v-.54h-.52Z" class="cls-1"></path>
      <path d="M142.5,66.68c0-.17.07-.27.27-.27s.27.1.27.27v3.88h-.7l-1.39-3.2h0s-.01,0-.01,0v2.93c0,.17-.07.27-.27.27s-.27-.1-.27-.27v-3.88h.7l1.39,3.23h0,.01v-2.96Z" class="cls-1"></path>
      <path d="M145.81,70.02h.78c.14,0,.27.07.27.27s-.13.27-.27.27h-2.1c-.14,0-.27-.07-.27-.27s.13-.27.27-.27h.78v-3.08h-.78c-.14,0-.27-.07-.27-.27s.13-.27.27-.27h2.1c.14,0,.27.07.27.27s-.13.27-.27.27h-.78v3.08Z" class="cls-1"></path>
      <path d="M148.06,66.41h2.37c.14,0,.27.07.27.27s-.13.27-.27.27h-1.83v.82h1.31c.14,0,.27.07.27.27s-.13.27-.27.27h-1.31v1.99c0,.17-.07.27-.27.27s-.27-.1-.27-.27v-3.88Z" class="cls-1"></path>
      <path d="M153.48,70.02h.78c.14,0,.27.07.27.27s-.13.27-.27.27h-2.1c-.14,0-.27-.07-.27-.27s.13-.27.27-.27h.78v-3.08h-.78c-.14,0-.27-.07-.27-.27s.13-.27.27-.27h2.1c.14,0,.27.07.27.27s-.13.27-.27.27h-.78v3.08Z" class="cls-1"></path>
      <path d="M157.16,70.55c-.4,0-.63-.16-.8-.51l-.49-.99c-.09-.18-.14-.35-.14-.56,0-.23.04-.38.15-.59l.49-.99c.18-.37.41-.51.82-.51h.91c.12,0,.27.06.27.27,0,.19-.14.27-.27.27h-.89c-.23,0-.27.02-.37.22l-.46.93c-.07.14-.11.24-.11.41,0,.15.05.24.11.37l.45.92c.11.22.16.23.4.23h.87c.12,0,.27.06.27.27,0,.19-.14.27-.27.27h-.93Z" class="cls-1"></path>
      <path d="M160.6,66.68c.04-.14.1-.27.27-.27s.24.13.28.27l1.03,3.61c.04.13-.11.27-.26.27-.16,0-.25-.14-.29-.27l-.2-.64h-1.13l-.2.64c-.04.13-.12.27-.29.27-.15,0-.29-.14-.26-.27l1.04-3.61ZM160.88,67.67h-.01l-.42,1.44h.84l-.41-1.44Z" class="cls-1"></path>
      <path d="M165.5,66.68c0-.17.07-.27.27-.27s.27.1.27.27v3.88h-.7l-1.39-3.2h0s-.01,0-.01,0v2.93c0,.17-.07.27-.27.27s-.27-.1-.27-.27v-3.88h.7l1.39,3.23h0,.01v-2.96Z" class="cls-1"></path>
      <path d="M167.76,66.94v.19c0,.17-.07.27-.27.27s-.27-.1-.27-.27v-.72h2.63v.72c0,.17-.07.27-.27.27s-.27-.1-.27-.27v-.19h-.52v3.35c0,.17-.07.27-.27.27s-.27-.1-.27-.27v-3.35h-.52Z" class="cls-1"></path>
      <path d="M173.42,70.02c.14,0,.27.07.27.27s-.13.27-.27.27h-2.37v-3.88c0-.17.07-.27.27-.27s.27.1.27.27v3.35h1.83Z" class="cls-1"></path>
      <path d="M176.47,70.29c0,.17-.07.27-.27.27s-.27-.1-.27-.27v-1.7l-1.05-1.36v-.54c0-.17.07-.27.27-.27s.27.1.27.27v.36l.78,1.02.78-1.02v-.36c0-.17.07-.27.27-.27s.27.1.27.27v.54l-1.05,1.36v1.7Z" class="cls-1"></path>
      <path d="M126.11,73.07c.04-.14.1-.27.27-.27s.24.13.28.27l1.03,3.61c.04.13-.11.27-.26.27-.16,0-.25-.14-.29-.27l-.2-.64h-1.13l-.2.64c-.04.13-.12.27-.29.27-.15,0-.29-.14-.26-.27l1.04-3.61ZM126.39,74.06h-.01l-.42,1.44h.84l-.41-1.44Z" class="cls-1"></path>
      <path d="M128.9,72.8h1.49c.78,0,1.14.48,1.14,1.23,0,.31-.07.59-.35.84.3.29.35.57.35.96,0,.7-.46,1.11-1.14,1.11h-1.49v-4.14ZM129.43,74.6h.96c.38,0,.61-.17.61-.57,0-.45-.12-.7-.61-.7h-.96v1.27ZM129.43,76.41h.96c.38,0,.61-.17.61-.57,0-.45-.12-.7-.61-.7h-.96v1.27Z" class="cls-1"></path>
      <path d="M135.23,74.29c.1.21.14.36.14.59,0,.26-.07.41-.18.63l-.49.98c-.13.26-.34.44-.65.44s-.52-.19-.65-.44l-.49-.98c-.11-.22-.18-.38-.18-.63,0-.23.04-.38.14-.59l.53-1.06c.13-.25.35-.44.64-.44s.52.19.64.44l.53,1.06ZM134.23,73.49c-.04-.09-.07-.16-.18-.16s-.14.07-.18.16l-.48.96c-.08.15-.12.26-.12.43,0,.14.03.23.09.35l.51,1.01c.04.07.07.16.18.16s.14-.09.18-.16l.51-1.01c.06-.12.09-.21.09-.35,0-.18-.04-.28-.12-.43l-.48-.96Z" class="cls-1"></path>
      <path d="M138.66,73.92v-.85c0-.17.07-.27.27-.27s.27.1.27.27v.84c0,.07,0,.14-.03.21l-1.02,2.59c-.05.13-.1.23-.27.23s-.21-.1-.27-.23l-1.02-2.59c-.03-.06-.03-.14-.03-.21v-.84c0-.17.07-.27.27-.27s.27.1.27.27v.85l.78,2.04.78-2.04Z" class="cls-1"></path>
      <path d="M142.76,76.41c.14,0,.27.07.27.27s-.13.27-.27.27h-2.37v-4.14h2.37c.14,0,.27.07.27.27s-.13.27-.27.27h-1.83v1.27h.78c.14,0,.27.07.27.27s-.13.27-.27.27h-.78v1.27h1.83Z" class="cls-1"></path>
      <path d="M148.06,72.8h2.37c.14,0,.27.07.27.27s-.13.27-.27.27h-1.83v.82h1.31c.14,0,.27.07.27.27s-.13.27-.27.27h-1.31v1.99c0,.17-.07.27-.27.27s-.27-.1-.27-.27v-3.88Z" class="cls-1"></path>
      <path d="M152.94,73.07c.04-.14.1-.27.27-.27s.24.13.28.27l1.03,3.61c.04.13-.11.27-.26.27-.17,0-.25-.14-.29-.27l-.2-.64h-1.14l-.2.64c-.04.13-.12.27-.29.27-.15,0-.29-.14-.26-.27l1.04-3.61ZM153.22,74.06h-.01l-.42,1.44h.84l-.41-1.44Z" class="cls-1"></path>
      <path d="M157.31,76.41h.78c.14,0,.27.07.27.27s-.13.27-.27.27h-2.1c-.14,0-.27-.07-.27-.27s.13-.27.27-.27h.78v-3.08h-.78c-.14,0-.27-.07-.27-.27s.13-.27.27-.27h2.1c.14,0,.27.07.27.27s-.13.27-.27.27h-.78v3.08Z" class="cls-1"></path>
      <path d="M160.09,76.68c0,.17-.07.27-.27.27s-.27-.1-.27-.27v-3.88h1.79c.42,0,.84.3.84.77v.37c0,.5-.42.76-.84.76h-.49l1.2,1.72c.06.08.13.18.13.28,0,.15-.12.25-.27.25-.11,0-.18-.06-.23-.15l-1.47-2.1h-.12v1.98ZM160.09,74.16h1.18c.15,0,.38-.01.38-.22v-.37c0-.21-.22-.24-.38-.24h-1.19v.83Z" class="cls-1"></path>
      <path d="M163.92,73.33v.19c0,.17-.07.27-.27.27s-.27-.1-.27-.27v-.72h2.63v.72c0,.17-.07.27-.27.27s-.27-.1-.27-.27v-.19h-.52v3.35c0,.17-.07.27-.27.27s-.27-.1-.27-.27v-3.35h-.52Z" class="cls-1"></path>
      <path d="M167.76,76.68c0,.17-.07.27-.27.27s-.27-.1-.27-.27v-3.88h1.79c.42,0,.84.3.84.77v.37c0,.5-.42.76-.84.76h-.49l1.2,1.72c.06.08.13.18.13.28,0,.15-.12.25-.27.25-.11,0-.18-.06-.23-.15l-1.47-2.1h-.12v1.98ZM167.76,74.16h1.18c.15,0,.38-.01.38-.22v-.37c0-.21-.22-.24-.38-.24h-1.19v.83Z" class="cls-1"></path>
      <path d="M172.1,73.07c.04-.14.1-.27.27-.27s.24.13.28.27l1.03,3.61c.04.13-.11.27-.26.27-.16,0-.25-.14-.29-.27l-.2-.64h-1.13l-.2.64c-.04.13-.12.27-.29.27-.15,0-.29-.14-.26-.27l1.04-3.61ZM172.38,74.06h-.01l-.42,1.44h.84l-.41-1.44Z" class="cls-1"></path>
      <path d="M175.41,73.33h-.2c-.18,0-.32-.06-.32-.27,0-.19.14-.27.31-.27h.89c.42,0,.62.17.8.53l.47.94c.11.22.16.37.16.62,0,.21-.06.39-.15.59l-.48.97c-.19.38-.43.5-.84.5h-.88c-.14,0-.27-.07-.27-.27s.13-.27.27-.27h.26v-3.08ZM175.94,76.41h.1c.22,0,.28-.03.37-.22l.47-.95c.06-.12.1-.21.1-.35,0-.18-.06-.28-.13-.44l-.44-.9c-.11-.23-.16-.22-.4-.22h-.06v3.08Z" class="cls-1"></path>
      <path d="M181.09,76.41c.14,0,.27.07.27.27s-.13.27-.27.27h-2.37v-4.14h2.37c.14,0,.27.07.27.27s-.13.27-.27.27h-1.83v1.27h.78c.14,0,.27.07.27.27s-.13.27-.27.27h-.78v1.27h1.83Z" class="cls-1"></path>
      <path d="M130.33,83.33c-.4,0-.63-.16-.8-.51l-.49-.99c-.09-.18-.14-.35-.14-.56,0-.23.04-.38.15-.59l.49-.99c.18-.37.41-.51.82-.51h.91c.12,0,.27.06.27.27,0,.19-.14.27-.27.27h-.89c-.23,0-.27.02-.37.22l-.46.93c-.07.14-.11.24-.11.41,0,.15.05.24.11.37l.45.92c.11.22.16.23.4.23h.87c.12,0,.27.06.27.27,0,.19-.14.27-.27.27h-.93Z" class="cls-1"></path>
      <path d="M135.23,80.68c.1.21.14.36.14.59,0,.26-.07.41-.18.63l-.49.98c-.13.26-.34.44-.65.44s-.52-.19-.65-.44l-.49-.98c-.11-.22-.18-.38-.18-.63,0-.23.04-.38.14-.59l.53-1.06c.13-.25.35-.44.64-.44s.52.19.64.44l.53,1.06ZM134.23,79.88c-.04-.09-.07-.16-.18-.16s-.14.07-.18.16l-.48.96c-.08.15-.12.26-.12.43,0,.14.03.23.09.35l.51,1.01c.04.07.07.16.18.16s.14-.09.18-.16l.51-1.01c.06-.12.09-.21.09-.35,0-.18-.04-.28-.12-.43l-.48-.96Z" class="cls-1"></path>
      <path d="M136.56,79.18h2.37c.14,0,.27.07.27.27s-.13.27-.27.27h-1.83v.82h1.31c.14,0,.27.07.27.27s-.13.27-.27.27h-1.31v1.99c0,.17-.07.27-.27.27s-.27-.1-.27-.27v-3.88Z" class="cls-1"></path>
      <path d="M140.4,79.18h2.37c.14,0,.27.07.27.27s-.13.27-.27.27h-1.83v.82h1.31c.14,0,.27.07.27.27s-.13.27-.27.27h-1.31v1.99c0,.17-.07.27-.27.27s-.27-.1-.27-.27v-3.88Z" class="cls-1"></path>
      <path d="M146.59,82.79c.14,0,.27.07.27.27s-.13.27-.27.27h-2.37v-4.14h2.37c.14,0,.27.07.27.27s-.13.27-.27.27h-1.83v1.27h.78c.14,0,.27.07.27.27s-.13.27-.27.27h-.78v1.27h1.83Z" class="cls-1"></path>
      <path d="M150.43,82.79c.14,0,.27.07.27.27s-.13.27-.27.27h-2.37v-4.14h2.37c.14,0,.27.07.27.27s-.13.27-.27.27h-1.83v1.27h.78c.14,0,.27.07.27.27s-.13.27-.27.27h-.78v1.27h1.83Z" class="cls-1"></path>
      <path d="M156.26,83.06c0,.17-.07.27-.27.27s-.27-.1-.27-.27v-3.88h1.77c.25,0,.42.04.61.22.23.21.25.41.25.7v.72c0,.27-.02.46-.22.68-.21.23-.43.26-.71.26h-1.17v1.3ZM156.26,81.23h1.18c.31,0,.38-.08.38-.38v-.75c0-.3-.07-.38-.38-.38h-1.18v1.51Z" class="cls-1"></path>
      <path d="M160.09,83.06c0,.17-.07.27-.27.27s-.27-.1-.27-.27v-3.88h1.79c.42,0,.84.3.84.77v.37c0,.5-.42.76-.84.76h-.49l1.2,1.72c.06.08.13.18.13.28,0,.15-.12.25-.27.25-.11,0-.18-.06-.23-.15l-1.47-2.1h-.12v1.98ZM160.09,80.55h1.18c.15,0,.38-.01.38-.22v-.37c0-.21-.22-.24-.38-.24h-1.19v.83Z" class="cls-1"></path>
      <path d="M164.97,82.79h.78c.14,0,.27.07.27.27s-.13.27-.27.27h-2.1c-.14,0-.27-.07-.27-.27s.13-.27.27-.27h.78v-3.08h-.78c-.14,0-.27-.07-.27-.27s.13-.27.27-.27h2.1c.14,0,.27.07.27.27s-.13.27-.27.27h-.78v3.08Z" class="cls-1"></path>
      <path d="M168.66,83.33c-.4,0-.63-.16-.8-.51l-.49-.99c-.09-.18-.14-.35-.14-.56,0-.23.04-.38.15-.59l.49-.99c.18-.37.41-.51.82-.51h.91c.12,0,.27.06.27.27,0,.19-.14.27-.27.27h-.89c-.23,0-.27.02-.37.22l-.46.93c-.07.14-.11.24-.11.41,0,.15.05.24.11.37l.45.92c.11.22.16.23.4.23h.87c.12,0,.27.06.27.27,0,.19-.14.27-.27.27h-.93Z" class="cls-1"></path>
      <path d="M173.42,82.79c.14,0,.27.07.27.27s-.13.27-.27.27h-2.37v-4.14h2.37c.14,0,.27.07.27.27s-.13.27-.27.27h-1.83v1.27h.78c.14,0,.27.07.27.27s-.13.27-.27.27h-.78v1.27h1.83Z" class="cls-1"></path>
      <path d="M177.33,82.28c.11.14.19.26.19.44,0,.4-.3.6-.67.6h-1.17c-.2,0-.38-.04-.54-.17-.14-.12-.25-.31-.25-.5,0-.17.1-.32.28-.32.15,0,.25.13.25.27,0,.16.09.18.23.18h1.16s.18.02.18-.06c0-.04-.07-.12-.1-.15l-1.83-2.35c-.11-.14-.18-.25-.18-.44,0-.21.1-.39.28-.51.15-.1.27-.1.44-.1h1.13c.2,0,.37.04.53.18.14.12.25.32.25.51,0,.17-.09.31-.28.31-.16,0-.26-.1-.26-.25,0-.18-.09-.21-.26-.21h-1.13c-.06,0-.18-.02-.18.07,0,.05.06.11.08.14l1.83,2.35Z" class="cls-1"></path>
    </g>
  </g>
  <g>
    <g>
      <path d="M322.26,67.52c0,.26-.11.4-.4.4s-.4-.14-.4-.4v-5.87h2.71c.64,0,1.27.45,1.27,1.17v.56c0,.76-.63,1.14-1.27,1.14h-.74l1.81,2.59c.09.12.2.27.2.43,0,.23-.19.38-.41.38-.16,0-.27-.1-.35-.23l-2.22-3.18h-.19v3ZM322.26,63.72h1.79c.23,0,.58-.02.58-.34v-.56c0-.32-.33-.36-.57-.36h-1.8v1.26Z" class="cls-4"></path>
      <path d="M331.03,63.92c.15.31.21.55.21.89,0,.39-.1.63-.27.96l-.74,1.48c-.19.39-.52.67-.98.67s-.79-.28-.98-.67l-.74-1.48c-.16-.33-.27-.57-.27-.96,0-.35.06-.58.21-.89l.81-1.6c.19-.38.52-.66.98-.66s.78.28.98.66l.81,1.6ZM329.52,62.7c-.06-.13-.1-.24-.27-.24s-.21.11-.27.24l-.72,1.46c-.12.23-.19.39-.19.65,0,.21.05.35.14.53l.77,1.53c.06.11.11.24.27.24s.22-.13.27-.24l.77-1.53c.09-.18.14-.32.14-.53,0-.27-.06-.42-.19-.65l-.72-1.46Z" class="cls-4"></path>
      <path d="M334.64,62.07c.06-.22.15-.41.41-.41s.36.2.42.41l1.56,5.46c.06.19-.16.4-.39.4-.25,0-.38-.21-.44-.4l-.3-.97h-1.72l-.31.97c-.06.19-.19.4-.44.4-.23,0-.44-.21-.39-.4l1.58-5.46ZM335.06,63.57h-.02l-.63,2.18h1.27l-.62-2.18Z" class="cls-4"></path>
      <path d="M342.57,66.35c.16.21.28.39.28.67,0,.6-.46.91-1.02.91h-1.77c-.31,0-.57-.06-.81-.26-.22-.18-.38-.47-.38-.75,0-.26.15-.48.43-.48.23,0,.38.19.38.41,0,.24.13.27.35.27h1.75c.06,0,.27.02.27-.1,0-.06-.11-.19-.15-.23l-2.76-3.55c-.17-.22-.27-.38-.27-.66,0-.32.15-.6.43-.77.23-.15.41-.15.67-.15h1.71c.31,0,.56.06.8.27.21.19.38.48.38.77,0,.26-.13.47-.42.47-.24,0-.39-.15-.39-.38,0-.27-.14-.31-.39-.31h-1.71c-.09,0-.27-.02-.27.11,0,.07.09.17.12.22l2.77,3.55Z" class="cls-4"></path>
      <path d="M345.48,62.46v.29c0,.26-.11.4-.4.4s-.4-.14-.4-.4v-1.1h3.98v1.1c0,.26-.11.4-.4.4s-.4-.14-.4-.4v-.29h-.78v5.06c0,.26-.11.4-.4.4s-.4-.14-.4-.4v-5.06h-.78Z" class="cls-4"></path>
      <path d="M354.06,67.12c.21,0,.4.11.4.4s-.19.4-.4.4h-3.58v-6.27h3.58c.21,0,.4.11.4.4s-.19.4-.4.4h-2.77v1.93h1.18c.21,0,.4.11.4.4s-.19.4-.4.4h-1.18v1.93h2.77Z" class="cls-4"></path>
      <path d="M357.07,62.46h-.3c-.27,0-.49-.1-.49-.4,0-.29.22-.4.47-.4h1.35c.63,0,.94.26,1.22.81l.71,1.42c.16.33.24.56.24.94,0,.32-.09.6-.23.89l-.73,1.47c-.28.57-.64.76-1.27.76h-1.34c-.21,0-.4-.11-.4-.4s.19-.4.4-.4h.39v-4.66ZM357.88,67.12h.15c.34,0,.42-.04.56-.34l.71-1.43c.09-.19.15-.32.15-.52,0-.27-.09-.43-.2-.66l-.67-1.36c-.17-.35-.24-.34-.61-.34h-.1v4.66Z" class="cls-4"></path>
    </g>
    <g>
      <path d="M321.97,72.65v.27c0,.24-.1.37-.37.37s-.37-.13-.37-.37v-1.01h3.68v1.01c0,.24-.1.37-.37.37s-.37-.13-.37-.37v-.27h-.72v4.67c0,.24-.1.37-.37.37s-.37-.13-.37-.37v-4.67h-.72Z" class="cls-4"></path>
      <path d="M330.07,74c.14.29.19.51.19.83,0,.36-.1.58-.25.89l-.68,1.37c-.18.36-.48.62-.91.62s-.73-.26-.91-.62l-.68-1.37c-.15-.31-.25-.53-.25-.89,0-.32.05-.54.19-.83l.74-1.48c.18-.35.48-.61.9-.61s.72.26.9.61l.74,1.48ZM328.68,72.88c-.06-.12-.1-.22-.25-.22s-.19.1-.25.22l-.67,1.35c-.11.22-.17.36-.17.6,0,.19.04.33.13.49l.71,1.41c.05.1.1.22.25.22s.2-.12.25-.22l.71-1.41c.08-.16.13-.3.13-.49,0-.25-.06-.39-.17-.6l-.67-1.35Z" class="cls-4"></path>
    </g>
    <g>
      <path d="M339.03,74c.14.29.19.51.19.83,0,.36-.1.58-.25.89l-.68,1.37c-.18.36-.48.62-.91.62s-.73-.26-.91-.62l-.68-1.37c-.15-.31-.25-.53-.25-.89,0-.32.05-.54.19-.83l.74-1.48c.18-.35.48-.61.9-.61s.72.26.9.61l.74,1.48ZM337.64,72.88c-.06-.12-.1-.22-.25-.22s-.19.1-.25.22l-.67,1.35c-.11.22-.17.36-.17.6,0,.19.04.33.13.49l.71,1.41c.05.1.1.22.25.22s.2-.12.25-.22l.71-1.41c.08-.16.13-.3.13-.49,0-.25-.06-.39-.17-.6l-.67-1.35Z" class="cls-4"></path>
      <path d="M341.65,77.33c0,.24-.1.37-.37.37s-.37-.13-.37-.37v-5.42h2.5c.59,0,1.18.42,1.18,1.08v.51c0,.7-.58,1.06-1.18,1.06h-.68l1.67,2.4c.08.11.19.25.19.39,0,.21-.17.35-.38.35-.15,0-.25-.09-.33-.21l-2.05-2.93h-.17v2.77ZM341.65,73.81h1.65c.21,0,.54-.01.54-.31v-.51c0-.3-.3-.33-.53-.33h-1.66v1.16Z" class="cls-4"></path>
      <path d="M346.99,72.65h-.28c-.25,0-.45-.09-.45-.37,0-.27.2-.37.43-.37h1.24c.58,0,.87.24,1.12.74l.65,1.31c.15.31.22.52.22.86,0,.3-.08.55-.22.82l-.68,1.35c-.26.53-.6.7-1.18.7h-1.23c-.19,0-.37-.1-.37-.37s.18-.37.37-.37h.36v-4.3ZM347.74,76.95h.14c.31,0,.39-.04.52-.31l.65-1.32c.08-.17.14-.3.14-.48,0-.25-.08-.39-.19-.61l-.62-1.26c-.16-.32-.22-.31-.57-.31h-.09v4.3Z" class="cls-4"></path>
      <path d="M354.93,76.95c.19,0,.37.1.37.37s-.18.37-.37.37h-3.3v-5.79h3.3c.19,0,.37.1.37.37s-.18.37-.37.37h-2.56v1.78h1.09c.19,0,.37.1.37.37s-.18.37-.37.37h-1.09v1.78h2.56Z" class="cls-4"></path>
      <path d="M357.73,77.33c0,.24-.1.37-.37.37s-.37-.13-.37-.37v-5.42h2.5c.59,0,1.18.42,1.18,1.08v.51c0,.7-.58,1.06-1.18,1.06h-.68l1.67,2.4c.08.11.19.25.19.39,0,.21-.17.35-.38.35-.15,0-.25-.09-.33-.21l-2.05-2.93h-.17v2.77ZM357.73,73.81h1.65c.21,0,.54-.01.54-.31v-.51c0-.3-.3-.33-.53-.33h-1.66v1.16Z" class="cls-4"></path>
    </g>
  </g>
</svg>