<svg width="20" height="20" viewBox="0 0 20 20" fill="none" xmlns="http://www.w3.org/2000/svg">
<path d="M5.44848 18.9017C9.88257 16.7092 13.8978 13.7561 17.3118 10.1765C17.4788 9.97586 17.8548 9.37534 17.7932 9.14047C16.5746 7.48326 14.5914 7.21864 12.924 6.24376C11.2567 5.26888 9.94423 3.13424 7.86586 2.26708C7.47437 2.17725 7.06696 2.18352 6.67842 2.28535C6.28988 2.38718 5.93175 2.58154 5.63464 2.85183C5.34106 2.92877 4.30806 4.01523 5.01064 4.30172C7.00862 5.22133 8.0463 7.1456 9.89263 8.32457C11.739 9.50354 13.4754 9.42497 14.5969 10.9508L15.049 9.92243C12.312 12.8378 9.09512 15.2621 5.53837 17.0897C4.98056 17.2359 3.81049 17.9191 3.84836 18.6621C3.88623 19.4052 5.06683 19.0017 5.44848 18.9017Z" fill="#111111"/>
</svg>
