<?xml version="1.0" encoding="UTF-8"?>
<svg id="Layer_2" data-name="Layer 2" xmlns="http://www.w3.org/2000/svg" viewBox="0 0 167 167">
  <defs>
    <style>
      .cls-1, .cls-2 {
        stroke-width: 0px;
      }

      .cls-2 {
        fill: #fdfdfd;
      }
    </style>
  </defs>
  <g id="Layer_1-2" data-name="Layer 1">
    <g>
      <circle class="cls-1" cx="83.5" cy="83.5" r="83.5"/>
      <path class="cls-2" d="m62.31,80.58c7.47-.84,13.99-3.17,20.85-3.59,10.74-.65,21.19.25,31.08,4.65,1.82.81,5.58.64,4.44,4.6-.92,3.17-4.98,5.38-8.33,4.17-6.07-2.19-12.16-4.29-18.61-4.94-10.53-1.06-20.93-.74-31.07,3.6,10.25.37,16.67,8.41,25.22,12.12,2.48,1.07,1.32,2.97.32,3.97-2.65,2.62-5.67,4.63-9.63,2.27-2.12-1.26-4.5-2.19-6.42-3.7-4.09-3.22-8.55-5.45-13.67-6.49-2.76-.56-5.21-1.8-7.56-3.49-2.9-2.09-2.47-4.56-.44-6.14,8.24-6.42,13.95-15.42,22.38-21.6,2.66-1.95,5.17-4.14,7.98-5.86,1.29-.8,3.22-2.81,4.65-.64,1.24,1.88-.58,3.38-2.1,4.4-6.83,4.62-12.9,10.09-19.09,16.68Z"/>
    </g>
  </g>
</svg>