<svg width="115" height="43" viewBox="0 0 115 43" fill="none" xmlns="http://www.w3.org/2000/svg">
<path d="M111.932 31.9199L111.322 32.1899C111.122 32.2899 110.912 32.3699 110.702 32.4499C110.477 32.522 110.246 32.5722 110.012 32.5999C109.753 32.6186 109.494 32.5984 109.242 32.5399H109.132H109.002L108.552 32.4299L108.092 32.2999C108.047 32.2843 108.007 32.2606 107.972 32.2299C107.935 32.1911 107.891 32.1604 107.842 32.1399C107.517 32.0466 107.215 31.8903 106.952 31.6799C106.735 31.4969 106.537 31.2925 106.362 31.0699C106.21 30.8704 106.079 30.656 105.972 30.4299C105.882 30.2329 105.822 30.0241 105.792 29.8099C105.758 29.3551 105.806 28.8981 105.932 28.4599C106.064 28.056 106.245 27.6698 106.472 27.3099H106.622H106.542C106.533 27.3164 106.522 27.3199 106.512 27.3199C106.501 27.3199 106.49 27.3164 106.482 27.3099C106.512 27.2409 106.552 27.1769 106.602 27.1199L106.762 26.9499C106.819 26.8967 106.87 26.8361 106.912 26.7699C106.951 26.7027 106.975 26.6275 106.982 26.5499C107.165 26.4313 107.336 26.2939 107.492 26.1399C107.632 25.9899 107.772 25.8299 107.902 25.6699C108.048 25.6481 108.184 25.5818 108.292 25.4799L108.612 25.1999L108.892 25.1399L109.212 25.0499C109.316 25.0234 109.424 25.0067 109.532 24.9999C109.634 24.9953 109.736 25.0123 109.832 25.0499C109.915 24.9255 110.038 24.8336 110.182 24.7899C110.358 24.7277 110.544 24.6972 110.732 24.6999C110.942 24.6988 111.152 24.7325 111.352 24.7999C111.548 24.8641 111.726 24.9737 111.872 25.1199C112.199 25.248 112.505 25.4232 112.782 25.6399C113.042 25.8499 113.292 26.0799 113.552 26.3299C113.666 26.5588 113.763 26.7961 113.842 27.0399C113.932 27.2899 114.022 27.5199 114.112 27.7399C114.158 28.071 114.175 28.4057 114.162 28.7399C114.162 29.0399 114.162 29.3099 114.112 29.5299C114.062 29.7499 114.112 29.6699 113.982 29.6599C113.947 29.9367 113.832 30.1974 113.652 30.4099C113.475 30.6284 113.284 30.8355 113.082 31.0299L111.932 31.9199ZM109.752 31.6299L110.192 31.5099C110.321 31.4706 110.445 31.417 110.562 31.3499C110.655 31.2823 110.76 31.2316 110.872 31.1999C111.002 31.1612 111.13 31.111 111.252 31.0499L110.882 30.9499L110.432 30.7999C110.242 30.7199 110.082 30.6599 109.972 30.5999L109.662 30.4499C109.576 30.4014 109.496 30.3445 109.422 30.2799C109.352 30.2299 109.272 30.1499 109.182 30.0699C109.102 30.2632 109.032 30.4132 108.972 30.5199C108.907 30.638 108.83 30.7487 108.742 30.8499C108.662 30.8499 108.612 30.8499 108.592 30.8499C108.564 30.8778 108.529 30.8984 108.492 30.9099C108.459 30.9205 108.424 30.9205 108.392 30.9099H108.332H108.272H108.172V30.7899C108.172 30.7899 108.172 30.7399 108.062 30.7399C107.952 30.7399 108.062 30.6099 108.062 30.5799C108.046 30.5559 108.038 30.5282 108.038 30.4999C108.038 30.4715 108.046 30.4438 108.062 30.4199C108.062 30.4199 108.012 30.4199 108.002 30.3599C107.992 30.2999 108.002 30.2899 108.002 30.2599C108.002 30.2299 108.002 30.0799 108.082 30.0099C108.102 29.9345 108.129 29.8609 108.162 29.7899C108.193 29.7216 108.219 29.6515 108.242 29.5799C108.267 29.5087 108.267 29.431 108.242 29.3599C108.249 29.3303 108.249 29.2994 108.242 29.2699C108.245 29.2333 108.245 29.1964 108.242 29.1599V28.9999C108.38 28.7446 108.484 28.4723 108.552 28.1899C108.615 27.9235 108.716 27.6676 108.852 27.4299C108.917 27.4155 108.986 27.4155 109.052 27.4299C109.078 27.4346 109.104 27.4452 109.126 27.4607C109.149 27.4762 109.168 27.4964 109.182 27.5199C109.334 27.4192 109.472 27.298 109.592 27.1599L109.972 26.7399C110.091 26.6017 110.229 26.4806 110.382 26.3799C110.545 26.2696 110.735 26.2041 110.932 26.1899C111.044 26.2699 111.161 26.3434 111.282 26.4099C111.407 26.489 111.512 26.5949 111.592 26.7199L111.682 26.7799L111.802 26.8599C111.834 26.953 111.874 27.0433 111.922 27.1299C111.96 27.2063 111.99 27.2868 112.012 27.3699C112.012 27.4499 112.012 27.5399 112.082 27.6099C112.103 27.6929 112.133 27.7734 112.172 27.8499C112.162 27.8701 112.157 27.8924 112.157 27.9149C112.157 27.9374 112.162 27.9596 112.172 27.9799C112.172 27.9799 112.172 28.0499 112.172 28.1199C112.145 28.3274 112.046 28.5189 111.892 28.6599C111.725 28.7951 111.539 28.9062 111.342 28.9899C111.131 29.0811 110.914 29.1547 110.692 29.2099C110.462 29.2699 110.252 29.3299 110.062 29.3999C110.172 29.491 110.289 29.5745 110.412 29.6499C110.473 29.6958 110.54 29.7328 110.612 29.7599L110.812 29.8499L111.142 29.9199L111.472 29.9999H111.682H111.892H112.172L112.502 29.6699C112.622 29.4622 112.716 29.2406 112.782 29.0099C112.852 28.7767 112.882 28.5332 112.872 28.2899C112.864 28.012 112.821 27.7363 112.742 27.4699C112.638 27.1252 112.505 26.7905 112.342 26.4699C112.342 26.4699 112.392 26.4699 112.342 26.4699C112.317 26.435 112.286 26.4046 112.252 26.3799L112.172 26.2899C112.172 26.2899 112.172 26.2899 112.242 26.2899C112.171 26.2464 112.106 26.1924 112.052 26.1299C112.012 26.095 111.979 26.0546 111.952 26.0099C111.919 25.9703 111.892 25.9266 111.872 25.8799C111.833 25.8226 111.8 25.7624 111.772 25.6999C111.635 25.641 111.495 25.5909 111.352 25.5499C111.242 25.5084 111.121 25.5084 111.012 25.5499L109.692 25.9699L109.282 26.1299C109.162 26.1721 109.06 26.2531 108.992 26.3599C108.932 26.3599 108.902 26.3599 108.902 26.3599C108.902 26.3599 108.902 26.3599 108.792 26.3599C108.422 26.7211 108.087 27.1161 107.792 27.5399C107.515 27.9572 107.283 28.4031 107.102 28.8699C107.116 28.8993 107.124 28.9318 107.124 28.9649C107.124 28.9979 107.116 29.0304 107.102 29.0599C107.052 29.0599 107.102 29.1699 107.102 29.2399C107.102 29.3099 107.042 29.2399 107.052 29.2399L107.112 29.3099V29.3799C107.165 29.5151 107.201 29.656 107.222 29.7999C107.246 29.9516 107.28 30.1019 107.322 30.2499C107.377 30.4175 107.444 30.5813 107.522 30.7399C107.633 30.9225 107.771 31.0877 107.932 31.2299L108.422 31.3599C108.602 31.4099 108.762 31.4399 108.922 31.4699C109.068 31.4789 109.215 31.4789 109.362 31.4699C109.469 31.4854 109.578 31.4642 109.672 31.4099L109.752 31.6299ZM109.732 28.1999C109.94 28.1798 110.145 28.1327 110.342 28.0599L110.962 27.8299C110.957 27.6945 110.907 27.5646 110.822 27.4599C110.742 27.3714 110.643 27.3029 110.532 27.2599C110.469 27.346 110.395 27.4233 110.312 27.4899L110.072 27.6899L109.862 27.9099C109.798 27.9963 109.754 28.0951 109.732 28.1999Z" fill="#010101"/>
<path d="M0.73 27C0.6 27 0.48 26.92 0.37 26.69C0.259321 26.4696 0.135774 26.2559 0 26.05H0.45C0.262981 25.521 0.214778 24.9529 0.31 24.4C0.396225 23.9074 0.509733 23.42 0.65 22.94C0.79 22.46 0.9 22 1 21.55C1.08689 21.0787 1.03477 20.5922 0.85 20.15C0.874701 20.1716 0.904564 20.1864 0.936682 20.193C0.968801 20.1996 1.00208 20.1978 1.03329 20.1877C1.0645 20.1776 1.09257 20.1597 1.11477 20.1355C1.13698 20.1114 1.15256 20.0819 1.16 20.05C1.23756 19.8676 1.29134 19.6761 1.32 19.48C1.35043 19.2376 1.35043 18.9924 1.32 18.75C1.31426 18.5356 1.29422 18.3218 1.26 18.11C1.61469 17.2693 1.89575 16.3993 2.1 15.51C2.3 14.61 2.48 13.72 2.65 12.84C2.82 11.96 2.99 11.11 3.2 10.28C3.39245 9.47657 3.66031 8.69309 4 7.94C4.4054 7.88446 4.81827 7.93263 5.2 8.08C5.53205 8.16779 5.82675 8.36075 6.04 8.63C6.90743 7.96113 7.66929 7.16556 8.3 6.27C8.95 5.35 9.61 4.44 10.3 3.56C10.9539 2.68973 11.713 1.90375 12.56 1.22C13.4569 0.521201 14.5372 0.0974275 15.67 0C16.32 0.46 17.06 1 17.87 1.49C18.6742 2.0033 19.3567 2.68583 19.87 3.49L20.51 3.92C20.7122 4.07143 20.9225 4.21164 21.14 4.34V4.95C21.5215 5.31313 21.8423 5.73517 22.09 6.2C22.3551 6.68454 22.5889 7.18556 22.79 7.7C22.99 8.23 23.18 8.77 23.38 9.31C23.5441 9.82009 23.7516 10.3152 24 10.79C23.9435 10.9223 23.9228 11.0672 23.94 11.21C23.9512 11.3362 23.9781 11.4605 24.02 11.58C24.0615 11.7145 24.0949 11.8515 24.12 11.99C24.1375 12.1729 24.1375 12.3571 24.12 12.54C24.0835 13.8129 23.6104 15.0346 22.78 16C21.9254 16.9004 20.9073 17.63 19.78 18.15C18.5605 18.7329 17.2965 19.2178 16 19.6C14.7694 19.9558 13.5607 20.3832 12.38 20.88C12.38 20.99 12.38 21.04 12.56 21.04C12.74 21.04 12.71 21.13 12.66 21.29C13.47 21.78 14.1 22.17 14.55 22.47C14.9556 22.7435 15.3762 22.9939 15.81 23.22C16.2265 23.4377 16.6659 23.6088 17.12 23.73C17.59 23.87 18.25 24.03 19.12 24.22L21.12 24.69C21.59 24.81 22.02 24.91 22.4 24.97C22.78 25.03 23.19 25.1 23.62 25.16L25.37 25.36C25.6744 25.6672 25.9216 26.0261 26.1 26.42C26.2856 26.8085 26.4233 27.2182 26.51 27.64C26.5887 28.0214 26.6089 28.4125 26.57 28.8C26.5493 29.12 26.4266 29.4249 26.22 29.67C26.2319 29.7196 26.2624 29.7628 26.3052 29.7907C26.348 29.8186 26.3998 29.8291 26.45 29.82C26.5755 29.7957 26.7045 29.7957 26.83 29.82C26.643 29.9545 26.4806 30.1202 26.35 30.31L25.94 30.88C25.7998 31.0706 25.6425 31.248 25.47 31.41C25.2832 31.5739 25.0479 31.6722 24.8 31.69C23.5777 32.062 22.2723 32.062 21.05 31.69C19.0725 31.19 17.1286 30.5654 15.23 29.82C14.07 29.38 13.12 28.99 12.38 28.64C11.7251 28.3428 11.0874 28.0089 10.47 27.64C9.94318 27.3067 9.43877 26.9393 8.96 26.54C8.5 26.15 7.96 25.68 7.38 25.14C7.34213 25.1492 7.30776 25.1692 7.28111 25.1976C7.25447 25.226 7.2367 25.2616 7.23 25.3C7.22668 25.3381 7.21132 25.3741 7.18615 25.4029C7.16098 25.4316 7.1273 25.4517 7.09 25.46C7.00412 26.3683 6.79208 27.2602 6.46 28.11C6.12599 28.8615 5.69207 29.5645 5.17 30.2C4.74 30.12 4.44 30.2 4.29 30.33C4.13014 30.4998 3.94858 30.6477 3.75 30.77C3.55258 30.8394 3.33742 30.8394 3.14 30.77C3.00873 30.7109 2.8846 30.6371 2.77 30.55C2.65117 30.4633 2.52765 30.3831 2.4 30.31C2.19772 30.2139 1.97077 30.1825 1.75 30.22L1.51 29.51C1.42 29.28 1.21 29.18 0.85 29.21C0.928673 29.0099 0.959492 28.7941 0.94 28.58C0.91454 28.4124 0.87095 28.2481 0.81 28.09C0.76 27.94 0.71 27.78 0.67 27.62C0.623482 27.4122 0.644503 27.195 0.73 27ZM14.33 8.4C13.9832 8.90395 13.588 9.37284 13.15 9.8C12.71 10.22 12.29 10.66 11.87 11.1C11.4437 11.5473 11.0681 12.0403 10.75 12.57C10.4014 13.1502 10.1672 13.7917 10.06 14.46C11.2933 14.2912 12.4978 13.9548 13.64 13.46L17.18 12.02C17.0881 11.1224 16.7174 10.2762 16.12 9.6C15.6347 9.04543 15.0198 8.61946 14.33 8.36" fill="#010101"/>
<path d="M25.4805 26.6601L26.0105 26.2601V25.4001C26.6771 23.7534 27.3771 22.1667 28.1105 20.6401C28.8438 19.1134 29.6105 17.5667 30.4105 16.0001C30.6505 15.4801 30.9005 15.0001 31.1605 14.4501C31.4205 13.9001 31.6705 13.4001 31.9105 12.8601C31.9001 12.747 31.9001 12.6332 31.9105 12.5201C31.9144 12.3725 31.9449 12.2268 32.0005 12.0901C32.3318 11.618 32.6356 11.1271 32.9105 10.6201C33.1405 10.1901 33.3705 9.74006 33.5805 9.28006C33.7905 8.82006 34.0905 8.20006 34.3805 7.65006C34.6632 7.06446 35.0085 6.51123 35.4105 6.00006L35.7005 5.60006H36.1505C36.2593 5.54305 36.3731 5.49619 36.4905 5.46006C36.6588 5.42858 36.8311 5.4252 37.0005 5.45006L37.7305 5.58006C38.6402 5.16031 39.4537 4.55781 40.1205 3.81006C40.8722 2.92523 41.5574 1.986 42.1705 1.00006L42.6605 0.310059L43.3105 0.710059C43.5287 0.832736 43.7602 0.930036 44.0005 1.00006C44.3005 1.08006 44.6105 1.17006 44.9405 1.28006C45.5105 1.42006 46.0705 1.57006 46.6105 1.75006C47.0797 1.88614 47.511 2.12917 47.8705 2.46006L48.0705 2.83006C48.1305 3.13006 48.1805 3.40006 48.2205 3.64006C48.2205 3.89006 48.3005 4.13006 48.3605 4.38006C48.4705 4.94006 48.5605 5.51006 48.6405 6.06006C48.7324 6.67633 48.7891 7.29734 48.8105 7.92006C48.9405 8.46006 49.0705 9.01006 49.1905 9.57006C49.3105 10.1301 49.4305 10.6701 49.5405 11.2101C49.6705 12.0001 49.8205 12.7501 49.9905 13.4701C50.1467 14.1744 50.3641 14.8637 50.6405 15.5301C50.8028 15.5041 50.9682 15.5041 51.1305 15.5301C51.4926 15.381 51.879 15.2996 52.2705 15.2901L52.8005 15.2401L52.9605 15.7301C53.0178 15.8205 53.0848 15.9043 53.1605 15.9801C53.2509 16.0673 53.3478 16.1476 53.4505 16.2201C53.8029 16.2113 54.1503 16.3051 54.4505 16.4901C54.6315 16.6161 54.8021 16.7565 54.9605 16.9101L55.1705 17.1001L55.3705 17.2401L56.1005 17.5201L55.7005 18.3001C55.3213 18.9508 54.8265 19.5269 54.2405 20.0001C53.6268 20.5452 52.936 20.9967 52.1905 21.3401C52.2357 21.5143 52.2691 21.6913 52.2905 21.8701C52.3093 22.0623 52.3428 22.2529 52.3905 22.4401C52.5005 22.9801 52.5905 23.5501 52.6505 24.1301C52.7303 24.7308 52.7303 25.3394 52.6505 25.9401C52.387 26.6046 52.0517 27.2384 51.6505 27.8301C51.2829 28.3894 50.8424 28.8973 50.3405 29.3401C49.8383 29.7882 49.272 30.1589 48.6605 30.4401C48.0303 30.7242 47.3512 30.8838 46.6605 30.9101C46.3705 30.8568 46.0905 30.7589 45.8305 30.6201C45.6683 30.5217 45.5114 30.4149 45.3605 30.3001C45.2194 30.1824 45.065 30.0817 44.9005 30.0001L44.3705 29.7601L44.5305 29.1501C44.5753 29.0617 44.5986 28.9641 44.5986 28.8651C44.5986 28.766 44.5753 28.6684 44.5305 28.5801C44.3675 28.3321 44.1687 28.1097 43.9405 27.9201C43.838 27.8438 43.7441 27.7566 43.6605 27.6601C43.5694 27.5517 43.4726 27.4482 43.3705 27.3501L42.5605 26.4201L43.8805 26.0001C44.4949 25.8936 45.063 25.6044 45.5105 25.1701C45.825 24.6225 45.9415 23.9834 45.8405 23.3601C45.294 23.2259 44.7262 23.2021 44.1705 23.2901L42.8605 23.6001C42.2405 23.7601 41.6305 23.9101 41.0305 24.0301C40.3717 24.1579 39.7015 24.2182 39.0305 24.2101C38.5381 24.2075 38.0467 24.1673 37.5605 24.0901H37.1205L37.0005 23.6101C36.9969 23.5748 36.9862 23.5407 36.969 23.5097C36.9519 23.4788 36.9285 23.4517 36.9005 23.4301L36.7205 23.2401C36.5805 23.0801 36.4205 22.8601 36.2305 22.5901C36.1373 22.4428 36.0781 22.2766 36.0574 22.1036C36.0366 21.9306 36.0547 21.7552 36.1105 21.5901C35.9245 21.3125 35.8111 20.9928 35.7805 20.6601C35.6803 20.8642 35.5935 21.0747 35.5205 21.2901C35.4505 21.4901 35.3905 21.6901 35.3305 21.8801L35.1705 22.4101L34.6405 22.4901C34.5795 22.5608 34.532 22.6421 34.5005 22.7301C34.4837 22.7696 34.475 22.8121 34.475 22.8551C34.475 22.898 34.4837 22.9405 34.5005 22.9801L34.6605 23.4301L34.2605 23.7901C34.2013 23.8701 34.1305 23.9409 34.0505 24.0001C33.9759 24.0427 33.9085 24.0967 33.8505 24.1601C33.7964 24.449 33.7194 24.7332 33.6205 25.0101C33.5305 25.2901 33.4305 25.5601 33.3205 25.8301C33.1805 26.2567 33.0505 26.6767 32.9305 27.0901C32.812 27.4859 32.7514 27.8968 32.7505 28.3101L32.5905 28.8401C32.4652 29.0443 32.2896 29.2131 32.0805 29.3301C31.8705 29.4401 31.6805 29.5301 31.4905 29.6101C31.2815 29.6834 31.0881 29.7954 30.9205 29.9401L30.8005 30.4701L30.1805 30.5501C29.8305 30.6301 29.5805 30.6901 29.4305 30.7101C29.2609 30.7265 29.0901 30.7265 28.9205 30.7101H28.3905C28.0705 30.3901 27.8005 30.1401 27.6005 29.9601C27.3846 29.774 27.1461 29.6161 26.8905 29.4901L26.6405 29.1701C26.5456 28.9841 26.4783 28.7854 26.4405 28.5801C26.4405 28.4001 26.3705 28.2201 26.3205 28.0301C26.2961 27.7673 26.2104 27.5138 26.0705 27.2901L25.4805 26.6601ZM38.4805 16.0801C38.1005 16.6201 37.7305 17.1901 37.3805 17.7901C37.5635 17.7755 37.7474 17.7755 37.9305 17.7901C38.1137 17.7993 38.2973 17.7993 38.4805 17.7901C39.4338 17.7301 40.3138 17.6601 41.1205 17.5801C42.0099 17.4911 42.8944 17.3576 43.7705 17.1801C43.5505 16.1801 43.3105 15.1801 43.0605 14.1001C42.8105 13.0201 42.5205 12.0101 42.2205 10.9501L42.0205 11.3601C41.3262 12.109 40.6751 12.897 40.0705 13.7201C39.4965 14.4417 38.9751 15.2036 38.5105 16.0001L38.4805 16.0801Z" fill="#010101"/>
<path d="M57.3583 15.2201C57.2187 14.4417 57.1751 13.6491 57.2283 12.8601C57.2883 12.0501 57.3183 11.2601 57.3183 10.5001C57.315 9.71778 57.2649 8.93639 57.1683 8.16008C57.0783 7.33008 56.9983 6.54008 56.9283 5.78008C56.8589 5.08236 56.8322 4.38105 56.8483 3.68008C56.8358 3.17438 56.9242 2.67126 57.1083 2.20008C57.2959 1.80481 57.5774 1.46148 57.9283 1.20008C58.2592 0.962442 58.5703 0.698235 58.8583 0.410078C59.2066 0.450862 59.5451 0.552399 59.8583 0.710078C60.1341 0.854302 60.3815 1.04744 60.5883 1.28008C60.7636 1.49592 60.9021 1.73918 60.9983 2.00008C61.0878 2.23263 61.1087 2.48602 61.0583 2.73008C61.7372 3.13399 62.3044 3.70118 62.7083 4.38008C63.1419 5.09205 63.4782 5.85886 63.7083 6.66008C63.9446 7.51769 64.1052 8.39439 64.1883 9.28008C64.2883 10.2001 64.3683 11.1101 64.4383 12.0101C64.5083 12.9101 64.5683 13.7501 64.6383 14.5501C64.6916 15.2622 64.8224 15.9663 65.0283 16.6501C66.215 14.9101 67.215 13.3701 68.0283 12.0301C68.8416 10.6901 69.675 9.40008 70.5283 8.16008C71.3783 6.93008 72.3183 5.67008 73.3583 4.40008C74.6171 2.89279 75.9521 1.4509 77.3583 0.0800781C77.6395 0.114587 77.9151 0.185167 78.1783 0.290078L78.7483 0.530078C78.9444 0.612337 79.149 0.672703 79.3583 0.710078C79.6529 0.759126 79.9536 0.759126 80.2483 0.710078C80.3883 1.04008 80.4883 1.28008 80.5583 1.42008C80.6283 1.56008 80.6883 1.72008 80.7383 1.85008C80.7883 1.98008 80.8583 2.16008 80.9483 2.38008L81.3083 3.38008C81.396 3.50507 81.4319 3.6592 81.4083 3.81008C81.4008 3.96478 81.3807 4.11862 81.3483 4.27008C81.3349 4.37967 81.3349 4.49049 81.3483 4.60008C81.3483 4.68008 81.4483 4.68008 81.6183 4.60008C81.5162 5.04144 81.3367 5.46124 81.0883 5.84008C80.8327 6.23032 80.7164 6.69546 80.7583 7.16008C80.0283 8.16008 79.2183 9.16008 78.3183 10.1601C77.4183 11.1601 76.5283 12.2701 75.6283 13.3901C74.7283 14.5101 73.8783 15.6901 73.0483 16.8901C72.2345 18.1067 71.5476 19.4034 70.9983 20.7601C70.9333 20.7551 70.868 20.7632 70.8062 20.7838C70.7444 20.8044 70.6873 20.8371 70.6383 20.8801C70.5486 20.9656 70.4712 21.0632 70.4083 21.1701L70.2083 21.4901C70.1699 21.5466 70.1174 21.592 70.056 21.6218C69.9946 21.6517 69.9264 21.6649 69.8583 21.6601C69.7806 22.5621 69.432 23.4197 68.8583 24.1201C68.3281 24.8374 67.7358 25.5066 67.0883 26.1201C67.133 26.2935 67.1598 26.4711 67.1683 26.6501C67.1781 26.7866 67.1781 26.9236 67.1683 27.0601C67.1683 27.1901 67.1683 27.3401 67.0983 27.4901C67.0801 27.673 67.0801 27.8572 67.0983 28.0401C66.8694 28.638 66.5302 29.1875 66.0983 29.6601C65.7418 30.0747 65.3068 30.4145 64.8183 30.6601C64.3665 30.8735 63.8649 30.9592 63.3679 30.9081C62.8708 30.857 62.3972 30.6709 61.9983 30.3701C61.8033 30.2586 61.6359 30.1049 61.5083 29.9201C61.3683 29.7301 61.2283 29.5501 61.0783 29.3701C60.9283 29.1901 60.7783 29.0301 60.6283 28.8801C60.4779 28.7289 60.2868 28.6247 60.0783 28.5801C60.1286 28.2956 60.1286 28.0045 60.0783 27.7201C60.0439 27.445 59.9836 27.1738 59.8983 26.9101C59.8308 26.6959 59.7367 26.4909 59.6183 26.3001C59.5083 26.1301 59.3983 26.0501 59.2883 26.0501C59.1783 25.3701 59.0383 24.6301 58.8583 23.8301C58.6783 23.0301 58.5083 22.2401 58.3283 21.4501C58.1483 20.6601 58.0083 19.8901 57.9083 19.1301C57.8204 18.4236 57.8003 17.7104 57.8483 17.0001C57.8746 16.6943 57.8084 16.3877 57.6583 16.1201C57.4991 15.836 57.3972 15.5234 57.3583 15.2001" fill="#010101"/>
<path d="M80.7609 29.1502C80.5483 28.9283 80.3877 28.6618 80.2909 28.3702C80.2354 28.209 80.1473 28.0609 80.032 27.9353C79.9167 27.8097 79.7768 27.7092 79.6209 27.6402C79.5709 27.2302 79.4909 26.7602 79.4009 26.2402C79.3109 25.7202 79.2109 25.1602 79.1109 24.6102C79.0109 24.0602 78.9509 23.4902 78.9109 22.9402C78.8787 22.4284 78.9089 21.9146 79.0009 21.4102C79.0567 21.1682 79.1476 20.9357 79.2709 20.7202L79.6309 20.0902C79.7516 19.8921 79.8489 19.6807 79.9209 19.4602C79.9755 19.2469 79.9755 19.0234 79.9209 18.8102C79.9927 18.8016 80.06 18.7711 80.1137 18.7228C80.1674 18.6744 80.2049 18.6106 80.2209 18.5402C80.2209 18.3902 80.3909 18.3502 80.6109 18.4002C80.8009 17.8002 81.0009 17.2502 81.2209 16.7302C81.4409 16.2102 81.6709 15.7302 81.9109 15.2202L82.6709 13.7402C82.9416 13.1917 83.1787 12.6273 83.3809 12.0502C82.95 11.6615 82.6087 11.1838 82.3809 10.6502C82.1833 10.1536 82.0262 9.64196 81.9109 9.12016C81.8009 8.60185 81.7208 8.07765 81.6709 7.55016C81.6071 7.00504 81.4967 6.4664 81.3409 5.94016C81.6524 5.46716 82.0532 5.05953 82.5209 4.74016C82.9825 4.43459 83.4795 4.18611 84.0009 4.00016C84.5886 3.78382 85.1943 3.61985 85.8109 3.51016C86.4609 3.39016 87.1509 3.25016 87.8909 3.08016C89.1909 2.68016 90.3609 2.36016 91.3909 2.13016C92.4209 1.90016 93.3909 1.71016 94.3909 1.56016C95.3909 1.41016 96.3909 1.27016 97.3909 1.15016C98.3909 1.03016 99.6709 0.840156 101.061 0.600156C101.066 0.633722 101.083 0.664389 101.108 0.68646C101.134 0.70853 101.167 0.720504 101.201 0.720156H101.461C101.5 0.825932 101.576 0.913372 101.676 0.965211C101.776 1.01705 101.892 1.02952 102.001 1.00016C102.006 0.923584 102.006 0.846728 102.001 0.770156C101.997 0.710235 101.997 0.650077 102.001 0.590156C102.077 0.578936 102.155 0.578936 102.231 0.590156L102.471 0.670156C102.498 0.687003 102.529 0.695934 102.561 0.695934C102.593 0.695934 102.624 0.687003 102.651 0.670156C102.711 0.670156 102.721 0.540156 102.651 0.410156C102.964 0.963052 103.394 1.44087 103.911 1.81016C104.444 2.20254 105.017 2.53772 105.621 2.81016C105.644 2.98604 105.644 3.16427 105.621 3.34016C105.612 3.44213 105.592 3.5428 105.561 3.64016C105.55 3.74988 105.55 3.86043 105.561 3.97016C105.57 4.14242 105.597 4.31329 105.641 4.48016C105.266 5.14297 104.763 5.72433 104.161 6.19016C103.62 6.58531 103.023 6.89866 102.391 7.12016C101.741 7.34434 101.071 7.50836 100.391 7.61016L98.2809 7.96016C97.5441 8.08369 96.816 8.25404 96.1009 8.47016C95.364 8.6892 94.6583 9.00175 94.0009 9.40016C93.8132 9.32644 93.6124 9.2924 93.4109 9.30016C93.2253 9.3198 93.0415 9.35322 92.8609 9.40016L92.2309 9.57016C91.9565 9.62049 91.6753 9.62049 91.4009 9.57016C91.181 9.75916 90.9212 9.89592 90.6409 9.97016L89.7709 10.2202C89.8963 10.4997 89.9578 10.8038 89.9509 11.1102C89.9343 11.3741 89.9683 11.6389 90.0509 11.8902C91.3116 12.0048 92.5802 12.0048 93.8409 11.8902C95.2209 11.7602 96.5809 11.6802 97.9109 11.6202C97.9337 11.6651 97.9456 11.7148 97.9456 11.7652C97.9456 11.8156 97.9337 11.8652 97.9109 11.9102C97.8788 11.9487 97.8551 11.9935 97.8413 12.0417C97.8275 12.0899 97.824 12.1405 97.8309 12.1902C98.0844 12.3653 98.316 12.5701 98.5209 12.8002C98.7409 13.0502 98.9609 13.2802 99.1909 13.5102C99.4 13.7321 99.639 13.924 99.9009 14.0802C100.161 14.2318 100.461 14.2982 100.761 14.2702C100.894 14.5387 100.989 14.8249 101.041 15.1202C101.099 15.4384 101.057 15.7667 100.921 16.0602C100.381 16.4135 99.8509 16.7735 99.3309 17.1402C98.8196 17.5075 98.2851 17.8415 97.7309 18.1402C97.1523 18.4508 96.5421 18.6989 95.9109 18.8802C95.2253 19.0746 94.5126 19.1556 93.8009 19.1202H93.4509C93.3227 19.1068 93.2029 19.0504 93.1109 18.9602C92.7693 19.1005 92.3969 19.1488 92.0309 19.1002C91.6517 19.0526 91.2667 19.1008 90.9109 19.2402C90.4816 19.1006 90.0322 19.033 89.5809 19.0402C89.1329 19.0466 88.6869 18.979 88.2609 18.8402C87.7327 19.5334 87.242 20.2545 86.7909 21.0002C86.3431 21.787 85.9617 22.6098 85.6509 23.4602C86.5665 23.6088 87.4935 23.6757 88.4209 23.6602C89.1509 23.6602 89.8409 23.5802 90.4909 23.5002L92.4909 23.2502C93.3349 23.1682 94.1834 23.1415 95.0309 23.1702C95.7722 22.8288 96.5613 22.6028 97.3709 22.5002C98.2111 22.4094 99.0412 22.2421 99.8509 22.0002C100.127 22.0806 100.372 22.2448 100.551 22.4702L101.101 23.1602C101.26 23.3748 101.441 23.5725 101.641 23.7502C101.743 23.8322 101.864 23.8893 101.992 23.9171C102.12 23.9449 102.254 23.9425 102.381 23.9102C102.512 24.0457 102.602 24.2156 102.641 24.4002C102.641 24.5902 102.721 24.7702 102.761 24.9302C102.795 25.0725 102.86 25.2056 102.951 25.3202C103.031 25.4202 103.181 25.4502 103.401 25.4202C102.983 26.335 102.396 27.1628 101.671 27.8602C101.034 28.4265 100.303 28.8766 99.5109 29.1902C98.6421 29.5176 97.74 29.7489 96.8209 29.8802C95.8209 30.0302 94.7309 30.2102 93.5009 30.4302C93.2547 30.492 92.9971 30.492 92.7509 30.4302C92.5481 30.3614 92.335 30.3276 92.1209 30.3302C91.3609 30.4602 90.4609 30.6002 89.4109 30.7302C88.3668 30.8671 87.3137 30.9239 86.2609 30.9002C85.2292 30.8723 84.2035 30.7349 83.2009 30.4902C82.289 30.2746 81.4484 29.8268 80.7609 29.1902" fill="#010101"/>
<path d="M97.7483 37.3601C97.8459 36.9304 97.9866 36.5116 98.1683 36.1101C98.1683 36.0401 97.9483 35.9801 97.8783 35.9401C97.8083 35.9001 97.5183 35.7801 97.4583 35.7501C97.129 35.6566 96.7953 35.5799 96.4583 35.5201C93.8783 35.5201 92.2183 34.7301 89.8683 34.6601C87.5183 34.5901 84.8683 34.9001 82.4083 34.8001C81.0783 34.8001 80.0083 34.5601 78.5683 34.5101C77.1283 34.4601 75.3283 34.5601 73.7783 34.5101H73.4783C73.3486 34.5228 73.218 34.5228 73.0883 34.5101L71.4683 34.4201C70.9772 34.3673 70.4808 34.3943 69.9983 34.5001C69.3048 34.3806 68.602 34.3237 67.8983 34.3301H65.4883C65.0183 34.3301 64.7283 34.1901 64.2883 34.1901C63.3883 34.1901 61.7983 33.8901 60.8083 33.9701C59.8183 34.0501 50.9783 34.1501 50.0683 34.3101C49.4183 34.4301 48.8083 34.5701 48.2183 34.7301L41.2883 34.4601C40.6683 34.4601 40.0883 34.5001 39.5483 34.5801C38.8388 34.6611 38.1344 34.7813 37.4383 34.9401C35.4384 34.8255 33.4326 34.8622 31.4383 35.0501C29.1783 35.2434 26.9183 35.4634 24.6583 35.7101C22.7583 35.9301 21.0083 36.1101 19.4183 36.2401C19.0286 36.3766 18.6312 36.4902 18.2283 36.5801C18.0583 36.5801 17.7783 36.6501 17.3983 36.6901L16.9083 36.7501C16.7483 36.7501 16.5283 36.7501 16.2483 36.8601C15.4423 37.0967 14.6201 37.2738 13.7883 37.3901C13.1483 37.5401 12.7383 37.5901 12.1183 37.7001L9.44827 38.0001C9.1836 38.0325 8.9265 38.1103 8.68827 38.2301C8.07379 38.3338 7.46605 38.4741 6.86827 38.6501L5.16827 39.4401C4.59827 39.7001 4.31827 39.8701 4.32827 39.9401C4.0849 40.1965 3.94922 40.5366 3.94922 40.8901C3.94922 41.2436 4.0849 41.5837 4.32827 41.8401L4.56827 42.3901C5.56827 42.3901 5.56827 42.1901 5.81827 42.2401C6.10507 42.2911 6.38883 42.3579 6.66827 42.4401C7.24827 42.3901 7.81827 42.3401 8.35827 42.2701H8.49827C8.79513 42.365 9.10947 42.3924 9.41827 42.3501C17.2716 41.4501 25.1316 40.7101 32.9983 40.1301H34.1183C36.1183 40.0901 38.2083 39.9434 40.3883 39.6901C40.6883 39.6901 45.4783 39.6901 45.7683 39.6901C45.7941 39.6569 45.8143 39.6198 45.8283 39.5801C48.1383 39.3101 55.4683 39.3801 57.4783 39.3501C59.9583 39.3501 63.4183 38.8101 65.9783 39.1801C66.8883 39.1801 67.7683 39.1301 68.5983 39.1801C70.1183 39.2301 71.6683 39.2901 73.2383 39.3701L75.8283 39.5201C76.9142 39.5781 78.0024 39.5781 79.0883 39.5201C79.3619 39.6008 79.6436 39.6511 79.9283 39.6701H80.7683H81.4383C81.7244 39.6802 82.009 39.717 82.2883 39.7801C83.3883 39.7801 84.3383 39.7801 85.1483 39.7801L87.5783 39.9201L89.8383 40.0501C90.6183 40.0501 91.5083 40.1101 92.4983 40.1101C92.7703 40.2028 93.0522 40.2632 93.3383 40.2901C94.1807 40.2853 95.016 40.1365 95.8083 39.8501L95.9983 39.7601C96.9083 39.7601 97.4583 39.9401 97.7383 39.2901L97.9983 38.5001C97.9983 38.5001 97.9183 39.0801 97.8983 39.0401C98.0621 38.4848 98.0231 37.8893 97.7883 37.3601" fill="#010101"/>
</svg>
