<svg width="133" height="176" viewBox="0 0 133 176" fill="none" xmlns="http://www.w3.org/2000/svg">
<g clip-path="url(#clip0)">
<path d="M48.8675 140.411L12.4093 135.055C12.4093 135.055 4.70959 113.494 4.97908 97.6084C4.95471 85.9869 7.88196 74.5489 13.4873 64.3633C17.1062 57.8425 19.9037 51.1166 29.5541 47.5166C32.2672 46.439 35.1716 45.9241 38.0905 46.0034C41.0094 46.0827 43.8816 46.7545 46.532 47.9778C46.532 47.9778 36.779 54.4603 35.9577 58.5343C35.1364 62.6082 31.1582 70.4615 29.939 75.4194C28.7199 80.3773 29.7594 95.392 29.7594 95.392C29.7594 95.392 32.7879 106.922 34.8925 108.575C36.9971 110.227 47.4944 115.403 47.9564 115.8C48.4184 116.197 53.4489 119.644 53.4489 119.644C53.4489 119.644 53.6927 126.331 53.8852 126.6C56.5401 127.027 59.2333 127.169 61.9186 127.023C62.8811 126.831 83.5035 126.831 83.5035 126.831L88.0977 123.615L88.4955 117.722L91.0621 116.108L92.6662 120.553L92.7817 137.771L62.8811 142.921L48.8675 140.411Z" fill="#5FB463"/>
<path d="M62.9582 112.738C56.4262 112.136 49.843 111.739 43.3495 110.804C43.9013 110.881 42.6822 110.701 42.5154 110.663C41.8481 110.56 41.2321 110.445 40.5263 110.317C39.243 110.074 37.9597 109.805 36.5866 109.497C34.0276 108.927 31.5272 108.121 29.1179 107.089C25.2094 105.385 21.742 102.813 18.9799 99.5684C16.2917 96.4206 14.273 92.7599 13.0464 88.8088C11.8198 84.8578 11.411 80.6989 11.8448 76.5852C12.6816 71.3602 14.4183 66.3193 16.978 61.6858C19.2237 57.2147 21.9058 52.8845 26.1791 50.1557C35.5471 44.0704 47.5331 46.7095 55.3483 53.9991C55.5781 54.2542 55.8591 54.4581 56.1731 54.5978C56.487 54.7374 56.8269 54.8095 57.1706 54.8095C57.5142 54.8095 57.8541 54.7374 58.168 54.5978C58.482 54.4581 58.763 54.2542 58.9928 53.9991C59.3601 53.3444 59.4855 52.5818 59.3472 51.8443C59.2088 51.1068 58.8154 50.4411 58.2357 49.9636C50.2665 42.5203 38.5885 38.7666 28.0271 42.5843C22.8215 44.4736 18.3839 48.0213 15.3995 52.6795C12.1185 57.6859 9.58122 63.1403 7.8666 68.8729C5.81448 76.186 6.07129 83.9529 8.60201 91.115C11.1327 98.2771 15.8143 104.486 22.0084 108.895C26.6539 112.05 31.893 114.229 37.4079 115.301C46.1343 117.222 55.1301 117.671 63.9976 118.491C65.4991 118.631 66.2947 116.966 66.0766 115.698C65.9648 114.927 65.5964 114.216 65.0308 113.679C64.4652 113.142 63.7352 112.811 62.9582 112.738Z" fill="#111111"/>
<path d="M57.5299 116.018C59.0314 125.55 59.519 135.26 61.7391 144.766L65.3066 142.114C55.7205 140.833 46.1856 139.296 36.6508 137.682C32.0566 136.896 27.4582 136.161 22.8555 135.478C20.1734 135.081 17.4785 134.71 14.7964 134.351C13.8468 134.236 13.1923 134.351 12.8715 133.723C12.3088 132.422 11.8287 131.087 11.4342 129.726C7.93228 119.229 6.09639 108.249 5.99306 97.1856C5.8807 91.996 6.24583 86.807 7.08385 81.6841C7.70117 78.5741 8.63423 75.535 9.86859 72.6138C11.4237 68.6527 13.2947 64.8227 15.4637 61.1606C16.4083 59.5198 17.463 57.9447 18.6206 56.4461C19.1126 55.8312 19.6396 55.2452 20.1991 54.6909C20.4685 54.4347 20.738 54.1785 21.0332 53.9351C21.3284 53.6916 20.969 53.9351 21.5722 53.5507C24.8959 51.4625 20.892 48.0419 18.1458 49.7842C15.3553 51.7655 13.0229 54.3211 11.3059 57.2788C9.09594 60.7241 7.1731 64.3447 5.55674 68.1042C3.98762 71.5565 2.70015 75.1296 1.70687 78.7887C0.64038 83.4851 0.0895939 88.2834 0.064264 93.0988C-0.29838 104.832 1.23557 116.546 4.6071 127.792C5.26335 130.579 6.20511 133.293 7.41751 135.888C8.84196 138.514 11.5882 138.732 14.2703 139.078C19.6344 139.778 24.99 140.573 30.337 141.461C41.6043 143.306 52.8331 145.304 64.1774 146.752C65.4606 146.919 68.1684 145.932 67.7449 144.1C65.512 134.671 64.9987 124.986 63.5229 115.429C63.0481 112.316 57.1064 112.931 57.5299 116.018Z" fill="#111111"/>
<path d="M9.83015 138.873L6.23694 148.712L11.9091 149.43C12.6534 146.133 13.2779 142.815 13.7827 139.475C13.7865 139.157 13.7125 138.842 13.5672 138.559C13.4219 138.275 13.2095 138.031 12.9485 137.848C12.4565 137.526 11.8816 137.353 11.2931 137.349C10.6007 137.32 9.91568 137.499 9.32578 137.862C8.73587 138.225 8.26801 138.755 7.98222 139.386C7.05683 141.938 6.52882 144.617 6.4166 147.329C6.33961 148.802 7.98222 149.609 9.27834 149.455C10.0155 149.426 10.7204 149.145 11.276 148.66C11.8315 148.176 12.2043 147.516 12.3326 146.791C12.3862 145.638 12.5235 144.49 12.7432 143.357C12.7432 143.562 12.6534 143.767 12.6149 143.985C12.8691 142.675 13.234 141.39 13.7057 140.141L7.90522 140.052C7.61006 142.025 7.27641 143.998 6.89142 145.958L7.00692 145.343C6.78876 146.483 6.54493 147.61 6.28827 148.751C6.18349 149.052 6.15097 149.373 6.19332 149.689C6.23566 150.005 6.3517 150.307 6.5321 150.57C6.97266 151.091 7.5981 151.421 8.27737 151.492C9.02733 151.592 9.78951 151.449 10.4523 151.085C11.115 150.72 11.6436 150.154 11.9604 149.468C13.1581 146.188 14.3559 142.909 15.5536 139.629C15.6459 139.315 15.665 138.985 15.6095 138.663C15.5539 138.341 15.4252 138.036 15.2331 137.771C15.0411 137.506 14.7908 137.289 14.5016 137.136C14.2123 136.983 13.8918 136.898 13.5645 136.887C12.8143 136.786 12.0513 136.928 11.3881 137.292C10.7249 137.657 10.1967 138.224 9.88148 138.912" fill="#111111"/>
<path d="M61.521 141.282C61.521 144.988 61.4868 148.687 61.4184 152.376C62.8557 154.358 64.2972 156.335 65.7431 158.308C64.9848 155.566 64.7412 152.708 65.0244 149.878L60.6741 143.472C60.734 146.761 60.8024 150.053 60.8794 153.35C60.9336 153.983 61.1078 154.601 61.3927 155.169C61.8018 156.115 62.3003 157.02 62.8813 157.872C63.302 158.566 63.8255 159.192 64.4341 159.73C64.5881 159.845 65.2041 160.268 65.1912 159.73C65.1912 156.45 65.0501 153.158 64.9859 149.865C64.9315 149.226 64.7528 148.604 64.4598 148.033C64.0388 147.096 63.5319 146.2 62.9455 145.356C62.5351 144.662 62.0249 144.031 61.4312 143.485C61.2387 143.331 60.7254 142.96 60.6741 143.485C60.3679 146.616 60.6331 149.776 61.4569 152.812C61.9491 154.421 62.7225 155.93 63.7411 157.27C64.1021 157.812 64.5336 158.303 65.0244 158.731C65.1912 158.859 65.7687 159.269 65.7816 158.731C65.7816 155.028 65.8457 151.326 65.8714 147.623C65.8294 146.988 65.6545 146.368 65.3581 145.804C64.9401 144.863 64.4285 143.966 63.831 143.127C63.4103 142.433 62.8868 141.806 62.2782 141.269C62.1114 141.141 61.5339 140.731 61.521 141.269" fill="#111111"/>
<path d="M91.0109 138.117L92.2942 142.178C92.4995 142.845 92.7049 143.46 92.923 144.177C93.0257 144.523 93.1412 144.869 93.2567 145.215C93.475 145.892 93.7453 146.552 94.0652 147.188C94.9227 149.001 96.0283 150.687 97.3504 152.197C97.5557 152.415 98.6337 153.67 99.224 153.055C99.4345 152.759 99.5709 152.416 99.6218 152.056C99.7309 151.205 99.7309 150.344 99.6218 149.494C99.5613 148.101 99.2976 146.724 98.839 145.407C97.985 143.149 96.7526 141.052 95.1944 139.206C94.9989 138.932 94.7705 138.682 94.5143 138.463C94.2804 138.198 93.9971 137.98 93.6802 137.823H93.3208C93.22 137.954 93.1571 138.111 93.139 138.276C93.1209 138.441 93.1483 138.607 93.2182 138.758L94.2191 143.242C94.5142 144.317 94.9454 145.35 95.5024 146.316C96.1488 147.577 96.9136 148.774 97.7867 149.891L98.5182 150.749C98.8357 151.139 99.2284 151.462 99.6731 151.697H100.097C100.197 151.565 100.26 151.409 100.278 151.244C100.297 151.079 100.269 150.912 100.199 150.762L99.1983 146.265L93.5133 139.642L93.5903 139.86C93.77 140.372 93.3337 138.886 93.4363 139.347C93.4363 139.552 93.539 139.744 93.5775 139.949C93.6545 140.411 93.7187 140.872 93.7572 141.333V140.731C93.8022 141.358 93.8022 141.987 93.7572 142.614C93.7637 143.053 93.6807 143.489 93.5133 143.895L93.6802 143.575C93.6539 143.642 93.6105 143.701 93.5542 143.746C93.4978 143.791 93.4306 143.82 93.3593 143.831H93.6802C93.6419 143.837 93.603 143.837 93.5647 143.831L98.6978 151.415C97.9022 148.943 97.1194 146.457 96.3366 143.985C95.8939 142.759 95.3172 141.587 94.617 140.487C94.0009 139.343 93.256 138.273 92.3969 137.297L91.7552 136.682C91.6559 136.55 91.5218 136.448 91.3678 136.387C91.2138 136.326 91.0459 136.308 90.8826 136.337C90.4591 136.734 90.8826 137.733 91.0238 138.117" fill="#111111"/>
<path d="M91.9218 28.428C91.6041 29.724 91.7731 31.0913 92.3966 32.2714C93.1514 33.6311 94.3524 34.6897 95.7973 35.2692C96.3965 35.5405 97.04 35.7011 97.6966 35.7432C98.4716 35.7385 99.2338 35.546 99.9178 35.1823C100.602 34.8185 101.187 34.2944 101.623 33.655C102.554 32.3665 102.954 30.7707 102.74 29.1967C102.516 27.5983 101.695 26.1433 100.443 25.1227C99.6894 24.4674 98.7443 24.072 97.7479 23.9954C96.1652 24.1169 94.6839 24.8198 93.5901 25.9683C92.761 26.5438 92.1685 27.3993 91.9218 28.3768" fill="#5FB463"/>
<path d="M53.7699 124.602C65.6222 126.23 77.6689 123.606 87.7642 117.197L83.4139 116.274C82.6781 126.609 81.9424 136.947 81.2066 147.29L80.6677 154.887C80.5393 156.642 80.3982 158.731 82.3231 159.563C83.9144 160.255 86.3141 159.96 88.0466 159.922C90.0357 159.922 92.0119 159.704 94.001 159.576C95.2843 159.499 97.1194 158.897 97.6199 157.501C98.1204 156.104 96.9013 155.336 95.6821 155.412C92.2159 155.686 88.7371 155.767 85.2618 155.656L86.5451 155.925C86.6863 155.925 86.4039 156.002 86.4168 155.72C86.4296 155.438 86.4168 155.297 86.4168 155.092C86.4168 154.144 86.5451 153.183 86.6221 152.235C86.7376 150.544 86.8531 148.866 86.9814 147.111L87.7514 136.349L89.2529 115.134C89.4069 112.995 85.9933 113.545 84.9538 114.212C76.6154 119.581 66.6341 121.811 56.7985 120.502C56.0612 120.38 55.3046 120.452 54.6043 120.713C53.904 120.974 53.2844 121.414 52.8075 121.988C52.6122 122.195 52.4786 122.452 52.4218 122.73C52.3651 123.008 52.3873 123.297 52.486 123.563C52.5847 123.83 52.7561 124.063 52.9806 124.238C53.2052 124.412 53.4742 124.52 53.7571 124.55" fill="#111111"/>
<path d="M78.0881 121.168C88.654 118.056 98.8882 113.915 108.643 108.805L105.076 104.078C99.5232 113.793 92.379 122.51 83.9399 129.867C81.8738 131.66 79.7179 133.326 77.5235 134.991C76.171 135.826 74.9585 136.868 73.9303 138.079C73.4436 139.06 73.0401 140.08 72.724 141.128C72.123 142.707 71.442 144.255 70.6835 145.766C69.9007 147.265 73.6479 151.748 74.4564 150.224C75.2106 148.713 75.8874 147.165 76.484 145.586L77.2925 143.562C77.3695 143.357 77.9213 142.281 77.5235 142.781C78.7399 141.511 80.1058 140.392 81.5915 139.45C83.8244 137.771 86.006 136.003 88.0849 134.133C96.339 126.767 103.342 118.114 108.823 108.511C109.529 107.23 106.731 103.002 105.255 103.783C95.4959 108.893 85.2575 113.034 74.6874 116.146C73.5068 116.492 76.176 121.693 78.0624 121.13" fill="#111111"/>
<path d="M78.5119 89.0761C83.4141 90.8313 88.1879 92.6248 92.8463 94.8027C93.5013 94.9847 94.1827 95.054 94.861 95.0077C95.9767 95.0655 97.0947 95.0655 98.2104 95.0077C99.0728 94.9743 99.9311 94.8715 100.777 94.7002C100.931 94.7002 101.624 94.5209 101.2 94.3159C96.5421 92.0868 91.7041 90.2932 86.8662 88.5381C86.2085 88.3694 85.53 88.2961 84.8514 88.3203C83.7344 88.2818 82.6161 88.3075 81.502 88.3971C80.6395 88.4298 79.7812 88.5327 78.9354 88.7046C78.8071 88.7046 78.0371 88.9096 78.4991 89.0889" fill="#111111"/>
<path d="M67.4111 145.189C76.5454 143.088 85.8306 141.704 95.1815 141.051C96.5931 140.949 97.8507 140.257 97.748 138.681C97.5342 131.071 97.1449 123.466 96.5802 115.864C96.3749 112.931 90.4076 112.623 90.6515 115.864C91.2075 123.466 91.5925 131.075 91.8064 138.694L94.373 136.324C84.5181 136.994 74.731 138.433 65.1012 140.628C64.7807 140.67 64.474 140.784 64.2046 140.962C63.9351 141.14 63.71 141.377 63.5465 141.655C63.383 141.933 63.2854 142.245 63.2613 142.567C63.2372 142.888 63.2871 143.211 63.4072 143.511C63.7941 144.154 64.3746 144.659 65.066 144.954C65.7573 145.248 66.5242 145.317 67.2571 145.151" fill="#111111"/>
<path d="M78.6146 25.2124C77.2425 35.022 76.5479 44.9143 76.5356 54.819C76.5723 54.8668 76.6226 54.9021 76.68 54.9205C76.7373 54.9388 76.7989 54.9392 76.8565 54.9215L128.073 58.3421C128.727 58.3421 131.473 57.7272 131.525 56.8945C132.44 43.4683 132.932 30.0209 133 16.5521C132.964 16.5043 132.913 16.469 132.856 16.4506C132.799 16.4323 132.737 16.4319 132.68 16.4496L83.4141 13.2596C82.8109 13.2596 79.9235 13.9001 79.9492 14.7072C80.0904 19.1655 80.2443 23.6751 80.3855 28.0821C80.3855 28.3127 84.2354 27.6593 84.2354 26.7369C84.0942 22.2787 83.9402 17.7691 83.7991 13.3621L80.347 14.8097L115.24 17.0645L123.889 17.6282L127.944 17.9357C129.061 17.9357 129.138 18.1535 129.227 19.2168C129.227 20.0495 129.227 20.9207 129.227 21.779C129.159 27.4672 129.018 33.1468 128.804 38.8179C128.564 45.326 128.222 51.834 127.777 58.3421L131.242 56.8945L90.9085 54.2041L85.7753 53.8582L83.2087 53.6917C82.7083 53.6917 81.04 53.8198 80.6422 53.5251C79.8722 52.923 80.3598 50.0789 80.3727 49.1437C80.3727 47.4654 80.4625 45.7744 80.5395 44.0192C80.8475 37.2976 81.472 30.5931 82.4131 23.9057C82.4131 23.9057 78.7814 24.2003 78.6274 25.2508" fill="#111111"/>
<path d="M84.8126 15.0403C90.1896 14.2235 95.4964 12.9986 100.687 11.3763C103.895 10.3642 111.774 8.81409 109.991 3.80492C109.633 2.78955 108.997 1.8947 108.156 1.22208C107.314 0.549456 106.3 0.126052 105.23 -4.97513e-06C104.21 -0.0986966 103.187 0.148528 102.325 0.701753C101.464 1.25498 100.814 2.08192 100.482 3.04906C99.9297 5.12447 101.726 6.71305 103.343 7.6867C105.615 8.96782 108.014 10.1208 110.363 11.2354C115.892 13.8043 121.611 15.9458 127.469 17.641C129.535 18.2431 131.563 15.0788 129.125 14.3485C124.567 13.0315 120.097 11.4312 115.74 9.55714C113.61 8.64754 111.505 7.66108 109.439 6.62337C108.387 6.08531 107.334 5.53443 106.295 4.97073C105.897 4.75294 104.293 3.99708 104.242 3.48464C104.242 3.24122 105.525 4.16363 105.833 4.48391C106.564 5.49599 106.398 5.76503 105.409 6.20061C103.222 7.095 100.985 7.86491 98.7106 8.50662C94.0527 9.89559 89.3008 10.9488 84.4918 11.6582C82.1177 12.0169 82.2332 15.4247 84.8126 15.0403Z" fill="#111111"/>
<path d="M124.171 21.1769C122.024 31.5272 121.056 42.0865 121.284 52.6539L122.477 52.1031C109.644 51.249 96.8113 50.2881 83.9784 49.2205L86.545 50.7194C86.9727 40.5303 87.4005 30.3497 87.8283 20.1776L86.6348 20.7157C99.5447 21.826 112.485 22.4324 125.454 22.5349C126.301 22.5349 126.314 21.9712 125.865 21.4459C125.128 20.8027 124.174 20.4637 123.196 20.4979C110.525 20.4125 97.8721 19.8232 85.236 18.7299C84.7355 18.7299 84.0682 18.6659 84.0426 19.2808C83.6062 29.4614 83.1785 39.642 82.7593 49.8227C82.7593 50.6682 84.8125 51.2831 85.3259 51.3344C98.1587 52.3934 110.992 53.3543 123.825 54.2169C124.286 54.2169 125.031 54.3066 125.018 53.6788C124.802 43.2657 125.762 32.8614 127.88 22.663C128.136 21.3818 124.338 20.2288 124.132 21.2409" fill="#111111"/>
<path d="M20.2762 96.3401C20.2762 96.3401 14.5913 106.756 13.8598 107.499C13.1283 108.242 8.98328 112.585 11.4215 115.083C13.8598 117.581 28.9513 118.158 32.2365 117.645C38.3064 116.671 47.3921 114.148 47.3921 114.148C47.3921 114.148 37.4466 105.052 34.7132 103.258C31.9798 101.465 20.2762 96.3401 20.2762 96.3401Z" fill="#5FB463"/>
<path d="M31.9797 101.503L29.0666 100.619C27.8093 98.2553 26.8728 95.735 26.2819 93.1244C25.3451 88.9096 31.0942 88 31.0942 88C31.0942 88 34.1485 84.1566 34.2896 84.5409C34.4308 84.9253 38.332 92.138 38.3063 92.2276L36.4712 96.9806L31.9797 101.503Z" fill="#111111"/>
<path d="M37.6005 74.5611L38.3833 74.8429C39.5768 75.2529 40.7831 75.6244 42.015 75.9575L42.9261 76.2009L43.6448 76.3803L45.3387 76.7518C46.622 77.008 47.8283 77.213 49.0731 77.3923C49.5387 77.4727 49.9946 77.6015 50.4334 77.7767C50.7385 76.1644 51.5525 74.6919 52.7561 73.5746C52.8558 73.4716 52.9756 73.3901 53.108 73.3351C53.2404 73.28 53.3827 73.2525 53.5261 73.2543C53.5915 72.9865 53.7239 72.7396 53.9111 72.5369C54.3117 72.0495 54.8121 71.6533 55.3787 71.3749C55.9453 71.0964 56.5651 70.9423 57.1963 70.9227C58.0882 71.0437 58.934 71.3911 59.653 71.9317C60.372 72.4722 60.94 73.1879 61.3028 74.0102C61.6029 74.5496 61.8521 75.1158 62.0471 75.7013C63.2181 74.6705 64.5964 73.9017 66.0895 73.4465C66.9251 73.2167 67.7896 73.1088 68.6561 73.1262C68.6561 72.9853 68.6561 72.8444 68.6561 72.7163C68.4552 72.5457 68.2938 72.3337 68.1831 72.0948C68.0723 71.8559 68.0147 71.5959 68.0144 71.3326C68.0749 70.5816 68.2843 69.85 68.6304 69.1804C68.8146 68.9199 69.0349 68.687 69.2849 68.4886C69.0667 68.1555 68.8614 67.8096 68.6304 67.4765C65.626 62.8335 61.4233 59.085 56.4648 56.6254C52.8588 54.9728 48.1876 54.7294 44.8382 56.6254C44.9892 57.0278 45.0331 57.4624 44.9656 57.8868C44.8981 58.3111 44.7216 58.7108 44.4533 59.0467C40.8454 63.5176 38.009 68.5573 36.0605 73.9589L37.0102 74.3433L37.6005 74.5611Z" fill="#DCB475"/>
<path d="M51.1775 113.328C53.573 114.071 56.0939 114.325 58.5898 114.074C61.0857 113.823 63.5053 113.072 65.7043 111.867C70.8374 108.818 73.2629 102.733 74.4306 97.1471C75.4639 92.0271 75.4639 86.7528 74.4306 81.6328C73.4985 81.1681 72.6349 80.5775 71.8641 79.8777C71.1729 79.2458 70.5726 78.5215 70.0803 77.7254C68.7838 77.3602 67.4114 77.3602 66.1149 77.7254C65.2669 77.9717 64.4587 78.3384 63.7152 78.8143C63.3181 79.0595 62.9366 79.329 62.5731 79.6214C62.5816 81.103 62.3073 82.5726 61.7646 83.9516C61.2358 85.3703 60.1847 86.5341 58.8259 87.2057C57.5211 87.7513 56.1212 88.0343 54.7065 88.0384C51.3828 88.1665 49.907 84.0926 49.9583 81.3381C49.9583 80.8129 49.9583 80.3004 50.0353 79.7752C49.5369 79.7649 49.0396 79.7221 48.5467 79.6471C43.9972 78.9873 39.5258 77.8713 35.2005 76.3162C34.213 79.6456 33.682 83.0933 33.6221 86.5651C34.4819 85.3993 35.7908 86.642 36.1886 87.5003C36.4658 88.1537 36.5689 88.8675 36.4879 89.5724C36.407 90.2773 36.1447 90.9493 35.7267 91.523L34.3279 93.5216C36.086 102.489 42.1816 110.689 51.1775 113.34" fill="#DCB475"/>
<path d="M81.6299 79.0578C81.4086 79.6948 81.0928 80.2951 80.6931 80.8386C79.0633 82.9524 76.6122 82.6834 74.4948 81.6328C75.528 86.7529 75.528 92.0272 74.4948 97.1472C73.327 102.733 70.8888 108.818 65.7813 111.867C63.5799 113.072 61.1581 113.822 58.6602 114.073C56.1623 114.324 53.6393 114.071 51.2416 113.328C42.1816 110.676 36.086 102.489 34.3279 93.5216L29.0664 100.632C35.2005 112.623 47.9692 120.95 60.5326 121.002C68.0527 121.002 74.482 118.055 78.1522 112.828C81.5786 107.947 83.619 100.978 83.7473 93.7138V93.3807L83.4137 93.5216C82.2114 93.7461 80.9736 93.6935 79.7948 93.3679C79.6921 93.3679 77.2282 92.6505 77.857 92.4711C79.7563 91.9074 81.7069 91.3693 83.6447 90.8056C83.448 86.8401 82.7539 82.9149 81.5786 79.1219" fill="#111111"/>
<path d="M31.8513 74.9966C31.1968 74.7276 29.9392 73.8052 31.107 73.2543C32.4395 72.8506 33.8762 72.9697 35.1237 73.5874L36.0605 73.9589C38.0089 68.5573 40.8453 63.5175 44.4532 59.0467C44.7171 58.706 44.8908 58.3043 44.9581 57.8789C45.0254 57.4534 44.9841 57.0179 44.8382 56.6126C46.6522 55.7425 48.639 55.2907 50.6515 55.2907C52.664 55.2907 54.6508 55.7425 56.4648 56.6126C61.4185 59.0616 65.6206 62.7964 68.6303 67.4252C68.8613 67.7583 69.0667 68.1042 69.2848 68.4373L69.9008 67.9505C71.0454 66.9982 72.4793 66.4608 73.9688 66.4259C74.5559 66.4261 75.1411 66.4906 75.7141 66.6181C73.5327 63.3619 70.9453 60.3958 68.0144 57.7912C66.9107 56.8176 65.7943 55.9208 64.665 55.088C59.0314 50.9628 52.9871 48.5543 47.4048 48.2853C41.3348 47.9778 34.0329 50.9885 32.3133 58.3165C32.2514 58.5603 32.2514 58.8157 32.3133 59.0595L32.4545 59.6232L32.1593 60.1228C25.268 71.7426 23.4458 84.7459 26.9491 95.6739L33.6736 86.5651C33.7407 83.0939 34.2715 79.6472 35.252 76.3162C34.0842 75.8934 32.9421 75.4578 31.8 75.0351" fill="#111111"/>
<path d="M52.7174 82.4527C52.7112 82.3803 52.7112 82.3074 52.7174 82.2349V82.1196C52.7042 82.2303 52.7042 82.3421 52.7174 82.4527Z" fill="#F3F3F3"/>
<path d="M60.5587 77.8279C60.4497 78.3863 60.4497 78.9605 60.5587 79.519L60.4818 79.5062C60.6614 80.1595 61.0592 81.0435 61.765 80.3773C62.0474 80.1083 62.3297 79.8649 62.6377 79.6215C62.6463 81.103 62.3719 82.5726 61.8292 83.9516C61.3004 85.3703 60.2493 86.5341 58.8905 87.2057C57.5857 87.7514 56.1858 88.0344 54.7711 88.0384C51.4474 88.1665 50.0229 84.0926 50.0229 81.3382C50.0999 80.8129 50.0999 80.3005 50.0999 79.7752C50.8571 79.7752 51.5757 79.6215 51.7041 79.0578C51.8324 78.4941 51.1394 78.0585 50.4208 77.7766C50.7259 76.1644 51.5399 74.6919 52.7435 73.5746C52.8432 73.4716 52.963 73.3901 53.0954 73.335C53.2278 73.28 53.3701 73.2525 53.5135 73.2543C53.5819 72.9876 53.714 72.7415 53.8985 72.5369C54.2965 72.0498 54.7946 71.6537 55.3592 71.3752C55.9237 71.0967 56.5415 70.9424 57.1709 70.9227C58.0679 71.0431 58.9188 71.3915 59.6424 71.9343C60.3659 72.4772 60.9377 73.1963 61.3031 74.023C61.5959 74.5598 61.8407 75.1214 62.0345 75.7012C61.7009 75.9745 61.3801 76.2564 61.0721 76.5468C60.7913 76.9214 60.6142 77.3633 60.5587 77.8279Z" fill="#111111"/>
<path d="M68.6689 73.1262C67.8024 73.1088 66.9379 73.2167 66.1023 73.4465C64.6093 73.9017 63.231 74.6705 62.06 75.7012C61.7263 75.966 61.4055 76.2479 61.0975 76.5468C60.8167 76.9214 60.6397 77.3633 60.5842 77.8279C60.4752 78.3863 60.4752 78.9605 60.5842 79.519C60.7254 80.1724 61.1232 81.0563 61.8675 80.3901C62.1498 80.1211 62.4321 79.8777 62.7401 79.6343C63.1037 79.3419 63.4852 79.0723 63.8823 78.8272C64.6285 78.3563 65.436 77.9899 66.282 77.7382C67.5785 77.3731 68.9509 77.3731 70.2474 77.7382C69.3519 76.3621 68.83 74.7772 68.7331 73.139" fill="#111111"/>
<path d="M77.5235 69.7697C77.3053 69.5263 77.4336 69.6928 77.5235 69.7697V69.7697Z" fill="#F3F3F3"/>
<path d="M69.9006 67.9633L69.2846 68.4501C69.0347 68.6485 68.8143 68.8815 68.6301 69.1419C68.2791 69.8233 68.0696 70.5685 68.0142 71.3327C68.0273 71.6013 68.0982 71.864 68.2222 72.1027C68.3463 72.3415 68.5204 72.5508 68.7328 72.7163C68.7328 72.8444 68.7328 72.9853 68.7328 73.1262C68.8298 74.7644 69.3516 76.3493 70.2471 77.7254C70.7394 78.5215 71.3397 79.2458 72.0309 79.8777C72.7994 80.5804 73.6634 81.1713 74.5974 81.6328C76.7149 82.6834 79.1659 82.914 80.7957 80.8385C81.198 80.2967 81.514 79.696 81.7325 79.0578C81.9949 78.31 82.1798 77.5373 82.2843 76.7518C82.4903 75.3157 82.4118 73.8531 82.0533 72.4472C81.6222 71.0013 80.804 69.7003 79.6868 68.6844C78.5697 67.6685 77.196 66.9762 75.7139 66.6822C75.1428 66.5376 74.5575 66.456 73.9686 66.4388C72.4802 66.4796 71.0483 67.0163 69.9006 67.9633ZM72.865 71.1277C72.865 71.1277 73.0832 70.9483 73.1345 70.9227C73.3278 70.7631 73.5291 70.6134 73.7376 70.4743C74.2147 70.1658 74.7274 69.9163 75.2647 69.7313C75.599 69.5985 75.9576 69.5374 76.317 69.5519C76.5374 69.5624 76.7564 69.5924 76.9715 69.6416H76.9972L77.3822 69.7569H77.472C77.3693 69.7569 77.241 69.6031 77.472 69.7569C77.5237 69.8308 77.5708 69.9078 77.6132 69.9875C77.6875 70.1103 77.7519 70.2388 77.8056 70.3718C77.8056 70.4743 77.8056 70.4743 77.8056 70.3718C77.8432 70.4499 77.8733 70.5314 77.8955 70.6152C78.536 72.7549 78.395 75.0521 77.4977 77.0977C77.1792 77.9484 76.5515 78.6483 75.7396 79.0578C75.4182 79.2031 75.0602 79.2478 74.7129 79.1859L74.5204 79.109C74.3536 79.0322 74.3793 79.0194 74.4434 79.109L74.2766 79.0065L73.9558 78.6991C73.8403 78.571 73.7376 78.43 73.635 78.3019C73.5419 78.1613 73.4562 78.0159 73.3783 77.8664L73.1473 77.3155C73.1524 77.2815 73.1524 77.247 73.1473 77.213C73.1495 77.1746 73.1495 77.1361 73.1473 77.0977C72.7775 76.0817 72.633 74.9977 72.7238 73.9205C72.7211 73.6776 72.6671 73.4379 72.5654 73.2172C72.4637 72.9964 72.3165 72.7996 72.1335 72.6394C72.2587 72.0574 72.5693 71.5315 73.019 71.1405L72.865 71.1277ZM77.7415 69.8594C77.6517 69.7825 77.5233 69.616 77.7415 69.8594V69.8594ZM74.1868 78.7247C74.3279 78.8656 74.1868 78.8016 74.1868 78.7247V78.7247Z" fill="#111111"/>
<path d="M51.7422 79.0706C51.8577 78.4941 51.1647 78.0585 50.4589 77.7895C50.0202 77.6143 49.5643 77.4855 49.0986 77.4051C47.8153 77.2258 46.6091 77.0208 45.3643 76.7646L43.6318 76.3802L42.9132 76.2009L42.0021 75.9575C40.7188 75.6244 39.5638 75.2529 38.3703 74.8429L37.5875 74.5611L37.0101 74.3048C36.6892 74.1895 36.3813 74.0486 36.0604 73.9205L35.1236 73.549C33.8761 72.9313 32.4395 72.8121 31.1069 73.2159C29.9391 73.7668 31.1968 74.6892 31.8512 74.9582C32.9934 75.4322 34.1483 75.8678 35.3033 76.2393C39.6286 77.7945 44.0999 78.9104 48.6495 79.5702C49.1467 79.6452 49.6482 79.6879 50.1509 79.6983C50.8952 79.6983 51.6395 79.5574 51.7422 78.9809" fill="#111111"/>
<path d="M38.858 95.5714L34.6488 94.8027C33.8488 91.249 33.5893 87.5953 33.8788 83.9645C34.5333 79.4037 40.1926 87.2826 40.1926 87.2826L38.858 95.5714Z" fill="#DCB475"/>
<path d="M76.9976 100.811L82.8494 94.8924L83.7477 93.3678C83.7477 93.3678 83.7477 90.8056 83.6194 89.5245C83.4911 88.2434 77.4853 89.6398 77.4853 89.6398L76.5356 93.1757C76.9731 93.6559 77.3601 94.1796 77.6906 94.7386C77.6906 95.0461 76.9976 100.875 76.9976 100.875" fill="#111111"/>
<path d="M63.1633 91.5871L54.8091 125.383L82.0918 124.935L92.1399 110.727L98.5051 75.2529L89.4964 90.7928L63.1633 91.5871Z" fill="#F1F3F3"/>
<path d="M55.4252 127.612H69.9392C73.9045 127.612 77.9084 127.817 81.8609 127.51C82.1057 127.494 82.3424 127.416 82.5488 127.284C82.7553 127.152 82.9248 126.969 83.0415 126.754C83.6352 125.607 84.3586 124.533 85.1975 123.551C86.1856 122.27 87.1352 120.925 88.1362 119.631C89.1371 118.337 90.1381 117.261 91.1776 116.121C92.217 114.98 93.4105 113.725 94.5141 112.508C95.125 111.795 95.4537 110.884 95.4381 109.946C95.9514 104.667 97.209 99.466 97.9148 94.2006C98.7105 88.205 99.3521 82.1709 100.623 76.265C101.02 74.4458 97.5427 71.6658 96.5289 73.9077C95.4253 76.3675 94.6553 78.9297 93.3592 81.3254C91.4786 84.948 88.9015 88.1651 85.7749 90.7929L86.6604 90.4213C83.1699 90.5879 79.705 90.921 76.2016 90.921C72.2234 90.921 68.258 90.6263 64.3055 90.2676C63.6639 90.2676 62.8811 90.2676 62.5987 90.985C58.5602 101.286 55.1112 111.809 52.2683 122.501C51.6651 124.653 55.7332 127.1 56.5031 124.384C59.2637 114.011 62.6186 103.805 66.5513 93.8163L64.8445 94.5337C69.6654 95.0417 74.5109 95.2812 79.3585 95.2511C81.9251 95.2511 84.389 95.0205 86.8914 94.8412C87.5128 94.8711 88.1353 94.8107 88.7393 94.6618C89.2718 94.3485 89.7596 93.965 90.1894 93.5216C93.3482 90.6305 95.9075 87.1483 97.7223 83.2727C98.826 81.1204 99.4933 78.8272 100.481 76.6365L96.3877 74.3049C94.9761 80.9154 94.3345 87.6413 93.3977 94.3287C92.6919 99.3507 91.4856 104.283 91.0877 109.343L91.5112 108.472C89.8301 110.291 88.1105 112.111 86.4679 114.02C85.3386 115.301 84.3248 116.582 83.2982 118.017C81.6832 119.835 80.2718 121.824 79.089 123.948L80.2696 123.192C76.3171 123.5 72.3004 123.295 68.3479 123.295H53.898C52.6148 123.295 52.3966 124.691 52.7046 125.614C52.9103 126.193 53.286 126.697 53.7826 127.06C54.2793 127.424 54.874 127.629 55.4893 127.651" fill="#111111"/>
<path d="M85.2106 91.5871C82.5028 101.119 80.1801 110.804 77.6648 120.323C77.036 122.731 81.5147 124.845 82.1692 122.206C84.7357 112.636 87.0072 102.989 89.7149 93.4704C90.3822 91.0747 85.9549 88.9608 85.2106 91.5871Z" fill="#111111"/>
<path d="M56.0157 111.099C58.7697 112.314 61.6676 113.175 64.6394 113.661C65.0964 113.738 65.5661 113.663 65.9764 113.448C66.3867 113.232 66.715 112.889 66.9108 112.469C66.9834 112.268 67.015 112.055 67.0038 111.842C66.9926 111.629 66.9388 111.42 66.8455 111.228C66.7523 111.035 66.6214 110.864 66.4607 110.723C66.3 110.582 66.1127 110.474 65.9098 110.407L63.9464 109.741C63.47 109.553 62.9435 109.535 62.4552 109.689C61.9669 109.843 61.5465 110.16 61.2643 110.586C61.158 110.793 61.0976 111.02 61.0874 111.252C61.0771 111.485 61.1173 111.716 61.205 111.932C61.2927 112.147 61.426 112.341 61.5957 112.5C61.7654 112.659 61.9675 112.78 62.1883 112.854L64.1389 113.533L65.4222 110.279C64.7292 110.163 64.0362 110.035 63.3432 109.869L62.8813 109.766C62.7914 109.766 62.1369 109.587 62.6374 109.766C62.3294 109.689 62.0086 109.587 61.7006 109.484C60.388 109.083 59.1022 108.6 57.8508 108.037C57.3753 107.842 56.8464 107.82 56.3562 107.974C55.866 108.129 55.4458 108.45 55.1687 108.882C55.0621 109.088 55.0012 109.315 54.9901 109.546C54.979 109.778 55.0181 110.009 55.1045 110.224C55.191 110.439 55.3228 110.633 55.4911 110.793C55.6594 110.953 55.8602 111.074 56.0798 111.15" fill="#111111"/>
<path d="M58.4668 110.343C61.3007 110.301 64.1224 109.962 66.8852 109.331C67.0582 109.312 67.2241 109.252 67.3692 109.156C67.5143 109.06 67.6344 108.931 67.7193 108.78C67.7573 108.609 67.7513 108.431 67.7019 108.263C67.6526 108.095 67.5614 107.942 67.437 107.819C67.105 107.455 66.6907 107.176 66.2286 107.004C65.7666 106.832 65.2701 106.774 64.7806 106.832C63.5109 107.136 62.2258 107.371 60.9307 107.537C60.2891 107.614 59.6474 107.678 59.0058 107.729H58.5438C58.8903 107.729 58.4412 107.729 58.377 107.729H57.2862C56.8931 107.694 56.5005 107.803 56.1826 108.037C56.0742 108.157 56.0052 108.307 55.9845 108.467C55.9639 108.627 55.9927 108.79 56.0671 108.933C56.3377 109.33 56.7014 109.654 57.1265 109.877C57.5515 110.1 58.025 110.216 58.5053 110.215" fill="#111111"/>
<path d="M99.4805 92.8939L94.1934 92.9835C93.6673 92.993 93.1551 93.1531 92.7176 93.4447C92.5353 93.5545 92.3768 93.6994 92.2512 93.871C92.1257 94.0425 92.0355 94.2373 91.9861 94.444C91.8963 95.4049 92.8972 95.8148 93.7185 95.802L98.9929 95.7123C99.5219 95.6971 100.037 95.5376 100.481 95.2511C100.664 95.1413 100.822 94.9964 100.948 94.8249C101.073 94.6533 101.164 94.4585 101.213 94.2518C101.303 93.2782 100.302 92.881 99.4805 92.8939Z" fill="#111111"/>
<path d="M98.2357 93.97C96.9524 95.2511 95.6691 96.3785 94.3858 97.5187C94.2086 97.6849 94.069 97.887 93.9764 98.1115C93.8837 98.3359 93.8402 98.5775 93.8487 98.8201C93.8572 99.0628 93.9175 99.3008 94.0257 99.5182C94.1338 99.7356 94.2872 99.9275 94.4757 100.081C94.871 100.413 95.3709 100.594 95.8873 100.594C96.4037 100.594 96.9035 100.413 97.2989 100.081C98.5822 98.9279 99.8655 97.7365 101.085 96.5322C101.255 96.3659 101.39 96.1664 101.481 95.9461C101.571 95.7257 101.615 95.4892 101.611 95.2511C101.599 95.0061 101.536 94.7662 101.428 94.546C101.32 94.3257 101.168 94.1297 100.982 93.97C100.599 93.6255 100.104 93.4296 99.5886 93.4178C99.073 93.406 98.5702 93.5792 98.1715 93.9059" fill="#111111"/>
<path d="M25.0881 93.8547C20.6223 99.9272 17.8504 107.204 12.9482 112.995C12.0371 114.071 16.7981 114.468 17.0932 114.481C31.2094 115.403 45.0304 111.419 59.0568 110.535C59.7241 110.535 62.2265 110.074 60.6865 109.254C59.1466 108.434 56.4902 108.498 54.7449 108.6C47.751 109.049 40.8597 110.33 33.93 111.342C30.7218 111.803 27.5135 112.111 24.2796 112.303C22.9964 112.38 22.1879 112.431 20.8276 112.482H18.6075H18.184H17.1831L21.3152 113.968C26.2302 108.19 29.015 100.939 33.4552 94.8412C34.1995 93.8163 30.9527 93.56 30.4651 93.4319C29.3516 93.3166 28.2292 93.3166 27.1157 93.4319C26.5896 93.4319 25.4089 93.4319 25.0881 93.9444" fill="#111111"/>
<path d="M121.63 37.6136C118.853 37.0772 115.995 37.1252 113.238 37.7545C111.534 38.1155 109.857 38.5949 108.22 39.1894C107.527 39.4456 106.847 39.7275 106.167 40.0221C105.846 40.163 103.69 41.1239 105.397 40.3808C106.68 39.8171 105.294 39.9581 104.601 39.7275C103.908 39.4969 103.318 39.2278 102.663 38.9972C101.387 38.5744 100.031 38.4473 98.698 38.6257C96.0159 38.9332 93.0771 40.368 90.6774 38.4463C90.1384 38.0236 88.2648 38.7922 87.6873 38.9588C87.4563 39.0357 84.8513 40.1118 84.9026 40.163C86.8404 41.7132 89.3556 41.3673 91.6399 40.9189C93.1057 40.4727 94.6496 40.3417 96.1699 40.5346C97.4532 40.8164 98.5696 41.4698 99.8144 41.8157C102.612 42.5075 105.91 41.2392 108.464 40.2015C109.105 39.9324 109.747 39.6634 110.389 39.3431C111.03 39.0228 111.03 39.0613 110.389 39.2663C110.767 39.2039 111.148 39.1611 111.531 39.1381C113.054 39.0353 114.584 39.1518 116.074 39.484C117.326 39.4829 118.562 39.2028 119.693 38.6641C120.001 38.5616 121.913 37.7161 121.592 37.652" fill="#111111"/>
<path d="M114.444 45.7103C114.444 40.9317 114.739 36.1788 114.996 31.413C114.996 30.26 113.109 30.1319 112.429 30.26C109.439 31.003 106.013 32.6813 105.371 36.0122C105.191 36.9346 106 37.4342 106.834 37.5495C107.668 37.6649 109.093 37.4599 109.272 36.5503C109.696 34.3211 111.531 33.2194 113.597 32.7069L111.03 31.5539C110.774 36.3197 110.491 41.0854 110.491 45.8512C110.491 47.5935 114.495 47.4654 114.495 45.6975" fill="#111111"/>
<path d="M114.085 33.1809L114.649 32.8863L114.944 32.7582L115.098 32.6941L114.906 32.771C115.119 32.7231 115.329 32.6632 115.535 32.5916C115.676 32.5916 116.074 32.5916 115.535 32.5916H115.83H116.125C116.587 32.5916 115.74 32.5916 116.048 32.5916H116.394C116.741 32.5916 115.817 32.4891 116.24 32.5916L116.523 32.6557C116.856 32.7325 115.958 32.4635 116.42 32.6557L116.574 32.7197C116.754 32.7966 116.69 32.7197 116.369 32.6172L116.677 32.7838C117.137 33.0304 117.644 33.1787 118.165 33.2194C118.602 33.2782 119.045 33.2161 119.449 33.04C119.692 32.8991 119.923 32.6685 119.808 32.3482C119.653 32.0076 119.379 31.7346 119.038 31.5795C117.803 30.8895 116.411 30.5271 114.996 30.5271C113.58 30.5271 112.188 30.8895 110.953 31.5795C110.697 31.7461 110.504 31.9511 110.581 32.2713C110.737 32.619 111.016 32.8972 111.364 33.0528C111.82 33.2994 112.323 33.4478 112.84 33.4884C113.276 33.5631 113.724 33.5004 114.123 33.309" fill="#111111"/>
<path d="M113.802 30.0294C113.362 29.4303 112.868 28.8728 112.326 28.364C111.815 27.855 111.19 27.4732 110.504 27.2494C109.221 27.0625 107.911 27.2633 106.744 27.8259C105.545 28.1877 104.441 28.8088 103.51 29.6451C103.343 29.8116 103.754 29.7476 103.767 29.7476C104.165 29.6844 104.557 29.5814 104.934 29.4401C105.424 29.2789 105.903 29.0907 106.372 28.8764C106.664 28.7663 106.937 28.6107 107.18 28.4152C107.325 28.2594 107.484 28.1179 107.655 27.9924L107.809 27.8899C107.681 27.9668 107.668 27.9796 107.809 27.8899C107.189 28.1931 106.54 28.4335 105.871 28.6074C106.362 28.559 106.857 28.6203 107.321 28.7867H107.232C108.417 29.3921 109.418 30.3034 110.132 31.4258C110.209 31.5283 110.709 31.4258 110.748 31.4258C111.184 31.3132 111.613 31.172 112.031 31.0031C112.172 31.0031 113.943 30.2216 113.828 30.0678" fill="#111111"/>
<path d="M114.213 32.0279C115.277 30.6067 116.58 29.38 118.063 28.4024L117.922 28.492C118.073 28.3907 118.237 28.309 118.409 28.2486H118.653H118.563C119.256 28.3255 118.717 28.0565 116.972 27.4287C116.741 27.2365 116.523 27.0316 116.305 26.8266C116.382 26.9291 116.305 26.8266 116.305 26.7241C116.305 26.6216 116.176 26.5063 116.215 26.6216C116.335 26.9354 116.539 27.2102 116.805 27.4159C117.194 27.7628 117.625 28.0597 118.088 28.2999C118.255 28.3767 119.808 29.0813 119.654 28.4536C119.5 27.8259 118.64 27.0956 118.011 26.6985C117.348 26.1904 116.537 25.9116 115.702 25.9042C115.014 26.0641 114.383 26.4098 113.879 26.9034C112.741 27.7691 111.726 28.7864 110.864 29.9269C110.722 30.1062 111.056 30.4906 111.133 30.5803C111.452 30.9385 111.824 31.2454 112.237 31.4898C112.628 31.7661 113.061 31.9781 113.52 32.1176C113.712 32.1176 114.072 32.2841 114.239 32.1176" fill="#111111"/>
<path d="M45.6211 160.498C43.9804 159.569 42.1303 159.071 40.2441 159.051C39.742 159.003 39.2356 159.065 38.7594 159.23C38.2832 159.396 37.8485 159.663 37.485 160.012C37.1472 160.591 36.9867 161.256 37.0231 161.926C37.0596 162.595 37.2916 163.239 37.6903 163.778C38.4181 164.977 39.2791 166.09 40.2569 167.096C41.9765 169.072 43.8943 170.866 45.9804 172.451C48.0699 174.049 50.5527 175.054 53.1668 175.359C54.6488 175.488 56.1415 175.321 57.5582 174.867C58.9748 174.414 60.287 173.685 61.4183 172.72C61.5422 172.641 61.649 172.538 61.7327 172.417C61.8164 172.296 61.8753 172.159 61.906 172.016C61.899 171.666 61.8204 171.322 61.675 171.004C61.213 170.171 61.0077 169.825 60.5457 168.979C60.0964 168.244 59.5946 167.542 59.0443 166.878C58.616 166.309 58.1486 165.769 57.6455 165.264L55.3356 163.086C54.2397 161.945 52.9322 161.027 51.4857 160.383C49.9201 159.743 47.6358 159.422 46.3525 160.511C45.744 161.077 45.2515 161.756 44.9024 162.51C43.8739 164.452 43.0152 166.48 42.3358 168.57" fill="white"/>
<path d="M47.3665 160.319C44.6252 158.823 41.4886 158.205 38.3835 158.551C37.7947 158.558 37.2149 158.696 36.6865 158.956C36.1581 159.215 35.6944 159.589 35.3292 160.05C35.0734 160.597 34.9593 161.199 34.9974 161.801C35.0355 162.403 35.2247 162.986 35.5474 163.496C36.8307 166.059 39.3203 168.326 41.3864 170.261C43.4382 172.282 45.8724 173.876 48.5471 174.95C51.3385 175.98 54.3515 176.263 57.2863 175.769C58.6285 175.545 59.9273 175.112 61.1362 174.488C61.9575 174.066 63.8439 173.207 63.9851 172.105C64.1262 171.004 63.1894 170.043 62.7788 169.3C62.0666 168.047 61.2048 166.886 60.2122 165.841C58.3698 163.647 56.1543 161.795 53.6674 160.37C51.242 159.205 47.4435 158.474 44.9924 159.935C43.8091 160.875 42.9188 162.133 42.4258 163.56C41.6584 165.146 40.9982 166.781 40.4496 168.454C40.2699 168.98 44.1198 169.735 44.4663 168.685C45.1528 166.627 46.0113 164.63 47.0328 162.715C47.4057 161.844 48.0035 161.088 48.7653 160.524C48.7653 160.524 49.3171 160.396 49.0348 160.409C48.7524 160.422 49.0348 160.409 49.1503 160.409C49.5976 160.52 50.0289 160.688 50.4336 160.908C52.2363 162.029 53.8697 163.401 55.2844 164.982C56.7087 166.305 57.9206 167.839 58.8776 169.53C59.2241 170.133 59.9427 171.004 59.8657 171.747C59.7887 172.49 58.4028 173.258 57.774 173.604C56.2663 174.529 54.483 174.901 52.7306 174.655C48.5471 173.809 45.2491 170.325 42.4643 167.34C41.0655 165.828 39.038 163.958 38.9353 161.754C38.7813 158.628 42.182 159.768 43.799 160.652C44.653 161.044 45.6045 161.173 46.5324 161.024C46.8532 161.024 48.0723 160.703 47.2895 160.281" fill="#111111"/>
<path d="M62.5734 168.851C64.4363 168.721 66.2655 168.288 67.9889 167.57C68.837 167.23 69.5877 166.686 70.1743 165.987C70.7609 165.287 71.1652 164.454 71.3511 163.56C71.3392 162.792 71.1473 162.038 70.7908 161.357C70.4342 160.676 69.9229 160.088 69.2978 159.64C68.0852 158.596 66.7986 157.642 65.448 156.783C64.5484 156.124 63.553 155.605 62.4964 155.246C60.4138 154.758 58.2224 155.113 56.4008 156.232C54.5776 157.33 53.0976 158.914 52.1274 160.806" fill="white"/>
<path d="M63.6767 170.453C66.3973 170.12 69.3873 169.671 71.3764 167.609C73.3655 165.546 73.1089 163.048 71.5689 160.857C69.6913 158.54 67.3815 156.608 64.7675 155.169C63.6713 154.374 62.4051 153.845 61.0689 153.623C59.7326 153.4 58.3628 153.491 57.0678 153.888C54.2668 154.875 51.9638 156.916 50.6513 159.576C50.0867 160.627 52.9099 163.419 53.59 162.138C54.7991 159.74 56.892 157.904 59.429 157.014C60.6692 156.583 62.0104 156.534 63.2789 156.873C64.599 157.42 65.8313 158.158 66.9362 159.064C67.92 159.629 68.7902 160.372 69.5028 161.254C69.7275 161.711 69.8109 162.224 69.7423 162.729C69.6738 163.233 69.4564 163.705 69.1178 164.086C67.3597 166.507 64.1515 166.93 61.4181 167.263C60.5711 167.378 61.2898 168.723 61.5208 169.056C61.9442 169.671 62.804 170.581 63.6382 170.466" fill="#111111"/>
<path d="M43.542 158.128C43.4395 158.121 43.3365 158.121 43.234 158.128L44.2735 159.281L44.389 159.576C44.389 159.576 44.389 159.307 44.389 159.281C44.495 158.829 44.7476 158.423 45.1076 158.128C45.9963 157.437 47.0999 157.079 48.226 157.116C50.6624 157.064 53.0908 157.414 55.4124 158.154C56.2722 158.385 56.0156 157.308 55.7974 156.873C55.3933 156.072 54.7214 155.438 53.8981 155.079C52.27 154.602 50.6043 154.264 48.919 154.067C47.2647 153.801 45.5715 153.91 43.9655 154.388C43.263 154.57 42.6432 154.985 42.2073 155.564C41.7715 156.143 41.5453 156.853 41.5657 157.578C41.7954 158.671 42.3821 159.658 43.234 160.383C43.5402 160.728 43.9255 160.993 44.3569 161.155C44.7883 161.318 45.2529 161.374 45.7107 161.318C46.8785 161.024 44.6585 157.808 43.542 158.077" fill="#111111"/>
</g>
<defs>
<clipPath id="clip0">
<rect width="133" height="176" fill="white"/>
</clipPath>
</defs>
</svg>
