<svg width="100%" height="100" viewBox="0 0 105 100" fill="none" preserveAspectRatio="none" xmlns="http://www.w3.org/2000/svg">
<path d="M1.1581 88.6017C1.16325 82.3621 1.12757 73.3262 1.08882 63.5108C1.05909 55.9787 1.02754 47.9876 1.01123 40.4487C0.992448 31.7635 0.993884 23.6771 1.04152 17.5752C1.06534 14.5235 1.10068 11.9731 1.15064 10.0942C1.17564 9.15402 1.20415 8.38826 1.23628 7.81462C1.27021 7.20878 1.30492 6.89426 1.32581 6.79976L1.32604 6.79871C1.68693 5.15697 2.3042 4.17633 2.98976 3.57417C3.67789 2.96977 4.52842 2.66445 5.50326 2.54356C6.49048 2.42114 7.55027 2.4941 8.61331 2.60723C8.82276 2.62952 9.0366 2.65407 9.25174 2.67876C10.0684 2.77249 10.9038 2.86838 11.5897 2.85146C11.5899 2.85145 11.59 2.85145 11.5901 2.85145L87.6947 1H87.6984H87.7143H87.7305H87.7467H87.7632H87.7798H87.7965H87.8135H87.8306H87.8478H87.8652H87.8828H87.9005H87.9183H87.9363H87.9545H87.9728H87.9913H88.01H88.0287H88.0477H88.0668H88.086H88.1054H88.1249H88.1446H88.1644H88.1844H88.2046H88.2248H88.2452H88.2658H88.2865H88.3074H88.3283H88.3495H88.3707H88.3922H88.4137H88.4354H88.4572H88.4792H88.5013H88.5236H88.546H88.5685H88.5911H88.6139H88.6368H88.6599H88.6831H88.7064H88.7299H88.7534H88.7772H88.801H88.825H88.8491H88.8733H88.8977H88.9222H88.9468H88.9715H88.9964H89.0214H89.0465H89.0717H89.0971H89.1226H89.1482H89.1739H89.1997H89.2257H89.2518H89.278H89.3043H89.3307H89.3573H89.384H89.4108H89.4376H89.4647H89.4918H89.519H89.5464H89.5738H89.6014H89.6291H89.6569H89.6848H89.7128H89.7409H89.7692H89.7975H89.826H89.8545H89.8831H89.9119H89.9408H89.9697H89.9988H90.028H90.0572H90.0866H90.1161H90.1457H90.1753H90.2051H90.235H90.2649H90.295H90.3251H90.3554H90.3857H90.4162H90.4467H90.4774H90.5081H90.5389H90.5698H90.6008H90.6319H90.663H90.6943H90.7257H90.7571H90.7886H90.8202H90.8519H90.8837H90.9156H90.9475H90.9796H91.0117H91.0439H91.0761H91.1085H91.141H91.1735H91.2061H91.2387H91.2715H91.3043H91.3372H91.3702H91.4033H91.4364H91.4696H91.5029H91.5363H91.5697H91.6032H91.6368H91.6704H91.7041H91.7379H91.7718H91.8057H91.8397H91.8737H91.9078H91.942H91.9763H92.0106H92.045H92.0794H92.1139H92.1485H92.1831H92.2178H92.2525H92.2873H92.3222H92.3571H92.3921H92.4272H92.4623H92.4974H92.5326H92.5679H92.6032H92.6386H92.674H92.7095H92.745H92.7806H92.8162H92.8519H92.8876H92.9234H92.9592H92.9951H93.031H93.067H93.103H93.1391H93.1752H93.2113H93.2475H93.2837H93.32H93.3563H93.3927H93.4291H93.4655H93.502H93.5385H93.575H93.6116H93.6482H93.6849H93.7216H93.7583H93.7951H93.8319H93.8687H93.9056H93.9425H93.9794H94.0164H94.0534H94.0904H94.1274H94.1645H94.2016H94.2387H94.2759H94.313H94.3503H94.3875H94.4247H94.462H94.4993H94.5366H94.574H94.6113H94.6487H94.6861H94.7235H94.761H94.7984H94.8359H94.8734H94.9109H94.9484H94.986H95.0235H95.0611H95.0987H95.1363H95.1739H95.2115H95.2491H95.2867H95.3244H95.362H95.3997H95.4374H95.475H95.5127H95.5504H95.5881H95.6258H95.6635H95.7012H95.7389H95.7766H95.8143H95.852H95.8897H95.9274H95.9651H96.0028H96.0406H96.0782H96.116H96.1536H96.1913H96.229H96.2667H96.3044H96.342H96.3797H96.4173H96.455H96.4926H96.5302H96.5678H96.6054H96.643H96.6806H96.7182H96.7557H96.7932H96.8307H96.8682H96.9057H96.9432H96.9807H97.0181H97.0555H97.0929H97.1303H97.1676H97.205H97.2423H97.2796H97.3168H97.3541H97.3913H97.4285H97.4657H97.5028H97.5399H97.577H97.6141H97.6511H97.6881H97.7251H97.762H97.799H97.8358H97.8727H97.9095H97.9463H97.9831H98.0198H98.0564H98.0931H98.1297H98.1663H98.2028H98.2393H98.2758H98.3122H98.3486H98.3849H98.4212H98.4575H98.4937H98.5299H98.566H98.6021H98.6381H98.6741H98.7101H98.746H98.7818H98.8176H98.8534H98.8891H98.9248H98.9604H98.9959H99.0315H99.0669H99.1023H99.1377H99.173H99.2082H99.2434H99.2785H99.3136H99.3486H99.3836H99.4185H99.4533H99.4881H99.5229H99.5575H99.5921H99.6267H99.6612H99.6956H99.7299H99.7642H99.7984H99.8326H99.8667H99.9007H99.9347H99.9686H100.002H100.036H100.07H100.103H100.137H100.17H100.204H100.237H100.27H100.304H100.337H100.37H100.403H100.436H100.468H100.501H100.534H100.566H100.599H100.631H100.664H100.696H100.728H100.76H100.792H100.824H100.856H100.888H100.919H100.951H100.982H101.014H101.045H101.076H101.107H101.139H101.17H101.2H101.231H101.262H101.292H101.323H101.353H101.384H101.414H101.444H101.474H101.504H101.534H101.564H101.593H101.623H101.652H101.681H101.711H101.74H101.769H101.798H101.827H101.855H101.884H101.912H101.941H101.969H101.997H102.025H102.053H102.081H102.109H102.137H102.164H102.192H102.219H102.246H102.273H102.3H102.327H102.354H102.38H102.407H102.433H102.46H102.486H102.512H102.538H102.564H102.589H102.615H102.64H102.666H102.691H102.716H102.741H102.766H102.79H102.815H102.839H102.864H102.888H102.912H102.936H102.96H102.983H103.007H103.03H103.053H103.077H103.093C103.2 1.32787 103.312 1.84079 103.411 2.52967C103.615 3.94647 103.746 5.94115 103.746 8.17858V8.17993C103.75 11.126 103.786 15.7119 103.83 21.2798C103.911 31.6923 104.02 45.5392 103.997 58.5181C103.979 68.4693 103.883 77.8821 103.638 84.8029C103.516 88.2671 103.356 91.0863 103.153 93.0307C103.051 94.0097 102.942 94.7287 102.83 95.1871C102.826 95.2024 102.823 95.2172 102.819 95.2315C97.8777 95.31 90.7719 96.3804 86.7769 96.9822C86.4287 97.0346 86.1041 97.0835 85.8067 97.1279C63.4588 100.399 43.4726 98.7532 21.6339 96.9545C16.9976 96.5726 12.2779 96.1839 7.43432 95.8339L7.43404 95.8339C7.01266 95.8036 6.58008 95.8646 6.20642 95.9327C6.01387 95.9679 5.81729 96.0089 5.63016 96.048L5.61134 96.052C5.42697 96.0906 5.24986 96.1276 5.07151 96.1613C4.30794 96.3052 3.71485 96.3419 3.23297 96.1655C2.8184 96.0137 2.31292 95.6365 1.89327 94.5194C1.46099 93.3686 1.15812 91.5201 1.1581 88.6017ZM1.1581 88.6017C1.1581 88.6018 1.15809 88.602 1.15809 88.6021L0.158095 88.6013H1.1581C1.1581 88.6014 1.1581 88.6015 1.1581 88.6017Z" stroke="#111111" stroke-width="2"/>
</svg>
