<svg width="100%" height="128" viewBox="0 0 175 128" fill="none" xmlns="http://www.w3.org/2000/svg">
<path d="M83.7094 79.9871C100.897 79.9458 117.942 76.8634 134.053 70.883C141.524 68.064 148.721 64.5701 155.556 60.4448C161.647 56.7651 168.663 52.6308 172.596 46.5174C176.104 41.0784 175.899 34.6718 171.129 30.0391C166.021 25.0546 158.168 23.4859 151.314 23.0461C134.438 22.1175 117.824 27.5185 104.728 38.1903C90.8134 49.4055 81.5959 65.1508 73.4792 80.7935L88.553 80.4563C91.4885 63.2596 84.3406 46.5907 74.9617 32.5461C66.023 19.2344 54.4425 4.47139 37.8569 1.12881C28.8009 -0.703738 17.9542 -0.557134 9.45592 3.45982C6.19404 4.88285 3.36807 7.14403 1.26587 10.013C0.633328 10.7605 0.218129 11.6669 0.0654448 12.6336C-0.0872397 13.6003 0.0284388 14.5904 0.399894 15.496C1.18483 17.1366 2.13392 18.6936 3.23265 20.1434C11.3934 31.9743 23.4583 40.0375 36.0075 46.752C50.3328 54.4634 65.5534 60.4888 79.3209 69.2264C81.8161 70.8244 85.7937 70.5752 88.6117 70.2819C90.1509 70.2341 91.6702 69.9217 93.1031 69.3583C93.514 69.1678 94.6736 68.4934 93.8223 67.8923C82.0802 60.4741 69.3989 54.9032 57.0257 48.7458C45.2837 42.8816 33.6151 36.3724 24.4123 26.9018C22.0842 24.5229 19.9538 21.9586 18.0423 19.2344C17.0384 17.9506 16.1726 16.5649 15.459 15.1002C15.0679 14.2043 14.9567 13.2114 15.1401 12.2514C15.3234 11.2913 15.7927 10.409 16.4864 9.71981C18.3782 7.37908 20.8392 5.56197 23.6344 4.44206C23.9426 4.32478 24.2509 4.19284 24.5591 4.09021C23.8986 4.31012 24.8967 4.00225 25.0581 3.95827L26.2764 3.66506C26.0415 3.66506 25.1315 3.82633 26.2764 3.66506C27.9349 3.44516 25.1755 3.66506 26.2764 3.66506C26.7754 3.66506 28.0523 3.56244 26.0562 3.66506C26.5993 3.66506 27.2157 3.88497 25.5865 3.66506C26.0122 3.66506 27.5093 3.53312 25.8213 3.66506C26.2504 3.6777 26.6776 3.72674 27.0983 3.81167C28.067 3.91429 25.748 3.48914 27.3331 3.81167C27.9936 3.97293 28.6688 4.09021 29.3146 4.29546C28.6835 4.10488 29.6962 4.4274 29.8283 4.47139L31.0172 4.9112C31.9468 5.28259 32.8568 5.69309 33.7472 6.14267C37.1208 7.89363 40.2412 10.0932 43.0234 12.6812C48.759 18.0937 53.8738 24.1269 58.2733 30.6695C68.5476 45.11 76.6496 62.6879 73.4792 80.7935C73.1123 82.9192 87.1587 83.1391 88.553 80.4563C95.2313 67.5991 102.717 54.8739 112.991 44.5236C117.71 39.6729 123.115 35.5387 129.034 32.2529C131.817 30.7224 134.723 29.4277 137.723 28.3825C139.19 27.8694 140.761 27.4736 142.302 27.1071C143.462 26.8432 142.772 27.0191 142.522 27.1071L143.682 26.9018L144.856 26.7112C146.793 26.418 143.476 26.7992 145.428 26.7112C145.82 26.6398 146.219 26.6103 146.617 26.6233C146.412 26.6233 144.929 26.7405 146.397 26.6233C147.234 26.6233 147.219 27.0044 145.942 26.6233C146.192 26.7112 146.676 26.5206 146.881 26.6233C146.441 26.33 145.634 26.4767 146.529 26.6233L147.483 26.7552C146.28 26.6086 147.131 26.6819 147.395 26.7552L148.863 27.0777C148.951 27.0777 149.729 27.3416 149.098 27.0777L150.022 27.3856C150.624 27.6055 151.226 27.8401 151.813 28.104C152.979 28.6173 154.082 29.2616 155.101 30.0245C157.268 31.5403 158.843 33.759 159.557 36.3034C160.272 38.8478 160.082 41.5608 159.02 43.9812C156.539 49.8453 150.316 53.745 145.252 57.0876C139.328 60.9622 133.076 64.3127 126.568 67.1006C119.397 70.1733 111.945 72.5447 104.317 74.1816C103.289 74.4162 105.007 74.0497 103.979 74.1816L102.423 74.4895L99.3117 75.0319C98.2842 75.1932 97.2421 75.3545 96.2 75.4864L94.9377 75.6623C95.9358 75.5304 95.0552 75.6623 94.5415 75.6623C92.5747 75.8676 90.5492 76.1461 88.5677 76.1608C90.1529 76.1608 89.0227 76.1608 88.6705 76.1608H86.7917C85.735 76.1608 84.6782 76.1608 83.6214 76.1608C82.3738 76.1608 76.2826 76.1608 76.1359 78.1253C75.9891 80.0898 83.093 79.7672 83.7094 79.7672" fill="#FFD100"></path>
<path d="M82.1687 68.6839C61.1466 81.2283 43.2224 98.34 29.726 118.749C27.9353 121.491 32.5 120.45 33.6302 120.01C36.6538 118.823 40.2351 116.843 42.0845 114.043C47.8005 105.273 54.4758 97.1643 61.9872 89.8682C62.2954 89.575 62.2807 89.575 61.9872 89.8682L62.8678 89.0326L64.2181 87.7864C65.1869 86.9068 66.1849 86.0272 67.1536 85.1622C68.1224 84.2972 69.1645 83.4469 70.1772 82.6113L71.645 81.4531L72.599 80.6908C72.0559 81.1306 71.9826 81.1892 72.3788 80.8814C74.4484 79.298 76.5619 77.7001 78.7489 76.234L80.5102 75.0319C81.8752 74.1083 79.3507 75.7502 80.8771 74.7973C82.0807 74.035 83.2842 73.3313 84.5025 72.5543C85.7207 71.7773 90.8725 68.8159 89.8304 66.6901C88.7883 64.5643 82.9907 68.1561 82.1981 68.6106" fill="#FFD100"></path>
<path d="M83.3431 67.4378C82.2904 78.8678 84.9678 90.3311 90.9754 100.116C97.8444 111.891 108.062 121.362 120.33 127.326C120.815 127.531 122.341 128.396 122.958 127.765C123.574 127.135 122.664 125.596 122.4 125.156C120.555 122.061 117.902 119.527 114.724 117.826C113.593 117.313 112.478 116.77 111.392 116.169C111.23 116.081 109.675 115.143 110.232 115.509C110.79 115.876 109.278 114.864 109.131 114.762C108.66 114.514 108.222 114.208 107.825 113.853C108.574 114.41 108.632 114.468 108.016 113.985L107.194 113.325C106.756 113.023 106.348 112.679 105.976 112.299C107.209 113.838 106.313 112.592 105.976 112.196C105.638 111.8 104.347 110.056 105.506 111.771C105.172 111.359 104.815 110.968 104.435 110.598C104.303 110.451 102.967 108.853 103.642 109.674L102.908 108.707C102.585 108.282 102.292 107.842 101.984 107.417C101.675 106.992 101.573 106.845 101.984 107.417L101.411 106.522C100.795 105.54 100.222 104.558 99.6792 103.59C97.669 99.6791 96.1883 95.5182 95.2759 91.217C94.3405 86.4521 94.1425 81.5721 94.6888 76.7472C94.8062 75.7356 93.5586 74.1083 93.0596 73.434C91.8951 71.8775 90.539 70.4738 89.0233 69.2557C88.3041 68.684 83.6953 65.1068 83.4165 67.4965" fill="#FFD100"></path>
</svg>