<svg width="119" height="34" viewBox="0 0 119 34" fill="none" xmlns="http://www.w3.org/2000/svg" preserveAspectRatio="none">
  <g>
    <path class="fade-in-1" transform="scale(1)" d="M109.717 7.67959L94.8311 26.8186C94.4681 27.2996 95.3671 28.3648 95.661 28.6912C96.5357 29.5725 97.5599 30.2937 98.6866 30.8216C100.087 31.4916 102.974 32.7973 104.029 31.4401L118.915 12.2839C119.295 11.8029 118.396 10.7377 118.085 10.4285C117.21 9.54716 116.186 8.826 115.059 8.29809C113.659 7.61087 110.789 6.32234 109.717 7.67959Z" fill="#FFD100"></path>
    <path class="fade-in-2" transform="scale(1)" d="M21.2139 29.5673C18.5577 22.9723 15.0723 16.7378 10.8405 11.0125C10.5205 10.7063 10.1404 10.469 9.72392 10.3153C9.30748 10.1616 8.86362 10.0948 8.42005 10.1191C6.99515 10.0751 5.57495 10.3025 4.23612 10.7892C3.45811 11.0297 -1.01973 12.9195 0.207787 14.5517C4.44283 20.2748 7.92856 26.5097 10.5812 33.1065C10.8924 33.8624 12.4484 33.9655 13.0016 33.9999C14.4612 34.0573 15.9179 33.8297 17.2893 33.3298C18.2921 32.9691 22.0783 31.6118 21.2485 29.5673" fill="#FFD100"></path>
    <path class="fade-in-3" transform="scale(1)" d="M63.3129 22.094C63.5376 15.9777 63.7797 9.86152 64.0044 3.7453C64.1164 3.18926 64.095 2.61481 63.9418 2.06855C63.7886 1.5223 63.508 1.01962 63.1227 0.601291C62.649 0.27345 62.1002 0.0686812 61.5264 0.00566156C60.9526 -0.0573581 60.3721 0.023377 59.8378 0.240503C58.3751 0.762034 57.0838 1.671 56.1034 2.8691C55.0306 4.00571 54.326 5.43614 54.0806 6.97522C53.8558 13.0914 53.6137 19.2077 53.389 25.3239C53.277 25.8799 53.2984 26.4544 53.4516 27.0006C53.6048 27.5469 53.8855 28.0496 54.2707 28.4679C54.7425 28.7928 55.2882 28.9959 55.8586 29.0589C56.4291 29.1219 57.0063 29.0428 57.5383 28.8287C59.0085 28.3123 60.3068 27.4027 61.2901 26.2001C62.3628 25.0635 63.0675 23.633 63.3129 22.094Z" fill="#FFD100"></path>
  </g>
  <defs>
    <clipPath>
      <rect width="119" height="34" fill="white"></rect>
    </clipPath>
  </defs>
</svg>