<svg width="284" height="15" viewBox="0 0 284 15" fill="none" xmlns="http://www.w3.org/2000/svg">
<path d="M3.45497 12.0375C8.20197 7.55174 14.9796 9.52317 20.3859 11.4375C25.7922 13.3517 31.093 14.7517 36.7103 13.3232C42.3276 11.8946 47.4702 8.0946 53.4039 8.58031C58.6784 8.92317 63.7418 11.4375 68.8844 13.0375C73.2735 14.544 77.9969 14.4537 82.3342 12.7803C84.9714 11.6375 87.1867 9.92317 89.7448 8.6946C92.7718 7.38928 96.1168 7.22821 99.2388 8.23746C104.25 9.58031 108.891 12.1803 114.034 13.066C119.176 13.9517 124.424 12.1232 129.567 10.2089C132.253 9.14125 135.092 8.59012 137.953 8.58031C140.933 8.86119 143.863 9.59207 146.656 10.7517C151.129 12.8437 156.036 13.6032 160.871 12.9517C166.936 11.5803 171.815 8.00888 178.303 8.18031C183.181 8.79052 187.962 10.107 192.517 12.0946C194.874 12.7275 197.289 13.0631 199.717 13.0946C204.583 13.2979 209.45 12.7398 214.169 11.4375C219.971 9.86603 225.034 6.23746 230.81 4.75174C240.145 2.4946 246.844 8.58031 255.283 11.1803C260.448 12.6181 265.822 12.9577 271.106 12.1803C275.3 11.666 279.967 10.7232 282.657 6.92317C284.213 4.72317 280.785 2.60888 279.255 4.75174C276.618 8.46603 269.155 8.20888 265.384 8.18031C261.071 8.30719 256.78 7.47079 252.778 5.72317C245.921 2.43746 239.697 -0.991117 232.076 0.266026C226.3 1.23745 221.527 4.66603 216.015 6.55174C210.904 8.3061 205.547 9.07018 200.192 8.80888C192.807 8.4946 186.504 4.38031 179.094 3.95174C172.422 3.55174 167.226 6.46603 161.082 8.46603C156.176 10.066 151.324 7.92317 146.682 6.2946C141.873 4.33216 136.639 3.93493 131.624 5.15174C126.033 6.66603 120.758 9.72317 114.825 8.78031C109.55 7.92317 104.592 4.95174 99.3179 3.75174C94.6317 2.64173 89.7319 3.46704 85.578 6.06603C83.129 7.82757 80.3887 9.05969 77.5081 9.6946C74.7772 9.88311 72.0382 9.50491 69.4382 8.58031C63.9528 6.95174 58.6784 4.32317 52.9028 4.0946C46.5208 3.83746 41.1936 7.75174 35.128 9.0946C23.5242 11.666 11.393 -1.13397 0.633149 8.92317C-1.26565 10.7517 1.5298 13.7517 3.45497 11.9517" fill="#FFD100"></path>
</svg>